<svg width="64" height="64" viewBox="0 0 64 64" fill="none" xmlns="http://www.w3.org/2000/svg">
<path d="M58.8993 36.3346V30.1478L51.6701 29.1279C51.2666 27.5252 50.6278 26.0009 49.7984 24.6223L54.1919 18.7829L49.8208 14.4118L43.9814 18.8053C42.6029 17.976 41.0786 17.3371 39.4758 16.9336L38.4559 9.70447H32.2691L31.2492 16.9336C29.6352 17.3483 28.1109 17.9872 26.7212 18.8166L20.9042 14.4118L16.5331 18.7829L20.9378 24.5999C20.1084 25.9897 19.4584 27.5252 19.0549 29.1503L11.8257 30.1478V36.3346L19.0549 37.3321C19.4584 38.9573 20.1084 40.4928 20.9378 41.8826L16.5331 47.6995L20.9042 52.0706L26.7212 47.6659C28.1109 48.4953 29.6464 49.1453 31.2716 49.5488L32.2691 56.778H38.4559L39.4534 49.5488C41.0674 49.1453 42.5916 48.5065 43.9814 47.6771L49.8208 52.0706L54.1919 47.6995L49.7984 41.8602C50.6278 40.4816 51.2666 38.9573 51.6701 37.3546L58.8993 36.3346ZM45.9877 36.8054C45.8195 37.2985 45.629 37.7805 45.3936 38.24C44.2953 40.4367 42.502 42.2188 40.3052 43.2948C39.8681 43.5189 39.4086 43.7095 38.9266 43.8664C37.8058 44.2475 36.6066 44.4492 35.3625 44.4492C34.096 44.4492 32.8855 44.2363 31.7535 43.844C31.294 43.6983 30.8457 43.5077 30.4198 43.2948C28.2006 42.2076 26.3961 40.4031 25.3089 38.1839C25.096 37.758 24.9055 37.3097 24.7598 36.8502C24.3675 35.7182 24.1545 34.5077 24.1545 33.2412C24.1545 31.9747 24.3675 30.7643 24.7598 29.6323C24.9055 29.1727 25.096 28.7244 25.3089 28.2985C26.3849 26.1017 28.167 24.3085 30.3637 23.2101C30.8121 22.9859 31.2716 22.7954 31.7535 22.6385C32.8855 22.2462 34.096 22.0332 35.3625 22.0332C36.6066 22.0332 37.8058 22.235 38.9266 22.6161C39.4198 22.7842 39.9017 22.9747 40.3613 23.2101C42.5356 24.2973 44.3065 26.0681 45.3936 28.2425C45.629 28.702 45.8195 29.1839 45.9877 29.6771C46.3687 30.7979 46.5705 31.9971 46.5705 33.2412C46.5705 34.4853 46.3687 35.6846 45.9877 36.8054Z" fill="#EBF5FF"/>
<path d="M10.3464 11.2288C11.3863 11.2288 12.2293 10.3858 12.2293 9.34583C12.2293 8.30591 11.3863 7.46289 10.3464 7.46289C9.30646 7.46289 8.46344 8.30591 8.46344 9.34583C8.46344 10.3858 9.30646 11.2288 10.3464 11.2288Z" stroke="#FA7832" stroke-miterlimit="10" stroke-linecap="round" stroke-linejoin="round"/>
<path d="M10.3464 54.5366C11.3863 54.5366 12.2293 53.6936 12.2293 52.6537C12.2293 51.6138 11.3863 50.7708 10.3464 50.7708C9.30646 50.7708 8.46344 51.6138 8.46344 52.6537C8.46344 53.6936 9.30646 54.5366 10.3464 54.5366Z" stroke="#FA7832" stroke-miterlimit="10" stroke-linecap="round" stroke-linejoin="round"/>
<path d="M53.6539 11.2288C54.6938 11.2288 55.5368 10.3858 55.5368 9.34583C55.5368 8.30591 54.6938 7.46289 53.6539 7.46289C52.614 7.46289 51.771 8.30591 51.771 9.34583C51.771 10.3858 52.614 11.2288 53.6539 11.2288Z" stroke="#FA7832" stroke-miterlimit="10" stroke-linecap="round" stroke-linejoin="round"/>
<path d="M53.6539 54.5366C54.6938 54.5366 55.5368 53.6936 55.5368 52.6537C55.5368 51.6138 54.6938 50.7708 53.6539 50.7708C52.614 50.7708 51.771 51.6138 51.771 52.6537C51.771 53.6936 52.614 54.5366 53.6539 54.5366Z" stroke="#FA7832" stroke-miterlimit="10" stroke-linecap="round" stroke-linejoin="round"/>
<path d="M46.0845 45.0846L52.2794 51.2795" stroke="#FA7832" stroke-miterlimit="10" stroke-linecap="round" stroke-linejoin="round"/>
<path d="M18.0192 44.9808L11.7208 51.2793" stroke="#FA7832" stroke-miterlimit="10" stroke-linecap="round" stroke-linejoin="round"/>
<path d="M11.7208 10.7209L17.9533 16.9535" stroke="#FA7832" stroke-miterlimit="10" stroke-linecap="round" stroke-linejoin="round"/>
<path d="M52.2793 10.7209L46.1033 16.897" stroke="#FA7832" stroke-miterlimit="10" stroke-linecap="round" stroke-linejoin="round"/>
<path d="M50.751 31H59.0001" stroke="#FA7832" stroke-miterlimit="10" stroke-linecap="round" stroke-linejoin="round"/>
<path d="M32.0001 49.6163V57.9999" stroke="#FA7832" stroke-miterlimit="10" stroke-linecap="round" stroke-linejoin="round"/>
<path d="M5 31H13.2939" stroke="#FA7832" stroke-miterlimit="10" stroke-linecap="round" stroke-linejoin="round"/>
<path d="M32.0001 4V12.2267" stroke="#FA7832" stroke-miterlimit="10" stroke-linecap="round" stroke-linejoin="round"/>
<path d="M55.537 34.0931V27.9062L48.3078 26.8863C47.9043 25.2836 47.2655 23.7593 46.4361 22.3807L50.8296 16.5414L46.4585 12.1702L40.6191 16.5638C39.2406 15.7344 37.7163 15.0955 36.1135 14.692L35.0936 7.46289H28.9068L27.8869 14.692C26.2729 15.1067 24.7486 15.7456 23.3588 16.575L17.5419 12.1702L13.1708 16.5414L17.5755 22.3583C16.7461 23.7481 16.0961 25.2836 15.6926 26.9087L8.46344 27.9062V34.0931L15.6926 35.0906C16.0961 36.7157 16.7461 38.2512 17.5755 39.641L13.1708 45.4579L17.5419 49.8291L23.3588 45.4243C24.7486 46.2537 26.2841 46.9038 27.9093 47.3073L28.9068 54.5364H35.0936L36.0911 47.3073C37.7051 46.9038 39.2293 46.2649 40.6191 45.4355L46.4585 49.8291L50.8296 45.4579L46.4361 39.6186C47.2655 38.24 47.9043 36.7157 48.3078 35.113L55.537 34.0931ZM42.6254 34.5638C42.4572 35.0569 42.2667 35.5389 42.0313 35.9984C40.933 38.1952 39.1397 39.9772 36.9429 41.0532C36.5058 41.2774 36.0463 41.4679 35.5643 41.6248C34.4435 42.0059 33.2443 42.2076 32.0002 42.2076C30.7337 42.2076 29.5232 41.9947 28.3912 41.6024C27.9317 41.4567 27.4834 41.2662 27.0575 41.0532C24.8383 39.966 23.0338 38.1615 21.9466 35.9424C21.7337 35.5165 21.5432 35.0681 21.3974 34.6086C21.0052 33.4766 20.7922 32.2662 20.7922 30.9996C20.7922 29.7331 21.0052 28.5227 21.3974 27.3907C21.5432 26.9312 21.7337 26.4828 21.9466 26.0569C23.0226 23.8602 24.8047 22.0669 27.0014 20.9685C27.4498 20.7443 27.9093 20.5538 28.3912 20.3969C29.5232 20.0046 30.7337 19.7917 32.0002 19.7917C33.2443 19.7917 34.4435 19.9934 35.5643 20.3745C36.0575 20.5426 36.5394 20.7331 36.999 20.9685C39.1733 22.0557 40.9442 23.8265 42.0313 26.0009C42.2667 26.4604 42.4572 26.9424 42.6254 27.4355C43.0064 28.5563 43.2082 29.7556 43.2082 30.9996C43.2082 32.2437 43.0064 33.443 42.6254 34.5638Z" stroke="#092C75" stroke-width="1.6" stroke-miterlimit="10" stroke-linecap="round" stroke-linejoin="round"/>
</svg>
