<svg width="320" height="611" viewBox="0 0 320 611" fill="none" xmlns="http://www.w3.org/2000/svg">
<g clip-path="url(#clip0)">
<path d="M-667.877 312.645C-475.191 184.521 -238.465 486.525 199.195 307.308C635.942 128.466 929.049 56.7974 1082.32 251.252C1204.36 406.074 1229.17 507.22 1303.91 518.177" stroke="url(#paint0_linear)" stroke-width="0.1" stroke-miterlimit="10" stroke-linecap="round" stroke-linejoin="round"/>
<path d="M-667.959 298.227C-527.274 215.047 -369.59 340.886 -139.829 366.16C-43.6759 376.742 65.198 369.963 190.639 321.667C278.483 287.841 360.716 255.754 436.506 228.11C729.982 121.047 941.924 84.8677 1064.89 240.832C1138.9 334.687 1181.41 418.864 1224.42 462.368C1252.5 490.763 1274.7 506.401 1303.83 507.629" stroke="url(#paint1_linear)" stroke-width="0.15" stroke-miterlimit="10" stroke-linecap="round" stroke-linejoin="round"/>
<path d="M-668.052 283.799C-523.745 208.584 -367.405 334.253 -146.333 368.181C-50.3951 382.907 57.5658 380.92 182.063 336.018C270.42 304.144 353.248 271.495 428.956 242.077C712.389 131.945 924.115 74.0473 1047.44 230.404C1122.73 325.837 1168.91 420.732 1220.75 461.576C1252.86 486.875 1275.65 499.034 1303.74 497.073" stroke="url(#paint2_linear)" stroke-width="0.2" stroke-miterlimit="10" stroke-linecap="round" stroke-linejoin="round"/>
<path d="M-668.134 269.38C-520.195 202.129 -364.963 328.198 -152.816 370.21C-56.8887 389.208 49.9951 391.911 173.518 350.377C262.429 320.482 345.8 287.278 421.436 256.053C694.878 143.149 906.337 63.2351 1030.02 219.993C1106.58 317.003 1155.86 422.582 1217.11 460.808C1252.83 483.089 1276.65 491.692 1303.67 486.534" stroke="url(#paint3_linear)" stroke-width="0.25" stroke-miterlimit="10" stroke-linecap="round" stroke-linejoin="round"/>
<path d="M-668.216 254.953C-516.656 195.657 -362.347 322.724 -159.3 372.231C-63.1975 395.663 42.4552 402.936 164.963 364.727C254.458 336.819 338.332 303.112 413.917 270.011C677.439 154.617 888.559 52.406 1012.6 209.556C1090.44 308.152 1142.28 424.56 1213.47 460.006C1252.47 479.431 1277.64 484.325 1303.61 475.96" stroke="url(#paint4_linear)" stroke-width="0.3" stroke-miterlimit="10" stroke-linecap="round" stroke-linejoin="round"/>
<path d="M-668.308 240.534C-513.127 189.202 -359.639 317.881 -165.803 374.26C-69.3936 402.305 34.9357 414.004 156.397 379.087C246.498 353.182 330.854 319.006 406.377 283.987C660.061 166.376 870.761 41.5854 995.156 199.136C1074.27 299.309 1128.34 426.803 1209.81 459.23C1251.88 475.977 1278.61 476.975 1303.53 465.412" stroke="url(#paint5_linear)" stroke-width="0.35" stroke-miterlimit="10" stroke-linecap="round" stroke-linejoin="round"/>
<path d="M-668.39 226.115C-509.588 182.747 -356.92 313.643 -172.287 376.29C-75.4666 409.144 27.4779 425.114 147.841 393.446C238.568 369.571 323.385 334.943 398.847 297.962C642.795 178.399 852.972 30.7733 977.716 188.725C1058.11 290.476 1114.19 429.378 1206.14 458.454C1251.16 472.686 1279.57 469.625 1303.44 454.865" stroke="url(#paint6_linear)" stroke-width="0.4" stroke-miterlimit="10" stroke-linecap="round" stroke-linejoin="round"/>
<path d="M-668.482 211.688C-506.059 176.284 -354.263 309.968 -178.791 378.311C-81.5293 416.187 20.0302 436.259 139.265 407.797C230.648 385.985 315.917 350.94 391.307 311.929C625.623 190.669 835.174 19.9529 960.277 178.297C1041.95 281.633 1099.91 432.243 1202.49 457.67C1250.4 469.54 1280.56 462.266 1303.36 444.309" stroke="url(#paint7_linear)" stroke-width="0.45" stroke-miterlimit="10" stroke-linecap="round" stroke-linejoin="round"/>
<path d="M-668.564 197.269C-502.509 169.829 -351.739 306.847 -185.274 380.34C-87.5818 423.469 12.6339 447.455 130.72 422.156C222.78 402.433 308.501 366.996 383.788 325.905C608.604 203.195 817.396 9.13224 942.858 167.877C1025.81 272.791 1085.62 435.415 1198.85 456.886C1249.64 466.521 1281.54 454.908 1303.29 433.752" stroke="url(#paint8_linear)" stroke-width="0.5" stroke-miterlimit="10" stroke-linecap="round" stroke-linejoin="round"/>
<path d="M-668.646 182.841C-498.97 163.366 -349.4 304.195 -191.757 382.361C-93.7163 430.972 5.26837 458.693 122.164 436.506C214.912 418.907 301.104 383.111 376.269 339.863C591.708 215.917 799.618 -1.69696 925.429 157.448C1009.65 263.94 1071.34 438.834 1195.2 456.101C1248.9 463.588 1282.53 447.557 1303.22 423.204" stroke="url(#paint9_linear)" stroke-width="0.55" stroke-miterlimit="10" stroke-linecap="round" stroke-linejoin="round"/>
<path d="M-668.738 168.422C-495.441 156.911 -347.318 301.978 -198.261 384.382C-99.9944 438.706 -2.10746 469.983 113.599 450.857C207.054 435.407 293.728 399.278 368.729 353.83C574.936 228.861 781.82 -12.5175 907.989 147.02C993.494 255.098 1057.11 442.467 1191.55 455.308C1248.19 460.723 1283.5 440.19 1303.15 412.64" stroke="url(#paint10_linear)" stroke-width="0.6" stroke-miterlimit="10" stroke-linecap="round" stroke-linejoin="round"/>
<path d="M-668.82 154.003C-491.901 150.448 -345.512 300.102 -204.744 386.411C-106.437 446.687 -9.44223 481.324 105.043 465.216C199.227 451.966 286.424 415.53 361.199 367.806C558.317 242.009 764.031 -23.3296 890.56 136.6C977.337 246.255 1042.97 446.287 1187.89 454.532C1247.53 457.926 1284.49 432.84 1303.07 402.092" stroke="url(#paint11_linear)" stroke-width="0.65" stroke-miterlimit="10" stroke-linecap="round" stroke-linejoin="round"/>
<path d="M-668.913 139.576C-488.372 143.984 -344.024 298.499 -211.248 388.432C-113.146 454.873 -16.7872 492.716 96.4774 479.567C191.389 468.55 279.161 431.834 353.669 381.773C541.872 255.32 746.253 -34.1586 873.121 126.172C961.18 237.405 1022.73 435.698 1176.46 454.5C1238.48 462.089 1285.45 425.473 1302.98 391.527" stroke="url(#paint12_linear)" stroke-width="0.7" stroke-miterlimit="10" stroke-linecap="round" stroke-linejoin="round"/>
<path d="M-668.995 125.157C-484.823 137.53 -342.855 297.118 -217.731 390.462C-120.121 463.289 -24.1015 504.159 87.9218 493.926C183.572 485.195 271.981 448.205 346.14 395.74C525.582 268.783 728.465 -44.9791 855.692 115.752C945.023 228.571 1009.51 440.769 1174.46 453.5C1239.93 458.556 1286.45 418.123 1302.91 380.98" stroke="url(#paint13_linear)" stroke-width="0.8" stroke-miterlimit="10" stroke-linecap="round" stroke-linejoin="round"/>
<path d="M-669.076 110.73C-481.284 131.066 -342.024 295.873 -224.225 392.491C-127.425 471.884 -31.4362 515.653 79.3663 508.285C175.756 501.873 264.892 464.654 338.61 409.715C509.476 282.392 710.677 -55.7913 838.252 105.332C928.866 219.728 995.086 446.622 1170.96 453C1239.82 455.498 1287.41 410.781 1302.83 370.432" stroke="url(#paint14_linear)" stroke-width="0.9" stroke-miterlimit="10" stroke-linecap="round" stroke-linejoin="round"/>
<path d="M-669.169 96.3106C-477.755 124.611 -341.531 294.705 -230.719 394.512C-135.089 480.633 -38.771 527.189 70.8004 522.636C167.918 518.603 257.875 481.161 331.08 423.682C493.545 296.112 692.889 -66.6119 820.823 94.9037C912.709 210.877 987.247 462.692 1173.28 451.394C1245.31 447.02 1288.4 403.414 1302.76 359.867" stroke="url(#paint15_linear)" stroke-miterlimit="10" stroke-linecap="round" stroke-linejoin="round"/>
<path d="M-669.251 81.8918C-474.215 118.156 -341.377 293.562 -237.202 396.541C-143.131 489.526 -46.1058 535.102 62.2449 536.995C160.091 538.701 250.982 497.746 323.55 437.657C477.798 309.934 675.101 -77.4324 803.394 84.4924C896.562 202.044 973.522 466.981 1169.63 450.627C1244.86 444.351 1289.38 396.072 1302.69 349.336" stroke="url(#paint16_linear)" stroke-width="1.1" stroke-miterlimit="10" stroke-linecap="round" stroke-linejoin="round"/>
<path d="M-669.333 67.4643C-470.676 111.685 -341.552 292.386 -243.696 398.562C-151.574 498.522 -53.3688 547.313 53.6893 551.346C152.151 555.055 244.211 514.391 316.021 451.616C462.246 323.824 657.312 -88.253 785.954 74.0641C880.395 193.201 959.847 471.296 1165.97 449.834C1244.42 441.665 1290.36 388.705 1302.61 338.772" stroke="url(#paint17_linear)" stroke-width="1.2" stroke-miterlimit="10" stroke-linecap="round" stroke-linejoin="round"/>
<path d="M-669.424 53.0455C-467.136 105.23 -342.043 291.132 -250.188 400.591C-160.406 507.586 -60.8566 562.099 45.1244 565.705C144.365 569.082 237.564 531.103 308.492 465.592C446.89 337.766 639.525 -99.0735 768.526 63.6359C864.248 184.351 946.235 475.645 1162.32 449.05C1244.03 438.996 1291.33 381.346 1302.52 328.216" stroke="url(#paint18_linear)" stroke-width="1.3" stroke-miterlimit="10" stroke-linecap="round" stroke-linejoin="round"/>
<path d="M-669.506 38.6182C-463.597 98.7666 -342.813 289.751 -256.682 402.612C-169.628 516.676 -68.2736 573.814 36.5687 580.065C136.477 586.016 231.071 547.884 300.962 479.567C431.728 351.75 621.736 -109.885 751.097 53.2247C848.091 175.517 932.683 480.028 1158.68 448.274C1243.66 436.336 1292.32 373.996 1302.46 317.668" stroke="url(#paint19_linear)" stroke-width="1.4" stroke-miterlimit="10" stroke-linecap="round" stroke-linejoin="round"/>
<path d="M-669.599 24.1991C-460.068 92.3116 -343.859 288.233 -263.176 404.642C-179.22 525.783 -75.7215 585.573 28.0026 594.415C128.547 602.985 224.72 564.725 293.432 493.534C416.771 365.734 603.948 -120.715 733.657 42.7961C831.934 166.674 919.162 484.41 1155.02 447.489C1243.3 433.667 1293.29 366.646 1302.37 307.111" stroke="url(#paint20_linear)" stroke-width="1.5" stroke-miterlimit="10" stroke-linecap="round" stroke-linejoin="round"/>
<path d="M-669.682 9.78026C-456.53 85.8568 -345.132 286.553 -269.67 406.671C-109.781 661.155 150.212 656.84 285.902 507.51C402.018 379.709 586.159 -131.527 716.227 32.3764C815.776 157.832 905.702 488.819 1151.36 446.705C1242.96 430.998 1294.26 359.287 1302.3 296.555" stroke="url(#paint21_linear)" stroke-width="1.6" stroke-miterlimit="10" stroke-linecap="round" stroke-linejoin="round"/>
</g>
<defs>
<linearGradient id="paint0_linear" x1="-667.877" y1="326.734" x2="1303.91" y2="326.734" gradientUnits="userSpaceOnUse">
<stop offset="0.119792" stop-color="#CE4830" stop-opacity="0.6"/>
<stop offset="0.317708" stop-color="#FDB913"/>
<stop offset="0.609375" stop-color="#8DC63F" stop-opacity="0.4"/>
<stop offset="0.96875" stop-color="#00529B"/>
</linearGradient>
<linearGradient id="paint1_linear" x1="-667.959" y1="321.635" x2="1303.83" y2="321.635" gradientUnits="userSpaceOnUse">
<stop offset="0.119792" stop-color="#CE4830" stop-opacity="0.6"/>
<stop offset="0.317708" stop-color="#FDB913"/>
<stop offset="0.609375" stop-color="#8DC63F" stop-opacity="0.4"/>
<stop offset="0.96875" stop-color="#00529B"/>
</linearGradient>
<linearGradient id="paint2_linear" x1="-668.052" y1="315.962" x2="1303.74" y2="315.962" gradientUnits="userSpaceOnUse">
<stop offset="0.119792" stop-color="#CE4830" stop-opacity="0.6"/>
<stop offset="0.317708" stop-color="#FDB913"/>
<stop offset="0.609375" stop-color="#8DC63F" stop-opacity="0.4"/>
<stop offset="0.96875" stop-color="#00529B"/>
</linearGradient>
<linearGradient id="paint3_linear" x1="-668.134" y1="310.217" x2="1303.67" y2="310.217" gradientUnits="userSpaceOnUse">
<stop offset="0.119792" stop-color="#CE4830" stop-opacity="0.6"/>
<stop offset="0.317708" stop-color="#FDB913"/>
<stop offset="0.609375" stop-color="#8DC63F" stop-opacity="0.4"/>
<stop offset="0.96875" stop-color="#00529B"/>
</linearGradient>
<linearGradient id="paint4_linear" x1="-668.216" y1="304.522" x2="1303.61" y2="304.521" gradientUnits="userSpaceOnUse">
<stop offset="0.119792" stop-color="#CE4830" stop-opacity="0.6"/>
<stop offset="0.317708" stop-color="#FDB913"/>
<stop offset="0.609375" stop-color="#8DC63F" stop-opacity="0.4"/>
<stop offset="0.96875" stop-color="#00529B"/>
</linearGradient>
<linearGradient id="paint5_linear" x1="-668.308" y1="299.038" x2="1303.53" y2="299.038" gradientUnits="userSpaceOnUse">
<stop offset="0.119792" stop-color="#CE4830" stop-opacity="0.6"/>
<stop offset="0.317708" stop-color="#FDB913"/>
<stop offset="0.609375" stop-color="#8DC63F" stop-opacity="0.4"/>
<stop offset="0.96875" stop-color="#00529B"/>
</linearGradient>
<linearGradient id="paint6_linear" x1="-668.39" y1="293.83" x2="1303.44" y2="293.83" gradientUnits="userSpaceOnUse">
<stop offset="0.119792" stop-color="#CE4830" stop-opacity="0.6"/>
<stop offset="0.317708" stop-color="#FDB913"/>
<stop offset="0.609375" stop-color="#8DC63F" stop-opacity="0.4"/>
<stop offset="0.96875" stop-color="#00529B"/>
</linearGradient>
<linearGradient id="paint7_linear" x1="-668.482" y1="288.899" x2="1303.36" y2="288.899" gradientUnits="userSpaceOnUse">
<stop offset="0.119792" stop-color="#CE4830" stop-opacity="0.6"/>
<stop offset="0.317708" stop-color="#FDB913"/>
<stop offset="0.609375" stop-color="#8DC63F" stop-opacity="0.4"/>
<stop offset="0.96875" stop-color="#00529B"/>
</linearGradient>
<linearGradient id="paint8_linear" x1="-668.564" y1="284.208" x2="1303.29" y2="284.207" gradientUnits="userSpaceOnUse">
<stop offset="0.119792" stop-color="#CE4830" stop-opacity="0.6"/>
<stop offset="0.317708" stop-color="#FDB913"/>
<stop offset="0.609375" stop-color="#8DC63F" stop-opacity="0.4"/>
<stop offset="0.96875" stop-color="#00529B"/>
</linearGradient>
<linearGradient id="paint9_linear" x1="-668.646" y1="279.668" x2="1303.22" y2="279.668" gradientUnits="userSpaceOnUse">
<stop offset="0.119792" stop-color="#CE4830" stop-opacity="0.6"/>
<stop offset="0.317708" stop-color="#FDB913"/>
<stop offset="0.609375" stop-color="#8DC63F" stop-opacity="0.4"/>
<stop offset="0.96875" stop-color="#00529B"/>
</linearGradient>
<linearGradient id="paint10_linear" x1="-668.738" y1="275.378" x2="1303.15" y2="275.378" gradientUnits="userSpaceOnUse">
<stop offset="0.119792" stop-color="#CE4830" stop-opacity="0.6"/>
<stop offset="0.317708" stop-color="#FDB913"/>
<stop offset="0.609375" stop-color="#8DC63F" stop-opacity="0.4"/>
<stop offset="0.96875" stop-color="#00529B"/>
</linearGradient>
<linearGradient id="paint11_linear" x1="-668.82" y1="277.97" x2="1303.07" y2="277.969" gradientUnits="userSpaceOnUse">
<stop offset="0.119792" stop-color="#CE4830" stop-opacity="0.6"/>
<stop offset="0.317708" stop-color="#FDB913"/>
<stop offset="0.609375" stop-color="#8DC63F" stop-opacity="0.4"/>
<stop offset="0.96875" stop-color="#00529B"/>
</linearGradient>
<linearGradient id="paint12_linear" x1="-668.913" y1="280.576" x2="1302.98" y2="280.576" gradientUnits="userSpaceOnUse">
<stop offset="0.119792" stop-color="#CE4830" stop-opacity="0.6"/>
<stop offset="0.317708" stop-color="#FDB913"/>
<stop offset="0.609375" stop-color="#8DC63F" stop-opacity="0.4"/>
<stop offset="0.96875" stop-color="#00529B"/>
</linearGradient>
<linearGradient id="paint13_linear" x1="-668.995" y1="283.215" x2="1302.91" y2="283.215" gradientUnits="userSpaceOnUse">
<stop offset="0.119792" stop-color="#CE4830" stop-opacity="0.6"/>
<stop offset="0.317708" stop-color="#FDB913"/>
<stop offset="0.609375" stop-color="#8DC63F" stop-opacity="0.4"/>
<stop offset="0.96875" stop-color="#00529B"/>
</linearGradient>
<linearGradient id="paint14_linear" x1="-669.076" y1="285.882" x2="1302.83" y2="285.882" gradientUnits="userSpaceOnUse">
<stop offset="0.119792" stop-color="#CE4830" stop-opacity="0.6"/>
<stop offset="0.317708" stop-color="#FDB913"/>
<stop offset="0.609375" stop-color="#8DC63F" stop-opacity="0.4"/>
<stop offset="0.96875" stop-color="#00529B"/>
</linearGradient>
<linearGradient id="paint15_linear" x1="-669.169" y1="288.57" x2="1302.76" y2="288.57" gradientUnits="userSpaceOnUse">
<stop offset="0.119792" stop-color="#CE4830" stop-opacity="0.6"/>
<stop offset="0.317708" stop-color="#FDB913"/>
<stop offset="0.609375" stop-color="#8DC63F" stop-opacity="0.4"/>
<stop offset="0.96875" stop-color="#00529B"/>
</linearGradient>
<linearGradient id="paint16_linear" x1="-669.251" y1="291.301" x2="1302.69" y2="291.301" gradientUnits="userSpaceOnUse">
<stop offset="0.119792" stop-color="#CE4830" stop-opacity="0.6"/>
<stop offset="0.317708" stop-color="#FDB913"/>
<stop offset="0.609375" stop-color="#8DC63F" stop-opacity="0.4"/>
<stop offset="0.96875" stop-color="#00529B"/>
</linearGradient>
<linearGradient id="paint17_linear" x1="-669.333" y1="294.164" x2="1302.61" y2="294.164" gradientUnits="userSpaceOnUse">
<stop offset="0.119792" stop-color="#CE4830" stop-opacity="0.6"/>
<stop offset="0.317708" stop-color="#FDB913"/>
<stop offset="0.609375" stop-color="#8DC63F" stop-opacity="0.4"/>
<stop offset="0.96875" stop-color="#00529B"/>
</linearGradient>
<linearGradient id="paint18_linear" x1="-669.424" y1="296.858" x2="1302.52" y2="296.858" gradientUnits="userSpaceOnUse">
<stop offset="0.119792" stop-color="#CE4830" stop-opacity="0.6"/>
<stop offset="0.317708" stop-color="#FDB913"/>
<stop offset="0.609375" stop-color="#8DC63F" stop-opacity="0.4"/>
<stop offset="0.96875" stop-color="#00529B"/>
</linearGradient>
<linearGradient id="paint19_linear" x1="-669.506" y1="299.71" x2="1302.46" y2="299.71" gradientUnits="userSpaceOnUse">
<stop offset="0.119792" stop-color="#CE4830" stop-opacity="0.6"/>
<stop offset="0.317708" stop-color="#FDB913"/>
<stop offset="0.609375" stop-color="#8DC63F" stop-opacity="0.4"/>
<stop offset="0.96875" stop-color="#00529B"/>
</linearGradient>
<linearGradient id="paint20_linear" x1="-669.599" y1="302.586" x2="1302.37" y2="302.585" gradientUnits="userSpaceOnUse">
<stop offset="0.119792" stop-color="#CE4830" stop-opacity="0.6"/>
<stop offset="0.317708" stop-color="#FDB913"/>
<stop offset="0.609375" stop-color="#8DC63F" stop-opacity="0.4"/>
<stop offset="0.96875" stop-color="#00529B"/>
</linearGradient>
<linearGradient id="paint21_linear" x1="-669.682" y1="305.506" x2="1302.3" y2="305.506" gradientUnits="userSpaceOnUse">
<stop offset="0.119792" stop-color="#CE4830" stop-opacity="0.6"/>
<stop offset="0.317708" stop-color="#FDB913"/>
<stop offset="0.609375" stop-color="#8DC63F" stop-opacity="0.4"/>
<stop offset="0.96875" stop-color="#00529B"/>
</linearGradient>
<clipPath id="clip0">
<rect x="-670.041" width="1974" height="611" fill="white"/>
</clipPath>
</defs>
</svg>
