<svg width="320" height="637" viewBox="0 0 320 637" fill="none" xmlns="http://www.w3.org/2000/svg">
<g clip-path="url(#clip0)">
<path d="M1336.81 143.096C1199.78 266.643 1030.77 428.006 749.486 559.63C351.339 745.95 -119.477 77.7488 -545.844 130.615C-1003.75 187.394 -1009.04 320.882 -1009.04 320.882" stroke="url(#paint0_linear)" stroke-width="1.5" stroke-miterlimit="10" stroke-linecap="round" stroke-linejoin="round"/>
<path d="M1336.36 153.752C1198.41 272.914 1014.93 412.916 728.143 547.748C333.033 733.177 -126.645 99.5966 -550.334 143.344C-998.422 189.607 -1008.13 305.624 -1008.13 305.624" stroke="url(#paint1_linear)" stroke-width="1.43" stroke-miterlimit="10" stroke-linecap="round" stroke-linejoin="round"/>
<path d="M1335.9 164.407C1197.04 279.175 999.102 397.827 706.799 535.866C314.714 720.404 -133.648 121.544 -554.811 156.073C-992.939 192 -1007.21 290.366 -1007.21 290.366" stroke="url(#paint2_linear)" stroke-width="1.35" stroke-miterlimit="10" stroke-linecap="round" stroke-linejoin="round"/>
<path d="M1335.44 175.063C1195.66 285.446 983.26 382.737 685.455 523.983C296.396 707.621 -140.499 143.592 -559.301 168.802C-987.307 194.563 -1006.3 275.108 -1006.3 275.108" stroke="url(#paint3_linear)" stroke-width="1.28" stroke-miterlimit="10" stroke-linecap="round" stroke-linejoin="round"/>
<path d="M1334.99 185.708C1194.29 291.707 967.431 367.638 664.112 512.091C278.089 694.849 -147.187 165.769 -563.779 181.531C-981.554 197.333 -1005.39 259.85 -1005.39 259.85" stroke="url(#paint4_linear)" stroke-width="1.2" stroke-miterlimit="10" stroke-linecap="round" stroke-linejoin="round"/>
<path d="M1334.53 196.364C1192.91 297.968 951.602 352.549 642.768 500.199C259.758 682.075 -153.75 188.094 -568.269 194.26C-975.668 200.321 -1004.47 244.593 -1004.47 244.593" stroke="url(#paint5_linear)" stroke-width="1.12" stroke-miterlimit="10" stroke-linecap="round" stroke-linejoin="round"/>
<path d="M1334.08 207.019C1191.54 304.239 935.76 337.459 621.424 488.317C241.452 669.292 -160.189 210.577 -572.759 206.988C-969.674 203.537 -1003.56 229.335 -1003.56 229.335" stroke="url(#paint6_linear)" stroke-width="1.05" stroke-miterlimit="10" stroke-linecap="round" stroke-linejoin="round"/>
<path d="M1333.62 217.674C1190.16 310.511 919.919 322.359 600.068 476.434C223.133 656.519 -166.517 233.246 -577.236 219.718C-963.597 206.988 -1002.64 214.077 -1002.64 214.077" stroke="url(#paint7_linear)" stroke-width="0.98" stroke-miterlimit="10" stroke-linecap="round" stroke-linejoin="round"/>
<path d="M1333.15 228.329C1188.78 316.771 904.077 307.279 578.713 464.541C204.803 643.735 -172.76 256.122 -581.738 232.435C-957.436 210.684 -1001.73 198.819 -1001.73 198.819" stroke="url(#paint8_linear)" stroke-width="0.9" stroke-miterlimit="10" stroke-linecap="round" stroke-linejoin="round"/>
<path d="M1332.7 238.985C1187.4 323.042 888.248 292.19 557.369 452.659C186.496 630.963 -178.908 279.233 -586.215 245.165C-951.219 214.644 -1000.81 183.561 -1000.81 183.561" stroke="url(#paint9_linear)" stroke-width="0.8" stroke-miterlimit="10" stroke-linecap="round" stroke-linejoin="round"/>
<path d="M1332.24 249.63C1186.04 329.304 872.407 277.09 536.025 440.767C168.177 618.19 -185.046 302.596 -590.705 257.893C-944.98 218.857 -999.897 168.303 -999.897 168.303" stroke="url(#paint10_linear)" stroke-width="0.72" stroke-miterlimit="10" stroke-linecap="round" stroke-linejoin="round"/>
<path d="M1331.79 260.285C1184.67 335.575 856.578 262.001 514.682 428.884C149.859 605.417 -191.164 326.23 -595.183 270.623C-938.745 223.339 -998.983 153.056 -998.983 153.056" stroke="url(#paint11_linear)" stroke-width="0.65" stroke-miterlimit="10" stroke-linecap="round" stroke-linejoin="round"/>
<path d="M1331.33 270.941C1183.29 341.836 840.748 246.912 493.337 417.002C131.552 592.644 -197.312 350.164 -599.661 283.352C-932.538 228.081 -998.068 137.798 -998.068 137.798" stroke="url(#paint12_linear)" stroke-width="0.58" stroke-miterlimit="10" stroke-linecap="round" stroke-linejoin="round"/>
<path d="M1330.87 281.596C1181.92 348.108 824.906 231.822 471.994 405.11C113.234 579.861 -203.54 374.403 -604.151 296.08C-926.383 233.08 -997.154 122.54 -997.154 122.54" stroke="url(#paint13_linear)" stroke-width="0.5" stroke-miterlimit="10" stroke-linecap="round" stroke-linejoin="round"/>
<path d="M1330.42 292.252C1180.54 354.379 809.077 216.733 450.65 393.228C94.9147 567.088 -209.873 398.987 -608.628 308.81C-920.327 238.323 -996.239 107.282 -996.239 107.282" stroke="url(#paint14_linear)" stroke-width="0.42" stroke-miterlimit="10" stroke-linecap="round" stroke-linejoin="round"/>
<path d="M1329.96 302.907C1179.17 360.64 793.235 201.643 429.306 381.346C76.608 554.316 -216.384 423.9 -613.118 321.538C-914.384 243.81 -995.324 92.0244 -995.324 92.0244" stroke="url(#paint15_linear)" stroke-width="0.35" stroke-miterlimit="10" stroke-linecap="round" stroke-linejoin="round"/>
<path d="M1329.5 313.553C1177.8 366.901 777.406 186.544 407.963 369.454C58.2897 541.533 -223.123 449.161 -617.596 334.268C-908.612 249.508 -994.41 76.7666 -994.41 76.7666" stroke="url(#paint16_linear)" stroke-width="0.28" stroke-miterlimit="10" stroke-linecap="round" stroke-linejoin="round"/>
<path d="M1329.05 324.208C1176.42 373.172 761.565 171.454 386.62 357.561C39.9709 528.759 -230.152 474.775 -622.086 346.996C-903.033 255.394 -993.495 61.5085 -993.495 61.5085" stroke="url(#paint17_linear)" stroke-width="0.2143" stroke-miterlimit="10" stroke-linecap="round" stroke-linejoin="round"/>
<path d="M1328.58 334.863C1175.03 379.433 745.724 156.354 365.264 345.678C21.6521 515.986 -237.493 500.741 -626.576 359.725C-897.673 261.457 -992.58 46.2507 -992.58 46.2507" stroke="url(#paint18_linear)" stroke-width="0.1857" stroke-miterlimit="10" stroke-linecap="round" stroke-linejoin="round"/>
<path d="M1328.12 345.518C1173.67 385.704 729.895 141.265 343.907 333.796C3.32172 503.202 -245.245 527.044 -631.065 372.443C-892.577 267.666 -991.665 30.9929 -991.665 30.9929" stroke="url(#paint19_linear)" stroke-width="0.1571" stroke-miterlimit="10" stroke-linecap="round" stroke-linejoin="round"/>
<path d="M1327.67 356.174C1172.3 391.976 714.053 126.175 322.564 321.913C-14.9848 490.43 -253.429 553.651 -635.543 385.173C-887.742 273.978 -990.751 15.7351 -990.751 15.7351" stroke="url(#paint20_linear)" stroke-width="0.1286" stroke-miterlimit="10" stroke-linecap="round" stroke-linejoin="round"/>
<path d="M1327.21 366.829C1170.92 398.247 698.224 111.086 301.22 310.031C-33.3036 477.657 -262.106 580.559 -640.033 397.911C-883.229 280.372 -989.836 0.477295 -989.836 0.477295" stroke="url(#paint21_linear)" stroke-width="0.1" stroke-miterlimit="10" stroke-linecap="round" stroke-linejoin="round"/>
</g>
<defs>
<linearGradient id="paint0_linear" x1="-1004.79" y1="249.891" x2="1322.05" y2="389.385" gradientUnits="userSpaceOnUse">
<stop offset="0.109375" stop-color="#FDB913" stop-opacity="0.4"/>
<stop offset="0.255208" stop-color="#B61C21"/>
<stop offset="0.666667" stop-color="#0E43B2"/>
<stop offset="0.833333" stop-color="#B61C21" stop-opacity="0.4"/>
</linearGradient>
<linearGradient id="paint1_linear" x1="-1004.84" y1="250.684" x2="1322.18" y2="390.188" gradientUnits="userSpaceOnUse">
<stop offset="0.109375" stop-color="#FDB913" stop-opacity="0.4"/>
<stop offset="0.255208" stop-color="#B61C21"/>
<stop offset="0.666667" stop-color="#0E43B2"/>
<stop offset="0.833333" stop-color="#B61C21" stop-opacity="0.4"/>
</linearGradient>
<linearGradient id="paint2_linear" x1="-1004.89" y1="251.552" x2="1322.31" y2="391.068" gradientUnits="userSpaceOnUse">
<stop offset="0.109375" stop-color="#FDB913" stop-opacity="0.4"/>
<stop offset="0.255208" stop-color="#B61C21"/>
<stop offset="0.666667" stop-color="#0E43B2"/>
<stop offset="0.833333" stop-color="#B61C21" stop-opacity="0.4"/>
</linearGradient>
<linearGradient id="paint3_linear" x1="-1004.95" y1="252.506" x2="1322.44" y2="392.032" gradientUnits="userSpaceOnUse">
<stop offset="0.109375" stop-color="#FDB913" stop-opacity="0.4"/>
<stop offset="0.255208" stop-color="#B61C21"/>
<stop offset="0.666667" stop-color="#0E43B2"/>
<stop offset="0.833333" stop-color="#B61C21" stop-opacity="0.4"/>
</linearGradient>
<linearGradient id="paint4_linear" x1="-1005.01" y1="253.555" x2="1322.56" y2="393.092" gradientUnits="userSpaceOnUse">
<stop offset="0.109375" stop-color="#FDB913" stop-opacity="0.4"/>
<stop offset="0.255208" stop-color="#B61C21"/>
<stop offset="0.666667" stop-color="#0E43B2"/>
<stop offset="0.833333" stop-color="#B61C21" stop-opacity="0.4"/>
</linearGradient>
<linearGradient id="paint5_linear" x1="-1005.08" y1="254.73" x2="1322.67" y2="394.278" gradientUnits="userSpaceOnUse">
<stop offset="0.109375" stop-color="#FDB913" stop-opacity="0.4"/>
<stop offset="0.255208" stop-color="#B61C21"/>
<stop offset="0.666667" stop-color="#0E43B2"/>
<stop offset="0.833333" stop-color="#B61C21" stop-opacity="0.4"/>
</linearGradient>
<linearGradient id="paint6_linear" x1="-1005.16" y1="256.047" x2="1322.77" y2="395.606" gradientUnits="userSpaceOnUse">
<stop offset="0.109375" stop-color="#FDB913" stop-opacity="0.4"/>
<stop offset="0.255208" stop-color="#B61C21"/>
<stop offset="0.666667" stop-color="#0E43B2"/>
<stop offset="0.833333" stop-color="#B61C21" stop-opacity="0.4"/>
</linearGradient>
<linearGradient id="paint7_linear" x1="-1005.25" y1="257.535" x2="1322.86" y2="397.105" gradientUnits="userSpaceOnUse">
<stop offset="0.109375" stop-color="#FDB913" stop-opacity="0.4"/>
<stop offset="0.255208" stop-color="#B61C21"/>
<stop offset="0.666667" stop-color="#0E43B2"/>
<stop offset="0.833333" stop-color="#B61C21" stop-opacity="0.4"/>
</linearGradient>
<linearGradient id="paint8_linear" x1="-1005.35" y1="259.224" x2="1322.93" y2="398.804" gradientUnits="userSpaceOnUse">
<stop offset="0.109375" stop-color="#FDB913" stop-opacity="0.4"/>
<stop offset="0.255208" stop-color="#B61C21"/>
<stop offset="0.666667" stop-color="#0E43B2"/>
<stop offset="0.833333" stop-color="#B61C21" stop-opacity="0.4"/>
</linearGradient>
<linearGradient id="paint9_linear" x1="-1005.46" y1="261.168" x2="1323" y2="400.759" gradientUnits="userSpaceOnUse">
<stop offset="0.109375" stop-color="#FDB913" stop-opacity="0.4"/>
<stop offset="0.255208" stop-color="#B61C21"/>
<stop offset="0.666667" stop-color="#0E43B2"/>
<stop offset="0.833333" stop-color="#B61C21" stop-opacity="0.4"/>
</linearGradient>
<linearGradient id="paint10_linear" x1="-1005.6" y1="263.412" x2="1323.05" y2="403.014" gradientUnits="userSpaceOnUse">
<stop offset="0.109375" stop-color="#FDB913" stop-opacity="0.4"/>
<stop offset="0.255208" stop-color="#B61C21"/>
<stop offset="0.666667" stop-color="#0E43B2"/>
<stop offset="0.833333" stop-color="#B61C21" stop-opacity="0.4"/>
</linearGradient>
<linearGradient id="paint11_linear" x1="-1005.76" y1="266.046" x2="1323.07" y2="405.659" gradientUnits="userSpaceOnUse">
<stop offset="0.109375" stop-color="#FDB913" stop-opacity="0.4"/>
<stop offset="0.255208" stop-color="#B61C21"/>
<stop offset="0.666667" stop-color="#0E43B2"/>
<stop offset="0.833333" stop-color="#B61C21" stop-opacity="0.4"/>
</linearGradient>
<linearGradient id="paint12_linear" x1="-1005.94" y1="269.16" x2="1323.07" y2="408.784" gradientUnits="userSpaceOnUse">
<stop offset="0.109375" stop-color="#FDB913" stop-opacity="0.4"/>
<stop offset="0.255208" stop-color="#B61C21"/>
<stop offset="0.666667" stop-color="#0E43B2"/>
<stop offset="0.833333" stop-color="#B61C21" stop-opacity="0.4"/>
</linearGradient>
<linearGradient id="paint13_linear" x1="-1005.58" y1="263.164" x2="1323.61" y2="402.798" gradientUnits="userSpaceOnUse">
<stop offset="0.109375" stop-color="#FDB913" stop-opacity="0.4"/>
<stop offset="0.255208" stop-color="#B61C21"/>
<stop offset="0.666667" stop-color="#0E43B2"/>
<stop offset="0.833333" stop-color="#B61C21" stop-opacity="0.4"/>
</linearGradient>
<linearGradient id="paint14_linear" x1="-1005.08" y1="254.693" x2="1324.3" y2="394.338" gradientUnits="userSpaceOnUse">
<stop offset="0.109375" stop-color="#FDB913" stop-opacity="0.4"/>
<stop offset="0.255208" stop-color="#B61C21"/>
<stop offset="0.666667" stop-color="#0E43B2"/>
<stop offset="0.833333" stop-color="#B61C21" stop-opacity="0.4"/>
</linearGradient>
<linearGradient id="paint15_linear" x1="-1004.62" y1="247.163" x2="1324.93" y2="386.819" gradientUnits="userSpaceOnUse">
<stop offset="0.109375" stop-color="#FDB913" stop-opacity="0.4"/>
<stop offset="0.255208" stop-color="#B61C21"/>
<stop offset="0.666667" stop-color="#0E43B2"/>
<stop offset="0.833333" stop-color="#B61C21" stop-opacity="0.4"/>
</linearGradient>
<linearGradient id="paint16_linear" x1="-1004.24" y1="240.752" x2="1325.5" y2="380.419" gradientUnits="userSpaceOnUse">
<stop offset="0.109375" stop-color="#FDB913" stop-opacity="0.4"/>
<stop offset="0.255208" stop-color="#B61C21"/>
<stop offset="0.666667" stop-color="#0E43B2"/>
<stop offset="0.833333" stop-color="#B61C21" stop-opacity="0.4"/>
</linearGradient>
<linearGradient id="paint17_linear" x1="-1003.93" y1="235.59" x2="1325.99" y2="375.268" gradientUnits="userSpaceOnUse">
<stop offset="0.109375" stop-color="#FDB913" stop-opacity="0.4"/>
<stop offset="0.255208" stop-color="#B61C21"/>
<stop offset="0.666667" stop-color="#0E43B2"/>
<stop offset="0.833333" stop-color="#B61C21" stop-opacity="0.4"/>
</linearGradient>
<linearGradient id="paint18_linear" x1="-1003.7" y1="231.671" x2="1326.39" y2="371.359" gradientUnits="userSpaceOnUse">
<stop offset="0.109375" stop-color="#FDB913" stop-opacity="0.4"/>
<stop offset="0.255208" stop-color="#B61C21"/>
<stop offset="0.666667" stop-color="#0E43B2"/>
<stop offset="0.833333" stop-color="#B61C21" stop-opacity="0.4"/>
</linearGradient>
<linearGradient id="paint19_linear" x1="-1003.53" y1="228.848" x2="1326.74" y2="368.547" gradientUnits="userSpaceOnUse">
<stop offset="0.109375" stop-color="#FDB913" stop-opacity="0.4"/>
<stop offset="0.255208" stop-color="#B61C21"/>
<stop offset="0.666667" stop-color="#0E43B2"/>
<stop offset="0.833333" stop-color="#B61C21" stop-opacity="0.4"/>
</linearGradient>
<linearGradient id="paint20_linear" x1="-1003.41" y1="226.898" x2="1327.04" y2="366.608" gradientUnits="userSpaceOnUse">
<stop offset="0.109375" stop-color="#FDB913" stop-opacity="0.4"/>
<stop offset="0.255208" stop-color="#B61C21"/>
<stop offset="0.666667" stop-color="#0E43B2"/>
<stop offset="0.833333" stop-color="#B61C21" stop-opacity="0.4"/>
</linearGradient>
<linearGradient id="paint21_linear" x1="-1003.33" y1="225.605" x2="1327.3" y2="365.326" gradientUnits="userSpaceOnUse">
<stop offset="0.109375" stop-color="#FDB913" stop-opacity="0.4"/>
<stop offset="0.255208" stop-color="#B61C21"/>
<stop offset="0.666667" stop-color="#0E43B2"/>
<stop offset="0.833333" stop-color="#B61C21" stop-opacity="0.4"/>
</linearGradient>
<clipPath id="clip0">
<rect x="-990.258" y="0.401855" width="2335.31" height="497" transform="rotate(3.43077 -990.258 0.401855)" fill="white"/>
</clipPath>
</defs>
</svg>
