<svg width="320" height="886" viewBox="0 0 320 886" fill="none" xmlns="http://www.w3.org/2000/svg">
<g clip-path="url(#clip0)">
<path d="M-542.366 581.327C-510.587 591.99 -230.972 974.11 -109.897 664.156C-20.9677 436.497 96.712 431.373 220.1 441.28C442.4 459.139 368.451 180.814 539.901 142.533" stroke="url(#paint0_linear)" stroke-width="0.1" stroke-miterlimit="10" stroke-linecap="round" stroke-linejoin="round"/>
<path d="M-544.212 573.195C-504.001 589.192 -236.657 961.389 -108.61 668.679C-14.5792 453.691 102.845 445.05 221.97 446.73C436.656 449.438 365.724 176.68 538.387 135.757" stroke="url(#paint1_linear)" stroke-width="0.2" stroke-miterlimit="10" stroke-linecap="round" stroke-linejoin="round"/>
<path d="M-546.065 565.064C-497.428 586.386 -242.349 948.668 -107.321 673.214C-8.19059 470.886 108.988 458.748 223.85 452.199C430.917 439.758 363.005 172.555 536.885 129" stroke="url(#paint2_linear)" stroke-width="0.3" stroke-miterlimit="10" stroke-linecap="round" stroke-linejoin="round"/>
<path d="M-547.911 556.932C-490.842 583.588 -248.034 935.946 -106.031 677.749C-1.80555 488.092 115.129 472.434 225.722 457.659C425.169 430.068 360.285 168.431 535.374 122.234" stroke="url(#paint3_linear)" stroke-width="0.35" stroke-miterlimit="10" stroke-linecap="round" stroke-linejoin="round"/>
<path d="M-549.761 548.812C-484.262 580.791 -253.726 923.226 -104.747 682.285C4.5796 505.299 121.261 486.134 227.594 463.119C419.425 420.366 357.56 164.307 533.858 115.469" stroke="url(#paint4_linear)" stroke-width="0.4" stroke-miterlimit="10" stroke-linecap="round" stroke-linejoin="round"/>
<path d="M-551.613 540.681C-477.684 577.983 -259.417 910.506 -103.458 686.819C10.9705 522.504 127.495 500.209 229.465 468.579C413.852 411.376 354.833 160.173 532.347 108.703" stroke="url(#paint5_linear)" stroke-width="0.45" stroke-miterlimit="10" stroke-linecap="round" stroke-linejoin="round"/>
<path d="M-553.46 532.549C-471.098 575.185 -265.097 897.782 -102.168 691.354C17.3614 539.71 133.662 513.958 231.343 474.037C408.164 401.786 352.114 156.049 530.842 101.936" stroke="url(#paint6_linear)" stroke-width="0.5" stroke-miterlimit="10" stroke-linecap="round" stroke-linejoin="round"/>
<path d="M-555.312 524.418C-464.52 572.377 -270.788 885.062 -100.881 695.878C23.7476 556.893 139.822 527.674 233.212 479.487C402.461 392.155 349.384 151.904 529.329 95.1588" stroke="url(#paint7_linear)" stroke-width="0.55" stroke-miterlimit="10" stroke-linecap="round" stroke-linejoin="round"/>
<path d="M-557.159 516.286C-457.942 569.569 -276.473 872.34 -99.5913 700.412C30.1385 574.098 145.991 541.4 235.087 484.957C396.763 382.522 346.668 147.79 527.818 88.3927" stroke="url(#paint8_linear)" stroke-width="0.65" stroke-miterlimit="10" stroke-linecap="round" stroke-linejoin="round"/>
<path d="M-559.009 508.166C-451.359 566.783 -282.162 859.631 -98.3076 704.948C36.5236 591.305 152.148 555.106 236.959 490.417C391.06 372.868 343.943 143.666 526.302 81.6279" stroke="url(#paint9_linear)" stroke-width="0.7" stroke-miterlimit="10" stroke-linecap="round" stroke-linejoin="round"/>
<path d="M-560.861 500.035C-444.781 563.976 -287.856 846.899 -97.0238 709.484C42.9087 608.512 158.298 568.802 238.825 495.879C385.345 363.183 341.21 139.533 524.785 74.8631" stroke="url(#paint10_linear)" stroke-width="0.75" stroke-miterlimit="10" stroke-linecap="round" stroke-linejoin="round"/>
<path d="M-562.708 491.902C-438.201 561.179 -293.541 834.178 -95.7283 714.018C49.3032 625.705 164.462 582.483 240.708 501.336C379.642 353.472 338.496 135.407 523.286 68.0944" stroke="url(#paint11_linear)" stroke-width="0.8" stroke-miterlimit="10" stroke-linecap="round" stroke-linejoin="round"/>
<path d="M-564.56 483.772C-431.623 558.371 -299.233 821.457 -94.4471 718.543C55.6858 642.9 170.604 596.147 242.572 506.786C373.9 343.725 335.766 131.262 521.767 61.3189" stroke="url(#paint12_linear)" stroke-width="0.85" stroke-miterlimit="10" stroke-linecap="round" stroke-linejoin="round"/>
<path d="M-566.407 475.639C-425.039 555.562 -304.918 808.736 -93.1575 723.078C62.0767 660.106 176.744 609.8 244.449 512.245C368.17 333.975 333.047 127.138 520.256 54.5528" stroke="url(#paint13_linear)" stroke-width="0.9" stroke-miterlimit="10" stroke-linecap="round" stroke-linejoin="round"/>
<path d="M-568.256 467.519C-418.456 552.776 -310.601 796.024 -91.8708 727.624C68.4647 677.323 182.881 623.465 246.321 517.728C362.417 324.229 330.322 123.037 518.745 47.8095" stroke="url(#paint14_linear)" stroke-width="0.95" stroke-miterlimit="10" stroke-linecap="round" stroke-linejoin="round"/>
<path d="M-570.103 459.387C-411.872 549.967 -316.286 783.303 -90.5778 732.147C74.8591 694.516 189.01 637.098 248.202 523.174C356.663 314.428 327.604 118.889 517.244 41.03" stroke="url(#paint15_linear)" stroke-miterlimit="10" stroke-linecap="round" stroke-linejoin="round"/>
<path d="M-571.955 451.256C-405.298 547.171 -321.98 770.572 -89.2939 736.683C81.2419 711.712 195.127 650.733 250.068 528.635C350.874 304.634 324.879 114.766 515.727 34.2652" stroke="url(#paint16_linear)" stroke-width="1.05" stroke-miterlimit="10" stroke-linecap="round" stroke-linejoin="round"/>
<path d="M-573.808 443.125C-398.72 544.364 -327.671 757.851 -88.0103 741.219C87.6269 728.918 201.052 664.116 251.94 534.095C344.748 294.382 322.152 110.632 514.217 27.4991" stroke="url(#paint17_linear)" stroke-width="1.1" stroke-miterlimit="10" stroke-linecap="round" stroke-linejoin="round"/>
<path d="M-575.654 434.993C-392.134 541.565 -333.354 745.14 -86.7207 745.753C94.0178 746.124 207.196 677.813 253.811 539.555C339.007 284.691 319.427 106.508 512.697 20.7236" stroke="url(#paint18_linear)" stroke-width="1.15" stroke-miterlimit="10" stroke-linecap="round" stroke-linejoin="round"/>
<path d="M-577.504 426.873C-385.553 538.769 -339.046 732.42 -85.4334 750.277C100.406 763.318 213.329 691.49 255.687 545.003C333.263 274.99 316.705 102.373 511.19 13.9453" stroke="url(#paint19_linear)" stroke-width="1.2" stroke-miterlimit="10" stroke-linecap="round" stroke-linejoin="round"/>
<path d="M-579.351 418.741C-378.976 535.961 -344.731 719.698 -84.1439 754.812C106.795 780.513 219.472 705.188 257.561 550.474C327.524 265.31 313.986 98.2482 509.682 7.19011" stroke="url(#paint20_linear)" stroke-width="1.25" stroke-miterlimit="10" stroke-linecap="round" stroke-linejoin="round"/>
<path d="M-581.203 410.61C-372.395 533.164 -350.422 706.977 -82.854 759.346C113.18 797.719 225.608 718.876 259.439 555.932C321.783 255.619 311.267 94.1234 508.177 0.422628" stroke="url(#paint21_linear)" stroke-width="1.3" stroke-miterlimit="10" stroke-linecap="round" stroke-linejoin="round"/>
</g>
<defs>
<linearGradient id="paint0_linear" x1="-534.263" y1="617.615" x2="589.931" y2="366.607" gradientUnits="userSpaceOnUse">
<stop stop-color="#00529B" stop-opacity="0.85"/>
<stop offset="0.203125" stop-color="#8DC63F" stop-opacity="0.15"/>
<stop offset="0.651042" stop-color="#DC4326" stop-opacity="0.5"/>
<stop offset="1" stop-color="#00529B"/>
</linearGradient>
<linearGradient id="paint1_linear" x1="-535.467" y1="612.363" x2="588.757" y2="361.348" gradientUnits="userSpaceOnUse">
<stop stop-color="#00529B" stop-opacity="0.85"/>
<stop offset="0.203125" stop-color="#8DC63F" stop-opacity="0.15"/>
<stop offset="0.651042" stop-color="#DC4326" stop-opacity="0.5"/>
<stop offset="1" stop-color="#00529B"/>
</linearGradient>
<linearGradient id="paint2_linear" x1="-536.656" y1="607.203" x2="587.609" y2="356.179" gradientUnits="userSpaceOnUse">
<stop stop-color="#00529B" stop-opacity="0.85"/>
<stop offset="0.203125" stop-color="#8DC63F" stop-opacity="0.15"/>
<stop offset="0.651042" stop-color="#DC4326" stop-opacity="0.5"/>
<stop offset="1" stop-color="#00529B"/>
</linearGradient>
<linearGradient id="paint3_linear" x1="-537.82" y1="602.125" x2="586.474" y2="351.095" gradientUnits="userSpaceOnUse">
<stop stop-color="#00529B" stop-opacity="0.85"/>
<stop offset="0.203125" stop-color="#8DC63F" stop-opacity="0.15"/>
<stop offset="0.651042" stop-color="#DC4326" stop-opacity="0.5"/>
<stop offset="1" stop-color="#00529B"/>
</linearGradient>
<linearGradient id="paint4_linear" x1="-538.968" y1="597.149" x2="585.355" y2="346.112" gradientUnits="userSpaceOnUse">
<stop stop-color="#00529B" stop-opacity="0.85"/>
<stop offset="0.203125" stop-color="#8DC63F" stop-opacity="0.15"/>
<stop offset="0.651042" stop-color="#DC4326" stop-opacity="0.5"/>
<stop offset="1" stop-color="#00529B"/>
</linearGradient>
<linearGradient id="paint5_linear" x1="-540.091" y1="592.285" x2="584.267" y2="341.24" gradientUnits="userSpaceOnUse">
<stop stop-color="#00529B" stop-opacity="0.85"/>
<stop offset="0.203125" stop-color="#8DC63F" stop-opacity="0.15"/>
<stop offset="0.651042" stop-color="#DC4326" stop-opacity="0.5"/>
<stop offset="1" stop-color="#00529B"/>
</linearGradient>
<linearGradient id="paint6_linear" x1="-541.179" y1="587.55" x2="583.215" y2="336.498" gradientUnits="userSpaceOnUse">
<stop stop-color="#00529B" stop-opacity="0.85"/>
<stop offset="0.203125" stop-color="#8DC63F" stop-opacity="0.15"/>
<stop offset="0.651042" stop-color="#DC4326" stop-opacity="0.5"/>
<stop offset="1" stop-color="#00529B"/>
</linearGradient>
<linearGradient id="paint7_linear" x1="-542.242" y1="582.958" x2="582.188" y2="331.897" gradientUnits="userSpaceOnUse">
<stop stop-color="#00529B" stop-opacity="0.85"/>
<stop offset="0.203125" stop-color="#8DC63F" stop-opacity="0.15"/>
<stop offset="0.651042" stop-color="#DC4326" stop-opacity="0.5"/>
<stop offset="1" stop-color="#00529B"/>
</linearGradient>
<linearGradient id="paint8_linear" x1="-543.257" y1="578.547" x2="581.201" y2="327.48" gradientUnits="userSpaceOnUse">
<stop stop-color="#00529B" stop-opacity="0.85"/>
<stop offset="0.203125" stop-color="#8DC63F" stop-opacity="0.15"/>
<stop offset="0.651042" stop-color="#DC4326" stop-opacity="0.5"/>
<stop offset="1" stop-color="#00529B"/>
</linearGradient>
<linearGradient id="paint9_linear" x1="-544.233" y1="574.344" x2="580.255" y2="323.27" gradientUnits="userSpaceOnUse">
<stop stop-color="#00529B" stop-opacity="0.85"/>
<stop offset="0.203125" stop-color="#8DC63F" stop-opacity="0.15"/>
<stop offset="0.651042" stop-color="#DC4326" stop-opacity="0.5"/>
<stop offset="1" stop-color="#00529B"/>
</linearGradient>
<linearGradient id="paint10_linear" x1="-545.155" y1="570.381" x2="579.363" y2="319.3" gradientUnits="userSpaceOnUse">
<stop stop-color="#00529B" stop-opacity="0.85"/>
<stop offset="0.203125" stop-color="#8DC63F" stop-opacity="0.15"/>
<stop offset="0.651042" stop-color="#DC4326" stop-opacity="0.5"/>
<stop offset="1" stop-color="#00529B"/>
</linearGradient>
<linearGradient id="paint11_linear" x1="-546.005" y1="566.711" x2="578.554" y2="315.621" gradientUnits="userSpaceOnUse">
<stop stop-color="#00529B" stop-opacity="0.85"/>
<stop offset="0.203125" stop-color="#8DC63F" stop-opacity="0.15"/>
<stop offset="0.651042" stop-color="#DC4326" stop-opacity="0.5"/>
<stop offset="1" stop-color="#00529B"/>
</linearGradient>
<linearGradient id="paint12_linear" x1="-546.783" y1="563.39" x2="577.804" y2="312.294" gradientUnits="userSpaceOnUse">
<stop stop-color="#00529B" stop-opacity="0.85"/>
<stop offset="0.203125" stop-color="#8DC63F" stop-opacity="0.15"/>
<stop offset="0.651042" stop-color="#DC4326" stop-opacity="0.5"/>
<stop offset="1" stop-color="#00529B"/>
</linearGradient>
<linearGradient id="paint13_linear" x1="-547.454" y1="560.523" x2="577.163" y2="309.42" gradientUnits="userSpaceOnUse">
<stop stop-color="#00529B" stop-opacity="0.85"/>
<stop offset="0.203125" stop-color="#8DC63F" stop-opacity="0.15"/>
<stop offset="0.651042" stop-color="#DC4326" stop-opacity="0.5"/>
<stop offset="1" stop-color="#00529B"/>
</linearGradient>
<linearGradient id="paint14_linear" x1="-548.001" y1="558.238" x2="576.646" y2="307.13" gradientUnits="userSpaceOnUse">
<stop stop-color="#00529B" stop-opacity="0.85"/>
<stop offset="0.203125" stop-color="#8DC63F" stop-opacity="0.15"/>
<stop offset="0.651042" stop-color="#DC4326" stop-opacity="0.5"/>
<stop offset="1" stop-color="#00529B"/>
</linearGradient>
<linearGradient id="paint15_linear" x1="-548.383" y1="556.664" x2="576.304" y2="305.546" gradientUnits="userSpaceOnUse">
<stop stop-color="#00529B" stop-opacity="0.85"/>
<stop offset="0.203125" stop-color="#8DC63F" stop-opacity="0.15"/>
<stop offset="0.651042" stop-color="#DC4326" stop-opacity="0.5"/>
<stop offset="1" stop-color="#00529B"/>
</linearGradient>
<linearGradient id="paint16_linear" x1="-548.386" y1="556.817" x2="576.331" y2="305.692" gradientUnits="userSpaceOnUse">
<stop stop-color="#00529B" stop-opacity="0.85"/>
<stop offset="0.203125" stop-color="#8DC63F" stop-opacity="0.15"/>
<stop offset="0.651042" stop-color="#DC4326" stop-opacity="0.5"/>
<stop offset="1" stop-color="#00529B"/>
</linearGradient>
<linearGradient id="paint17_linear" x1="-548.079" y1="558.354" x2="576.673" y2="307.222" gradientUnits="userSpaceOnUse">
<stop stop-color="#00529B" stop-opacity="0.85"/>
<stop offset="0.203125" stop-color="#8DC63F" stop-opacity="0.15"/>
<stop offset="0.651042" stop-color="#DC4326" stop-opacity="0.5"/>
<stop offset="1" stop-color="#00529B"/>
</linearGradient>
<linearGradient id="paint18_linear" x1="-547.634" y1="560.486" x2="577.141" y2="309.349" gradientUnits="userSpaceOnUse">
<stop stop-color="#00529B" stop-opacity="0.85"/>
<stop offset="0.203125" stop-color="#8DC63F" stop-opacity="0.15"/>
<stop offset="0.651042" stop-color="#DC4326" stop-opacity="0.5"/>
<stop offset="1" stop-color="#00529B"/>
</linearGradient>
<linearGradient id="paint19_linear" x1="-547.124" y1="562.937" x2="577.693" y2="311.79" gradientUnits="userSpaceOnUse">
<stop stop-color="#00529B" stop-opacity="0.85"/>
<stop offset="0.203125" stop-color="#8DC63F" stop-opacity="0.15"/>
<stop offset="0.651042" stop-color="#DC4326" stop-opacity="0.5"/>
<stop offset="1" stop-color="#00529B"/>
</linearGradient>
<linearGradient id="paint20_linear" x1="-546.56" y1="565.6" x2="578.286" y2="314.447" gradientUnits="userSpaceOnUse">
<stop stop-color="#00529B" stop-opacity="0.85"/>
<stop offset="0.203125" stop-color="#8DC63F" stop-opacity="0.15"/>
<stop offset="0.651042" stop-color="#DC4326" stop-opacity="0.5"/>
<stop offset="1" stop-color="#00529B"/>
</linearGradient>
<linearGradient id="paint21_linear" x1="-545.973" y1="568.394" x2="578.914" y2="317.231" gradientUnits="userSpaceOnUse">
<stop stop-color="#00529B" stop-opacity="0.85"/>
<stop offset="0.203125" stop-color="#8DC63F" stop-opacity="0.15"/>
<stop offset="0.651042" stop-color="#DC4326" stop-opacity="0.5"/>
<stop offset="1" stop-color="#00529B"/>
</linearGradient>
<clipPath id="clip0">
<rect x="-617" y="251.253" width="1153" height="650" transform="rotate(-12.5864 -617 251.253)" fill="white"/>
</clipPath>
</defs>
</svg>
