<svg width="319" height="660" viewBox="0 0 319 660" fill="none" xmlns="http://www.w3.org/2000/svg">
<mask id="mask0" mask-type="alpha" maskUnits="userSpaceOnUse" x="-1" y="0" width="320" height="660">
<rect x="-1" width="320" height="660" fill="url(#paint0_linear)"/>
</mask>
<g mask="url(#mask0)">
<path d="M-220.855 434.815C-139.346 491.505 -35.3983 566.739 85.548 610.95C256.746 673.534 121.428 221.939 249.009 202.204C386.028 181.011 438.108 259.341 438.108 259.341" stroke="url(#paint1_linear)" stroke-width="1.3" stroke-miterlimit="10" stroke-linecap="round" stroke-linejoin="round"/>
<path d="M-216.69 441.064C-136.616 495.051 -37.1413 555.918 86.4115 601.368C256.506 663.789 131.539 234.006 254.98 209.197C385.527 182.958 432.077 250.425 432.077 250.425" stroke="url(#paint2_linear)" stroke-width="1.25" stroke-miterlimit="10" stroke-linecap="round" stroke-linejoin="round"/>
<path d="M-212.524 447.313C-133.89 498.59 -38.8868 545.098 87.2753 591.785C256.268 654.041 141.648 246.151 260.947 216.191C385.054 185.029 426.046 241.509 426.046 241.509" stroke="url(#paint3_linear)" stroke-width="1.2" stroke-miterlimit="10" stroke-linecap="round" stroke-linejoin="round"/>
<path d="M-208.359 453.561C-131.159 502.135 -40.6293 534.277 88.1393 582.203C256.027 644.288 151.756 258.373 266.918 223.183C384.609 187.218 420.016 232.592 420.016 232.592" stroke="url(#paint4_linear)" stroke-width="1.15" stroke-miterlimit="10" stroke-linecap="round" stroke-linejoin="round"/>
<path d="M-204.197 459.804C-128.433 505.675 -42.3789 523.452 88.9989 572.615C255.787 634.543 161.873 270.692 272.886 230.178C384.212 189.545 413.985 223.676 413.985 223.676" stroke="url(#paint5_linear)" stroke-width="1.1" stroke-miterlimit="10" stroke-linecap="round" stroke-linejoin="round"/>
<path d="M-200.032 466.053C-125.706 509.214 -44.1244 512.632 89.8588 563.027C255.552 624.794 172.014 283.113 278.856 237.17C383.864 192.017 407.954 214.76 407.954 214.76" stroke="url(#paint6_linear)" stroke-width="1.05" stroke-miterlimit="10" stroke-linecap="round" stroke-linejoin="round"/>
<path d="M-195.866 472.301C-122.976 512.759 -45.8669 501.81 90.7227 553.444C255.308 615.042 182.184 295.642 284.827 244.162C383.575 194.636 401.923 205.844 401.923 205.844" stroke="url(#paint7_linear)" stroke-miterlimit="10" stroke-linecap="round" stroke-linejoin="round"/>
<path d="M-191.701 478.549C-120.245 516.304 -47.6135 490.983 91.5894 543.86C255.07 605.294 192.397 308.295 290.794 251.156C383.355 197.405 395.893 196.927 395.893 196.927" stroke="url(#paint8_linear)" stroke-width="0.95" stroke-miterlimit="10" stroke-linecap="round" stroke-linejoin="round"/>
<path d="M-187.532 484.797C-117.516 519.842 -49.3523 480.167 92.452 534.27C254.832 595.54 202.666 321.08 296.764 258.141C383.207 200.329 389.862 188.011 389.862 188.011" stroke="url(#paint9_linear)" stroke-width="0.9" stroke-miterlimit="10" stroke-linecap="round" stroke-linejoin="round"/>
<path d="M-183.367 491.045C-114.786 523.387 -51.0978 469.348 93.3157 524.688C254.591 585.794 213.002 334.016 302.731 265.135C383.145 203.415 383.831 179.095 383.831 179.095" stroke="url(#paint10_linear)" stroke-width="0.85" stroke-miterlimit="10" stroke-linecap="round" stroke-linejoin="round"/>
<path d="M-179.205 497.288C-112.062 526.928 -52.8443 458.521 94.1756 515.1C254.354 576.047 223.43 347.102 308.702 272.128C383.174 206.653 377.801 170.179 377.801 170.179" stroke="url(#paint11_linear)" stroke-width="0.8" stroke-miterlimit="10" stroke-linecap="round" stroke-linejoin="round"/>
<path d="M-175.04 503.536C-109.331 530.473 -54.5897 447.701 95.0396 505.518C254.117 566.299 233.957 360.351 314.67 279.122C383.306 210.051 371.774 161.268 371.774 161.268" stroke="url(#paint12_linear)" stroke-width="0.75" stroke-miterlimit="10" stroke-linecap="round" stroke-linejoin="round"/>
<path d="M-170.874 509.785C-106.605 534.013 -56.3352 436.881 95.9033 495.935C253.876 556.554 244.605 373.773 320.637 286.116C383.543 213.598 365.743 152.352 365.743 152.352" stroke="url(#paint13_linear)" stroke-width="0.7" stroke-miterlimit="10" stroke-linecap="round" stroke-linejoin="round"/>
<path d="M-166.709 516.034C-103.874 537.558 -58.0778 426.06 96.7632 486.347C253.635 546.801 255.389 387.367 326.608 293.109C383.892 217.292 359.713 143.436 359.713 143.436" stroke="url(#paint14_linear)" stroke-width="0.65" stroke-miterlimit="10" stroke-linecap="round" stroke-linejoin="round"/>
<path d="M-162.543 522.282C-101.144 541.103 -59.8232 415.24 97.6271 476.765C253.397 537.053 266.331 401.151 332.576 300.103C384.359 221.117 353.682 134.52 353.682 134.52" stroke="url(#paint15_linear)" stroke-width="0.6" stroke-miterlimit="10" stroke-linecap="round" stroke-linejoin="round"/>
<path d="M-158.377 528.531C-98.4173 544.643 -61.5659 404.419 98.4909 467.183C253.157 527.308 277.443 415.11 338.546 307.096C384.946 225.075 347.651 125.604 347.651 125.604" stroke="url(#paint16_linear)" stroke-width="0.52" stroke-miterlimit="10" stroke-linecap="round" stroke-linejoin="round"/>
<path d="M-154.216 534.774C-95.691 548.182 -63.3154 393.593 99.3506 457.594C252.916 517.554 288.744 429.246 344.514 314.09C385.657 229.135 341.62 116.687 341.62 116.687" stroke="url(#paint17_linear)" stroke-width="0.45" stroke-miterlimit="10" stroke-linecap="round" stroke-linejoin="round"/>
<path d="M-150.05 541.022C-92.9604 551.727 -65.058 382.772 100.211 448.007C252.678 507.807 300.253 443.557 350.484 321.082C386.488 233.285 335.59 107.771 335.59 107.771" stroke="url(#paint18_linear)" stroke-width="0.38" stroke-miterlimit="10" stroke-linecap="round" stroke-linejoin="round"/>
<path d="M-145.882 547.269C-90.2311 555.265 -66.8046 371.944 101.077 438.422C252.441 498.059 311.975 458.039 356.455 328.074C387.442 237.513 329.559 98.8545 329.559 98.8545" stroke="url(#paint19_linear)" stroke-width="0.3" stroke-miterlimit="10" stroke-linecap="round" stroke-linejoin="round"/>
<path d="M-141.716 553.518C-87.5033 558.812 -68.5501 361.125 101.944 428.838C252.202 488.305 323.928 472.671 362.421 335.061C388.517 241.795 323.528 89.9385 323.528 89.9385" stroke="url(#paint20_linear)" stroke-width="0.2" stroke-miterlimit="10" stroke-linecap="round" stroke-linejoin="round"/>
<path d="M-137.551 559.766C-84.7731 562.357 -70.2929 350.303 102.808 419.256C251.962 478.559 336.105 487.431 368.389 342.055C389.698 246.107 317.498 81.022 317.498 81.022" stroke="url(#paint21_linear)" stroke-width="0.1" stroke-miterlimit="10" stroke-linecap="round" stroke-linejoin="round"/>
<path d="M-133.385 566.015C-82.0421 565.903 -72.0377 339.484 103.672 409.674C251.725 468.812 348.522 502.311 374.364 349.054C390.992 250.43 311.468 72.1064 311.468 72.1064" stroke="url(#paint22_linear)" stroke-width="0.1" stroke-miterlimit="10" stroke-linecap="round" stroke-linejoin="round"/>
</g>
<defs>
<linearGradient id="paint0_linear" x1="12.5" y1="43.0585" x2="305.849" y2="45.9107" gradientUnits="userSpaceOnUse">
<stop stop-color="#1E2233"/>
<stop offset="1" stop-color="#12131F"/>
</linearGradient>
<linearGradient id="paint1_linear" x1="410.049" y1="217.856" x2="-123.509" y2="578.739" gradientUnits="userSpaceOnUse">
<stop offset="0.119792" stop-color="#CE4830" stop-opacity="0.2"/>
<stop offset="0.317708" stop-color="#FDB913" stop-opacity="0.3"/>
<stop offset="0.609375" stop-color="#8DC63F" stop-opacity="0.5"/>
<stop offset="0.96875" stop-color="#00529B"/>
</linearGradient>
<linearGradient id="paint2_linear" x1="410.362" y1="218.32" x2="-123.238" y2="579.231" gradientUnits="userSpaceOnUse">
<stop offset="0.119792" stop-color="#CE4830" stop-opacity="0.2"/>
<stop offset="0.317708" stop-color="#FDB913" stop-opacity="0.3"/>
<stop offset="0.609375" stop-color="#8DC63F" stop-opacity="0.5"/>
<stop offset="0.96875" stop-color="#00529B"/>
</linearGradient>
<linearGradient id="paint3_linear" x1="410.705" y1="218.827" x2="-122.936" y2="579.767" gradientUnits="userSpaceOnUse">
<stop offset="0.119792" stop-color="#CE4830" stop-opacity="0.2"/>
<stop offset="0.317708" stop-color="#FDB913" stop-opacity="0.3"/>
<stop offset="0.609375" stop-color="#8DC63F" stop-opacity="0.5"/>
<stop offset="0.96875" stop-color="#00529B"/>
</linearGradient>
<linearGradient id="paint4_linear" x1="411.082" y1="219.384" x2="-122.601" y2="580.352" gradientUnits="userSpaceOnUse">
<stop offset="0.119792" stop-color="#CE4830" stop-opacity="0.2"/>
<stop offset="0.317708" stop-color="#FDB913" stop-opacity="0.3"/>
<stop offset="0.609375" stop-color="#8DC63F" stop-opacity="0.5"/>
<stop offset="0.96875" stop-color="#00529B"/>
</linearGradient>
<linearGradient id="paint5_linear" x1="411.497" y1="219.998" x2="-122.228" y2="580.994" gradientUnits="userSpaceOnUse">
<stop offset="0.119792" stop-color="#CE4830" stop-opacity="0.2"/>
<stop offset="0.317708" stop-color="#FDB913" stop-opacity="0.3"/>
<stop offset="0.609375" stop-color="#8DC63F" stop-opacity="0.5"/>
<stop offset="0.96875" stop-color="#00529B"/>
</linearGradient>
<linearGradient id="paint6_linear" x1="411.961" y1="220.684" x2="-121.806" y2="581.708" gradientUnits="userSpaceOnUse">
<stop offset="0.119792" stop-color="#CE4830" stop-opacity="0.2"/>
<stop offset="0.317708" stop-color="#FDB913" stop-opacity="0.3"/>
<stop offset="0.609375" stop-color="#8DC63F" stop-opacity="0.5"/>
<stop offset="0.96875" stop-color="#00529B"/>
</linearGradient>
<linearGradient id="paint7_linear" x1="412.481" y1="221.453" x2="-121.327" y2="582.506" gradientUnits="userSpaceOnUse">
<stop offset="0.119792" stop-color="#CE4830" stop-opacity="0.2"/>
<stop offset="0.317708" stop-color="#FDB913" stop-opacity="0.3"/>
<stop offset="0.609375" stop-color="#8DC63F" stop-opacity="0.5"/>
<stop offset="0.96875" stop-color="#00529B"/>
</linearGradient>
<linearGradient id="paint8_linear" x1="413.07" y1="222.323" x2="-120.78" y2="583.404" gradientUnits="userSpaceOnUse">
<stop offset="0.119792" stop-color="#CE4830" stop-opacity="0.2"/>
<stop offset="0.317708" stop-color="#FDB913" stop-opacity="0.3"/>
<stop offset="0.609375" stop-color="#8DC63F" stop-opacity="0.5"/>
<stop offset="0.96875" stop-color="#00529B"/>
</linearGradient>
<linearGradient id="paint9_linear" x1="413.737" y1="223.311" x2="-120.152" y2="584.418" gradientUnits="userSpaceOnUse">
<stop offset="0.119792" stop-color="#CE4830" stop-opacity="0.2"/>
<stop offset="0.317708" stop-color="#FDB913" stop-opacity="0.3"/>
<stop offset="0.609375" stop-color="#8DC63F" stop-opacity="0.5"/>
<stop offset="0.96875" stop-color="#00529B"/>
</linearGradient>
<linearGradient id="paint10_linear" x1="414.506" y1="224.446" x2="-119.425" y2="585.581" gradientUnits="userSpaceOnUse">
<stop offset="0.119792" stop-color="#CE4830" stop-opacity="0.2"/>
<stop offset="0.317708" stop-color="#FDB913" stop-opacity="0.3"/>
<stop offset="0.609375" stop-color="#8DC63F" stop-opacity="0.5"/>
<stop offset="0.96875" stop-color="#00529B"/>
</linearGradient>
<linearGradient id="paint11_linear" x1="415.393" y1="225.758" x2="-118.58" y2="586.921" gradientUnits="userSpaceOnUse">
<stop offset="0.119792" stop-color="#CE4830" stop-opacity="0.2"/>
<stop offset="0.317708" stop-color="#FDB913" stop-opacity="0.3"/>
<stop offset="0.609375" stop-color="#8DC63F" stop-opacity="0.5"/>
<stop offset="0.96875" stop-color="#00529B"/>
</linearGradient>
<linearGradient id="paint12_linear" x1="416.434" y1="227.297" x2="-117.58" y2="588.489" gradientUnits="userSpaceOnUse">
<stop offset="0.119792" stop-color="#CE4830" stop-opacity="0.2"/>
<stop offset="0.317708" stop-color="#FDB913" stop-opacity="0.3"/>
<stop offset="0.609375" stop-color="#8DC63F" stop-opacity="0.5"/>
<stop offset="0.96875" stop-color="#00529B"/>
</linearGradient>
<linearGradient id="paint13_linear" x1="417.665" y1="229.117" x2="-116.391" y2="590.337" gradientUnits="userSpaceOnUse">
<stop offset="0.119792" stop-color="#CE4830" stop-opacity="0.2"/>
<stop offset="0.317708" stop-color="#FDB913" stop-opacity="0.3"/>
<stop offset="0.609375" stop-color="#8DC63F" stop-opacity="0.5"/>
<stop offset="0.96875" stop-color="#00529B"/>
</linearGradient>
<linearGradient id="paint14_linear" x1="415.294" y1="225.613" x2="-118.803" y2="586.861" gradientUnits="userSpaceOnUse">
<stop offset="0.119792" stop-color="#CE4830" stop-opacity="0.2"/>
<stop offset="0.317708" stop-color="#FDB913" stop-opacity="0.3"/>
<stop offset="0.609375" stop-color="#8DC63F" stop-opacity="0.5"/>
<stop offset="0.96875" stop-color="#00529B"/>
</linearGradient>
<linearGradient id="paint15_linear" x1="411.946" y1="220.662" x2="-122.193" y2="581.939" gradientUnits="userSpaceOnUse">
<stop offset="0.119792" stop-color="#CE4830" stop-opacity="0.2"/>
<stop offset="0.317708" stop-color="#FDB913" stop-opacity="0.3"/>
<stop offset="0.609375" stop-color="#8DC63F" stop-opacity="0.5"/>
<stop offset="0.96875" stop-color="#00529B"/>
</linearGradient>
<linearGradient id="paint16_linear" x1="408.97" y1="216.262" x2="-125.211" y2="577.567" gradientUnits="userSpaceOnUse">
<stop offset="0.119792" stop-color="#CE4830" stop-opacity="0.2"/>
<stop offset="0.317708" stop-color="#FDB913" stop-opacity="0.3"/>
<stop offset="0.609375" stop-color="#8DC63F" stop-opacity="0.5"/>
<stop offset="0.96875" stop-color="#00529B"/>
</linearGradient>
<linearGradient id="paint17_linear" x1="406.436" y1="212.516" x2="-127.787" y2="573.848" gradientUnits="userSpaceOnUse">
<stop offset="0.119792" stop-color="#CE4830" stop-opacity="0.2"/>
<stop offset="0.317708" stop-color="#FDB913" stop-opacity="0.3"/>
<stop offset="0.609375" stop-color="#8DC63F" stop-opacity="0.5"/>
<stop offset="0.96875" stop-color="#00529B"/>
</linearGradient>
<linearGradient id="paint18_linear" x1="404.396" y1="209.499" x2="-129.869" y2="570.86" gradientUnits="userSpaceOnUse">
<stop offset="0.119792" stop-color="#CE4830" stop-opacity="0.2"/>
<stop offset="0.317708" stop-color="#FDB913" stop-opacity="0.3"/>
<stop offset="0.609375" stop-color="#8DC63F" stop-opacity="0.5"/>
<stop offset="0.96875" stop-color="#00529B"/>
</linearGradient>
<linearGradient id="paint19_linear" x1="402.847" y1="207.209" x2="-131.457" y2="568.596" gradientUnits="userSpaceOnUse">
<stop offset="0.119792" stop-color="#CE4830" stop-opacity="0.2"/>
<stop offset="0.317708" stop-color="#FDB913" stop-opacity="0.3"/>
<stop offset="0.609375" stop-color="#8DC63F" stop-opacity="0.5"/>
<stop offset="0.96875" stop-color="#00529B"/>
</linearGradient>
<linearGradient id="paint20_linear" x1="401.731" y1="205.559" x2="-132.614" y2="566.975" gradientUnits="userSpaceOnUse">
<stop offset="0.119792" stop-color="#CE4830" stop-opacity="0.2"/>
<stop offset="0.317708" stop-color="#FDB913" stop-opacity="0.3"/>
<stop offset="0.609375" stop-color="#8DC63F" stop-opacity="0.5"/>
<stop offset="0.96875" stop-color="#00529B"/>
</linearGradient>
<linearGradient id="paint21_linear" x1="400.96" y1="204.419" x2="-133.427" y2="565.863" gradientUnits="userSpaceOnUse">
<stop offset="0.119792" stop-color="#CE4830" stop-opacity="0.2"/>
<stop offset="0.317708" stop-color="#FDB913" stop-opacity="0.3"/>
<stop offset="0.609375" stop-color="#8DC63F" stop-opacity="0.5"/>
<stop offset="0.96875" stop-color="#00529B"/>
</linearGradient>
<linearGradient id="paint22_linear" x1="400.45" y1="203.665" x2="-133.979" y2="565.137" gradientUnits="userSpaceOnUse">
<stop offset="0.119792" stop-color="#CE4830" stop-opacity="0.2"/>
<stop offset="0.317708" stop-color="#FDB913" stop-opacity="0.3"/>
<stop offset="0.609375" stop-color="#8DC63F" stop-opacity="0.5"/>
<stop offset="0.96875" stop-color="#00529B"/>
</linearGradient>
</defs>
</svg>
