<svg width="320" height="1341" viewBox="0 0 320 1341" fill="none" xmlns="http://www.w3.org/2000/svg">
<g clip-path="url(#clip0)">
<path d="M1012.59 927.195C851.085 943.911 637.671 978.701 422.468 928.224C188.343 873.311 32.4289 584.064 -16.9877 429.389C-77.0932 241.236 -1.53064 2.76403 -1.53064 2.76403" stroke="url(#paint0_linear)" stroke-width="1.5" stroke-miterlimit="10" stroke-linecap="round" stroke-linejoin="round"/>
<path d="M1002.8 933.652C844.917 947.223 644.123 960.586 424.494 912.79C187.216 860.764 23.591 589.976 -23.2585 429.826C-78.3756 241.381 12.5917 -6.36683 12.5917 -6.36683" stroke="url(#paint1_linear)" stroke-width="1.45" stroke-miterlimit="10" stroke-linecap="round" stroke-linejoin="round"/>
<path d="M993.003 940.109C838.759 950.529 650.585 942.464 426.529 897.349C186.103 848.199 14.6644 595.954 -29.5236 430.251C-79.8204 241.64 26.7141 -15.4977 26.7141 -15.4977" stroke="url(#paint2_linear)" stroke-width="1.4" stroke-miterlimit="10" stroke-linecap="round" stroke-linejoin="round"/>
<path d="M983.207 946.567C832.591 953.841 657.037 924.349 428.564 881.908C184.994 835.639 5.66206 601.997 -35.7852 430.681C-81.4485 242 40.8364 -24.6286 40.8364 -24.6286" stroke="url(#paint3_linear)" stroke-width="1.35" stroke-miterlimit="10" stroke-linecap="round" stroke-linejoin="round"/>
<path d="M973.42 953.018C826.432 957.147 663.138 906.765 430.595 866.462C183.502 823.641 -3.43258 608.099 -42.0596 431.112C-83.2244 242.456 54.9587 -33.7595 54.9587 -33.7595" stroke="url(#paint4_linear)" stroke-width="1.3" stroke-miterlimit="10" stroke-linecap="round" stroke-linejoin="round"/>
<path d="M963.624 959.475C820.274 960.453 669.543 888.738 432.63 851.021C182.336 811.176 -12.629 614.268 -48.3157 431.531C-85.1558 242.996 69.0811 -42.8903 69.0811 -42.8903" stroke="url(#paint5_linear)" stroke-width="1.25" stroke-miterlimit="10" stroke-linecap="round" stroke-linejoin="round"/>
<path d="M953.828 965.932C814.106 963.765 675.957 870.705 434.656 835.586C181.172 798.694 -21.9271 620.502 -54.5957 431.973C-87.224 243.608 83.2034 -52.0212 83.2034 -52.0212" stroke="url(#paint6_linear)" stroke-width="1.2" stroke-miterlimit="10" stroke-linecap="round" stroke-linejoin="round"/>
<path d="M944.028 972.384C807.934 967.071 682.378 852.643 436.687 820.14C180.033 786.187 -31.325 626.784 -60.8646 432.392C-89.4383 244.298 97.3258 -61.1521 97.3258 -61.1521" stroke="url(#paint7_linear)" stroke-width="1.15" stroke-miterlimit="10" stroke-linecap="round" stroke-linejoin="round"/>
<path d="M934.232 978.841C801.776 970.378 688.817 834.568 438.722 804.699C178.911 773.669 -40.8323 633.121 -67.1262 432.823C-91.775 245.043 111.448 -70.283 111.448 -70.283" stroke="url(#paint8_linear)" stroke-width="1.1" stroke-miterlimit="10" stroke-linecap="round" stroke-linejoin="round"/>
<path d="M924.436 985.298C795.608 973.69 695.262 816.482 440.744 789.258C177.779 761.133 -50.4745 639.512 -73.4043 433.248C-94.2337 245.841 125.57 -79.4138 125.57 -79.4138" stroke="url(#paint9_linear)" stroke-width="1.05" stroke-miterlimit="10" stroke-linecap="round" stroke-linejoin="round"/>
<path d="M914.649 991.75C789.453 977.001 701.731 798.372 442.788 773.812C176.683 748.574 -60.2038 645.95 -79.6566 433.672C-96.8053 246.688 139.693 -88.5447 139.693 -88.5447" stroke="url(#paint10_linear)" stroke-miterlimit="10" stroke-linecap="round" stroke-linejoin="round"/>
<path d="M904.853 998.207C783.285 980.313 708.206 780.251 444.813 758.377C175.587 736.014 -70.0721 652.438 -85.9312 434.103C-99.4845 247.571 153.806 -97.6696 153.806 -97.6696" stroke="url(#paint11_linear)" stroke-width="0.92" stroke-miterlimit="10" stroke-linecap="round" stroke-linejoin="round"/>
<path d="M895.057 1004.66C777.127 983.62 714.673 762.118 446.848 742.936C174.499 723.425 -80.0662 658.974 -92.2018 434.54C-102.258 248.491 167.928 -106.8 167.928 -106.8" stroke="url(#paint12_linear)" stroke-width="0.85" stroke-miterlimit="10" stroke-linecap="round" stroke-linejoin="round"/>
<path d="M885.261 1011.12C770.959 986.932 721.158 743.972 448.883 727.495C173.416 710.824 -90.1809 665.546 -98.4671 434.965C-105.13 249.441 182.051 -115.931 182.051 -115.931" stroke="url(#paint13_linear)" stroke-width="0.78" stroke-miterlimit="10" stroke-linecap="round" stroke-linejoin="round"/>
<path d="M875.465 1017.58C764.791 990.244 727.655 725.804 450.905 712.055C172.338 698.212 -100.438 672.162 -104.732 435.389C-108.087 250.422 196.182 -125.068 196.182 -125.068" stroke="url(#paint14_linear)" stroke-width="0.7" stroke-miterlimit="10" stroke-linecap="round" stroke-linejoin="round"/>
<path d="M865.669 1024.04C758.633 993.55 734.147 707.629 452.94 696.614C171.267 685.588 -110.829 678.814 -111.007 435.82C-111.137 251.421 210.295 -134.193 210.295 -134.193" stroke="url(#paint15_linear)" stroke-width="0.6" stroke-miterlimit="10" stroke-linecap="round" stroke-linejoin="round"/>
<path d="M855.882 1030.49C752.474 996.856 740.66 689.425 454.975 681.173C170.209 672.946 -121.357 685.498 -117.272 436.245C-114.257 252.433 224.418 -143.324 224.418 -143.324" stroke="url(#paint16_linear)" stroke-width="0.5" stroke-miterlimit="10" stroke-linecap="round" stroke-linejoin="round"/>
<path d="M846.086 1036.94C746.307 1000.17 747.422 670.714 457.01 665.733C169.406 659.785 -132.031 692.218 -123.534 436.676C-117.451 253.452 238.54 -152.455 238.54 -152.455" stroke="url(#paint17_linear)" stroke-width="0.4" stroke-miterlimit="10" stroke-linecap="round" stroke-linejoin="round"/>
<path d="M836.287 1043.4C740.144 1003.47 753.871 652.592 459.041 650.286C168.285 647.225 -142.847 698.963 -129.808 437.106C-120.712 254.489 252.662 -161.586 252.662 -161.586" stroke="url(#paint18_linear)" stroke-width="0.3" stroke-miterlimit="10" stroke-linecap="round" stroke-linejoin="round"/>
<path d="M826.491 1049.85C733.98 1006.79 760.323 634.477 461.063 634.846C167.176 634.666 -153.812 705.74 -136.073 437.531C-124.042 255.522 266.785 -170.717 266.785 -170.717" stroke="url(#paint19_linear)" stroke-width="0.2" stroke-miterlimit="10" stroke-linecap="round" stroke-linejoin="round"/>
<path d="M816.695 1056.31C727.812 1010.1 766.784 616.355 463.098 619.405C166.064 622.101 -164.923 712.536 -142.348 437.962C-127.424 256.554 280.907 -179.847 280.907 -179.847" stroke="url(#paint20_linear)" stroke-width="0.1286" stroke-miterlimit="10" stroke-linecap="round" stroke-linejoin="round"/>
<path d="M806.898 1062.77C721.644 1013.41 773.236 598.24 465.132 603.964C164.945 609.547 -176.187 719.358 -148.61 438.393C-130.859 257.588 295.029 -188.978 295.029 -188.978" stroke="url(#paint21_linear)" stroke-width="0.1" stroke-miterlimit="10" stroke-linecap="round" stroke-linejoin="round"/>
</g>
<defs>
<linearGradient id="paint0_linear" x1="29.225" y1="-17.1212" x2="749.683" y2="1097.18" gradientUnits="userSpaceOnUse">
<stop offset="0.119792" stop-color="#CE4830" stop-opacity="0.5"/>
<stop offset="0.317708" stop-color="#FDB913"/>
<stop offset="0.609375" stop-color="#8DC63F"/>
<stop offset="0.96875" stop-color="#00529B" stop-opacity="0.7"/>
</linearGradient>
<linearGradient id="paint1_linear" x1="22.7506" y1="-12.9351" x2="743.265" y2="1101.45" gradientUnits="userSpaceOnUse">
<stop offset="0.119792" stop-color="#CE4830" stop-opacity="0.5"/>
<stop offset="0.317708" stop-color="#FDB913"/>
<stop offset="0.609375" stop-color="#8DC63F"/>
<stop offset="0.96875" stop-color="#00529B" stop-opacity="0.7"/>
</linearGradient>
<linearGradient id="paint2_linear" x1="15.9897" y1="-8.56383" x2="736.561" y2="1105.91" gradientUnits="userSpaceOnUse">
<stop offset="0.119792" stop-color="#CE4830" stop-opacity="0.5"/>
<stop offset="0.317708" stop-color="#FDB913"/>
<stop offset="0.609375" stop-color="#8DC63F"/>
<stop offset="0.96875" stop-color="#00529B" stop-opacity="0.7"/>
</linearGradient>
<linearGradient id="paint3_linear" x1="9.00294" y1="-4.04654" x2="729.63" y2="1110.52" gradientUnits="userSpaceOnUse">
<stop offset="0.119792" stop-color="#CE4830" stop-opacity="0.5"/>
<stop offset="0.317708" stop-color="#FDB913"/>
<stop offset="0.609375" stop-color="#8DC63F"/>
<stop offset="0.96875" stop-color="#00529B" stop-opacity="0.7"/>
</linearGradient>
<linearGradient id="paint4_linear" x1="1.79764" y1="0.612083" x2="722.481" y2="1115.26" gradientUnits="userSpaceOnUse">
<stop offset="0.119792" stop-color="#CE4830" stop-opacity="0.5"/>
<stop offset="0.317708" stop-color="#FDB913"/>
<stop offset="0.609375" stop-color="#8DC63F"/>
<stop offset="0.96875" stop-color="#00529B" stop-opacity="0.7"/>
</linearGradient>
<linearGradient id="paint5_linear" x1="-5.4988" y1="5.32967" x2="715.241" y2="1120.07" gradientUnits="userSpaceOnUse">
<stop offset="0.119792" stop-color="#CE4830" stop-opacity="0.5"/>
<stop offset="0.317708" stop-color="#FDB913"/>
<stop offset="0.609375" stop-color="#8DC63F"/>
<stop offset="0.96875" stop-color="#00529B" stop-opacity="0.7"/>
</linearGradient>
<linearGradient id="paint6_linear" x1="-12.904" y1="10.1175" x2="707.892" y2="1124.94" gradientUnits="userSpaceOnUse">
<stop offset="0.119792" stop-color="#CE4830" stop-opacity="0.5"/>
<stop offset="0.317708" stop-color="#FDB913"/>
<stop offset="0.609375" stop-color="#8DC63F"/>
<stop offset="0.96875" stop-color="#00529B" stop-opacity="0.7"/>
</linearGradient>
<linearGradient id="paint7_linear" x1="-20.3835" y1="14.9535" x2="700.465" y2="1129.86" gradientUnits="userSpaceOnUse">
<stop offset="0.119792" stop-color="#CE4830" stop-opacity="0.5"/>
<stop offset="0.317708" stop-color="#FDB913"/>
<stop offset="0.609375" stop-color="#8DC63F"/>
<stop offset="0.96875" stop-color="#00529B" stop-opacity="0.7"/>
</linearGradient>
<linearGradient id="paint8_linear" x1="-27.9284" y1="19.8316" x2="692.977" y2="1134.83" gradientUnits="userSpaceOnUse">
<stop offset="0.119792" stop-color="#CE4830" stop-opacity="0.5"/>
<stop offset="0.317708" stop-color="#FDB913"/>
<stop offset="0.609375" stop-color="#8DC63F"/>
<stop offset="0.96875" stop-color="#00529B" stop-opacity="0.7"/>
</linearGradient>
<linearGradient id="paint9_linear" x1="-35.534" y1="24.7491" x2="685.428" y2="1139.83" gradientUnits="userSpaceOnUse">
<stop offset="0.119792" stop-color="#CE4830" stop-opacity="0.5"/>
<stop offset="0.317708" stop-color="#FDB913"/>
<stop offset="0.609375" stop-color="#8DC63F"/>
<stop offset="0.96875" stop-color="#00529B" stop-opacity="0.7"/>
</linearGradient>
<linearGradient id="paint10_linear" x1="-43.1713" y1="29.6869" x2="677.847" y2="1144.86" gradientUnits="userSpaceOnUse">
<stop offset="0.119792" stop-color="#CE4830" stop-opacity="0.5"/>
<stop offset="0.317708" stop-color="#FDB913"/>
<stop offset="0.609375" stop-color="#8DC63F"/>
<stop offset="0.96875" stop-color="#00529B" stop-opacity="0.7"/>
</linearGradient>
<linearGradient id="paint11_linear" x1="-50.8617" y1="34.6593" x2="670.213" y2="1149.91" gradientUnits="userSpaceOnUse">
<stop offset="0.119792" stop-color="#CE4830" stop-opacity="0.5"/>
<stop offset="0.317708" stop-color="#FDB913"/>
<stop offset="0.609375" stop-color="#8DC63F"/>
<stop offset="0.96875" stop-color="#00529B" stop-opacity="0.7"/>
</linearGradient>
<linearGradient id="paint12_linear" x1="-58.5886" y1="39.6552" x2="662.542" y2="1155" gradientUnits="userSpaceOnUse">
<stop offset="0.119792" stop-color="#CE4830" stop-opacity="0.5"/>
<stop offset="0.317708" stop-color="#FDB913"/>
<stop offset="0.609375" stop-color="#8DC63F"/>
<stop offset="0.96875" stop-color="#00529B" stop-opacity="0.7"/>
</linearGradient>
<linearGradient id="paint13_linear" x1="-57.3568" y1="38.8587" x2="663.83" y2="1154.29" gradientUnits="userSpaceOnUse">
<stop offset="0.119792" stop-color="#CE4830" stop-opacity="0.5"/>
<stop offset="0.317708" stop-color="#FDB913"/>
<stop offset="0.609375" stop-color="#8DC63F"/>
<stop offset="0.96875" stop-color="#00529B" stop-opacity="0.7"/>
</linearGradient>
<linearGradient id="paint14_linear" x1="-53.1536" y1="36.1411" x2="668.09" y2="1151.66" gradientUnits="userSpaceOnUse">
<stop offset="0.119792" stop-color="#CE4830" stop-opacity="0.5"/>
<stop offset="0.317708" stop-color="#FDB913"/>
<stop offset="0.609375" stop-color="#8DC63F"/>
<stop offset="0.96875" stop-color="#00529B" stop-opacity="0.7"/>
</linearGradient>
<linearGradient id="paint15_linear" x1="-48.9904" y1="33.4494" x2="672.31" y2="1149.05" gradientUnits="userSpaceOnUse">
<stop offset="0.119792" stop-color="#CE4830" stop-opacity="0.5"/>
<stop offset="0.317708" stop-color="#FDB913"/>
<stop offset="0.609375" stop-color="#8DC63F"/>
<stop offset="0.96875" stop-color="#00529B" stop-opacity="0.7"/>
</linearGradient>
<linearGradient id="paint16_linear" x1="-44.8466" y1="30.7702" x2="676.51" y2="1146.46" gradientUnits="userSpaceOnUse">
<stop offset="0.119792" stop-color="#CE4830" stop-opacity="0.5"/>
<stop offset="0.317708" stop-color="#FDB913"/>
<stop offset="0.609375" stop-color="#8DC63F"/>
<stop offset="0.96875" stop-color="#00529B" stop-opacity="0.7"/>
</linearGradient>
<linearGradient id="paint17_linear" x1="-40.7113" y1="28.0964" x2="680.701" y2="1143.88" gradientUnits="userSpaceOnUse">
<stop offset="0.119792" stop-color="#CE4830" stop-opacity="0.5"/>
<stop offset="0.317708" stop-color="#FDB913"/>
<stop offset="0.609375" stop-color="#8DC63F"/>
<stop offset="0.96875" stop-color="#00529B" stop-opacity="0.7"/>
</linearGradient>
<linearGradient id="paint18_linear" x1="-36.6265" y1="25.4554" x2="684.839" y2="1141.32" gradientUnits="userSpaceOnUse">
<stop offset="0.119792" stop-color="#CE4830" stop-opacity="0.5"/>
<stop offset="0.317708" stop-color="#FDB913"/>
<stop offset="0.609375" stop-color="#8DC63F"/>
<stop offset="0.96875" stop-color="#00529B" stop-opacity="0.7"/>
</linearGradient>
<linearGradient id="paint19_linear" x1="-32.5644" y1="22.829" x2="688.957" y2="1138.78" gradientUnits="userSpaceOnUse">
<stop offset="0.119792" stop-color="#CE4830" stop-opacity="0.5"/>
<stop offset="0.317708" stop-color="#FDB913"/>
<stop offset="0.609375" stop-color="#8DC63F"/>
<stop offset="0.96875" stop-color="#00529B" stop-opacity="0.7"/>
</linearGradient>
<linearGradient id="paint20_linear" x1="-28.5279" y1="20.2192" x2="693.05" y2="1136.25" gradientUnits="userSpaceOnUse">
<stop offset="0.119792" stop-color="#CE4830" stop-opacity="0.5"/>
<stop offset="0.317708" stop-color="#FDB913"/>
<stop offset="0.609375" stop-color="#8DC63F"/>
<stop offset="0.96875" stop-color="#00529B" stop-opacity="0.7"/>
</linearGradient>
<linearGradient id="paint21_linear" x1="-24.5141" y1="17.6238" x2="697.12" y2="1133.75" gradientUnits="userSpaceOnUse">
<stop offset="0.119792" stop-color="#CE4830" stop-opacity="0.5"/>
<stop offset="0.317708" stop-color="#FDB913"/>
<stop offset="0.609375" stop-color="#8DC63F"/>
<stop offset="0.96875" stop-color="#00529B" stop-opacity="0.7"/>
</linearGradient>
<clipPath id="clip0">
<rect x="294.944" y="-189.212" width="1329.37" height="761.137" transform="rotate(57.1151 294.944 -189.212)" fill="white"/>
</clipPath>
</defs>
</svg>
