<svg width="64" height="64" viewBox="0 0 64 64" fill="none" xmlns="http://www.w3.org/2000/svg">
<path fill-rule="evenodd" clip-rule="evenodd" d="M0 0H64V64H63.3343L61.5468 63.0179L54.7626 60.7291L50.185 59.3402L44.5473 58.1938L38.8232 57.3761L32.039 57.0514L25.5014 57.3761L19.5349 58.1938L13.893 59.3402L9.31955 60.7291L2.53535 63.0179L0.743756 64H0V0Z" fill="#2F3387"/>
<path fill-rule="evenodd" clip-rule="evenodd" d="M47.9784 32.1213L48.5496 31.7967L48.7961 30.9789L48.225 28.6902L47.4073 26.9725L45.9362 25.0125L43.1543 20.7595L42.5831 19.6172H43.972L45.365 19.8637L46.5073 20.7595L47.0785 21.906L47.4073 22.7237H48.7961V18.4707H38.0055H37.7631V19.6172L38.3342 21.906L39.152 23.5414L40.5409 25.2549L43.4008 29.5079L43.972 30.6502H42.2585L41.112 30.4037L39.9697 29.8325L39.3985 28.3614L39.152 27.5437H37.7631V32.1213H47.9784Z" fill="white"/>
<path fill-rule="evenodd" clip-rule="evenodd" d="M28.6079 18.4707V19.6172H29.1791L29.7502 19.8637L30.079 20.7595V29.8325L29.7502 30.4037L29.1791 30.6502L28.6079 30.9789V32.1213H36.0455V30.6502L35.1456 30.4037L34.5744 29.8325V29.5079V20.7595V20.4349L34.9031 19.8637L36.0455 19.6172V18.4707H28.6079Z" fill="white"/>
<path fill-rule="evenodd" clip-rule="evenodd" d="M15.286 18.4707H27.219V22.7237H25.5014V21.906L24.6836 20.4349L23.2126 19.6172H22.7236H21.2525V24.4372L22.7236 24.1126L22.966 23.2948V22.9661H24.359V27.5437H22.966V27.3013L22.7236 26.4014L21.8237 25.8302H21.2525V30.9789H22.7236L23.5413 30.6502L24.9302 29.8325L25.8301 27.5437H27.219V32.1213H15.286V30.9789L16.4284 30.6502L16.7571 29.8325V29.2613V21.3348V20.7595L16.4284 19.8637L15.286 19.6172V18.4707Z" fill="white"/>
<path fill-rule="evenodd" clip-rule="evenodd" d="M2.53534 32.1213V31.5501L2.77778 30.079L3.67768 27.8724L5.96648 25.0125L8.74426 20.7595L9.31954 19.6172H7.6841L6.21303 19.8637L5.06658 20.7595L4.82414 21.906L4.4954 22.7237H2.77778V18.4707H14.1396L13.893 20.4349L12.9972 22.7237L11.3618 25.2549L9.31954 27.5437L8.17309 29.2613L7.92654 30.6502L9.31954 30.9789L10.4619 30.6502L11.6083 29.8325L12.5041 28.6902L12.7507 27.8724H13.893V32.1213H2.53534Z" fill="white"/>
<path fill-rule="evenodd" clip-rule="evenodd" d="M60.4045 32.1213L60.9757 31.7967L61.3003 30.9789L60.7291 28.6902L59.8292 26.9725L58.4403 25.0125L55.5803 20.7595L54.7626 19.6172H56.4803L57.8691 19.8637L59.0115 20.7595L59.5827 21.906L59.8292 22.7237H61.3003V18.4707H50.5138H50.185V19.6172L50.7562 21.906L51.6561 23.5414L53.045 25.2549L55.9091 29.5079L56.4803 30.6502H54.7626L53.6203 30.4037L52.4738 29.8325L51.9027 28.3614L51.6561 27.5437H50.185V32.1213H60.4045Z" fill="white"/>
</svg>
