<svg width="132" height="40" viewBox="0 0 132 40" fill="none" xmlns="http://www.w3.org/2000/svg">
<path d="M39.1414 6.32786C40.0706 6.2052 41.0389 6.10418 42.0392 6.02481C43.0396 5.94545 43.9865 5.90576 44.8872 5.90576C47.2866 5.90576 49.0856 6.36273 50.2841 7.27665C50.871 7.71838 51.3419 8.29942 51.6554 8.96871C51.9688 9.638 52.1153 10.3751 52.0819 11.1151C52.0922 11.6648 52.0226 12.213 51.8754 12.7422C51.7572 13.1591 51.5873 13.5591 51.3699 13.9327C51.1968 14.2284 50.9834 14.498 50.7362 14.7336C50.5155 14.932 50.3375 15.0943 50.1987 15.2134L53.5842 21.7828C53.1477 21.8684 52.7067 21.9287 52.2634 21.9632C51.7757 22.0029 51.3058 22.0245 50.8395 22.0245C50.2841 22.0245 49.7501 22.0029 49.2339 21.9632C48.8041 21.9353 48.3769 21.875 47.9559 21.7828L44.6843 14.6722L45.1008 14.4305C45.6766 14.1353 46.1672 13.6941 46.5248 13.1498C46.7758 12.7114 46.9084 12.2137 46.9093 11.7068C46.9273 11.2355 46.7625 10.7757 46.45 10.4261C46.2515 10.2447 46.0181 10.1068 45.7644 10.0212C45.5108 9.93548 45.2425 9.90385 44.9762 9.92825C44.6878 9.92213 44.3994 9.94266 44.1147 9.98957V21.8297C43.6538 21.9233 43.1878 21.9883 42.7192 22.0245C42.3027 22.057 41.936 22.0714 41.6192 22.0714C41.3023 22.0714 40.9072 22.0714 40.5191 22.0245C40.06 21.9872 39.6036 21.9222 39.1521 21.8297L39.1414 6.32786Z" fill="#666666"/>
<path d="M53.2286 14.1311C53.216 12.9911 53.3818 11.8563 53.7199 10.7689C54.018 9.80602 54.5142 8.91824 55.1759 8.16417C55.8386 7.42883 56.658 6.85633 57.5718 6.49024C59.7144 5.71094 62.0578 5.71094 64.2005 6.49024C65.1128 6.85726 65.9308 7.42966 66.5928 8.16417C67.2558 8.91727 67.7522 9.80536 68.0488 10.7689C68.3869 11.8563 68.5527 12.9911 68.5401 14.1311C68.5529 15.2499 68.387 16.3634 68.0488 17.4285C67.7494 18.3778 67.253 19.2512 66.5928 19.9899C65.93 20.7156 65.1115 21.2773 64.2005 21.6314C63.1366 22.0338 62.0072 22.2285 60.8719 22.205C59.746 22.2271 58.6261 22.0324 57.5718 21.6314C56.6592 21.2783 55.8393 20.7166 55.1759 19.9899C54.517 19.2503 54.0207 18.3772 53.7199 17.4285C53.3817 16.3634 53.2158 15.2499 53.2286 14.1311ZM63.4564 14.1311C63.4564 12.8444 63.244 11.8596 62.8192 11.1765C62.6164 10.8432 62.3282 10.5719 61.9853 10.3915C61.6424 10.2111 61.2576 10.1283 60.8719 10.152C60.4882 10.1282 60.1053 10.211 59.7646 10.3916C59.424 10.5722 59.1384 10.8436 58.9388 11.1765C58.5211 11.8596 58.3123 12.8444 58.3123 14.1311C58.3123 15.4179 58.5211 16.3919 58.9388 17.0533C59.1384 17.3863 59.424 17.6577 59.7646 17.8382C60.1053 18.0188 60.4882 18.1016 60.8719 18.0779C61.2576 18.1015 61.6424 18.0188 61.9853 17.8383C62.3282 17.6579 62.6164 17.3866 62.8192 17.0533C63.2464 16.3679 63.46 15.3938 63.46 14.1311H63.4564Z" fill="#666666"/>
<path d="M73.3605 10.5128H68.9604C68.8656 10.1424 68.8013 9.7647 68.7681 9.38358C68.7396 9.02282 68.7218 8.69813 68.7218 8.37345C68.7218 8.04876 68.7396 7.72408 68.7681 7.38136C68.8023 7.00511 68.8666 6.6323 68.9604 6.2666H82.7766C82.8686 6.63268 82.9329 7.00535 82.9688 7.38136C82.9973 7.72408 83.0115 8.05237 83.0115 8.37345C83.0115 8.69453 83.0115 9.03364 82.9688 9.38358C82.9338 9.76447 82.8696 10.142 82.7766 10.5128H78.3871V21.8118C77.8709 21.8912 77.4046 21.9525 76.9881 21.9922C76.5716 22.0319 76.1942 22.0535 75.8596 22.0535C75.5249 22.0535 75.1476 22.0319 74.7275 21.9922C74.3074 21.9525 73.8553 21.8912 73.3605 21.8118V10.5128Z" fill="#666666"/>
<path d="M97.7281 21.1187C97.3899 21.2414 96.9876 21.3604 96.5248 21.4795C96.062 21.5985 95.56 21.7176 95.0367 21.8402C94.5016 21.9542 93.9609 22.0396 93.4169 22.0964C92.8743 22.1564 92.3288 22.1865 91.7829 22.1865C90.8062 22.1894 89.831 22.1097 88.8673 21.9484C87.9885 21.808 87.151 21.473 86.4145 20.9672C85.6698 20.4254 85.0881 19.6848 84.7342 18.8279C84.2719 17.6346 84.0598 16.3568 84.1112 15.076V6.26618C84.5371 6.16775 84.9687 6.09666 85.4035 6.05333C85.8307 6.01364 86.2401 5.99561 86.6388 5.99561C87.0375 5.99561 87.422 5.99561 87.8563 6.05333C88.2866 6.09435 88.7136 6.16547 89.1343 6.26618V14.643C89.1343 15.8456 89.3325 16.6681 89.7288 17.1106C89.9671 17.3462 90.2525 17.5274 90.5657 17.6419C90.8788 17.7563 91.2126 17.8016 91.5444 17.7744C91.879 17.7744 92.1389 17.7744 92.3169 17.7456C92.4462 17.7332 92.5746 17.7127 92.7014 17.6843V6.26618C93.1286 6.16802 93.5613 6.09694 93.9972 6.05333C94.4208 6.01364 94.8338 5.99561 95.229 5.99561C95.6241 5.99561 96.0122 5.99561 96.45 6.05333C96.8803 6.09465 97.3073 6.16576 97.7281 6.26618V21.1187Z" fill="#666666"/>
<path d="M107.55 12.0816C108.106 12.2274 108.649 12.4242 109.17 12.6696C109.636 12.887 110.059 13.1876 110.419 13.5571C110.777 13.9382 111.056 14.3885 111.238 14.8811C111.449 15.4916 111.549 16.1357 111.534 16.7823C111.539 17.5199 111.382 18.2494 111.074 18.918C110.758 19.592 110.288 20.1804 109.704 20.6352C109.037 21.1525 108.281 21.5414 107.475 21.7824C106.487 22.0791 105.459 22.2214 104.428 22.2045C103.542 22.2092 102.657 22.138 101.783 21.9917C100.9 21.8332 100.033 21.5917 99.1948 21.2701C99.3141 19.8283 99.6866 18.4196 100.295 17.1106C100.931 17.4148 101.6 17.6424 102.288 17.7888C102.971 17.9392 103.668 18.0154 104.367 18.0161C104.606 18.0161 104.855 18.0161 105.111 17.9872C105.344 17.9719 105.574 17.9258 105.795 17.8501C105.977 17.7908 106.144 17.6937 106.286 17.5651C106.364 17.4898 106.422 17.3962 106.455 17.2926C106.488 17.1891 106.495 17.0789 106.476 16.9718C106.457 16.8646 106.413 16.7639 106.346 16.6786C106.279 16.5933 106.193 16.5261 106.094 16.4828C105.807 16.3368 105.508 16.2161 105.2 16.1221L103.178 15.5485C102.195 15.2899 101.298 14.7721 100.576 14.0477C100.218 13.6496 99.942 13.1834 99.7636 12.6762C99.5851 12.1689 99.5079 11.6308 99.5366 11.0931C99.5255 10.3627 99.684 9.64 99.9994 8.98323C100.315 8.32646 100.778 7.75407 101.352 7.31229C101.962 6.84254 102.653 6.49037 103.388 6.2733C104.232 6.02321 105.108 5.90163 105.987 5.91254C106.816 5.91958 107.643 5.99925 108.458 6.15064C109.356 6.31429 110.24 6.54705 111.103 6.84691C111.052 7.54749 110.921 8.23983 110.715 8.91046C110.522 9.57776 110.273 10.2271 109.971 10.8514C109.344 10.6015 108.699 10.4001 108.041 10.2489C107.36 10.0778 106.661 9.98699 105.959 9.97831C105.026 9.97831 104.563 10.2381 104.563 10.7612C104.562 10.8692 104.592 10.9753 104.65 11.0662C104.707 11.1572 104.79 11.2292 104.887 11.2734C105.123 11.4028 105.373 11.5045 105.631 11.5765L107.55 12.0816Z" fill="#666666"/>
<path d="M16.9459 31.9131C16.9332 30.7743 17.099 29.6406 17.4372 28.5544C17.7352 27.5916 18.2315 26.7038 18.8932 25.9497C19.5541 25.2141 20.3725 24.6415 21.2855 24.2758C23.4285 23.4917 25.7747 23.4917 27.9177 24.2758C28.8307 24.6415 29.6491 25.2141 30.31 25.9497C30.9717 26.7038 31.468 27.5916 31.766 28.5544C32.1042 29.6406 32.27 30.7743 32.2573 31.9131C32.2702 33.0331 32.1043 34.1478 31.766 35.2141C31.4644 36.1624 30.9682 37.0353 30.31 37.7755C29.6463 38.5 28.828 39.0615 27.9177 39.4169C25.7706 40.1769 23.4326 40.1769 21.2855 39.4169C20.3752 39.0615 19.5569 38.5 18.8932 37.7755C18.235 37.0353 17.7388 36.1624 17.4372 35.2141C17.0989 34.1478 16.933 33.0331 16.9459 31.9131ZM27.1737 31.9131C27.1737 30.6288 26.9601 29.6451 26.5329 28.9621C26.3301 28.6288 26.0419 28.3575 25.699 28.1771C25.356 27.9966 24.9713 27.9139 24.5856 27.9375C24.2019 27.9142 23.8192 27.9972 23.4786 28.1777C23.138 28.3582 22.8524 28.6294 22.6525 28.9621C22.2396 29.6439 22.0295 30.6288 22.0295 31.9131C22.0295 33.1974 22.2396 34.1534 22.6525 34.8353C22.8518 35.1685 23.1373 35.4401 23.4781 35.6207C23.8188 35.8013 24.2018 35.884 24.5856 35.8598C24.9713 35.8835 25.356 35.8007 25.699 35.6203C26.0419 35.4399 26.3301 35.1686 26.5329 34.8353C26.9601 34.1546 27.1737 33.1806 27.1737 31.9131Z" fill="#666666"/>
<path d="M40.1346 23.7486C40.9418 23.7481 41.7477 23.8133 42.5447 23.9434C43.3211 24.0682 44.0674 24.3399 44.7447 24.7442C45.3258 24.4551 45.9325 24.222 46.5567 24.048C47.3227 23.8395 48.1133 23.7388 48.9063 23.7486C49.7089 23.7514 50.5095 23.8274 51.2986 23.9758C52.1029 24.1164 52.8651 24.4409 53.5271 24.9246C54.2396 25.4637 54.8035 26.1792 55.1647 27.0026C55.6327 28.1365 55.8502 29.3605 55.802 30.5886V39.6076C55.3411 39.7011 54.8751 39.7662 54.4064 39.8024C53.9899 39.8313 53.6233 39.8493 53.3064 39.8493C52.9896 39.8493 52.5944 39.8313 52.1743 39.8024C51.7057 39.7662 51.2397 39.7011 50.7788 39.6076V31.1297C50.7788 30.0474 50.6008 29.3043 50.2448 28.8389C49.8889 28.3735 49.3015 28.1462 48.4898 28.1462C48.2145 28.147 47.94 28.1773 47.671 28.2364C47.4851 28.2743 47.3019 28.3249 47.1228 28.3879C47.3105 29.1768 47.4002 29.9864 47.3898 30.7978V39.5968C46.9277 39.6903 46.4605 39.7554 45.9907 39.7916C45.5742 39.8204 45.2075 39.8385 44.8907 39.8385C44.5738 39.8385 44.1787 39.8204 43.7622 39.7916C43.2923 39.7554 42.8251 39.6903 42.3631 39.5968V31.1297C42.3631 30.0474 42.1958 29.3043 41.8576 28.8389C41.5194 28.3735 40.9462 28.1462 40.1346 28.1462C39.896 28.1474 39.6579 28.1679 39.4226 28.2075C39.2631 28.2222 39.1068 28.2623 38.9598 28.3266V39.5968C38.499 39.6906 38.0329 39.7556 37.5643 39.7916C37.1477 39.8204 36.7811 39.8385 36.4642 39.8385C36.1474 39.8385 35.7522 39.8204 35.3322 39.7916C34.8636 39.7551 34.3975 39.6901 33.9367 39.5968V24.8056C34.632 24.5651 35.4627 24.3246 36.4286 24.0841C37.6476 23.8314 38.8907 23.7188 40.1346 23.7486Z" fill="#666666"/>
<path d="M58.0916 24.1098C59.003 23.9703 59.9393 23.8645 60.9005 23.7924C61.8616 23.7238 62.7908 23.6877 63.6808 23.6877C64.5791 23.687 65.4755 23.7728 66.3579 23.9439C67.1925 24.1014 67.9899 24.4185 68.7075 24.8783C69.4155 25.3459 69.9939 25.9892 70.3878 26.747C70.7974 27.6879 71.0136 28.7034 71.0234 29.7318C71.0332 30.7601 70.8363 31.7797 70.4447 32.7284C70.0887 33.4741 69.5642 34.1242 68.9139 34.626C68.2694 35.1108 67.5378 35.4637 66.7601 35.665C65.959 35.8752 65.1349 35.9818 64.3073 35.9825C63.9513 35.9825 63.6808 35.9825 63.4458 35.95C63.295 35.9431 63.145 35.9238 62.9973 35.8923V39.5973C62.5411 39.6901 62.0798 39.7551 61.616 39.7921C61.2102 39.821 60.8471 39.839 60.5302 39.839C60.2134 39.839 59.8182 39.821 59.4622 39.7921C59.008 39.7534 58.5563 39.6884 58.1094 39.5973L58.0916 24.1098ZM62.9973 32.0863C63.1207 32.1104 63.2456 32.126 63.3711 32.1332C63.517 32.1332 63.6416 32.1332 63.7271 32.1332C64.3391 32.1587 64.9415 31.973 65.4358 31.6065C65.8808 31.2457 66.1051 30.6577 66.1051 29.8026C66.1235 29.4907 66.073 29.1786 65.9572 28.889C65.8414 28.5994 65.6633 28.3397 65.4358 28.1287C64.9764 27.7344 64.3894 27.5262 63.7876 27.5443H63.4316C63.2769 27.5434 63.1222 27.5531 62.9688 27.5731L62.9973 32.0863Z" fill="#666666"/>
<path d="M86.0092 38.9043C85.671 39.0233 85.2723 39.146 84.8059 39.265C84.3396 39.3841 83.8447 39.4995 83.3178 39.6258C82.791 39.7521 82.2499 39.8206 81.6981 39.8819C81.1554 39.942 80.6099 39.9721 80.064 39.9721C79.0872 39.9756 78.1118 39.8947 77.1484 39.7304C76.2699 39.5911 75.4324 39.2573 74.6956 38.7528C73.9534 38.2093 73.3732 37.4691 73.0189 36.6134C72.5556 35.4204 72.3422 34.1427 72.3923 32.8615V24.0482C72.8184 23.9515 73.25 23.8816 73.6846 23.8389C74.1118 23.7992 74.5247 23.7776 74.9199 23.7776C75.315 23.7776 75.7031 23.7992 76.1374 23.8389C76.5688 23.8788 76.997 23.9487 77.419 24.0482V32.425C77.419 33.63 77.6148 34.4561 78.0135 34.8962C78.2516 35.1311 78.5363 35.3119 78.8488 35.4263C79.1613 35.5408 79.4943 35.5864 79.8255 35.56C80.0834 35.5637 80.3413 35.5529 80.598 35.5276C80.7283 35.5156 80.8579 35.4963 80.9861 35.4698V24.0482C81.412 23.9509 81.8437 23.881 82.2783 23.8389C82.7055 23.7992 83.1149 23.7776 83.5136 23.7776C83.9124 23.7776 84.2968 23.7992 84.7311 23.8389C85.1614 23.879 85.5884 23.9489 86.0092 24.0482V38.9043Z" fill="#666666"/>
<path d="M91.8646 28.2981H87.4644C87.37 27.9277 87.3057 27.55 87.2722 27.1689C87.2437 26.8082 87.2259 26.4799 87.2259 26.1588C87.2259 25.8377 87.2437 25.5058 87.2722 25.1631C87.307 24.7869 87.3713 24.4142 87.4644 24.0483H101.288C101.381 24.4142 101.445 24.7869 101.48 25.1631C101.508 25.507 101.523 25.8389 101.523 26.1588C101.523 26.4799 101.523 26.8154 101.48 27.1689C101.446 27.55 101.382 27.9277 101.288 28.2981H96.8912V39.5971C96.375 39.6765 95.9087 39.7378 95.4922 39.7775C95.0756 39.8172 94.6983 39.8388 94.3636 39.8388C94.029 39.8388 93.6517 39.8172 93.2316 39.7775C92.8115 39.7378 92.3594 39.6765 91.8646 39.5971V28.2981Z" fill="#666666"/>
<path d="M106.76 33.4494C106.904 34.1613 107.315 34.7887 107.906 35.1991C108.564 35.5664 109.31 35.7424 110.06 35.7078C110.71 35.7007 111.357 35.6306 111.993 35.4985C112.715 35.3562 113.422 35.1448 114.104 34.8672C114.41 35.4617 114.655 36.0867 114.834 36.7323C115.047 37.4679 115.167 38.228 115.19 38.9943C113.459 39.6507 111.627 39.9867 109.779 39.9864C108.528 40.0177 107.282 39.8134 106.105 39.3839C105.158 39.0308 104.304 38.4589 103.613 37.7136C102.959 36.9812 102.473 36.1115 102.189 35.1666C101.873 34.123 101.717 33.0366 101.726 31.945C101.719 30.8514 101.88 29.7632 102.203 28.7198C102.497 27.7567 102.982 26.8644 103.627 26.0971C104.282 25.3398 105.094 24.7386 106.005 24.3366C107.057 23.8835 108.191 23.6621 109.334 23.6872C110.298 23.6694 111.256 23.8549 112.146 24.232C112.94 24.5731 113.653 25.0809 114.239 25.7219C114.834 26.3837 115.285 27.164 115.564 28.0127C115.877 28.9489 116.032 29.932 116.023 30.9205C116.025 31.4084 116.001 31.8962 115.952 32.3816C115.902 32.8109 115.856 33.168 115.817 33.4638L106.76 33.4494ZM109.138 27.5149C108.538 27.503 107.956 27.7178 107.504 28.1174C107.007 28.6105 106.719 29.2811 106.703 29.9861H111.459C111.442 29.3428 111.217 28.723 110.818 28.222C110.611 27.9813 110.351 27.7923 110.06 27.6696C109.768 27.547 109.453 27.494 109.138 27.5149Z" fill="#666666"/>
<path d="M117.554 24.1098C118.483 23.9908 119.451 23.8898 120.451 23.8104C121.452 23.731 122.399 23.6877 123.299 23.6877C125.696 23.6877 127.494 24.1447 128.693 25.0586C129.277 25.5028 129.746 26.085 130.057 26.7547C130.369 27.4244 130.514 28.1612 130.48 28.9007C130.489 29.4506 130.418 29.9988 130.27 30.5278C130.153 30.9467 129.984 31.3491 129.768 31.7255C129.599 32.0201 129.389 32.2886 129.145 32.5228L128.607 33.0062L132 39.572C131.562 39.6587 131.12 39.7201 130.676 39.756C130.188 39.7957 129.718 39.8138 129.252 39.8138C128.696 39.8138 128.162 39.8138 127.646 39.756C127.216 39.7271 126.789 39.6656 126.368 39.572L123.082 32.447L123.499 32.2053C124.074 31.9089 124.564 31.4679 124.923 30.9246C125.177 30.4809 125.31 29.9765 125.307 29.4635C125.325 28.9922 125.16 28.5325 124.848 28.1828C124.65 28.0015 124.417 27.8637 124.164 27.778C123.911 27.6923 123.643 27.6606 123.378 27.685C123.088 27.6787 122.799 27.6993 122.513 27.7463V39.5865C122.052 39.6803 121.586 39.7453 121.117 39.7813C120.701 39.8101 120.334 39.8282 120.017 39.8282C119.7 39.8282 119.305 39.8101 118.917 39.7813C118.458 39.7437 118.002 39.6787 117.55 39.5865L117.554 24.1098Z" fill="#666666"/>
<path d="M26.3904 0.42248C25.892 0.343113 25.4292 0.285395 25.002 0.245711C24.5748 0.206028 24.1832 0.187988 23.8415 0.187988C23.4997 0.187988 23.1295 0.209635 22.7237 0.245711C22.3178 0.281787 21.8337 0.343113 21.2997 0.42248V3.77395C22.8874 2.88287 24.8312 2.53293 26.3726 1.5697L26.3904 0.42248Z" fill="#FF5F5F"/>
<path d="M21.3172 8.49944V9.94248C23.1186 12.6807 23.3856 15.978 26.3902 17.8792V7.0564C24.8487 7.7671 22.905 7.86089 21.3172 8.49944Z" fill="#47A4F4"/>
<path d="M26.3902 1.85791C24.8487 2.82475 22.905 3.17108 21.3172 4.06576V8.2073C22.905 7.56875 24.8487 7.48578 26.3902 6.76425V1.85791Z" fill="#FFFF42"/>
<path d="M21.3172 9.94971V19.3908C22.8445 18.3915 24.5675 18.4853 26.3012 17.8215C23.382 15.9095 23.0972 12.659 21.3172 9.94971Z" fill="#40FF41"/>
<path d="M21.3172 19.6866V22.0208C22.1591 22.1819 23.0131 22.27 23.8697 22.2841C24.7156 22.2667 25.5586 22.1786 26.3902 22.0208V18.175L26.2976 18.1101C24.5675 18.7775 22.8445 18.6837 21.3172 19.6866Z" fill="#801BBE"/>
<path d="M37.921 0.339433L37.3051 0.267282L36.5611 0.180697C36.3047 0.151836 36.0413 0.133797 35.7743 0.122974C35.5073 0.112151 35.2688 0.122974 35.0623 0.122974C34.7277 0.122974 34.3966 0.122975 34.0762 0.151836C33.8021 2.52564 33.3642 4.89223 34.6565 7.03515L37.921 0.339433Z" fill="#801BBE"/>
<path d="M33.7133 0.505371H33.4107C32.9906 0.534232 32.4922 0.595557 31.9191 0.692963L30.0892 4.61444C31.4848 5.66425 32.7628 6.80786 34.2259 7.54742L34.3042 7.39229C32.9906 5.24937 33.4392 2.88278 33.7133 0.505371Z" fill="#C65D1B"/>
<path d="M29.5055 4.61401L26.5044 10.9887L26.8604 11.7102C28.7472 10.3609 30.8405 8.972 32.4603 6.85795C31.4635 6.17611 30.5165 5.38965 29.5055 4.61401Z" fill="#78FFFF"/>
<path d="M33.9551 7.66244C33.5465 7.44525 33.1507 7.20434 32.7696 6.94092C31.1463 9.05498 29.053 10.4439 27.1662 11.7931L28.1025 13.6547C29.5265 12.6373 30.6265 11.0644 32.4314 10.7686L33.9551 7.66244Z" fill="#FF5F5F"/>
<path d="M34.1111 16.8657C33.6056 15.2387 33.1072 13.6189 33.0894 11.9413L32.6836 11.1296L32.7192 11.0647C30.9107 11.3713 29.8178 12.9443 28.3867 13.9508L29.5757 16.321C31.0887 16.6276 32.6017 17.0641 34.1111 16.8657Z" fill="#FFFF42"/>
<path d="M34.1119 16.8658C32.6024 17.0642 31.0894 16.6277 29.5765 16.3354L32.3426 21.8443C32.7775 21.9338 33.2173 21.9964 33.6597 22.0319C34.151 22.0788 34.6601 22.104 35.187 22.104C35.1977 20.3255 34.6494 18.5938 34.1119 16.8658Z" fill="#C65D1B"/>
<path d="M33.3777 11.9409C33.4133 15.4078 35.4888 18.6186 35.4746 22.1035H35.5493C35.9872 22.1035 36.482 22.0819 37.0231 22.0314C37.4625 22.0006 37.8991 21.9379 38.3296 21.8438L33.3777 11.9409Z" fill="#40FF41"/>
<path d="M11.9789 22.248C12.2963 22.2463 12.6136 22.262 12.9294 22.2949C13.2294 22.3247 13.5277 22.3704 13.823 22.432C14.1378 22.4947 14.4491 22.5742 14.7557 22.6701C15.0832 22.7711 15.4428 22.8901 15.8237 23.0308C16.1314 22.371 16.3989 21.6927 16.6247 20.9997C16.8817 20.2272 17.0314 19.4222 17.0697 18.6079C16.1527 18.2246 15.1979 17.9416 14.2217 17.7637C13.3281 17.6203 12.4244 17.5503 11.5197 17.5545C10.0419 17.5296 8.5751 17.8158 7.21211 18.395C6.7516 18.6001 6.30762 18.8413 5.88425 19.1166C7.21923 20.4045 8.55422 21.4182 9.88565 22.6376C10.5508 22.3676 11.2625 22.2351 11.9789 22.248Z" fill="#FF5F5F"/>
<path d="M7.79639 23.3338C8.17485 22.9572 8.62069 22.6573 9.11002 22.4499C7.7786 21.2306 6.44361 20.2168 5.10862 18.9253C4.41518 19.3728 3.78723 19.9169 3.2432 20.5415C2.60773 21.29 2.08363 22.1286 1.6875 23.0308C3.64548 22.8432 5.78858 23.2111 7.79639 23.3338Z" fill="#FFFF42"/>
<path d="M0 29.6687C0.0293439 31.0156 0.24627 32.3516 0.644352 33.6371C0.89755 34.4413 1.2479 35.2108 1.68742 35.9279C2.40859 33.4935 2.94415 31.0066 3.2894 28.489C2.05766 28.6117 1.21751 29.5244 0 29.6687Z" fill="#47A4F4"/>
<path d="M1.38813 23.0452C1.23505 23.4059 1.09621 23.7487 0.971613 24.1275C0.505417 25.5698 0.274548 27.0796 0.2881 28.5973C0.2881 28.7596 0.2881 28.9184 0.2881 29.0735C1.50917 28.9328 2.34576 28.0201 3.58107 27.9046C3.83738 26.2776 4.09014 24.6578 4.42478 23.0776C3.41552 22.9755 2.39929 22.9646 1.38813 23.0452Z" fill="#40FF41"/>
<path d="M6.14146 28.5905C6.14146 26.426 6.58171 24.7966 7.46221 23.7022C7.56655 23.5753 7.67829 23.4549 7.79684 23.3415C6.79649 23.2801 5.75698 23.1575 4.72815 23.0781C4.066 26.2131 3.73492 29.4816 3.00157 32.6888C4.14076 32.2415 5.44727 32.1332 6.65765 31.9673C6.2852 30.8827 6.1103 29.7385 6.14146 28.5905Z" fill="#801BBE"/>
<path d="M11.4272 34.9721C9.00645 34.9721 7.41634 33.9692 6.65688 31.9634C5.44649 32.1257 4.13998 32.2339 3.0008 32.6849C2.79432 33.576 2.56292 34.4634 2.2888 35.3401C2.55577 35.776 2.85951 36.1876 3.19659 36.5703C3.67955 37.1214 4.23123 37.6065 4.83774 38.0133C7.18375 37.5588 9.35533 36.0797 11.5055 34.9757L11.4272 34.9721Z" fill="#C65D1B"/>
<path d="M15.585 34.4922C14.9082 34.7313 14.2189 34.9324 13.5202 35.0947C12.9508 35.2121 12.3712 35.2713 11.7901 35.2714C9.6541 36.379 7.47184 37.8581 5.12227 38.3126C5.61729 38.6469 6.14163 38.9344 6.68865 39.1713C8.09919 39.7484 9.61064 40.0294 11.1315 39.9974C11.6061 39.9974 12.0654 39.983 12.5092 39.9541C12.9542 39.9252 13.4063 39.8711 13.862 39.8026C14.3431 39.7289 14.8188 39.6228 15.286 39.4851C15.7796 39.348 16.3148 39.1676 16.8915 38.944C16.6668 37.4047 16.2269 35.9057 15.585 34.4922Z" fill="#FF38FF"/>
</svg>
