<svg width="115" height="52" viewBox="0 0 115 52" fill="none" xmlns="http://www.w3.org/2000/svg">
<g clip-path="url(#clip0)">
<path fill-rule="evenodd" clip-rule="evenodd" d="M66.0524 0C73.6124 3.28524 78.8982 10.7888 78.8982 19.523C78.8982 29.4706 70.9202 39.4743 60.9591 40.5725C61.1548 36.6097 60.1358 32.5066 57.9414 28.7385C58.4094 27.969 58.9197 27.2275 59.4706 26.5156C61.6901 29.075 63.2678 31.9131 64.1851 34.8307C71.443 32.1343 76.6129 25.1728 76.6129 17.0088C76.6098 9.56755 72.3117 3.12324 66.0524 0Z" fill="#51AABA"/>
<path fill-rule="evenodd" clip-rule="evenodd" d="M68.7649 18.0852C65.0068 19.1927 61.3943 21.0963 58.2717 23.7896C54.5746 26.9783 52.075 30.8305 50.8165 34.8339C43.5586 32.1374 38.3887 25.176 38.3887 17.0119C38.3887 9.56755 42.6868 3.1248 48.9476 0C41.3876 3.28524 36.1034 10.7888 36.1034 19.523C36.1034 29.4145 43.9921 39.426 53.9313 40.5211C53.9673 40.5242 54.0033 40.5305 54.0424 40.5383C53.7357 34.0908 56.6423 27.2758 62.5917 22.1462C64.495 20.5043 66.5783 19.1507 68.7649 18.0852Z" fill="#005596"/>
<path fill-rule="evenodd" clip-rule="evenodd" d="M46.2351 18.0852C49.9932 19.1927 53.6057 21.0963 56.7283 23.7896L56.9397 23.9734C56.4654 24.4174 56.0068 24.8784 55.5654 25.3536C54.6325 24.2304 53.5807 23.1556 52.4099 22.1478C50.505 20.5044 48.4217 19.1507 46.2351 18.0852Z" fill="#51AABA"/>
<path fill-rule="evenodd" clip-rule="evenodd" d="M69.6101 17.5399C69.6101 17.5399 70.363 14.5273 73.6938 16.0944C72.4995 16.9651 72.3117 18.6163 69.7447 17.8234C69.7447 17.8234 70.6385 16.6894 71.8453 16.5243C70.6369 16.3374 69.6101 17.5399 69.6101 17.5399Z" fill="#005596"/>
<path fill-rule="evenodd" clip-rule="evenodd" d="M64.5044 17.185C64.5044 17.185 62.0986 13.5056 66.9367 11.585C66.691 13.6536 68.2265 15.4388 64.9286 17.3174C64.9286 17.3174 64.6124 15.3048 65.6032 13.9029C64.243 14.9668 64.5044 17.185 64.5044 17.185Z" fill="#005596"/>
<path fill-rule="evenodd" clip-rule="evenodd" d="M66.522 20.7321C66.522 20.7321 69.3127 19.2616 70.3771 22.8194C68.9105 22.5125 67.5331 23.4861 66.3999 21.0249C66.3999 21.0249 67.8618 20.9299 68.8025 21.7228C68.1279 20.69 66.522 20.7321 66.522 20.7321Z" fill="#51AABA"/>
<path fill-rule="evenodd" clip-rule="evenodd" d="M57.201 16.0367C55.8471 14.8995 54.249 11.404 57.5282 8.64526C60.6383 11.404 59.2843 14.8995 57.7191 16.141L57.5814 11.0348L57.201 16.0367Z" fill="#51AABA"/>
<path fill-rule="evenodd" clip-rule="evenodd" d="M60.3753 18.3452C58.9431 16.4494 60.1077 13.7935 62.2004 12.9414C62.7936 16.088 62.9485 17.3015 60.7369 18.5336L60.9544 15.7624L60.3753 18.3452Z" fill="#51AABA"/>
<path fill-rule="evenodd" clip-rule="evenodd" d="M60.9544 11.7765C59.9292 9.62214 61.615 7.24193 63.847 6.82446C63.7922 10.0412 63.6983 11.2671 61.2706 12.0351L62.047 9.34954L60.9544 11.7765Z" fill="#005596"/>
<path fill-rule="evenodd" clip-rule="evenodd" d="M58.591 6.60337C57.9477 4.60948 59.6897 2.73087 61.6823 2.62183C61.2628 5.41639 61.039 6.47252 58.8367 6.86351L59.8228 4.61416L58.591 6.60337Z" fill="#51AABA"/>
<path fill-rule="evenodd" clip-rule="evenodd" d="M68.2922 14.2019C67.9541 11.9385 70.1689 10.2172 72.3368 10.4524C71.3867 13.3934 70.9562 14.4932 68.5114 14.5259L69.9764 12.2734L68.2922 14.2019Z" fill="#51AABA"/>
<path fill-rule="evenodd" clip-rule="evenodd" d="M65.888 10.0505C65.888 10.0505 64.6327 6.42416 69.1437 5.81665C68.4957 7.51924 69.416 9.3558 66.2199 10.2531C66.2199 10.2531 66.3795 8.48036 67.519 7.50055C66.1385 8.11585 65.888 10.0505 65.888 10.0505Z" fill="#005596"/>
<path fill-rule="evenodd" clip-rule="evenodd" d="M61.8247 24.9065C61.8247 24.9065 65.6439 25.419 64.1616 29.7027C62.9251 28.3615 60.8621 28.3537 61.4929 25.1106C61.4929 25.1106 63.0127 26.0499 63.379 27.5017C63.4494 26 61.8247 24.9065 61.8247 24.9065Z" fill="#51AABA"/>
<path fill-rule="evenodd" clip-rule="evenodd" d="M64.4042 22.9062C64.4042 22.9062 67.8179 22.4997 67.4986 26.5295C66.1291 25.6463 64.3463 26.098 64.1632 23.1555C64.1632 23.1555 65.6861 23.629 66.3294 24.802C66.0524 23.4888 64.4042 22.9062 64.4042 22.9062Z" fill="#005596"/>
<path fill-rule="evenodd" clip-rule="evenodd" d="M66.1244 27.2881C66.1244 27.2881 69.3487 27.4143 68.4534 31.1014C67.3155 30.0811 65.5969 30.2369 65.8646 27.4844C65.8646 27.4844 67.206 28.148 67.627 29.3287C67.5644 28.0716 66.1244 27.2881 66.1244 27.2881Z" fill="#005596"/>
<path fill-rule="evenodd" clip-rule="evenodd" d="M68.7508 24.4578C68.7508 24.4578 71.5447 23.4546 72.0644 26.9066C70.7386 26.4283 69.3284 27.1542 68.5974 24.7148C68.5974 24.7148 69.9717 24.8176 70.7418 25.6806C70.2519 24.6292 68.7508 24.4578 68.7508 24.4578Z" fill="#005596"/>
<path fill-rule="evenodd" clip-rule="evenodd" d="M70.5978 19.822C70.5978 19.822 73.1961 18.3905 74.2604 21.7162C72.8752 21.4529 71.598 22.3938 70.4882 20.0993C70.4882 20.0993 71.8609 19.984 72.7594 20.713C72.1082 19.7535 70.5978 19.822 70.5978 19.822Z" fill="#005596"/>
<path fill-rule="evenodd" clip-rule="evenodd" d="M57.5 18.3826C58.5346 18.3826 59.3736 19.2175 59.3736 20.2472C59.3736 21.2768 58.5346 22.1118 57.5 22.1118C56.4654 22.1118 55.6265 21.2768 55.6265 20.2472C55.6265 19.2175 56.4654 18.3826 57.5 18.3826Z" fill="#51AABA"/>
<path fill-rule="evenodd" clip-rule="evenodd" d="M62.7419 5.45198C62.241 3.90205 63.5965 2.43934 65.1477 2.35522C64.8221 4.52825 64.6468 5.35073 62.9344 5.65449L63.703 3.90516L62.7419 5.45198Z" fill="#51AABA"/>
<path fill-rule="evenodd" clip-rule="evenodd" d="M45.3899 17.5399C45.3899 17.5399 44.637 14.5273 41.3062 16.0944C42.5005 16.9651 42.6883 18.6163 45.2553 17.8234C45.2553 17.8234 44.3615 16.6894 43.1547 16.5243C44.3631 16.3374 45.3899 17.5399 45.3899 17.5399Z" fill="#005596"/>
<path fill-rule="evenodd" clip-rule="evenodd" d="M50.4956 17.185C50.4956 17.185 52.9014 13.5056 48.0633 11.585C48.3075 13.6536 46.7735 15.4388 50.0715 17.3174C50.0715 17.3174 50.3876 15.3048 49.3969 13.9029C50.757 14.9668 50.4956 17.185 50.4956 17.185Z" fill="#005596"/>
<path fill-rule="evenodd" clip-rule="evenodd" d="M48.4765 20.7321C48.4765 20.7321 45.6857 19.2616 44.6214 22.8194C46.088 22.5125 47.4654 23.4861 48.5986 21.0249C48.5986 21.0249 47.1367 20.9299 46.196 21.7228C46.8721 20.69 48.4765 20.7321 48.4765 20.7321Z" fill="#51AABA"/>
<path fill-rule="evenodd" clip-rule="evenodd" d="M54.6247 18.3452C56.0569 16.4494 54.8923 13.7935 52.7996 12.9414C52.2064 16.088 52.0515 17.3015 54.2631 18.5336L54.0456 15.7624L54.6247 18.3452Z" fill="#51AABA"/>
<path fill-rule="evenodd" clip-rule="evenodd" d="M54.0455 11.7765C55.0708 9.62214 53.385 7.24193 51.153 6.82446C51.2078 10.0412 51.3017 11.2671 53.7294 12.0351L52.953 9.34954L54.0455 11.7765Z" fill="#005596"/>
<path fill-rule="evenodd" clip-rule="evenodd" d="M56.409 6.60337C57.0523 4.60948 55.3103 2.73087 53.3177 2.62183C53.7372 5.41639 53.961 6.47252 56.1633 6.86351L55.1756 4.61416L56.409 6.60337Z" fill="#51AABA"/>
<path fill-rule="evenodd" clip-rule="evenodd" d="M46.7078 14.2019C47.0459 11.9385 44.8311 10.2172 42.6633 10.4524C43.6134 13.3934 44.0438 14.4932 46.4887 14.5259L45.0236 12.2734L46.7078 14.2019Z" fill="#51AABA"/>
<path fill-rule="evenodd" clip-rule="evenodd" d="M49.112 10.0505C49.112 10.0505 50.3688 6.42416 45.8563 5.81665C46.5043 7.51924 45.584 9.3558 48.7802 10.2531C48.7802 10.2531 48.6205 8.48036 47.481 7.50055C48.86 8.11585 49.112 10.0505 49.112 10.0505Z" fill="#005596"/>
<path fill-rule="evenodd" clip-rule="evenodd" d="M53.1753 24.9065C53.1753 24.9065 49.3562 25.419 50.8384 29.7027C52.0749 28.3615 54.1379 28.3537 53.5071 25.1106C53.5071 25.1106 51.9873 26.0499 51.621 27.5017C51.5506 26 53.1753 24.9065 53.1753 24.9065Z" fill="#51AABA"/>
<path fill-rule="evenodd" clip-rule="evenodd" d="M50.5958 22.9062C50.5958 22.9062 47.1821 22.4997 47.5014 26.5295C48.8709 25.6463 50.6537 26.098 50.8369 23.1555C50.8369 23.1555 49.3139 23.629 48.6706 24.802C48.9476 23.4888 50.5958 22.9062 50.5958 22.9062Z" fill="#005596"/>
<path fill-rule="evenodd" clip-rule="evenodd" d="M48.8756 27.2881C48.8756 27.2881 45.6513 27.4143 46.5466 31.1014C47.6845 30.0811 49.4031 30.2369 49.1339 27.4844C49.1339 27.4844 47.7925 28.148 47.3715 29.3287C47.4356 28.0716 48.8756 27.2881 48.8756 27.2881Z" fill="#005596"/>
<path fill-rule="evenodd" clip-rule="evenodd" d="M46.2476 24.4578C46.2476 24.4578 43.4537 23.4546 42.934 26.9066C44.2598 26.4283 45.67 27.1542 46.401 24.7148C46.401 24.7148 45.0267 24.8176 44.2566 25.6806C44.7481 24.6292 46.2476 24.4578 46.2476 24.4578Z" fill="#005596"/>
<path fill-rule="evenodd" clip-rule="evenodd" d="M44.4007 19.822C44.4007 19.822 41.8024 18.3905 40.738 21.7162C42.1233 21.4529 43.4005 22.3938 44.5102 20.0993C44.5102 20.0993 43.1375 19.984 42.2391 20.713C42.8918 19.7535 44.4007 19.822 44.4007 19.822Z" fill="#005596"/>
<path fill-rule="evenodd" clip-rule="evenodd" d="M52.2581 5.45198C52.7589 3.90205 51.4035 2.43934 49.8523 2.35522C50.1779 4.52825 50.3532 5.35073 52.0655 5.65449L51.297 3.90516L52.2581 5.45198Z" fill="#51AABA"/>
<path fill-rule="evenodd" clip-rule="evenodd" d="M57.3623 3.52819C56.7409 3.00635 56.0084 1.40501 57.5125 0.140137C58.9384 1.40501 58.317 3.00791 57.6002 3.57648L57.5376 1.23522L57.3623 3.52819Z" fill="#005596"/>
<path fill-rule="evenodd" clip-rule="evenodd" d="M2.16157 47.8082C2.1334 47.8082 2.10522 47.7895 2.10522 47.7428V47.5481C2.10522 46.1384 2.10522 45.8782 2.12401 45.5823C2.14279 45.2582 2.21792 45.0994 2.46836 45.0542C2.57949 45.0355 2.66401 45.0261 2.73914 45.0261C2.85027 45.0261 2.90662 45.0075 2.90662 44.942C2.90662 44.8766 2.84088 44.8579 2.71096 44.8579C2.34783 44.8579 1.76087 44.8859 1.53705 44.8859C1.28505 44.8859 0.698089 44.8579 0.195653 44.8579C0.0657393 44.8579 0 44.8766 0 44.942C0 45.0075 0.056348 45.0261 0.158087 45.0261C0.288001 45.0261 0.447654 45.0355 0.521219 45.0542C0.828003 45.1196 0.903133 45.2676 0.921916 45.5823C0.940699 45.8798 0.940699 46.1384 0.940699 47.5481V49.1806C0.940699 50.0342 0.940699 50.7664 0.893742 51.1558C0.856176 51.4253 0.80922 51.6293 0.622958 51.6667C0.538436 51.6854 0.427306 51.7041 0.288001 51.7041C0.17687 51.7041 0.139305 51.7322 0.139305 51.7789C0.139305 51.8443 0.205044 51.8723 0.325566 51.8723C0.698089 51.8723 1.28505 51.8443 1.49948 51.8443C1.76087 51.8443 2.34783 51.8723 2.95357 51.8723C3.06471 51.8723 3.13984 51.8443 3.13984 51.7789C3.13984 51.7322 3.09288 51.7041 2.99114 51.7041C2.85183 51.7041 2.64679 51.6854 2.51531 51.6667C2.23514 51.6293 2.18035 51.4253 2.15218 51.1651C2.10522 50.7664 2.10522 50.0342 2.10522 49.1806V48.3644C2.10522 48.3176 2.1334 48.3083 2.16157 48.3083H5.72245C5.75063 48.3083 5.7788 48.327 5.7788 48.3644V49.1806C5.7788 50.0342 5.7788 50.7664 5.73184 51.1558C5.69428 51.4253 5.64732 51.6293 5.46106 51.6667C5.37654 51.6854 5.26541 51.7041 5.1261 51.7041C5.01497 51.7041 4.97741 51.7322 4.97741 51.7789C4.97741 51.8443 5.04315 51.8723 5.17306 51.8723C5.53619 51.8723 6.12315 51.8443 6.33758 51.8443C6.59898 51.8443 7.18593 51.8723 7.79168 51.8723C7.90281 51.8723 7.97794 51.8443 7.97794 51.7789C7.97794 51.7322 7.93098 51.7041 7.82924 51.7041C7.68994 51.7041 7.48489 51.6854 7.35341 51.6667C7.07324 51.6293 7.01846 51.4253 6.99028 51.1651C6.94333 50.7664 6.94333 50.0342 6.94333 49.1806V47.5481C6.94333 46.1384 6.94333 45.8782 6.96211 45.5823C6.98089 45.2582 7.05602 45.0994 7.30646 45.0542C7.41759 45.0355 7.50211 45.0261 7.57724 45.0261C7.68837 45.0261 7.74472 45.0075 7.74472 44.942C7.74472 44.8766 7.67898 44.8579 7.54907 44.8579C7.18594 44.8579 6.59898 44.8859 6.37515 44.8859C6.12315 44.8859 5.53619 44.8579 5.03375 44.8579C4.90384 44.8579 4.8381 44.8766 4.8381 44.942C4.8381 45.0075 4.89445 45.0261 4.99619 45.0261C5.1261 45.0261 5.28576 45.0355 5.35932 45.0542C5.6661 45.1196 5.74123 45.2676 5.76002 45.5823C5.7788 45.8798 5.7788 46.1384 5.7788 47.5481V47.7428C5.7788 47.7895 5.75063 47.8082 5.72245 47.8082H2.16157Z" fill="#51AABA"/>
<path fill-rule="evenodd" clip-rule="evenodd" d="M9.62767 49.5793C9.62767 50.3021 9.62768 50.9236 9.59011 51.2585C9.56194 51.4906 9.51498 51.6386 9.3475 51.676C9.27237 51.6947 9.18002 51.704 9.05793 51.704C8.95619 51.704 8.92802 51.7507 8.92802 51.7881C8.92802 51.8442 8.98437 51.8722 9.08611 51.8722C9.25359 51.8722 9.45863 51.8629 9.65428 51.8535C9.84994 51.8535 10.0268 51.8442 10.1207 51.8442C10.3633 51.8442 10.6701 51.8535 11.0708 51.8629C11.4715 51.8816 11.9661 51.8909 12.5813 51.8909C12.8896 51.8909 12.9632 51.8909 13.0195 51.6869C13.0665 51.5295 13.1306 50.9906 13.1306 50.8145C13.1306 50.7304 13.1213 50.6292 13.0555 50.6292C12.9992 50.6292 12.9804 50.6666 12.9616 50.7491C12.9053 51.0731 12.8129 51.2414 12.6079 51.3333C12.3934 51.4252 12.0491 51.4345 11.8346 51.4345C10.9957 51.4345 10.7437 51.3146 10.7249 50.7756C10.7155 50.5435 10.7249 49.8752 10.7249 49.6073V48.9764C10.7249 48.9297 10.7343 48.8923 10.7719 48.8923C10.9769 48.8923 11.9082 48.911 12.0585 48.9297C12.3653 48.9577 12.4686 49.0777 12.5155 49.235C12.5343 49.3378 12.5343 49.4391 12.5437 49.5232C12.5437 49.5606 12.5625 49.5886 12.6188 49.5886C12.6939 49.5886 12.7033 49.478 12.7033 49.4126C12.7033 49.3565 12.7221 49.0419 12.7409 48.8845C12.7879 48.4857 12.8066 48.3565 12.8066 48.3097C12.8066 48.263 12.7785 48.2256 12.7409 48.2256C12.7033 48.2256 12.6752 48.2723 12.611 48.3269C12.5359 48.411 12.4153 48.4297 12.2197 48.4468C12.0334 48.4655 10.9706 48.4655 10.7844 48.4655C10.7374 48.4655 10.728 48.4281 10.728 48.3814V46.4342C10.728 46.3875 10.7468 46.3594 10.7844 46.3594C10.9519 46.3594 11.9301 46.3781 12.071 46.3968C12.4811 46.4342 12.5468 46.5448 12.611 46.685C12.6579 46.7785 12.6673 46.9171 12.6673 46.9732C12.6673 47.0386 12.6767 47.076 12.7331 47.076C12.7988 47.076 12.8176 46.9825 12.827 46.9467C12.8458 46.8532 12.8646 46.5105 12.8739 46.428C12.8927 46.0666 12.9397 45.9731 12.9397 45.9171C12.9397 45.8797 12.9303 45.8423 12.8833 45.8423C12.8458 45.8423 12.7988 45.8703 12.7534 45.8797C12.6877 45.889 12.5578 45.9171 12.4091 45.9264C12.251 45.9357 10.4338 45.9264 10.1724 45.9264C9.93915 45.9264 9.41794 45.9077 8.98906 45.9077C8.86854 45.9077 8.8028 45.9264 8.8028 45.9825C8.8028 46.0386 8.85915 46.0666 8.94211 46.0666C9.06263 46.0666 9.2035 46.0759 9.26767 46.0946C9.52907 46.1694 9.60263 46.252 9.62141 46.5215C9.63081 46.7722 9.63081 46.995 9.63081 48.1913V49.5793H9.62767Z" fill="#51AABA"/>
<path fill-rule="evenodd" clip-rule="evenodd" d="M15.5176 49.4499C15.4895 49.4499 15.4707 49.4312 15.4895 49.3938L16.2815 47.3999C16.2908 47.3719 16.3002 47.3252 16.3284 47.3252C16.3472 47.3252 16.3566 47.3719 16.366 47.3999L17.1392 49.4032C17.1486 49.4312 17.1392 49.4499 17.1016 49.4499H15.5176ZM17.2801 49.8861C17.3176 49.8861 17.3458 49.8954 17.3646 49.9421L17.9985 51.5279C18.0361 51.6214 17.9797 51.6946 17.9234 51.7039C17.8388 51.7133 17.8201 51.7413 17.8201 51.788C17.8201 51.8441 17.914 51.8441 18.0627 51.8535C18.7529 51.8722 19.3493 51.8722 19.6373 51.8722C19.9441 51.8722 19.991 51.8535 19.991 51.788C19.991 51.732 19.9535 51.7039 19.8799 51.7039C19.786 51.7039 19.6936 51.6946 19.5731 51.6759C19.4244 51.6385 19.1912 51.5388 18.8735 50.8269C18.3522 49.6353 16.9811 46.4077 16.7855 45.9715C16.7009 45.7955 16.6649 45.7207 16.5428 45.7207C16.4583 45.7207 16.3941 45.8142 16.3002 46.0354L14.1559 50.9983C13.9884 51.3971 13.8491 51.6385 13.475 51.6946C13.3999 51.6946 13.3075 51.7039 13.2324 51.7039C13.1667 51.7039 13.1385 51.7413 13.1385 51.788C13.1385 51.8535 13.1854 51.8722 13.2872 51.8722C13.7161 51.8722 14.1543 51.8441 14.2373 51.8441C14.4987 51.8441 14.8806 51.8722 15.1514 51.8722C15.2359 51.8722 15.2813 51.8535 15.2813 51.788C15.2813 51.7413 15.2625 51.7039 15.1608 51.7039H15.0418C14.7898 51.7039 14.7162 51.6198 14.7162 51.4812C14.7162 51.3893 14.7538 51.193 14.8368 50.9983L15.275 49.9406C15.2938 49.8939 15.3032 49.8845 15.3501 49.8845H17.2801V49.8861Z" fill="#51AABA"/>
<path fill-rule="evenodd" clip-rule="evenodd" d="M21.9867 48.1882C21.9867 46.9918 21.9867 46.7691 22.0054 46.5183C22.0242 46.2395 22.09 46.1289 22.3122 46.0915C22.4061 46.0728 22.5361 46.0634 22.6284 46.0634C22.7317 46.0634 22.7771 46.0354 22.7771 45.9793C22.7771 45.9232 22.7208 45.9045 22.6002 45.9045C22.2841 45.9045 21.6126 45.9232 21.4169 45.9232C21.1931 45.9232 20.6719 45.9045 20.2884 45.9045C20.1679 45.9045 20.1115 45.9232 20.1115 45.9793C20.1115 46.0354 20.1585 46.0634 20.2508 46.0634C20.3526 46.0634 20.4559 46.0728 20.5216 46.0915C20.783 46.1662 20.8566 46.2488 20.8754 46.5183C20.8847 46.7691 20.8847 46.9918 20.8847 48.1882V49.5792C20.8847 50.302 20.8847 50.9235 20.8472 51.2584C20.819 51.4905 20.7721 51.6385 20.6046 51.6759C20.5294 51.6946 20.4371 51.704 20.315 51.704C20.2133 51.704 20.1851 51.7507 20.1851 51.7881C20.1851 51.8441 20.2414 51.8722 20.3432 51.8722C20.5107 51.8722 20.7157 51.8628 20.9114 51.8535C21.107 51.8535 21.2839 51.8441 21.3778 51.8441C21.7128 51.8441 22.0587 51.8535 22.4688 51.8628C22.8788 51.8815 23.3547 51.8909 23.9416 51.8909C24.3705 51.8909 24.4081 51.8535 24.4628 51.6775C24.5286 51.4454 24.5834 50.8612 24.5834 50.7678C24.5834 50.6759 24.5646 50.5917 24.5082 50.5917C24.4425 50.5917 24.4237 50.6385 24.4143 50.7117C24.3955 50.8597 24.3126 51.0824 24.2093 51.1852C24.0042 51.3986 23.6881 51.408 23.2498 51.408C22.6159 51.408 22.2997 51.3613 22.1588 51.2413C21.982 51.0933 21.982 50.5917 21.982 49.5808V48.1882H21.9867Z" fill="#51AABA"/>
<path fill-rule="evenodd" clip-rule="evenodd" d="M26.6745 49.5811C26.6745 50.3039 26.6745 50.9254 26.637 51.2603C26.6088 51.4908 26.5618 51.6388 26.3944 51.6762C26.3286 51.6949 26.2269 51.7043 26.1048 51.7043C26.0031 51.7043 25.9749 51.751 25.9749 51.7884C25.9749 51.8444 26.0312 51.8725 26.133 51.8725C26.4585 51.8725 27.0189 51.8445 27.2051 51.8445C27.4384 51.8445 27.9862 51.8725 28.5278 51.8725C28.6217 51.8725 28.6858 51.8444 28.6858 51.7884C28.6858 51.751 28.6483 51.7043 28.5559 51.7043C28.4354 51.7043 28.2491 51.6949 28.1365 51.6762C27.8954 51.6388 27.8485 51.4908 27.8218 51.2697C27.7843 50.927 27.7749 50.3054 27.7749 49.5811V46.3924L28.8079 46.4111C29.542 46.4205 29.7565 46.6619 29.7752 46.866L29.7846 46.9501C29.794 47.07 29.8128 47.1074 29.8801 47.1074C29.9271 47.1074 29.9459 47.0607 29.9552 46.9781C29.9552 46.7709 29.974 46.1868 29.974 46.0201C29.974 45.9002 29.9646 45.8534 29.9083 45.8534C29.8801 45.8534 29.8144 45.8721 29.6829 45.8908C29.5624 45.9111 29.3839 45.9298 29.1241 45.9298H25.7996C25.5288 45.9298 25.222 45.9204 24.9794 45.8924C24.7744 45.8628 24.6898 45.7974 24.6257 45.7974C24.5787 45.7974 24.5505 45.8441 24.5317 45.9453C24.513 46.0123 24.3549 46.7741 24.3549 46.9033C24.3549 46.9875 24.3737 47.0326 24.43 47.0326C24.4864 47.0326 24.5051 46.9953 24.5239 46.9314C24.5427 46.8753 24.5803 46.7741 24.6632 46.6619C24.7837 46.4859 24.9794 46.4298 25.4552 46.4205L26.6761 46.3924V49.5811H26.6745Z" fill="#51AABA"/>
<path fill-rule="evenodd" clip-rule="evenodd" d="M32.638 48.4763C32.6098 48.4763 32.5817 48.4669 32.5817 48.4202V48.2535C32.5817 47.0572 32.5817 46.769 32.6005 46.5198C32.6192 46.2409 32.685 46.1303 32.9072 46.0929C33.0012 46.0742 33.0747 46.0649 33.1405 46.0649C33.2422 46.0649 33.2892 46.0369 33.2892 45.9808C33.2892 45.9247 33.2328 45.906 33.1217 45.906C32.7961 45.906 32.2264 45.9247 32.0307 45.9247C31.8069 45.9247 31.2669 45.906 30.8286 45.906C30.7175 45.906 30.6518 45.9247 30.6518 45.9808C30.6518 46.0369 30.7081 46.0649 30.7911 46.0649C30.9116 46.0649 31.0525 46.0742 31.1166 46.0929C31.378 46.1677 31.4516 46.2503 31.4704 46.5198C31.4798 46.7705 31.4798 46.9933 31.4798 48.1896V49.5807C31.4798 50.3035 31.4798 50.925 31.4422 51.2599C31.414 51.492 31.3671 51.64 31.1996 51.6774C31.1245 51.6961 31.0321 51.7054 30.91 51.7054C30.8083 51.7054 30.7801 51.7521 30.7801 51.7895C30.7801 51.8456 30.8365 51.8737 30.9382 51.8737C31.2638 51.8737 31.8053 51.8456 31.9916 51.8456C32.2248 51.8456 32.793 51.8737 33.3252 51.8737C33.4269 51.8737 33.4926 51.8456 33.4926 51.7895C33.4926 51.7521 33.4551 51.7054 33.3627 51.7054C33.2422 51.7054 33.0559 51.6961 32.9432 51.6774C32.7006 51.64 32.6537 51.492 32.6271 51.2693C32.5895 50.9266 32.5801 50.3237 32.5801 49.5994V48.9965C32.5801 48.9591 32.6083 48.9498 32.6365 48.9498H35.7309C35.7497 48.9498 35.7779 48.9685 35.7779 48.9965V49.5994C35.7779 50.3222 35.7779 50.925 35.7403 51.2599C35.7121 51.492 35.6652 51.64 35.4977 51.6774C35.4225 51.6961 35.3302 51.7054 35.1987 51.7054C35.1048 51.7054 35.0688 51.7521 35.0688 51.7895C35.0688 51.8456 35.1345 51.8737 35.2457 51.8737C35.5619 51.8737 36.141 51.8456 36.3272 51.8456C36.5511 51.8456 37.0911 51.8737 37.6233 51.8737C37.725 51.8737 37.7907 51.8456 37.7907 51.7895C37.7907 51.7521 37.7438 51.7054 37.6608 51.7054C37.5309 51.7054 37.3525 51.6961 37.2413 51.6774C36.9893 51.64 36.9424 51.492 36.9158 51.2693C36.8782 50.9266 36.8782 50.305 36.8782 49.5807V48.1896C36.8782 46.9933 36.8782 46.7705 36.897 46.5198C36.9158 46.2409 36.9815 46.1303 37.1959 46.0929C37.2993 46.0742 37.3728 46.0649 37.4386 46.0649C37.5325 46.0649 37.5873 46.0369 37.5873 45.9808C37.5873 45.9247 37.5309 45.906 37.4104 45.906C37.0942 45.906 36.5526 45.9247 36.357 45.9247C36.1426 45.9247 35.565 45.906 35.1267 45.906C35.0062 45.906 34.9499 45.9247 34.9499 45.9808C34.9499 46.0369 34.9968 46.0649 35.0892 46.0649C35.2003 46.0649 35.3412 46.0742 35.4053 46.0929C35.6667 46.1677 35.7403 46.2503 35.7591 46.5198C35.7685 46.7705 35.7779 47.0572 35.7779 48.2535V48.4202C35.7779 48.4669 35.7497 48.4763 35.7309 48.4763H32.638Z" fill="#51AABA"/>
<path fill-rule="evenodd" clip-rule="evenodd" d="M38.9208 48.9219C38.7627 48.9219 38.7252 48.9312 38.697 49.0418L38.5577 49.682C38.5389 49.774 38.5577 49.8487 38.6328 49.8487C38.7079 49.8487 38.8566 49.7459 39.0429 49.7007C39.3685 49.6088 41.0746 49.3113 41.4471 49.2552C41.7085 49.2085 41.8666 49.1805 41.8666 49.0512C41.8666 48.9406 41.7366 48.9219 41.5676 48.9219H38.9208Z" fill="#51AABA"/>
<path fill-rule="evenodd" clip-rule="evenodd" d="M43.7104 49.1806C43.7104 50.081 43.7104 50.8131 43.6634 51.2025C43.6352 51.472 43.5789 51.6293 43.3926 51.6667C43.3081 51.6854 43.197 51.7041 43.0577 51.7041C42.9466 51.7041 42.909 51.7322 42.909 51.7789C42.909 51.8443 42.9747 51.8723 43.0952 51.8723C43.4678 51.8723 44.0547 51.8443 44.2692 51.8443C44.5212 51.8443 45.1081 51.8723 45.7233 51.8723C45.825 51.8723 45.9001 51.8443 45.9001 51.7789C45.9001 51.7322 45.8532 51.7041 45.7514 51.7041C45.6121 51.7041 45.4071 51.6854 45.2756 51.6667C44.9954 51.6293 44.9313 51.4627 44.9031 51.2119C44.8655 50.8131 44.8655 50.081 44.8655 49.1806V47.5481C44.8655 46.1384 44.8655 45.8782 44.8843 45.5823C44.9031 45.2582 44.9782 45.0994 45.2286 45.0542C45.3398 45.0355 45.4149 45.0261 45.5088 45.0261C45.6027 45.0261 45.6575 45.0075 45.6575 44.9327C45.6575 44.8766 45.5824 44.8579 45.4619 44.8579C45.1081 44.8579 44.5572 44.8859 44.3255 44.8859C44.0547 44.8859 43.4678 44.8579 43.114 44.8579C42.9653 44.8579 42.8902 44.8766 42.8902 44.9327C42.8902 45.0075 42.9466 45.0261 43.0389 45.0261C43.15 45.0261 43.2721 45.0355 43.3739 45.0635C43.5789 45.1103 43.6728 45.2676 43.69 45.5823C43.7088 45.8798 43.7088 46.1384 43.7088 47.5481V49.1806H43.7104Z" fill="#51AABA"/>
<path fill-rule="evenodd" clip-rule="evenodd" d="M47.9709 47.576H47.9991C48.1572 47.7146 49.0228 48.671 49.9181 49.5231C50.7758 50.3487 51.7995 51.3223 52.3113 51.7958C52.3958 51.8799 52.5085 51.9625 52.6478 51.9625C52.7136 51.9625 52.7777 51.8877 52.7777 51.7117L52.8717 46.7394C52.881 46.2939 52.9468 46.1553 53.1706 46.0899C53.2739 46.0618 53.3381 46.0618 53.4226 46.0618C53.5165 46.0618 53.5619 46.0245 53.5619 45.9777C53.5619 45.9123 53.4868 45.9029 53.3757 45.9029C52.975 45.9029 52.6666 45.9216 52.5743 45.9216C52.3958 45.9216 51.9576 45.9029 51.5287 45.9029C51.4082 45.9029 51.3236 45.9123 51.3236 45.9777C51.3236 46.0245 51.3518 46.0618 51.4536 46.0618C51.5647 46.0618 51.7603 46.0618 51.8824 46.1086C52.0781 46.1833 52.1532 46.322 52.1626 46.8049L52.2471 50.3113H52.2096C52.089 50.2007 50.9981 49.0869 50.4409 48.5402C49.2482 47.3812 48.0195 46.1288 47.9162 46.026C47.7768 45.8874 47.6641 45.7659 47.5624 45.7659C47.4779 45.7659 47.4231 45.8765 47.4231 46.0354L47.348 50.7101C47.3386 51.3971 47.3104 51.6105 47.096 51.665C46.9848 51.693 46.8346 51.7024 46.7235 51.7024C46.6483 51.7024 46.5935 51.7398 46.5935 51.7865C46.5935 51.8613 46.6687 51.8706 46.7798 51.8706C47.1993 51.8706 47.5906 51.8426 47.6657 51.8426C47.8144 51.8426 48.1963 51.8706 48.7269 51.8706C48.8381 51.8706 48.9132 51.8519 48.9132 51.7865C48.9132 51.7398 48.8662 51.7024 48.7739 51.7024C48.644 51.7024 48.4843 51.693 48.345 51.6463C48.1885 51.5902 48.0852 51.4048 48.0664 50.7927L47.9709 47.576Z" fill="#51AABA"/>
<path fill-rule="evenodd" clip-rule="evenodd" d="M55.808 47.576H55.8362C55.9942 47.7146 56.8598 48.671 57.7551 49.5231C58.6129 50.3487 59.6365 51.3223 60.1483 51.7958C60.2329 51.8799 60.3456 51.9625 60.4849 51.9625C60.5506 51.9625 60.6148 51.8877 60.6148 51.7117L60.7087 46.7394C60.7181 46.2939 60.7838 46.1553 61.0077 46.0899C61.111 46.0618 61.1751 46.0618 61.2597 46.0618C61.3536 46.0618 61.399 46.0245 61.399 45.9777C61.399 45.9123 61.3238 45.9029 61.2127 45.9029C60.812 45.9029 60.5037 45.9216 60.4113 45.9216C60.2329 45.9216 59.7946 45.9029 59.3657 45.9029C59.2452 45.9029 59.1607 45.9123 59.1607 45.9777C59.1607 46.0245 59.1889 46.0618 59.2906 46.0618C59.4017 46.0618 59.599 46.0618 59.7195 46.1086C59.9151 46.1833 59.9903 46.322 59.9997 46.8049L60.0842 50.3113H60.0466C59.9261 50.2007 58.8351 49.0869 58.2779 48.5402C57.0852 47.3812 55.8565 46.1288 55.7532 46.026C55.6139 45.8874 55.5012 45.7659 55.3995 45.7659C55.3149 45.7659 55.2602 45.8765 55.2602 46.0354L55.185 50.7101C55.1756 51.3971 55.1475 51.6105 54.933 51.665C54.8219 51.693 54.6716 51.7024 54.5605 51.7024C54.4854 51.7024 54.4306 51.7398 54.4306 51.7865C54.4306 51.8613 54.5057 51.8706 54.6168 51.8706C55.0363 51.8706 55.4276 51.8426 55.5028 51.8426C55.6515 51.8426 56.0334 51.8706 56.564 51.8706C56.6751 51.8706 56.7502 51.8519 56.7502 51.7865C56.7502 51.7398 56.7033 51.7024 56.6109 51.7024C56.481 51.7024 56.3214 51.693 56.1821 51.6463C56.0256 51.5902 55.9222 51.4048 55.9035 50.7927L55.808 47.576Z" fill="#51AABA"/>
<path fill-rule="evenodd" clip-rule="evenodd" d="M65.9303 51.5469C64.3838 51.5469 63.451 50.2665 63.451 48.6433C63.451 46.6962 64.5232 46.2133 65.4357 46.2133C66.7583 46.2133 67.8117 47.2897 67.8117 49.0328C67.8132 51.2774 66.5078 51.5469 65.9303 51.5469ZM65.5938 51.9737C67.7099 51.9737 69.0326 50.5547 69.0326 48.7461C69.0326 46.9376 67.7459 45.7974 65.6767 45.7974C63.188 45.7974 62.2379 47.5405 62.2379 48.8863C62.2395 50.2852 63.2084 51.9737 65.5938 51.9737Z" fill="#51AABA"/>
<path fill-rule="evenodd" clip-rule="evenodd" d="M72.138 51.4999C72.2961 51.8706 72.3618 51.9734 72.4729 51.9734C72.5841 51.9734 72.6592 51.8535 72.8642 51.3986C73.0505 50.9999 73.4324 50.1369 73.9552 48.9873C74.4028 48.023 74.6173 47.5962 74.9428 46.8532C75.1573 46.3516 75.2684 46.2317 75.3717 46.1569C75.511 46.0541 75.6879 46.0634 75.7724 46.0634C75.8569 46.0634 75.9023 46.0354 75.9023 45.9793C75.9023 45.9232 75.8366 45.9045 75.7348 45.9045C75.4828 45.9045 75.1009 45.9232 74.9616 45.9232C74.8583 45.9232 74.4952 45.9045 74.0851 45.9045C73.927 45.9045 73.8519 45.9232 73.8519 45.9793C73.8519 46.0354 73.9176 46.0634 73.9912 46.0634C74.0945 46.0634 74.2244 46.0728 74.3168 46.1008C74.3919 46.1289 74.4279 46.1569 74.4279 46.2395C74.4279 46.3049 74.3903 46.4248 74.3528 46.5276C74.1571 47.0464 73.1037 49.5886 72.75 50.4048H72.7218L71.3428 46.8703C71.2317 46.5915 71.1566 46.3781 71.1566 46.2768C71.1566 46.2021 71.1847 46.1569 71.2411 46.1195C71.3068 46.0728 71.4274 46.0634 71.5573 46.0634C71.6324 46.0634 71.6872 46.0354 71.6872 45.9793C71.6872 45.9232 71.5933 45.9045 71.4915 45.9045C71.0814 45.9045 70.6526 45.9232 70.4475 45.9232C70.158 45.9232 69.6931 45.9045 69.2548 45.9045C69.1343 45.9045 69.0498 45.9139 69.0498 45.9793C69.0498 46.026 69.0686 46.0634 69.1437 46.0634C69.2094 46.0634 69.3393 46.0634 69.4599 46.0915C69.7588 46.1662 69.8794 46.2395 70.0656 46.6756L72.138 51.4999Z" fill="#51AABA"/>
<path fill-rule="evenodd" clip-rule="evenodd" d="M76.7882 49.4499C76.7601 49.4499 76.7413 49.4312 76.7601 49.3938L77.5521 47.3999C77.5615 47.3719 77.5709 47.3252 77.599 47.3252C77.6178 47.3252 77.6272 47.3719 77.6366 47.3999L78.4098 49.4032C78.4192 49.4312 78.4098 49.4499 78.3722 49.4499H76.7882ZM78.5491 49.8861C78.5867 49.8861 78.6149 49.8954 78.6336 49.9421L79.2676 51.5279C79.3051 51.6214 79.2488 51.6946 79.1924 51.7039C79.1079 51.7133 79.0907 51.7413 79.0907 51.788C79.0907 51.8441 79.183 51.8441 79.3333 51.8535C80.0236 51.8722 80.6199 51.8722 80.9079 51.8722C81.2147 51.8722 81.2616 51.8535 81.2616 51.788C81.2616 51.732 81.2241 51.7039 81.1505 51.7039C81.0566 51.7039 80.9643 51.6946 80.8437 51.6759C80.695 51.6385 80.4618 51.5388 80.1441 50.8269C79.6213 49.6353 78.2517 46.4077 78.0561 45.9715C77.9716 45.7955 77.9356 45.7207 77.8135 45.7207C77.7289 45.7207 77.6648 45.8142 77.5709 46.0354L75.4265 50.9983C75.259 51.3971 75.1197 51.6385 74.7456 51.6946C74.6705 51.6946 74.5782 51.7039 74.503 51.7039C74.4373 51.7039 74.4091 51.7413 74.4091 51.788C74.4091 51.8535 74.4561 51.8722 74.5578 51.8722C74.9867 51.8722 75.4249 51.8441 75.5079 51.8441C75.7693 51.8441 76.1512 51.8722 76.4204 51.8722C76.5049 51.8722 76.5503 51.8535 76.5503 51.788C76.5503 51.7413 76.5316 51.7039 76.4298 51.7039H76.3093C76.0573 51.7039 75.9837 51.6198 75.9837 51.4812C75.9837 51.3893 76.0213 51.193 76.1042 50.9983L76.5425 49.9406C76.5613 49.8939 76.5707 49.8845 76.6176 49.8845H78.5491V49.8861Z" fill="#51AABA"/>
<path fill-rule="evenodd" clip-rule="evenodd" d="M109.185 47.8082C109.157 47.8082 109.129 47.7895 109.129 47.7428V47.5481C109.129 46.1383 109.129 45.8782 109.148 45.5822C109.166 45.2582 109.24 45.0993 109.492 45.0542C109.603 45.0355 109.688 45.0261 109.763 45.0261C109.874 45.0261 109.93 45.0074 109.93 44.942C109.93 44.8766 109.865 44.8579 109.735 44.8579C109.371 44.8579 108.785 44.8859 108.561 44.8859C108.309 44.8859 107.722 44.8579 107.219 44.8579C107.089 44.8579 107.024 44.8766 107.024 44.942C107.024 45.0074 107.08 45.0261 107.182 45.0261C107.312 45.0261 107.471 45.0355 107.545 45.0542C107.852 45.1196 107.927 45.2676 107.946 45.5822C107.964 45.8798 107.964 46.1383 107.964 47.5481V49.1806C107.964 50.0342 107.964 50.7663 107.917 51.1558C107.88 51.4253 107.833 51.6293 107.647 51.6667C107.562 51.6854 107.451 51.7041 107.312 51.7041C107.201 51.7041 107.163 51.7321 107.163 51.7789C107.163 51.8443 107.229 51.8723 107.349 51.8723C107.722 51.8723 108.309 51.8443 108.523 51.8443C108.785 51.8443 109.371 51.8723 109.977 51.8723C110.088 51.8723 110.163 51.8443 110.163 51.7789C110.163 51.7321 110.117 51.7041 110.015 51.7041C109.875 51.7041 109.67 51.6854 109.539 51.6667C109.259 51.6293 109.204 51.4253 109.176 51.1651C109.129 50.7663 109.129 50.0342 109.129 49.1806V48.3643C109.129 48.3176 109.157 48.3083 109.185 48.3083H112.746C112.774 48.3083 112.802 48.327 112.802 48.3643V49.1806C112.802 50.0342 112.802 50.7663 112.755 51.1558C112.718 51.4253 112.671 51.6293 112.485 51.6667C112.4 51.6854 112.289 51.7041 112.15 51.7041C112.039 51.7041 112.001 51.7321 112.001 51.7789C112.001 51.8443 112.067 51.8723 112.197 51.8723C112.56 51.8723 113.147 51.8443 113.361 51.8443C113.623 51.8443 114.21 51.8723 114.815 51.8723C114.926 51.8723 115.002 51.8443 115.002 51.7789C115.002 51.7321 114.955 51.7041 114.853 51.7041C114.714 51.7041 114.509 51.6854 114.377 51.6667C114.097 51.6293 114.042 51.4253 114.014 51.1651C113.967 50.7663 113.967 50.0342 113.967 49.1806V47.5481C113.967 46.1383 113.967 45.8782 113.986 45.5822C114.005 45.2582 114.08 45.0993 114.33 45.0542C114.441 45.0355 114.526 45.0261 114.601 45.0261C114.712 45.0261 114.768 45.0074 114.768 44.942C114.768 44.8766 114.703 44.8579 114.573 44.8579C114.21 44.8579 113.623 44.8859 113.399 44.8859C113.147 44.8859 112.56 44.8579 112.057 44.8579C111.927 44.8579 111.862 44.8766 111.862 44.942C111.862 45.0074 111.918 45.0261 112.02 45.0261C112.15 45.0261 112.309 45.0355 112.383 45.0542C112.69 45.1196 112.765 45.2676 112.784 45.5822C112.802 45.8798 112.802 46.1383 112.802 47.5481V47.7428C112.802 47.7895 112.774 47.8082 112.746 47.8082H109.185ZM102.874 48.8472C102.874 48.8005 102.893 48.7912 102.921 48.7912H103.275C103.591 48.7912 103.815 48.8753 103.982 48.9952C104.598 49.4127 104.756 50.0342 104.756 50.3956C104.756 51.2679 104.187 51.5078 103.749 51.5078C103.563 51.5078 103.377 51.4985 103.162 51.4159C102.901 51.3131 102.873 51.1558 102.873 50.6371V48.8472H102.874ZM102.874 46.4172C102.874 46.3331 102.893 46.2972 102.949 46.2879C103.034 46.2692 103.192 46.2692 103.303 46.2692C104.012 46.2692 104.328 46.9281 104.328 47.4562C104.328 47.8363 104.17 48.1244 103.956 48.2911C103.816 48.4017 103.583 48.4298 103.312 48.4298C103.126 48.4298 103.006 48.4204 102.931 48.4017C102.902 48.3924 102.874 48.383 102.874 48.3176V46.4172ZM101.813 49.5794C101.813 50.3021 101.813 50.9237 101.775 51.2586C101.747 51.4907 101.7 51.6387 101.533 51.6761C101.458 51.6948 101.365 51.7041 101.243 51.7041C101.142 51.7041 101.113 51.7508 101.113 51.7882C101.113 51.8443 101.17 51.8723 101.271 51.8723C101.439 51.8723 101.644 51.863 101.84 51.8536C102.035 51.8536 102.212 51.8443 102.306 51.8443C102.436 51.8443 102.726 51.8536 103.006 51.863C103.286 51.8817 103.565 51.891 103.658 51.891C105.169 51.891 105.839 51.0187 105.839 50.1744C105.839 49.2476 105 48.6806 104.328 48.4671C104.795 48.1696 105.25 47.6976 105.25 47.0854C105.25 46.668 104.989 45.9078 103.508 45.9078C103.228 45.9078 102.688 45.9265 102.278 45.9265C102.12 45.9265 101.597 45.9078 101.168 45.9078C101.048 45.9078 100.982 45.9265 100.982 45.9826C100.982 46.0387 101.038 46.0667 101.121 46.0667C101.242 46.0667 101.383 46.076 101.447 46.0947C101.708 46.1695 101.782 46.2521 101.8 46.5215C101.81 46.7723 101.81 46.9951 101.81 48.1914V49.5794H101.813ZM92.7066 51.0826C92.669 51.3427 92.5954 51.6574 92.3716 51.6854C92.2417 51.7041 92.1853 51.7041 92.1196 51.7041C92.0351 51.7041 91.9897 51.7415 91.9897 51.7789C91.9897 51.8536 92.0554 51.8723 92.1384 51.8723C92.3998 51.8723 92.7911 51.8443 92.9492 51.8443C93.0979 51.8443 93.4704 51.8723 93.8163 51.8723C93.9368 51.8723 94.012 51.8536 94.012 51.7789C94.012 51.7415 93.9556 51.7041 93.882 51.7041C93.8069 51.7041 93.7333 51.6948 93.5925 51.6667C93.4532 51.6387 93.3405 51.5826 93.3405 51.4346C93.3405 51.3053 93.3499 51.2025 93.3686 51.0639L93.76 47.9843H93.7881C94.0589 48.531 94.5426 49.5233 94.6083 49.6728C94.7022 49.8956 95.3533 51.1013 95.549 51.4627C95.6789 51.7041 95.7728 51.8614 95.8746 51.8614C95.9685 51.8614 96.0139 51.7867 96.2001 51.4159L97.961 47.8908H97.9892L98.4462 51.3038C98.4744 51.5265 98.4556 51.6184 98.4087 51.6371C98.3523 51.6558 98.3147 51.6838 98.3147 51.7212C98.3147 51.768 98.3617 51.8053 98.5574 51.8131C98.8829 51.8318 100.049 51.8692 100.254 51.8692C100.375 51.8692 100.468 51.8412 100.468 51.7758C100.468 51.729 100.412 51.701 100.339 51.701C100.235 51.701 100.105 51.6916 99.8721 51.6262C99.6201 51.5514 99.5466 51.338 99.4714 50.8474L98.7264 45.9779C98.6982 45.8112 98.6059 45.7271 98.5401 45.7271C98.465 45.7271 98.3914 45.7925 98.3257 45.9218L96.1266 50.3738L93.9274 45.9779C93.8163 45.7645 93.7599 45.7271 93.6754 45.7271C93.6097 45.7271 93.5361 45.8019 93.5173 45.9312L92.7066 51.0826ZM90.7954 50.2289C90.7954 49.7647 90.7954 49.394 90.8048 49.1152C90.8142 48.7912 90.9066 48.6323 91.1586 48.5871C91.2697 48.5684 91.3354 48.5591 91.4106 48.5591C91.4763 48.5591 91.5311 48.5404 91.5311 48.4843C91.5311 48.4095 91.4653 48.3908 91.3448 48.3908C91.038 48.3908 90.5434 48.4189 90.2538 48.4189C89.9737 48.4189 89.3867 48.3908 88.9031 48.3908C88.7731 48.3908 88.7074 48.4095 88.7074 48.4843C88.7074 48.5404 88.7638 48.5591 88.8467 48.5591C88.9766 48.5591 89.1363 48.5684 89.2098 48.5871C89.5166 48.6525 89.6012 48.8005 89.6105 49.1152C89.6199 49.394 89.6199 49.746 89.6199 50.2102V51.0826C89.6199 51.2399 89.5824 51.3614 89.4431 51.4253C89.2192 51.5281 88.8937 51.5281 88.6511 51.5281C86.6851 51.5281 85.4079 50.0342 85.4079 48.0403C85.4079 46.9001 85.7429 46.2038 86.2657 45.7676C86.9184 45.2302 87.5977 45.1928 88.1111 45.1928C89.1645 45.1928 89.9095 45.6196 90.1897 45.9156C90.4323 46.1757 90.4792 46.4717 90.5058 46.6851C90.5152 46.7599 90.534 46.8051 90.5998 46.8051C90.6749 46.8051 90.7031 46.7583 90.7031 46.6103C90.7031 45.4514 90.7688 45.1913 90.7688 45.0884C90.7688 45.023 90.75 44.9856 90.6389 44.9778C90.4245 44.9685 90.0989 44.9124 89.9032 44.875C89.717 44.8376 88.8968 44.7271 88.2535 44.7271C87.4709 44.7271 86.6413 44.7925 85.746 45.3299C84.8977 45.8393 84.1244 46.8783 84.1244 48.3628C84.1244 50.9221 86.1467 51.9985 88.4304 51.9985C89.1566 51.9985 90.0707 51.8957 90.6765 51.581C90.7876 51.5156 90.797 51.4969 90.797 51.2477V50.2289H90.7954Z" fill="#51AABA"/>
</g>
<defs>
<clipPath id="clip0">
<path d="M0 0H115V52H0V0Z" fill="white"/>
</clipPath>
</defs>
</svg>
