<svg width="1920" height="1218" viewBox="0 0 1920 1218" fill="none" xmlns="http://www.w3.org/2000/svg">
<g opacity="0.4">
<path d="M2258.47 699.136C1873.04 474.446 1366.98 964.714 487.588 622.291C-396.16 278.162 -992.645 130.381 -1320.82 452.014C-1579.15 705.188 -1638.77 876.073 -1789.06 892.1" stroke="url(#paint0_linear)" stroke-width="2" stroke-linecap="round" stroke-linejoin="round" stroke-dasharray="0.01 10"/>
<path d="M2259.3 674.667C1978.24 528.401 1647.75 727.85 1179.2 751.869C981.136 762.028 758.182 741.262 504.139 647.704C326.239 582.177 159.732 520.112 6.13459 466.227C-588.627 257.538 -1021.03 177.584 -1284.32 435.551C-1442.77 590.787 -1535.91 732.012 -1627.24 803.239C-1685.08 848.36 -1730.72 873.265 -1788.1 874.408" stroke="url(#paint1_linear)" stroke-width="2" stroke-linecap="round" stroke-linejoin="round" stroke-dasharray="0.01 10"/>
<path d="M2260.15 650.213C1971.43 517.047 1643.85 716.438 1192.41 755.889C994.493 773.193 773.077 760.746 520.733 673.103C341.622 610.892 173.933 547.809 20.65 490.881C-553.286 277.752 -983.728 160.463 -1247.78 419.074C-1408.97 576.916 -1510.4 736.268 -1619.64 802.182C-1685.24 841.757 -1732.01 860.829 -1787.17 856.744" stroke="url(#paint2_linear)" stroke-width="2" stroke-linecap="round" stroke-linejoin="round" stroke-dasharray="0.01 10"/>
<path d="M2261 625.774C1964.6 505.692 1639.41 705.945 1205.57 759.907C1007.38 784.559 787.844 780.269 537.264 698.501C356.899 639.646 188.134 575.565 35.1032 515.532C-518.134 298.473 -946.485 143.339 -1211.3 402.609C-1375.22 563.058 -1483.73 740.529 -1612.11 801.152C-1684.64 835.392 -1733.36 848.478 -1786.43 839.132" stroke="url(#paint3_linear)" stroke-width="2" stroke-linecap="round" stroke-linejoin="round" stroke-dasharray="0.01 10"/>
<path d="M2261.89 601.366C1957.78 494.353 1634.58 696.479 1218.73 763.94C1019.87 796.204 802.544 799.877 553.815 723.913C372.11 668.427 202.349 603.438 49.5549 540.184C-483.15 319.672 -909.243 126.215 -1174.8 386.131C-1341.46 549.201 -1456.02 745.081 -1604.59 800.093C-1683.46 829.299 -1734.73 836.127 -1785.78 821.472" stroke="url(#paint4_linear)" stroke-width="2" stroke-linecap="round" stroke-linejoin="round" stroke-dasharray="0.01 10"/>
<path d="M2262.82 576.974C1950.99 483.014 1629.55 688.047 1231.94 767.974C1032.12 808.146 817.2 819.542 570.388 749.327C387.3 697.236 216.582 631.401 64.0495 564.852C-448.311 341.349 -871.958 109.093 -1138.28 369.668C-1307.66 535.344 -1427.57 750.104 -1597.02 799.065C-1681.88 823.576 -1736.11 823.834 -1785.2 803.793" stroke="url(#paint5_linear)" stroke-width="2" stroke-linecap="round" stroke-linejoin="round" stroke-dasharray="0.01 10"/>
<path d="M2263.77 552.583C1944.24 471.677 1624.46 680.627 1245.1 771.992C1044.11 820.402 831.727 839.26 586.939 774.725C402.425 726.087 230.792 659.421 78.5228 589.504C-413.722 363.457 -834.695 91.9698 -1101.76 353.205C-1273.88 521.487 -1398.69 755.702 -1589.45 798.021C-1680.12 818.139 -1737.52 811.51 -1784.67 786.04" stroke="url(#paint6_linear)" stroke-width="2" stroke-linecap="round" stroke-linejoin="round" stroke-dasharray="0.01 10"/>
<path d="M2264.76 528.209C1937.49 460.355 1619.47 674.209 1258.29 776.026C1056.03 833.036 846.208 859.065 603.511 800.138C417.506 754.98 244.975 687.572 92.9953 614.171C-379.362 386.011 -797.432 74.8615 -1065.27 336.741C-1240.11 507.645 -1369.61 761.838 -1581.92 796.992C-1678.35 812.952 -1739.04 799.167 -1784.2 768.24" stroke="url(#paint7_linear)" stroke-width="2" stroke-linecap="round" stroke-linejoin="round" stroke-dasharray="0.01 10"/>
<path d="M2265.8 503.836C1930.78 449.035 1614.71 668.713 1271.47 780.06C1067.97 846.068 860.623 878.941 620.063 825.551C432.521 783.93 259.091 715.809 107.468 638.838C-345.293 408.98 -760.169 57.7387 -1028.77 320.278C-1206.35 493.787 -1340.49 768.49 -1574.37 795.948C-1676.58 807.956 -1740.58 786.779 -1783.72 750.338" stroke="url(#paint8_linear)" stroke-width="2" stroke-linecap="round" stroke-linejoin="round" stroke-dasharray="0.01 10"/>
<path d="M2266.88 479.45C1924.1 437.701 1610.35 664.04 1284.65 784.079C1080.05 859.488 874.972 898.887 636.635 850.95C447.534 812.923 273.161 744.147 121.942 663.476C-311.49 432.275 -722.905 40.6155 -992.247 303.8C-1172.55 479.916 -1311.4 775.566 -1566.8 794.905C-1674.89 803.089 -1742.14 774.332 -1783.2 732.393" stroke="url(#paint9_linear)" stroke-width="2" stroke-linecap="round" stroke-linejoin="round" stroke-dasharray="0.01 10"/>
<path d="M2268 455.066C1917.45 426.369 1606.44 660.105 1297.84 788.097C1092.37 873.314 889.297 918.921 653.187 876.348C462.483 841.957 287.144 772.569 136.416 688.128C-277.998 455.94 -685.641 23.4778 -955.748 287.321C-1138.8 466.058 -1282.48 783.003 -1559.27 793.846C-1673.3 798.321 -1743.74 761.824 -1782.7 714.374" stroke="url(#paint10_linear)" stroke-width="2" stroke-linecap="round" stroke-linejoin="round" stroke-dasharray="0.01 10"/>
<path d="M2269.14 430.683C1910.83 415.052 1603.07 656.78 1311.02 792.131C1105.05 887.581 903.575 939.041 669.759 901.762C477.406 871.094 301.015 801.134 150.909 712.796C-244.794 479.945 -648.379 6.36954 -919.229 270.859C-1105 452.202 -1253.71 790.757 -1551.7 792.818C-1671.78 793.653 -1745.32 749.317 -1782.09 696.359" stroke="url(#paint11_linear)" stroke-width="2" stroke-linecap="round" stroke-linejoin="round" stroke-dasharray="0.01 10"/>
<path d="M2270.32 406.273C1904.2 403.705 1600.34 653.951 1324.19 796.164C1118.2 902.234 917.807 959.261 686.289 927.174C492.284 900.287 314.734 829.795 165.34 737.461C-212.023 504.227 -611.158 -10.7553 -882.752 254.394C-1071.26 438.343 -1227.38 772.292 -1544.17 791.773C-1669.53 799.488 -1746.91 737.162 -1781.52 678.299" stroke="url(#paint12_linear)" stroke-width="2" stroke-linecap="round" stroke-linejoin="round" stroke-dasharray="0.01 10"/>
<path d="M2271.53 381.848C1897.62 392.346 1598.23 651.5 1337.37 800.197C1131.95 917.294 932.037 979.556 702.862 952.587C507.181 929.569 328.345 858.555 179.835 762.114C-179.514 528.747 -573.873 -27.8775 -846.232 237.931C-1037.46 424.502 -1197.23 782.644 -1536.62 790.744C-1668.92 793.901 -1748.53 724.522 -1780.89 660.226" stroke="url(#paint13_linear)" stroke-width="2" stroke-linecap="round" stroke-linejoin="round" stroke-dasharray="0.01 10"/>
<path d="M2272.76 357.395C1891.04 380.987 1596.8 649.297 1350.53 804.201C1146.32 932.657 946.263 999.908 719.393 977.97C522.034 958.879 341.719 887.408 194.288 786.751C-147.436 553.471 -536.63 -45.0162 -809.732 221.438C-1003.71 410.615 -1167.7 793.425 -1529.07 789.685C-1668.21 788.245 -1750.12 711.853 -1780.21 642.097" stroke="url(#paint14_linear)" stroke-width="2" stroke-linecap="round" stroke-linejoin="round" stroke-dasharray="0.01 10"/>
<path d="M2274.01 332.942C1884.49 369.614 1596.08 647.269 1363.74 808.235C1161.45 948.361 960.527 1020.38 735.986 1003.38C536.966 988.324 354.982 916.403 208.781 811.418C-115.683 578.416 -499.347 -62.1239 -773.213 204.975C-969.909 396.758 -1140.53 823.633 -1521.5 788.642C-1666.69 775.306 -1751.68 698.95 -1779.5 623.998" stroke="url(#paint15_linear)" stroke-width="2" stroke-linecap="round" stroke-linejoin="round" stroke-dasharray="0.01 10"/>
<path d="M2275.28 308.447C1877.93 358.241 1596.01 645.298 1376.9 812.268C1177.33 964.33 975.025 1034.6 752.537 1028.8C551.62 1023.55 367.966 945.505 223.254 836.085C-84.3365 603.506 -462.083 -79.2468 -736.715 188.526C-936.153 382.915 -1112.66 832.158 -1513.97 787.627C-1665.62 770.796 -1753.28 686.325 -1778.82 605.898" stroke="url(#paint16_linear)" stroke-width="2" stroke-linecap="round" stroke-linejoin="round" stroke-dasharray="0.01 10"/>
<path d="M2276.55 283.952C1871.37 346.853 1596.62 643.296 1390.09 816.287C1194.03 980.508 989.074 1056.21 769.089 1054.19C566.768 1052.34 380.695 974.698 237.728 860.723C-53.3938 628.682 -424.819 -96.3847 -700.194 172.033C-902.354 369.044 -1084.9 840.708 -1506.4 786.554C-1664.59 766.24 -1754.83 673.643 -1778.06 587.743" stroke="url(#paint17_linear)" stroke-width="2" stroke-linecap="round" stroke-linejoin="round" stroke-dasharray="0.01 10"/>
<path d="M2277.85 259.428C1864.83 335.451 1597.85 641.186 1403.27 820.305C1211.52 996.822 1003.4 1082.25 785.66 1079.59C581.762 1077.1 393.163 1003.98 252.199 885.375C-22.8579 653.945 -387.558 -113.508 -663.697 155.555C-868.599 355.172 -1057.27 849.326 -1498.85 785.511C-1663.63 761.696 -1756.4 660.975 -1777.31 569.617" stroke="url(#paint18_linear)" stroke-width="2" stroke-linecap="round" stroke-linejoin="round" stroke-dasharray="0.01 10"/>
<path d="M2279.14 234.89C1858.3 324.036 1599.67 638.896 1416.45 824.339C1229.81 1013.24 1017.81 1103.04 802.212 1105.01C596.766 1106.89 405.315 1033.39 266.674 910.042C7.27903 679.266 -350.293 -130.616 -627.198 139.106C-834.821 341.33 -1029.76 857.998 -1491.32 784.481C-1662.73 757.179 -1757.97 648.321 -1776.56 551.49" stroke="url(#paint19_linear)" stroke-width="2" stroke-linecap="round" stroke-linejoin="round" stroke-dasharray="0.01 10"/>
<path d="M2280.46 210.338C1851.74 312.619 1602.05 636.378 1429.64 828.373C1248.85 1029.71 1032.27 1123.89 818.785 1130.42C611.85 1136.75 417.165 1062.9 281.147 934.71C36.9925 704.583 -313.03 -147.739 -590.678 122.643C-801.044 327.488 -1002.33 866.682 -1483.75 783.453C-1661.82 752.662 -1759.52 635.654 -1775.76 533.366" stroke="url(#paint20_linear)" stroke-width="2" stroke-linecap="round" stroke-linejoin="round" stroke-dasharray="0.01 10"/>
<path d="M2281.78 185.756C1845.2 301.188 1604.91 633.586 1442.82 832.392C1096.86 1256.72 563.591 1227.55 295.62 959.362C66.2867 729.839 -275.767 -164.862 -554.18 106.164C-767.266 313.616 -975.013 875.375 -1476.2 782.394C-1660.99 748.112 -1761.07 622.957 -1774.98 515.197" stroke="url(#paint21_linear)" stroke-width="2" stroke-linecap="round" stroke-linejoin="round" stroke-dasharray="0.01 10"/>
</g>
<defs>
<linearGradient id="paint0_linear" x1="254.238" y1="316.429" x2="227.427" y2="974.284" gradientUnits="userSpaceOnUse">
<stop offset="0.53125" stop-color="#6DB9FC"/>
<stop offset="0.6875" stop-color="#FC6D6D"/>
</linearGradient>
<linearGradient id="paint1_linear" x1="254.245" y1="317.032" x2="228.18" y2="956.584" gradientUnits="userSpaceOnUse">
<stop offset="0.53125" stop-color="#6DB9FC"/>
<stop offset="0.6875" stop-color="#FC6D6D"/>
</linearGradient>
<linearGradient id="paint2_linear" x1="254.346" y1="315.323" x2="228.927" y2="939.023" gradientUnits="userSpaceOnUse">
<stop offset="0.53125" stop-color="#6DB9FC"/>
<stop offset="0.6875" stop-color="#FC6D6D"/>
</linearGradient>
<linearGradient id="paint3_linear" x1="254.439" y1="311.528" x2="229.516" y2="923.033" gradientUnits="userSpaceOnUse">
<stop offset="0.53125" stop-color="#6DB9FC"/>
<stop offset="0.6875" stop-color="#FC6D6D"/>
</linearGradient>
<linearGradient id="paint4_linear" x1="254.584" y1="305.888" x2="229.999" y2="909.095" gradientUnits="userSpaceOnUse">
<stop offset="0.53125" stop-color="#6DB9FC"/>
<stop offset="0.6875" stop-color="#FC6D6D"/>
</linearGradient>
<linearGradient id="paint5_linear" x1="254.773" y1="298.665" x2="230.369" y2="897.447" gradientUnits="userSpaceOnUse">
<stop offset="0.53125" stop-color="#6DB9FC"/>
<stop offset="0.6875" stop-color="#FC6D6D"/>
</linearGradient>
<linearGradient id="paint6_linear" x1="255.007" y1="290.08" x2="230.635" y2="888.084" gradientUnits="userSpaceOnUse">
<stop offset="0.53125" stop-color="#6DB9FC"/>
<stop offset="0.6875" stop-color="#FC6D6D"/>
</linearGradient>
<linearGradient id="paint7_linear" x1="255.277" y1="280.353" x2="230.802" y2="880.867" gradientUnits="userSpaceOnUse">
<stop offset="0.53125" stop-color="#6DB9FC"/>
<stop offset="0.6875" stop-color="#FC6D6D"/>
</linearGradient>
<linearGradient id="paint8_linear" x1="255.608" y1="269.643" x2="230.919" y2="875.431" gradientUnits="userSpaceOnUse">
<stop offset="0.53125" stop-color="#6DB9FC"/>
<stop offset="0.6875" stop-color="#FC6D6D"/>
</linearGradient>
<linearGradient id="paint9_linear" x1="256.016" y1="258.088" x2="231.021" y2="871.371" gradientUnits="userSpaceOnUse">
<stop offset="0.53125" stop-color="#6DB9FC"/>
<stop offset="0.6875" stop-color="#FC6D6D"/>
</linearGradient>
<linearGradient id="paint10_linear" x1="256.463" y1="245.82" x2="231.07" y2="868.871" gradientUnits="userSpaceOnUse">
<stop offset="0.53125" stop-color="#6DB9FC"/>
<stop offset="0.6875" stop-color="#FC6D6D"/>
</linearGradient>
<linearGradient id="paint11_linear" x1="256.997" y1="232.969" x2="230.193" y2="890.637" gradientUnits="userSpaceOnUse">
<stop offset="0.53125" stop-color="#6DB9FC"/>
<stop offset="0.6875" stop-color="#FC6D6D"/>
</linearGradient>
<linearGradient id="paint12_linear" x1="257.553" y1="219.587" x2="229.291" y2="913.015" gradientUnits="userSpaceOnUse">
<stop offset="0.53125" stop-color="#6DB9FC"/>
<stop offset="0.6875" stop-color="#FC6D6D"/>
</linearGradient>
<linearGradient id="paint13_linear" x1="258.17" y1="205.752" x2="228.411" y2="935.932" gradientUnits="userSpaceOnUse">
<stop offset="0.53125" stop-color="#6DB9FC"/>
<stop offset="0.6875" stop-color="#FC6D6D"/>
</linearGradient>
<linearGradient id="paint14_linear" x1="258.835" y1="191.503" x2="227.542" y2="959.305" gradientUnits="userSpaceOnUse">
<stop offset="0.53125" stop-color="#6DB9FC"/>
<stop offset="0.6875" stop-color="#FC6D6D"/>
</linearGradient>
<linearGradient id="paint15_linear" x1="259.544" y1="176.94" x2="226.686" y2="983.153" gradientUnits="userSpaceOnUse">
<stop offset="0.53125" stop-color="#6DB9FC"/>
<stop offset="0.6875" stop-color="#FC6D6D"/>
</linearGradient>
<linearGradient id="paint16_linear" x1="260.255" y1="162.078" x2="225.803" y2="1007.42" gradientUnits="userSpaceOnUse">
<stop offset="0.53125" stop-color="#6DB9FC"/>
<stop offset="0.6875" stop-color="#FC6D6D"/>
</linearGradient>
<linearGradient id="paint17_linear" x1="261.021" y1="146.92" x2="224.932" y2="1032.42" gradientUnits="userSpaceOnUse">
<stop offset="0.53125" stop-color="#6DB9FC"/>
<stop offset="0.6875" stop-color="#FC6D6D"/>
</linearGradient>
<linearGradient id="paint18_linear" x1="261.804" y1="131.54" x2="224.083" y2="1057.06" gradientUnits="userSpaceOnUse">
<stop offset="0.53125" stop-color="#6DB9FC"/>
<stop offset="0.6875" stop-color="#FC6D6D"/>
</linearGradient>
<linearGradient id="paint19_linear" x1="262.587" y1="115.974" x2="223.198" y2="1082.45" gradientUnits="userSpaceOnUse">
<stop offset="0.53125" stop-color="#6DB9FC"/>
<stop offset="0.6875" stop-color="#FC6D6D"/>
</linearGradient>
<linearGradient id="paint20_linear" x1="263.42" y1="100.209" x2="222.34" y2="1108.16" gradientUnits="userSpaceOnUse">
<stop offset="0.53125" stop-color="#6DB9FC"/>
<stop offset="0.6875" stop-color="#FC6D6D"/>
</linearGradient>
<linearGradient id="paint21_linear" x1="264.249" y1="84.2644" x2="221.46" y2="1134.13" gradientUnits="userSpaceOnUse">
<stop offset="0.53125" stop-color="#6DB9FC"/>
<stop offset="0.6875" stop-color="#FC6D6D"/>
</linearGradient>
</defs>
</svg>
