<svg width="200" height="180" viewBox="0 0 200 180" fill="none" xmlns="http://www.w3.org/2000/svg">
<path d="M155.533 140.251V112.665C155.533 110.831 157.009 109.355 158.842 109.355H183.691C185.524 109.355 187 110.831 187 112.665V165.69C187 167.524 185.524 169 183.691 169H158.842C157.009 169 155.533 167.524 155.533 165.69V151.554V140.251Z" fill="#EBF5FF"/>
<path d="M93.3586 168.537L16.7552 168.343L16.5614 117.004L54.0805 79.4724L58.5524 79.2786C58.5524 79.2786 58.5524 73.4483 58.5524 66.8277C58.5524 57.2994 66.9745 15.4883 110.978 15.4883C144.1 15.4883 157.128 43.4916 157.128 43.4916C157.128 43.4916 163.94 60.222 163.94 70.9134C163.94 81.6048 156.353 112.143 138.271 135.479C120.19 158.815 110.993 169 110.993 169L93.3586 148.705V168.537Z" fill="#EBF5FF"/>
<ellipse cx="106.655" cy="62.4439" rx="23.8501" ry="23.858" fill="white"/>
<path d="M151.061 135.777V108.191C151.061 106.357 152.537 104.881 154.37 104.881H179.219C181.052 104.881 182.528 106.357 182.528 108.191V161.216C182.528 163.05 181.052 164.526 179.219 164.526H154.37C152.537 164.526 151.061 163.05 151.061 161.216V147.08V135.777Z" stroke="#092C75" stroke-width="2" stroke-miterlimit="10" stroke-linecap="round" stroke-linejoin="round"/>
<path d="M172.585 111.338H161.003H172.585Z" stroke="#FA7832" stroke-miterlimit="10" stroke-linecap="round" stroke-linejoin="round"/>
<path d="M166.787 158.054C168.615 158.054 170.096 156.572 170.096 154.744C170.096 152.916 168.615 151.434 166.787 151.434C164.96 151.434 163.478 152.916 163.478 154.744C163.478 156.572 164.96 158.054 166.787 158.054Z" stroke="#FA7832" stroke-miterlimit="10" stroke-linecap="round" stroke-linejoin="round"/>
<path d="M153.476 39.4208C144.621 22.5264 126.913 11 106.521 11C77.2599 11 53.544 34.7238 53.544 63.9946C53.544 67.0216 53.7527 70.0485 54.1403 73.0904" stroke="#092C75" stroke-width="2" stroke-miterlimit="10" stroke-linecap="round" stroke-linejoin="round"/>
<path d="M159.066 71.5395C159.275 69.5862 159.424 67.6328 159.468 65.6943" stroke="#092C75" stroke-width="2" stroke-miterlimit="10" stroke-linecap="round" stroke-linejoin="round"/>
<path d="M89.5575 145.216C98.9634 157.086 106.521 164.526 106.521 164.526C106.521 164.526 140.284 130.842 153.908 92.9971" stroke="#092C75" stroke-width="2" stroke-miterlimit="10" stroke-linecap="round" stroke-linejoin="round"/>
<path d="M122.486 44.0132C118.178 40.3599 112.603 38.168 106.521 38.168C92.8668 38.168 81.7914 49.247 81.7914 62.9057C81.7914 76.5644 92.8668 87.6435 106.521 87.6435C119.176 87.6435 129.611 78.1301 131.072 65.8582" stroke="#092C75" stroke-width="2" stroke-miterlimit="10" stroke-linecap="round" stroke-linejoin="round"/>
<path d="M79.4808 102.286L88.201 111.024C89.0357 111.859 89.5127 113.008 89.5127 114.186V164.526H12V114.186C12 112.993 12.477 111.859 13.3118 111.024L22.2555 102.078" stroke="#092C75" stroke-width="2" stroke-miterlimit="10" stroke-linecap="round" stroke-linejoin="round"/>
<path d="M22.7773 125.951L23.1648 89.3889L39.1146 73.8364C39.1146 73.8364 73.9208 74.0303 75.471 74.0303C77.0213 74.0303 78.7802 74.6118 78.7802 77.3406C78.7802 80.0693 78.3927 125.37 78.3927 125.37L62.0554 139.759L59.9238 139.371C59.9238 139.371 53.9314 134.108 53.3203 133.735C52.6942 133.362 50.2049 132.393 48.8484 133.362C47.4919 134.331 40.6797 139.774 40.6797 139.774L36.983 138.029L22.7773 125.951Z" fill="white"/>
<path opacity="0.1" d="M62.6651 99.0063H37.476C36.9237 99.0063 36.476 99.4541 36.476 100.006V101.898C36.476 102.45 36.9237 102.898 37.476 102.898H62.6651C63.2174 102.898 63.6651 102.45 63.6651 101.898V100.006C63.6651 99.4541 63.2174 99.0063 62.6651 99.0063Z" fill="#FF9626"/>
<path opacity="0.5" d="M62.6651 108.729H37.476C36.9237 108.729 36.476 109.176 36.476 109.729V111.62C36.476 112.173 36.9237 112.62 37.476 112.62H62.6651C63.2174 112.62 63.6651 112.173 63.6651 111.62V109.729C63.6651 109.176 63.2174 108.729 62.6651 108.729Z" fill="#FF9626"/>
<path opacity="0.5" d="M52.9611 118.436H37.476C36.9237 118.436 36.476 118.883 36.476 119.436V121.327C36.476 121.88 36.9237 122.327 37.476 122.327H52.9611C53.5134 122.327 53.9611 121.88 53.9611 121.327V119.436C53.9611 118.883 53.5134 118.436 52.9611 118.436Z" fill="#FF9626"/>
<path d="M89.5127 164.527L52.6793 133.347C51.5613 132.408 49.9365 132.408 48.8335 133.347L12 164.527" stroke="#092C75" stroke-width="2" stroke-miterlimit="10" stroke-linecap="round" stroke-linejoin="round"/>
<path d="M179.547 65.4558H125.884C124.244 65.4558 122.903 64.1138 122.903 62.4735V42.7161C122.903 41.0759 124.244 39.7339 125.884 39.7339H179.547C181.186 39.7339 182.528 41.0759 182.528 42.7161V62.4735C182.528 64.1287 181.186 65.4558 179.547 65.4558Z" fill="white"/>
<path d="M172.764 92.5945H144.994C143.354 92.5945 142.013 91.2525 142.013 89.6122V74.701C142.013 73.0608 143.354 71.7188 144.994 71.7188H179.547C181.186 71.7188 182.528 73.0608 182.528 74.701V89.6122C182.528 91.2525 181.186 92.5945 179.547 92.5945H178.265L178.056 92.7883L175.492 97.6345L172.928 92.7883L172.764 92.5945Z" fill="white"/>
<path d="M179.547 65.4558H125.884C124.244 65.4558 122.903 64.1138 122.903 62.4735V42.7161C122.903 41.0759 124.244 39.7339 125.884 39.7339H179.547C181.186 39.7339 182.528 41.0759 182.528 42.7161V62.4735C182.528 64.1287 181.186 65.4558 179.547 65.4558Z" stroke="#FA7832" stroke-miterlimit="10" stroke-linecap="round" stroke-linejoin="round"/>
<path opacity="0.5" d="M169.17 47.7266H145.01C144.458 47.7266 144.01 48.1743 144.01 48.7266V49.9176C144.01 50.4699 144.458 50.9176 145.01 50.9176H169.17C169.723 50.9176 170.17 50.4699 170.17 49.9176V48.7266C170.17 48.1743 169.723 47.7266 169.17 47.7266Z" fill="#FF9626"/>
<path opacity="0.5" d="M166.876 56.7031H145.501H166.876Z" stroke="#FF9626" stroke-miterlimit="10" stroke-linecap="round" stroke-linejoin="round"/>
<path opacity="0.5" d="M134.709 52.4983C136.059 52.4983 137.153 51.4035 137.153 50.0529C137.153 48.7023 136.059 47.6074 134.709 47.6074C133.358 47.6074 132.264 48.7023 132.264 50.0529C132.264 51.4035 133.358 52.4983 134.709 52.4983Z" fill="#FF9626"/>
<g opacity="0.5">
<path d="M152.358 84.5272C153.716 84.5272 154.817 83.4256 154.817 82.0668C154.817 80.708 153.716 79.6064 152.358 79.6064C150.999 79.6064 149.898 80.708 149.898 82.0668C149.898 83.4256 150.999 84.5272 152.358 84.5272Z" fill="#FF9626"/>
<path d="M162.181 84.5272C163.539 84.5272 164.64 83.4256 164.64 82.0668C164.64 80.708 163.539 79.6064 162.181 79.6064C160.823 79.6064 159.721 80.708 159.721 82.0668C159.721 83.4256 160.823 84.5272 162.181 84.5272Z" fill="#FF9626"/>
<path d="M172.004 84.5272C173.363 84.5272 174.464 83.4256 174.464 82.0668C174.464 80.708 173.363 79.6064 172.004 79.6064C170.646 79.6064 169.545 80.708 169.545 82.0668C169.545 83.4256 170.646 84.5272 172.004 84.5272Z" fill="#FF9626"/>
</g>
<path d="M172.764 92.5945H144.994C143.354 92.5945 142.013 91.2525 142.013 89.6122V74.701C142.013 73.0608 143.354 71.7188 144.994 71.7188H179.547C181.186 71.7188 182.528 73.0608 182.528 74.701V89.6122C182.528 91.2525 181.186 92.5945 179.547 92.5945H178.265L178.056 92.7883L175.492 97.6345L172.928 92.7883L172.764 92.5945Z" stroke="#FA7832" stroke-miterlimit="10" stroke-linecap="round" stroke-linejoin="round"/>
<path d="M78.9741 125.369V75.7598C78.9741 74.6861 78.1095 73.8213 77.0362 73.8213L38.0861 73.8809L22.5388 89.4334V125.34" stroke="#FA7832" stroke-miterlimit="10" stroke-linecap="round" stroke-linejoin="round"/>
<path d="M38.0861 73.8809V89.4333H22.5388" stroke="#FA7832" stroke-miterlimit="10" stroke-linecap="round" stroke-linejoin="round"/>
<path d="M61.6082 140.429L89.5128 116.81" stroke="#092C75" stroke-width="2" stroke-miterlimit="10" stroke-linecap="round" stroke-linejoin="round"/>
<path d="M12 116.81L40.0089 140.504" stroke="#092C75" stroke-width="2" stroke-miterlimit="10" stroke-linecap="round" stroke-linejoin="round"/>
<path d="M31.2976 101.717C31.2886 101.717 31.2886 101.708 31.2886 101.701L31.2796 101.692L29.0145 96.3003C28.9732 96.1998 29.0235 96.0742 29.124 96.0329C29.2245 95.9826 29.3501 96.0329 29.3914 96.1334L31.4806 101.116L33.5789 96.1334C33.613 96.0329 33.7368 95.9826 33.8373 96.0329C33.9378 96.0742 33.9881 96.1998 33.945 96.3003L31.6817 101.651C31.6727 101.726 31.6314 101.793 31.565 101.818H31.556C31.5309 101.827 31.5058 101.834 31.4806 101.834C31.4555 101.834 31.4214 101.834 31.4053 101.825C31.3963 101.825 31.3963 101.816 31.3963 101.816C31.3478 101.8 31.3137 101.768 31.2976 101.717Z" fill="#0E43B2" stroke="#FA7832" stroke-width="0.4"/>
<path d="M35.5227 96.1747C35.5227 96.0652 35.6142 95.9736 35.7237 95.9736C35.8404 95.9736 35.9319 96.0652 35.9319 96.1747L35.9373 101.635C35.9373 101.744 35.8458 101.836 35.7291 101.836C35.6196 101.836 35.5281 101.744 35.5281 101.635L35.5227 96.1747Z" fill="#0E43B2" stroke="#FA7832" stroke-width="0.4"/>
<path d="M40.1158 101.717C40.1068 101.717 40.1068 101.708 40.1068 101.701L40.0979 101.692L37.8345 96.3003C37.7932 96.1998 37.8435 96.0742 37.944 96.0329C38.0445 95.9826 38.1702 96.0329 38.2114 96.1334L40.3007 101.116L42.3989 96.1334C42.433 96.0329 42.5568 95.9826 42.6574 96.0329C42.7579 96.0742 42.8081 96.1998 42.7651 96.3003L40.4999 101.651C40.4909 101.726 40.4497 101.793 40.3832 101.818H40.3743C40.3491 101.827 40.324 101.834 40.2989 101.834C40.2738 101.834 40.2397 101.834 40.2235 101.825C40.2145 101.825 40.2145 101.816 40.2145 101.816C40.1661 101.8 40.132 101.768 40.1158 101.717Z" fill="#0E43B2" stroke="#FA7832" stroke-width="0.4"/>
<path d="M44.463 96.1839C44.463 96.0744 44.5546 95.9829 44.6641 95.9829H44.6802H47.6723C47.789 95.9829 47.8733 96.0744 47.8733 96.1839C47.8733 96.3006 47.789 96.3921 47.6723 96.3921H44.8723V98.7075H47.3223C47.43 98.7075 47.5233 98.7991 47.5233 98.9157C47.5233 99.0252 47.4318 99.1168 47.3223 99.1168H44.8723V101.423H47.6723C47.789 101.423 47.8733 101.515 47.8733 101.633C47.8733 101.743 47.789 101.834 47.6723 101.834H44.6892H44.6641H44.6479C44.5474 101.825 44.4648 101.743 44.4648 101.633V96.1839H44.463Z" fill="#0E43B2" stroke="#FA7832" stroke-width="0.4"/>
<path d="M49.8459 96.8443V101.635C49.8459 101.744 49.7543 101.836 49.6448 101.836C49.5353 101.836 49.4438 101.744 49.4438 101.635V96.2663C49.4187 96.182 49.4438 96.0994 49.5192 96.0402C49.6107 95.9809 49.7454 95.9989 49.8028 96.0904L53.3477 101.005V96.243C53.3477 96.1335 53.4392 96.042 53.5487 96.042C53.6654 96.042 53.7569 96.1335 53.7569 96.243V101.635C53.7569 101.744 53.6654 101.836 53.5487 101.836C53.4823 101.836 53.432 101.811 53.3908 101.76C53.3818 101.751 53.3656 101.744 53.3567 101.726L49.8459 96.8443Z" fill="#0E43B2" stroke="#FA7832" stroke-width="0.4"/>
<path d="M57.3773 96.3921H55.6129C55.5034 96.3921 55.4119 96.3006 55.4119 96.1839C55.4119 96.0744 55.5034 95.9829 55.6129 95.9829H59.5419C59.6514 95.9829 59.7429 96.0744 59.7429 96.1839C59.7429 96.3006 59.6514 96.3921 59.5419 96.3921H57.7775V101.633C57.7775 101.743 57.686 101.834 57.5765 101.834C57.467 101.834 57.3755 101.743 57.3755 101.633V96.3921H57.3773Z" fill="#0E43B2" stroke="#FA7832" stroke-width="0.4"/>
<path d="M61.29 96.1839C61.29 96.0744 61.3816 95.9829 61.4911 95.9829C61.6077 95.9829 61.6993 96.0744 61.6993 96.1839V99.4686C61.6993 100.547 62.577 101.416 63.6467 101.425C64.7326 101.416 65.6103 100.547 65.6103 99.4686V96.1839C65.6103 96.0744 65.7019 95.9829 65.8113 95.9829C65.928 95.9829 66.0213 96.0744 66.0213 96.1839V99.4686C66.0213 100.772 64.9606 101.834 63.6467 101.834C62.3508 101.834 61.29 100.773 61.29 99.4686V96.1839Z" fill="#0E43B2" stroke="#FA7832" stroke-width="0.4"/>
<path d="M72.9675 96.1084C72.9514 96.0832 72.9334 96.0671 72.9083 96.042C72.8168 95.9827 72.6821 96.0007 72.6247 96.0922L70.5516 98.9748L68.4696 96.0904C68.4031 95.9989 68.2775 95.9809 68.186 96.0402C68.177 96.0491 68.1698 96.0491 68.1698 96.0563C68.1196 96.0904 68.0854 96.1479 68.0854 96.2143V101.631C68.0854 101.741 68.177 101.832 68.2937 101.832C68.4031 101.832 68.4947 101.741 68.4947 101.631V96.8281L70.3667 99.4199C70.408 99.4863 70.4673 99.5115 70.5426 99.5115H70.5588C70.618 99.5115 70.6844 99.4863 70.7257 99.4199L72.5978 96.8209V101.635C72.5978 101.744 72.6821 101.836 72.7988 101.836C72.9083 101.836 72.9998 101.744 72.9998 101.635V96.2179C73.0016 96.1837 72.9855 96.1425 72.9675 96.1084Z" fill="#0E43B2" stroke="#FA7832" stroke-width="0.4"/>
</svg>
