<svg width="64" height="64" viewBox="0 0 64 64" fill="none" xmlns="http://www.w3.org/2000/svg">
<path d="M28.66 51.02L22.5 39.28L36.2 11.5H36.29L49.99 39.28L43.83 51.02L43.82 51.24V60.14H28.61V51.24L28.66 51.02Z" fill="#EBF5FF"/>
<path d="M7.5 10C8.88071 10 10 8.88071 10 7.5C10 6.11929 8.88071 5 7.5 5C6.11929 5 5 6.11929 5 7.5C5 8.88071 6.11929 10 7.5 10Z" stroke="#FA7832" stroke-miterlimit="10" stroke-linecap="round" stroke-linejoin="round"/>
<path d="M32.45 33.97C33.8307 33.97 34.95 32.8507 34.95 31.47C34.95 30.0893 33.8307 28.97 32.45 28.97C31.0692 28.97 29.95 30.0893 29.95 31.47C29.95 32.8507 31.0692 33.97 32.45 33.97Z" fill="white" stroke="#FA7832" stroke-miterlimit="10" stroke-linecap="round" stroke-linejoin="round"/>
<path d="M32.5801 28.5401V10.3501" stroke="#FA7832" stroke-miterlimit="10" stroke-linecap="round" stroke-linejoin="round"/>
<path d="M10 7.5H29.64" stroke="#FA7832" stroke-miterlimit="10" stroke-linecap="round" stroke-linejoin="round"/>
<path d="M57.42 10C58.8007 10 59.92 8.88071 59.92 7.5C59.92 6.11929 58.8007 5 57.42 5C56.0393 5 54.92 6.11929 54.92 7.5C54.92 8.88071 56.0393 10 57.42 10Z" stroke="#FA7832" stroke-miterlimit="10" stroke-linecap="round" stroke-linejoin="round"/>
<path d="M54.92 7.5H35.28" stroke="#FA7832" stroke-miterlimit="10" stroke-linecap="round" stroke-linejoin="round"/>
<path d="M10 32.8599H5V37.8599H10V32.8599Z" stroke="#092C75" stroke-width="1.6" stroke-miterlimit="10" stroke-linecap="round" stroke-linejoin="round"/>
<path d="M60.22 32.8599H55.22V37.8599H60.22V32.8599Z" stroke="#092C75" stroke-width="1.6" stroke-miterlimit="10" stroke-linecap="round" stroke-linejoin="round"/>
<path d="M40.2 49.79H24.79V58.7H40.2V49.79Z" stroke="#092C75" stroke-width="1.6" stroke-miterlimit="10" stroke-linecap="round" stroke-linejoin="round"/>
<path d="M35 5H30V10H35V5Z" stroke="#092C75" stroke-width="1.6" stroke-miterlimit="10" stroke-linecap="round" stroke-linejoin="round"/>
<path d="M35.04 7.62988C47.67 8.90988 57.52 19.5799 57.52 32.5399" stroke="#092C75" stroke-width="1.6" stroke-miterlimit="10" stroke-linecap="round" stroke-linejoin="round"/>
<path d="M7.42993 32.5399C7.42993 19.5999 17.2399 8.94988 29.8299 7.62988" stroke="#092C75" stroke-width="1.6" stroke-miterlimit="10" stroke-linecap="round" stroke-linejoin="round"/>
<path d="M40.01 49.57L46.17 37.8301L32.48 10.05" stroke="#092C75" stroke-width="1.6" stroke-miterlimit="10" stroke-linecap="round" stroke-linejoin="round"/>
<path d="M24.67 49.57L18.5 37.8301L32.2 10.05" stroke="#092C75" stroke-width="1.6" stroke-miterlimit="10" stroke-linecap="round" stroke-linejoin="round"/>
</svg>
