<svg width="1920" height="352" viewBox="0 0 1920 352" fill="none" xmlns="http://www.w3.org/2000/svg">
<path d="M-15.5096 3.24042C101.286 95.8636 244.857 216.419 491.2 320.8C839.885 468.554 1300.21 18.6752 1681.53 73.8066C2091.05 133.017 2088.62 227.077 2088.62 227.077" stroke="url(#paint0_linear)" stroke-width="1.3" stroke-miterlimit="10" stroke-linecap="round" stroke-linejoin="round"/>
<path d="M-15.6741 10.7497C102.186 100.33 259.947 206.479 511.073 313.346C857.07 460.347 1305.49 34.3351 1684.89 82.9432C2086.14 134.348 2088.62 216.313 2088.62 216.313" stroke="url(#paint1_linear)" stroke-width="1.25" stroke-miterlimit="10" stroke-linecap="round" stroke-linejoin="round"/>
<path d="M-15.8389 18.2595C103.085 104.789 275.025 196.539 530.947 305.893C874.266 452.14 1310.61 50.0589 1688.23 92.0803C2081.07 135.799 2088.62 205.549 2088.62 205.549" stroke="url(#paint2_linear)" stroke-width="1.2" stroke-miterlimit="10" stroke-linecap="round" stroke-linejoin="round"/>
<path d="M-16.0034 25.7692C103.985 109.255 290.114 186.599 550.821 298.44C891.462 443.926 1315.59 65.8462 1691.59 101.217C2075.85 137.363 2088.62 194.784 2088.62 194.784" stroke="url(#paint3_linear)" stroke-width="1.15" stroke-miterlimit="10" stroke-linecap="round" stroke-linejoin="round"/>
<path d="M-16.1681 33.2717C104.885 113.715 305.192 176.652 570.694 290.979C908.647 435.719 1320.42 81.7177 1694.94 110.354C2070.52 139.068 2088.62 184.02 2088.62 184.02" stroke="url(#paint4_linear)" stroke-width="1.1" stroke-miterlimit="10" stroke-linecap="round" stroke-linejoin="round"/>
<path d="M-16.3327 40.7814C105.785 118.174 320.27 166.712 590.568 283.519C925.854 427.512 1325.13 97.6881 1698.3 119.491C2065.06 140.921 2088.62 173.256 2088.62 173.256" stroke="url(#paint5_linear)" stroke-width="1.05" stroke-miterlimit="10" stroke-linecap="round" stroke-linejoin="round"/>
<path d="M-16.4971 48.2907C106.685 122.64 335.359 156.771 610.442 276.066C943.039 419.298 1329.72 113.764 1701.65 128.628C2059.48 142.928 2088.62 162.492 2088.62 162.492" stroke="url(#paint6_linear)" stroke-miterlimit="10" stroke-linecap="round" stroke-linejoin="round"/>
<path d="M-16.662 55.8005C107.585 127.107 350.448 146.825 630.327 268.613C960.235 411.091 1334.19 129.967 1705 137.765C2053.82 145.098 2088.62 151.727 2088.62 151.727" stroke="url(#paint7_linear)" stroke-width="0.95" stroke-miterlimit="10" stroke-linecap="round" stroke-linejoin="round"/>
<path d="M-16.8154 63.3102C108.496 131.566 365.538 136.892 650.212 261.152C977.443 402.877 1338.58 146.31 1708.37 146.895C2048.07 147.437 2088.62 140.963 2088.62 140.963" stroke="url(#paint8_linear)" stroke-width="0.9" stroke-miterlimit="10" stroke-linecap="round" stroke-linejoin="round"/>
<path d="M-16.9801 70.8195C109.395 136.032 380.616 126.951 670.085 253.699C994.628 394.669 1342.87 162.816 1711.72 156.032C2042.25 149.959 2088.62 130.199 2088.62 130.199" stroke="url(#paint9_linear)" stroke-width="0.85" stroke-miterlimit="10" stroke-linecap="round" stroke-linejoin="round"/>
<path d="M-17.1445 78.3224C110.284 140.492 395.705 117.005 689.959 246.239C1011.82 386.463 1347.14 179.498 1715.08 165.169C2036.4 152.658 2088.62 119.435 2088.62 119.435" stroke="url(#paint10_linear)" stroke-width="0.8" stroke-miterlimit="10" stroke-linecap="round" stroke-linejoin="round"/>
<path d="M-17.3092 85.8317C111.184 144.958 410.783 107.064 709.833 238.785C1029.02 378.256 1351.38 196.369 1718.42 174.305C2030.54 155.546 2088.62 108.677 2088.62 108.677" stroke="url(#paint11_linear)" stroke-width="0.75" stroke-miterlimit="10" stroke-linecap="round" stroke-linejoin="round"/>
<path d="M-17.474 93.3415C112.084 149.417 425.861 97.1244 729.706 231.332C1046.2 370.049 1355.63 213.453 1721.77 183.443C2024.69 158.617 2088.62 97.9133 2088.62 97.9133" stroke="url(#paint12_linear)" stroke-width="0.7" stroke-miterlimit="10" stroke-linecap="round" stroke-linejoin="round"/>
<path d="M-17.6387 100.851C112.984 153.883 440.95 87.1843 749.58 223.872C1063.4 361.835 1359.93 230.754 1725.13 192.579C2018.88 161.872 2088.62 87.1489 2088.62 87.1489" stroke="url(#paint13_linear)" stroke-width="0.65" stroke-miterlimit="10" stroke-linecap="round" stroke-linejoin="round"/>
<path d="M-17.8029 108.361C113.884 158.35 456.028 77.2444 769.454 216.419C1080.6 353.627 1364.31 248.303 1728.47 201.716C2013.14 165.302 2088.62 76.3848 2088.62 76.3848" stroke="url(#paint14_linear)" stroke-width="0.6" stroke-miterlimit="10" stroke-linecap="round" stroke-linejoin="round"/>
<path d="M-17.9678 115.87C114.784 162.809 471.117 67.3044 789.328 208.965C1097.78 345.42 1368.83 266.09 1731.83 210.853C2007.49 168.909 2088.62 65.6206 2088.62 65.6206" stroke="url(#paint15_linear)" stroke-width="0.52" stroke-miterlimit="10" stroke-linecap="round" stroke-linejoin="round"/>
<path d="M-18.1324 123.373C115.683 167.268 486.195 57.3574 809.201 201.505C1114.98 337.206 1373.53 284.132 1735.18 219.99C2001.98 172.671 2088.62 54.8564 2088.62 54.8564" stroke="url(#paint16_linear)" stroke-width="0.45" stroke-miterlimit="10" stroke-linecap="round" stroke-linejoin="round"/>
<path d="M-18.2968 130.883C116.583 171.735 501.285 47.4175 829.075 194.045C1132.17 329 1378.48 302.434 1738.54 229.127C1996.63 176.574 2088.62 44.0923 2088.62 44.0923" stroke="url(#paint17_linear)" stroke-width="0.38" stroke-miterlimit="10" stroke-linecap="round" stroke-linejoin="round"/>
<path d="M-18.4509 138.392C117.494 176.194 516.374 37.47 848.96 186.591C1149.37 320.792 1383.7 320.996 1741.9 238.264C1991.48 180.61 2088.62 33.3276 2088.62 33.3276" stroke="url(#paint18_linear)" stroke-width="0.3" stroke-miterlimit="10" stroke-linecap="round" stroke-linejoin="round"/>
<path d="M-18.615 145.902C118.383 180.66 531.452 27.5301 868.845 179.138C1166.58 312.578 1389.26 339.813 1745.25 247.394C1986.55 184.76 2088.62 22.5635 2088.62 22.5635" stroke="url(#paint19_linear)" stroke-width="0.2" stroke-miterlimit="10" stroke-linecap="round" stroke-linejoin="round"/>
<path d="M-18.7798 153.411C119.283 185.126 546.541 17.5902 888.718 171.685C1183.76 304.371 1395.2 358.862 1748.6 256.531C1981.85 188.994 2088.62 11.7993 2088.62 11.7993" stroke="url(#paint20_linear)" stroke-width="0.1" stroke-miterlimit="10" stroke-linecap="round" stroke-linejoin="round"/>
<path d="M-18.9442 160.922C120.183 189.594 561.619 7.6512 908.592 164.233C1200.96 296.165 1401.56 378.144 1751.96 265.676C1977.44 193.299 2088.62 1.03613 2088.62 1.03613" stroke="url(#paint21_linear)" stroke-width="0.1" stroke-miterlimit="10" stroke-linecap="round" stroke-linejoin="round"/>
<defs>
<linearGradient id="paint0_linear" x1="2088.62" y1="176.994" x2="-15.5095" y2="176.994" gradientUnits="userSpaceOnUse">
<stop offset="0.119792" stop-color="#CE4830"/>
<stop offset="0.317708" stop-color="#FDB913" stop-opacity="0.5"/>
<stop offset="0.609375" stop-color="#8DC63F" stop-opacity="0.5"/>
<stop offset="0.96875" stop-color="#00529B"/>
</linearGradient>
<linearGradient id="paint1_linear" x1="2088.62" y1="177.553" x2="-15.674" y2="177.553" gradientUnits="userSpaceOnUse">
<stop offset="0.119792" stop-color="#CE4830"/>
<stop offset="0.317708" stop-color="#FDB913" stop-opacity="0.5"/>
<stop offset="0.609375" stop-color="#8DC63F" stop-opacity="0.5"/>
<stop offset="0.96875" stop-color="#00529B"/>
</linearGradient>
<linearGradient id="paint2_linear" x1="2088.62" y1="178.166" x2="-15.8388" y2="178.166" gradientUnits="userSpaceOnUse">
<stop offset="0.119792" stop-color="#CE4830"/>
<stop offset="0.317708" stop-color="#FDB913" stop-opacity="0.5"/>
<stop offset="0.609375" stop-color="#8DC63F" stop-opacity="0.5"/>
<stop offset="0.96875" stop-color="#00529B"/>
</linearGradient>
<linearGradient id="paint3_linear" x1="2088.62" y1="178.839" x2="-16.0034" y2="178.839" gradientUnits="userSpaceOnUse">
<stop offset="0.119792" stop-color="#CE4830"/>
<stop offset="0.317708" stop-color="#FDB913" stop-opacity="0.5"/>
<stop offset="0.609375" stop-color="#8DC63F" stop-opacity="0.5"/>
<stop offset="0.96875" stop-color="#00529B"/>
</linearGradient>
<linearGradient id="paint4_linear" x1="2088.62" y1="179.579" x2="-16.1679" y2="179.579" gradientUnits="userSpaceOnUse">
<stop offset="0.119792" stop-color="#CE4830"/>
<stop offset="0.317708" stop-color="#FDB913" stop-opacity="0.5"/>
<stop offset="0.609375" stop-color="#8DC63F" stop-opacity="0.5"/>
<stop offset="0.96875" stop-color="#00529B"/>
</linearGradient>
<linearGradient id="paint5_linear" x1="2088.62" y1="180.408" x2="-16.3327" y2="180.408" gradientUnits="userSpaceOnUse">
<stop offset="0.119792" stop-color="#CE4830"/>
<stop offset="0.317708" stop-color="#FDB913" stop-opacity="0.5"/>
<stop offset="0.609375" stop-color="#8DC63F" stop-opacity="0.5"/>
<stop offset="0.96875" stop-color="#00529B"/>
</linearGradient>
<linearGradient id="paint6_linear" x1="2088.62" y1="181.337" x2="-16.497" y2="181.336" gradientUnits="userSpaceOnUse">
<stop offset="0.119792" stop-color="#CE4830"/>
<stop offset="0.317708" stop-color="#FDB913" stop-opacity="0.5"/>
<stop offset="0.609375" stop-color="#8DC63F" stop-opacity="0.5"/>
<stop offset="0.96875" stop-color="#00529B"/>
</linearGradient>
<linearGradient id="paint7_linear" x1="2088.62" y1="182.387" x2="-16.6618" y2="182.387" gradientUnits="userSpaceOnUse">
<stop offset="0.119792" stop-color="#CE4830"/>
<stop offset="0.317708" stop-color="#FDB913" stop-opacity="0.5"/>
<stop offset="0.609375" stop-color="#8DC63F" stop-opacity="0.5"/>
<stop offset="0.96875" stop-color="#00529B"/>
</linearGradient>
<linearGradient id="paint8_linear" x1="2088.62" y1="183.579" x2="-16.8154" y2="183.578" gradientUnits="userSpaceOnUse">
<stop offset="0.119792" stop-color="#CE4830"/>
<stop offset="0.317708" stop-color="#FDB913" stop-opacity="0.5"/>
<stop offset="0.609375" stop-color="#8DC63F" stop-opacity="0.5"/>
<stop offset="0.96875" stop-color="#00529B"/>
</linearGradient>
<linearGradient id="paint9_linear" x1="2088.62" y1="184.949" x2="-16.9802" y2="184.949" gradientUnits="userSpaceOnUse">
<stop offset="0.119792" stop-color="#CE4830"/>
<stop offset="0.317708" stop-color="#FDB913" stop-opacity="0.5"/>
<stop offset="0.609375" stop-color="#8DC63F" stop-opacity="0.5"/>
<stop offset="0.96875" stop-color="#00529B"/>
</linearGradient>
<linearGradient id="paint10_linear" x1="2088.62" y1="186.533" x2="-17.1445" y2="186.533" gradientUnits="userSpaceOnUse">
<stop offset="0.119792" stop-color="#CE4830"/>
<stop offset="0.317708" stop-color="#FDB913" stop-opacity="0.5"/>
<stop offset="0.609375" stop-color="#8DC63F" stop-opacity="0.5"/>
<stop offset="0.96875" stop-color="#00529B"/>
</linearGradient>
<linearGradient id="paint11_linear" x1="2088.62" y1="188.391" x2="-17.3091" y2="188.391" gradientUnits="userSpaceOnUse">
<stop offset="0.119792" stop-color="#CE4830"/>
<stop offset="0.317708" stop-color="#FDB913" stop-opacity="0.5"/>
<stop offset="0.609375" stop-color="#8DC63F" stop-opacity="0.5"/>
<stop offset="0.96875" stop-color="#00529B"/>
</linearGradient>
<linearGradient id="paint12_linear" x1="2088.62" y1="190.588" x2="-17.4741" y2="190.588" gradientUnits="userSpaceOnUse">
<stop offset="0.119792" stop-color="#CE4830"/>
<stop offset="0.317708" stop-color="#FDB913" stop-opacity="0.5"/>
<stop offset="0.609375" stop-color="#8DC63F" stop-opacity="0.5"/>
<stop offset="0.96875" stop-color="#00529B"/>
</linearGradient>
<linearGradient id="paint13_linear" x1="2088.62" y1="186.357" x2="-17.6386" y2="186.357" gradientUnits="userSpaceOnUse">
<stop offset="0.119792" stop-color="#CE4830"/>
<stop offset="0.317708" stop-color="#FDB913" stop-opacity="0.5"/>
<stop offset="0.609375" stop-color="#8DC63F" stop-opacity="0.5"/>
<stop offset="0.96875" stop-color="#00529B"/>
</linearGradient>
<linearGradient id="paint14_linear" x1="2088.62" y1="180.381" x2="-17.803" y2="180.381" gradientUnits="userSpaceOnUse">
<stop offset="0.119792" stop-color="#CE4830"/>
<stop offset="0.317708" stop-color="#FDB913" stop-opacity="0.5"/>
<stop offset="0.609375" stop-color="#8DC63F" stop-opacity="0.5"/>
<stop offset="0.96875" stop-color="#00529B"/>
</linearGradient>
<linearGradient id="paint15_linear" x1="2088.62" y1="175.069" x2="-17.9677" y2="175.069" gradientUnits="userSpaceOnUse">
<stop offset="0.119792" stop-color="#CE4830"/>
<stop offset="0.317708" stop-color="#FDB913" stop-opacity="0.5"/>
<stop offset="0.609375" stop-color="#8DC63F" stop-opacity="0.5"/>
<stop offset="0.96875" stop-color="#00529B"/>
</linearGradient>
<linearGradient id="paint16_linear" x1="2088.62" y1="170.546" x2="-18.1323" y2="170.546" gradientUnits="userSpaceOnUse">
<stop offset="0.119792" stop-color="#CE4830"/>
<stop offset="0.317708" stop-color="#FDB913" stop-opacity="0.5"/>
<stop offset="0.609375" stop-color="#8DC63F" stop-opacity="0.5"/>
<stop offset="0.96875" stop-color="#00529B"/>
</linearGradient>
<linearGradient id="paint17_linear" x1="2088.62" y1="166.905" x2="-18.2968" y2="166.904" gradientUnits="userSpaceOnUse">
<stop offset="0.119792" stop-color="#CE4830"/>
<stop offset="0.317708" stop-color="#FDB913" stop-opacity="0.5"/>
<stop offset="0.609375" stop-color="#8DC63F" stop-opacity="0.5"/>
<stop offset="0.96875" stop-color="#00529B"/>
</linearGradient>
<linearGradient id="paint18_linear" x1="2088.62" y1="164.14" x2="-18.4509" y2="164.14" gradientUnits="userSpaceOnUse">
<stop offset="0.119792" stop-color="#CE4830"/>
<stop offset="0.317708" stop-color="#FDB913" stop-opacity="0.5"/>
<stop offset="0.609375" stop-color="#8DC63F" stop-opacity="0.5"/>
<stop offset="0.96875" stop-color="#00529B"/>
</linearGradient>
<linearGradient id="paint19_linear" x1="2088.62" y1="162.148" x2="-18.615" y2="162.148" gradientUnits="userSpaceOnUse">
<stop offset="0.119792" stop-color="#CE4830"/>
<stop offset="0.317708" stop-color="#FDB913" stop-opacity="0.5"/>
<stop offset="0.609375" stop-color="#8DC63F" stop-opacity="0.5"/>
<stop offset="0.96875" stop-color="#00529B"/>
</linearGradient>
<linearGradient id="paint20_linear" x1="2088.62" y1="160.772" x2="-18.7798" y2="160.772" gradientUnits="userSpaceOnUse">
<stop offset="0.119792" stop-color="#CE4830"/>
<stop offset="0.317708" stop-color="#FDB913" stop-opacity="0.5"/>
<stop offset="0.609375" stop-color="#8DC63F" stop-opacity="0.5"/>
<stop offset="0.96875" stop-color="#00529B"/>
</linearGradient>
<linearGradient id="paint21_linear" x1="2088.62" y1="159.861" x2="-18.9443" y2="159.861" gradientUnits="userSpaceOnUse">
<stop offset="0.119792" stop-color="#CE4830"/>
<stop offset="0.317708" stop-color="#FDB913" stop-opacity="0.5"/>
<stop offset="0.609375" stop-color="#8DC63F" stop-opacity="0.5"/>
<stop offset="0.96875" stop-color="#00529B"/>
</linearGradient>
</defs>
</svg>
