<svg width="26" height="26" viewBox="0 0 26 26" fill="none" xmlns="http://www.w3.org/2000/svg">
<path fill-rule="evenodd" clip-rule="evenodd" d="M13.0012 0.199951C9.52491 0.199951 9.08861 0.215151 7.72331 0.277251C6.36061 0.339651 5.43051 0.555351 4.61661 0.871951C3.77471 1.19885 3.06061 1.63615 2.34911 2.34795C1.63711 3.05935 1.19971 3.77355 0.871713 4.61515C0.554413 5.42925 0.338412 6.35965 0.277112 7.72185C0.216012 9.08715 0.200012 9.52375 0.200012 13.0001C0.200012 16.4764 0.215512 16.9112 0.277312 18.2766C0.340012 19.6393 0.555712 20.5695 0.872012 21.3834C1.19921 22.2252 1.63651 22.9394 2.34831 23.6509C3.05951 24.3629 3.77361 24.8013 4.61501 25.1282C5.42941 25.4447 6.35981 25.6604 7.72221 25.7229C9.08761 25.785 9.52361 25.8002 12.9996 25.8002C16.4762 25.8002 16.9111 25.785 18.2765 25.7229C19.6391 25.6604 20.5703 25.4447 21.3848 25.1282C22.2264 24.8013 22.9394 24.3629 23.6506 23.6509C24.3626 22.9394 24.8 22.2251 25.128 21.3835C25.4427 20.5694 25.6587 19.6391 25.7227 18.2769C25.784 16.9116 25.8 16.4764 25.8 13.0001C25.8 9.52375 25.784 9.08745 25.7227 7.72215C25.6587 6.35945 25.4427 5.42925 25.128 4.61545C24.8 3.77355 24.3626 3.05935 23.6506 2.34795C22.9386 1.63595 22.2266 1.19855 21.384 0.871951C20.5679 0.555351 19.6373 0.339651 18.2746 0.277251C16.9092 0.215151 16.4746 0.199951 12.9972 0.199951H13.0012ZM12.5743 2.50645H12.5746L13.0012 2.50655C16.4188 2.50655 16.8239 2.51885 18.1735 2.58015C19.4215 2.63725 20.0989 2.84575 20.5501 3.02095C21.1474 3.25295 21.5733 3.53035 22.021 3.97835C22.469 4.42635 22.7464 4.85305 22.9789 5.45035C23.1541 5.90105 23.3629 6.57835 23.4197 7.82635C23.481 9.17575 23.4944 9.58105 23.4944 12.9972C23.4944 16.4132 23.481 16.8185 23.4197 18.1679C23.3626 19.4158 23.1541 20.0931 22.9789 20.5438C22.7469 21.1411 22.469 21.5666 22.021 22.0143C21.573 22.4623 21.1477 22.7396 20.5501 22.9716C20.0994 23.1476 19.4215 23.3557 18.1735 23.4127C16.8242 23.4741 16.4188 23.4874 13.0012 23.4874C9.58331 23.4874 9.17821 23.4741 7.82891 23.4127C6.58091 23.3551 5.90351 23.1466 5.45211 22.9714C4.85471 22.7394 4.42801 22.462 3.98001 22.014C3.53201 21.566 3.25471 21.1404 3.02221 20.5428C2.84701 20.0922 2.63821 19.4148 2.58141 18.1668C2.52001 16.8175 2.50781 16.4121 2.50781 12.994C2.50781 9.57575 2.52001 9.17255 2.58141 7.82315C2.63841 6.57515 2.84701 5.89785 3.02221 5.44665C3.25421 4.84925 3.53201 4.42265 3.98001 3.97465C4.42801 3.52665 4.85471 3.24925 5.45211 3.01675C5.90331 2.84075 6.58091 2.63275 7.82891 2.57535C9.00971 2.52205 9.46731 2.50605 11.8529 2.50335V2.50655C12.0758 2.50625 12.3156 2.50635 12.5743 2.50645ZM18.2978 6.16745C18.2978 5.31915 18.9858 4.63195 19.8338 4.63195V4.63145C20.6818 4.63145 21.3698 5.31945 21.3698 6.16745C21.3698 7.01545 20.6818 7.70345 19.8338 7.70345C18.9858 7.70345 18.2978 7.01545 18.2978 6.16745ZM13.0009 6.42665C9.37091 6.42675 6.42781 9.36995 6.42781 13.0001C6.42781 16.6303 9.37101 19.5722 13.0012 19.5722C16.6314 19.5722 19.5735 16.6303 19.5735 13.0001C19.5735 9.36985 16.6311 6.42665 13.0009 6.42665ZM17.2679 13.0001C17.2679 10.6435 15.3575 8.73335 13.0012 8.73335C10.6446 8.73335 8.73451 10.6435 8.73451 13.0001C8.73451 15.3564 10.6446 17.2668 13.0012 17.2668C15.3575 17.2668 17.2679 15.3564 17.2679 13.0001Z" fill="white"/>
</svg>
