<svg width="1920" height="520" viewBox="0 0 1920 520" fill="none" xmlns="http://www.w3.org/2000/svg">
<mask id="mask0" mask-type="alpha" maskUnits="userSpaceOnUse" x="0" y="0" width="1920" height="520">
<rect width="1920" height="520" fill="url(#paint0_linear)"/>
</mask>
<g mask="url(#mask0)">
<path d="M-15.5096 129.24C101.286 221.864 244.857 342.419 491.2 446.8C839.885 594.554 1300.21 144.675 1681.53 199.807C2091.05 259.017 2088.62 353.077 2088.62 353.077" stroke="url(#paint1_linear)" stroke-width="1.3" stroke-miterlimit="10" stroke-linecap="round" stroke-linejoin="round"/>
<path d="M-15.6742 136.75C102.186 226.33 259.946 332.479 511.073 439.346C857.07 586.347 1305.49 160.335 1684.89 208.943C2086.14 260.348 2088.62 342.313 2088.62 342.313" stroke="url(#paint2_linear)" stroke-width="1.25" stroke-miterlimit="10" stroke-linecap="round" stroke-linejoin="round"/>
<path d="M-15.839 144.259C103.085 230.789 275.024 322.539 530.947 431.893C874.266 578.14 1310.61 176.059 1688.23 218.08C2081.07 261.799 2088.62 331.549 2088.62 331.549" stroke="url(#paint3_linear)" stroke-width="1.2" stroke-miterlimit="10" stroke-linecap="round" stroke-linejoin="round"/>
<path d="M-16.0034 151.769C103.985 235.255 290.114 312.599 550.821 424.44C891.462 569.926 1315.59 191.846 1691.59 227.217C2075.85 263.363 2088.62 320.784 2088.62 320.784" stroke="url(#paint4_linear)" stroke-width="1.15" stroke-miterlimit="10" stroke-linecap="round" stroke-linejoin="round"/>
<path d="M-16.1681 159.272C104.885 239.715 305.192 302.652 570.694 416.979C908.647 561.719 1320.42 207.718 1694.94 236.354C2070.52 265.068 2088.62 310.02 2088.62 310.02" stroke="url(#paint5_linear)" stroke-width="1.1" stroke-miterlimit="10" stroke-linecap="round" stroke-linejoin="round"/>
<path d="M-16.3327 166.781C105.785 244.174 320.27 292.712 590.568 409.519C925.854 553.512 1325.13 223.688 1698.3 245.491C2065.06 266.921 2088.62 299.256 2088.62 299.256" stroke="url(#paint6_linear)" stroke-width="1.05" stroke-miterlimit="10" stroke-linecap="round" stroke-linejoin="round"/>
<path d="M-16.4971 174.291C106.685 248.64 335.359 282.771 610.442 402.066C943.039 545.298 1329.72 239.764 1701.65 254.628C2059.48 268.928 2088.62 288.492 2088.62 288.492" stroke="url(#paint7_linear)" stroke-miterlimit="10" stroke-linecap="round" stroke-linejoin="round"/>
<path d="M-16.662 181.8C107.585 253.107 350.448 272.825 630.327 394.613C960.235 537.091 1334.19 255.967 1705 263.765C2053.82 271.098 2088.62 277.727 2088.62 277.727" stroke="url(#paint8_linear)" stroke-width="0.95" stroke-miterlimit="10" stroke-linecap="round" stroke-linejoin="round"/>
<path d="M-16.8154 189.31C108.496 257.566 365.538 262.892 650.212 387.152C977.443 528.877 1338.58 272.31 1708.37 272.895C2048.07 273.437 2088.62 266.963 2088.62 266.963" stroke="url(#paint9_linear)" stroke-width="0.9" stroke-miterlimit="10" stroke-linecap="round" stroke-linejoin="round"/>
<path d="M-16.9801 196.82C109.395 262.032 380.616 252.951 670.085 379.699C994.628 520.669 1342.87 288.816 1711.72 282.032C2042.25 275.959 2088.62 256.199 2088.62 256.199" stroke="url(#paint10_linear)" stroke-width="0.85" stroke-miterlimit="10" stroke-linecap="round" stroke-linejoin="round"/>
<path d="M-17.1445 204.322C110.284 266.492 395.705 243.005 689.959 372.239C1011.82 512.463 1347.14 305.498 1715.08 291.169C2036.4 278.658 2088.62 245.435 2088.62 245.435" stroke="url(#paint11_linear)" stroke-width="0.8" stroke-miterlimit="10" stroke-linecap="round" stroke-linejoin="round"/>
<path d="M-17.3092 211.832C111.184 270.958 410.783 233.064 709.833 364.785C1029.02 504.256 1351.38 322.369 1718.42 300.305C2030.54 281.546 2088.62 234.677 2088.62 234.677" stroke="url(#paint12_linear)" stroke-width="0.75" stroke-miterlimit="10" stroke-linecap="round" stroke-linejoin="round"/>
<path d="M-17.474 219.341C112.084 275.417 425.861 223.124 729.706 357.332C1046.2 496.049 1355.63 339.453 1721.77 309.443C2024.69 284.617 2088.62 223.913 2088.62 223.913" stroke="url(#paint13_linear)" stroke-width="0.7" stroke-miterlimit="10" stroke-linecap="round" stroke-linejoin="round"/>
<path d="M-17.6387 226.851C112.984 279.883 440.95 213.184 749.58 349.872C1063.4 487.835 1359.93 356.754 1725.13 318.579C2018.88 287.872 2088.62 213.149 2088.62 213.149" stroke="url(#paint14_linear)" stroke-width="0.65" stroke-miterlimit="10" stroke-linecap="round" stroke-linejoin="round"/>
<path d="M-17.8029 234.361C113.884 284.35 456.028 203.244 769.454 342.419C1080.6 479.627 1364.31 374.303 1728.47 327.716C2013.14 291.302 2088.62 202.385 2088.62 202.385" stroke="url(#paint15_linear)" stroke-width="0.6" stroke-miterlimit="10" stroke-linecap="round" stroke-linejoin="round"/>
<path d="M-17.9678 241.87C114.784 288.809 471.117 193.304 789.328 334.965C1097.78 471.42 1368.83 392.09 1731.83 336.853C2007.49 294.909 2088.62 191.621 2088.62 191.621" stroke="url(#paint16_linear)" stroke-width="0.52" stroke-miterlimit="10" stroke-linecap="round" stroke-linejoin="round"/>
<path d="M-18.1324 249.373C115.683 293.268 486.195 183.357 809.201 327.505C1114.98 463.206 1373.53 410.132 1735.18 345.99C2001.98 298.671 2088.62 180.856 2088.62 180.856" stroke="url(#paint17_linear)" stroke-width="0.45" stroke-miterlimit="10" stroke-linecap="round" stroke-linejoin="round"/>
<path d="M-18.2968 256.883C116.583 297.735 501.285 173.418 829.075 320.045C1132.17 455 1378.48 428.434 1738.54 355.127C1996.63 302.574 2088.62 170.092 2088.62 170.092" stroke="url(#paint18_linear)" stroke-width="0.38" stroke-miterlimit="10" stroke-linecap="round" stroke-linejoin="round"/>
<path d="M-18.4509 264.392C117.494 302.194 516.374 163.47 848.96 312.591C1149.37 446.792 1383.7 446.996 1741.9 364.264C1991.48 306.61 2088.62 159.328 2088.62 159.328" stroke="url(#paint19_linear)" stroke-width="0.3" stroke-miterlimit="10" stroke-linecap="round" stroke-linejoin="round"/>
<path d="M-18.615 271.902C118.383 306.66 531.452 153.53 868.845 305.138C1166.58 438.578 1389.26 465.813 1745.25 373.394C1986.55 310.76 2088.62 148.563 2088.62 148.563" stroke="url(#paint20_linear)" stroke-width="0.2" stroke-miterlimit="10" stroke-linecap="round" stroke-linejoin="round"/>
<path d="M-18.78 279.411C119.283 311.126 546.541 143.59 888.718 297.685C1183.76 430.371 1395.2 484.862 1748.6 382.531C1981.85 314.994 2088.62 137.799 2088.62 137.799" stroke="url(#paint21_linear)" stroke-width="0.1" stroke-miterlimit="10" stroke-linecap="round" stroke-linejoin="round"/>
<path d="M-18.9444 286.922C120.183 315.594 561.619 133.651 908.592 290.233C1200.96 422.165 1401.56 504.144 1751.96 391.676C1977.44 319.299 2088.62 127.036 2088.62 127.036" stroke="url(#paint22_linear)" stroke-width="0.1" stroke-miterlimit="10" stroke-linecap="round" stroke-linejoin="round"/>
</g>
<defs>
<linearGradient id="paint0_linear" x1="81" y1="33.9249" x2="1831.66" y2="163.552" gradientUnits="userSpaceOnUse">
<stop stop-color="#1E2233"/>
<stop offset="1" stop-color="#12131F"/>
</linearGradient>
<linearGradient id="paint1_linear" x1="2088.62" y1="302.994" x2="-15.5095" y2="302.994" gradientUnits="userSpaceOnUse">
<stop offset="0.119792" stop-color="#CE4830"/>
<stop offset="0.317708" stop-color="#FDB913" stop-opacity="0.5"/>
<stop offset="0.609375" stop-color="#8DC63F" stop-opacity="0.5"/>
<stop offset="0.96875" stop-color="#00529B"/>
</linearGradient>
<linearGradient id="paint2_linear" x1="2088.62" y1="303.553" x2="-15.6742" y2="303.553" gradientUnits="userSpaceOnUse">
<stop offset="0.119792" stop-color="#CE4830"/>
<stop offset="0.317708" stop-color="#FDB913" stop-opacity="0.5"/>
<stop offset="0.609375" stop-color="#8DC63F" stop-opacity="0.5"/>
<stop offset="0.96875" stop-color="#00529B"/>
</linearGradient>
<linearGradient id="paint3_linear" x1="2088.62" y1="304.166" x2="-15.839" y2="304.166" gradientUnits="userSpaceOnUse">
<stop offset="0.119792" stop-color="#CE4830"/>
<stop offset="0.317708" stop-color="#FDB913" stop-opacity="0.5"/>
<stop offset="0.609375" stop-color="#8DC63F" stop-opacity="0.5"/>
<stop offset="0.96875" stop-color="#00529B"/>
</linearGradient>
<linearGradient id="paint4_linear" x1="2088.62" y1="304.839" x2="-16.0034" y2="304.839" gradientUnits="userSpaceOnUse">
<stop offset="0.119792" stop-color="#CE4830"/>
<stop offset="0.317708" stop-color="#FDB913" stop-opacity="0.5"/>
<stop offset="0.609375" stop-color="#8DC63F" stop-opacity="0.5"/>
<stop offset="0.96875" stop-color="#00529B"/>
</linearGradient>
<linearGradient id="paint5_linear" x1="2088.62" y1="305.579" x2="-16.1679" y2="305.579" gradientUnits="userSpaceOnUse">
<stop offset="0.119792" stop-color="#CE4830"/>
<stop offset="0.317708" stop-color="#FDB913" stop-opacity="0.5"/>
<stop offset="0.609375" stop-color="#8DC63F" stop-opacity="0.5"/>
<stop offset="0.96875" stop-color="#00529B"/>
</linearGradient>
<linearGradient id="paint6_linear" x1="2088.62" y1="306.408" x2="-16.3327" y2="306.408" gradientUnits="userSpaceOnUse">
<stop offset="0.119792" stop-color="#CE4830"/>
<stop offset="0.317708" stop-color="#FDB913" stop-opacity="0.5"/>
<stop offset="0.609375" stop-color="#8DC63F" stop-opacity="0.5"/>
<stop offset="0.96875" stop-color="#00529B"/>
</linearGradient>
<linearGradient id="paint7_linear" x1="2088.62" y1="307.337" x2="-16.497" y2="307.336" gradientUnits="userSpaceOnUse">
<stop offset="0.119792" stop-color="#CE4830"/>
<stop offset="0.317708" stop-color="#FDB913" stop-opacity="0.5"/>
<stop offset="0.609375" stop-color="#8DC63F" stop-opacity="0.5"/>
<stop offset="0.96875" stop-color="#00529B"/>
</linearGradient>
<linearGradient id="paint8_linear" x1="2088.62" y1="308.387" x2="-16.6618" y2="308.387" gradientUnits="userSpaceOnUse">
<stop offset="0.119792" stop-color="#CE4830"/>
<stop offset="0.317708" stop-color="#FDB913" stop-opacity="0.5"/>
<stop offset="0.609375" stop-color="#8DC63F" stop-opacity="0.5"/>
<stop offset="0.96875" stop-color="#00529B"/>
</linearGradient>
<linearGradient id="paint9_linear" x1="2088.62" y1="309.579" x2="-16.8154" y2="309.578" gradientUnits="userSpaceOnUse">
<stop offset="0.119792" stop-color="#CE4830"/>
<stop offset="0.317708" stop-color="#FDB913" stop-opacity="0.5"/>
<stop offset="0.609375" stop-color="#8DC63F" stop-opacity="0.5"/>
<stop offset="0.96875" stop-color="#00529B"/>
</linearGradient>
<linearGradient id="paint10_linear" x1="2088.62" y1="310.949" x2="-16.9802" y2="310.949" gradientUnits="userSpaceOnUse">
<stop offset="0.119792" stop-color="#CE4830"/>
<stop offset="0.317708" stop-color="#FDB913" stop-opacity="0.5"/>
<stop offset="0.609375" stop-color="#8DC63F" stop-opacity="0.5"/>
<stop offset="0.96875" stop-color="#00529B"/>
</linearGradient>
<linearGradient id="paint11_linear" x1="2088.62" y1="312.533" x2="-17.1445" y2="312.533" gradientUnits="userSpaceOnUse">
<stop offset="0.119792" stop-color="#CE4830"/>
<stop offset="0.317708" stop-color="#FDB913" stop-opacity="0.5"/>
<stop offset="0.609375" stop-color="#8DC63F" stop-opacity="0.5"/>
<stop offset="0.96875" stop-color="#00529B"/>
</linearGradient>
<linearGradient id="paint12_linear" x1="2088.62" y1="314.391" x2="-17.3091" y2="314.391" gradientUnits="userSpaceOnUse">
<stop offset="0.119792" stop-color="#CE4830"/>
<stop offset="0.317708" stop-color="#FDB913" stop-opacity="0.5"/>
<stop offset="0.609375" stop-color="#8DC63F" stop-opacity="0.5"/>
<stop offset="0.96875" stop-color="#00529B"/>
</linearGradient>
<linearGradient id="paint13_linear" x1="2088.62" y1="316.588" x2="-17.4741" y2="316.588" gradientUnits="userSpaceOnUse">
<stop offset="0.119792" stop-color="#CE4830"/>
<stop offset="0.317708" stop-color="#FDB913" stop-opacity="0.5"/>
<stop offset="0.609375" stop-color="#8DC63F" stop-opacity="0.5"/>
<stop offset="0.96875" stop-color="#00529B"/>
</linearGradient>
<linearGradient id="paint14_linear" x1="2088.62" y1="312.357" x2="-17.6386" y2="312.357" gradientUnits="userSpaceOnUse">
<stop offset="0.119792" stop-color="#CE4830"/>
<stop offset="0.317708" stop-color="#FDB913" stop-opacity="0.5"/>
<stop offset="0.609375" stop-color="#8DC63F" stop-opacity="0.5"/>
<stop offset="0.96875" stop-color="#00529B"/>
</linearGradient>
<linearGradient id="paint15_linear" x1="2088.62" y1="306.381" x2="-17.803" y2="306.381" gradientUnits="userSpaceOnUse">
<stop offset="0.119792" stop-color="#CE4830"/>
<stop offset="0.317708" stop-color="#FDB913" stop-opacity="0.5"/>
<stop offset="0.609375" stop-color="#8DC63F" stop-opacity="0.5"/>
<stop offset="0.96875" stop-color="#00529B"/>
</linearGradient>
<linearGradient id="paint16_linear" x1="2088.62" y1="301.069" x2="-17.9677" y2="301.069" gradientUnits="userSpaceOnUse">
<stop offset="0.119792" stop-color="#CE4830"/>
<stop offset="0.317708" stop-color="#FDB913" stop-opacity="0.5"/>
<stop offset="0.609375" stop-color="#8DC63F" stop-opacity="0.5"/>
<stop offset="0.96875" stop-color="#00529B"/>
</linearGradient>
<linearGradient id="paint17_linear" x1="2088.62" y1="296.546" x2="-18.1323" y2="296.546" gradientUnits="userSpaceOnUse">
<stop offset="0.119792" stop-color="#CE4830"/>
<stop offset="0.317708" stop-color="#FDB913" stop-opacity="0.5"/>
<stop offset="0.609375" stop-color="#8DC63F" stop-opacity="0.5"/>
<stop offset="0.96875" stop-color="#00529B"/>
</linearGradient>
<linearGradient id="paint18_linear" x1="2088.62" y1="292.905" x2="-18.2968" y2="292.904" gradientUnits="userSpaceOnUse">
<stop offset="0.119792" stop-color="#CE4830"/>
<stop offset="0.317708" stop-color="#FDB913" stop-opacity="0.5"/>
<stop offset="0.609375" stop-color="#8DC63F" stop-opacity="0.5"/>
<stop offset="0.96875" stop-color="#00529B"/>
</linearGradient>
<linearGradient id="paint19_linear" x1="2088.62" y1="290.14" x2="-18.4509" y2="290.14" gradientUnits="userSpaceOnUse">
<stop offset="0.119792" stop-color="#CE4830"/>
<stop offset="0.317708" stop-color="#FDB913" stop-opacity="0.5"/>
<stop offset="0.609375" stop-color="#8DC63F" stop-opacity="0.5"/>
<stop offset="0.96875" stop-color="#00529B"/>
</linearGradient>
<linearGradient id="paint20_linear" x1="2088.62" y1="288.148" x2="-18.615" y2="288.148" gradientUnits="userSpaceOnUse">
<stop offset="0.119792" stop-color="#CE4830"/>
<stop offset="0.317708" stop-color="#FDB913" stop-opacity="0.5"/>
<stop offset="0.609375" stop-color="#8DC63F" stop-opacity="0.5"/>
<stop offset="0.96875" stop-color="#00529B"/>
</linearGradient>
<linearGradient id="paint21_linear" x1="2088.62" y1="286.772" x2="-18.7799" y2="286.772" gradientUnits="userSpaceOnUse">
<stop offset="0.119792" stop-color="#CE4830"/>
<stop offset="0.317708" stop-color="#FDB913" stop-opacity="0.5"/>
<stop offset="0.609375" stop-color="#8DC63F" stop-opacity="0.5"/>
<stop offset="0.96875" stop-color="#00529B"/>
</linearGradient>
<linearGradient id="paint22_linear" x1="2088.62" y1="285.861" x2="-18.9444" y2="285.861" gradientUnits="userSpaceOnUse">
<stop offset="0.119792" stop-color="#CE4830"/>
<stop offset="0.317708" stop-color="#FDB913" stop-opacity="0.5"/>
<stop offset="0.609375" stop-color="#8DC63F" stop-opacity="0.5"/>
<stop offset="0.96875" stop-color="#00529B"/>
</linearGradient>
</defs>
</svg>
