<svg width="1920" height="992" viewBox="0 0 1920 992" fill="none" xmlns="http://www.w3.org/2000/svg">
<mask id="mask0" mask-type="alpha" maskUnits="userSpaceOnUse" x="0" y="0" width="1920" height="992">
<rect width="1920" height="992" fill="url(#paint0_linear)"/>
</mask>
<g mask="url(#mask0)">
</g>
<g clip-path="url(#clip0)">
<path d="M2010.97 334.466C1866.72 457.814 1688.81 618.964 1392.46 749.768C973.002 934.927 475.327 262.349 25.8615 313.477C-456.847 368.388 -462.186 502.304 -462.186 502.304" stroke="url(#paint1_linear)" stroke-width="1.5" stroke-miterlimit="10" stroke-linecap="round" stroke-linejoin="round"/>
<path d="M2010.52 345.122C1865.29 464.083 1672.08 603.753 1369.94 737.77C953.675 922.077 467.81 284.21 21.1486 326.21C-451.235 370.624 -461.256 487.004 -461.256 487.004" stroke="url(#paint2_linear)" stroke-width="1.43" stroke-miterlimit="10" stroke-linecap="round" stroke-linejoin="round"/>
<path d="M2010.07 355.777C1863.86 470.341 1655.37 588.539 1347.42 725.771C934.335 909.225 460.467 306.176 16.4486 338.945C-445.454 373.04 -460.326 471.701 -460.326 471.701" stroke="url(#paint3_linear)" stroke-width="1.35" stroke-miterlimit="10" stroke-linecap="round" stroke-linejoin="round"/>
<path d="M2009.61 366.433C1862.43 476.61 1638.64 573.32 1324.89 713.77C914.995 896.365 453.284 328.247 11.7356 351.682C-439.517 375.627 -459.395 456.393 -459.395 456.393" stroke="url(#paint4_linear)" stroke-width="1.28" stroke-miterlimit="10" stroke-linecap="round" stroke-linejoin="round"/>
<path d="M2009.16 377.079C1860.99 482.869 1621.93 558.088 1302.37 701.758C895.667 883.515 446.273 350.454 7.03529 364.422C-433.45 378.423 -458.464 441.081 -458.464 441.081" stroke="url(#paint5_linear)" stroke-width="1.2" stroke-miterlimit="10" stroke-linecap="round" stroke-linejoin="round"/>
<path d="M2008.71 387.734C1859.56 489.127 1605.22 542.859 1279.84 689.743C876.314 870.663 439.394 372.814 2.32238 377.162C-427.243 381.438 -457.532 425.763 -457.532 425.763" stroke="url(#paint6_linear)" stroke-width="1.12" stroke-miterlimit="10" stroke-linecap="round" stroke-linejoin="round"/>
<path d="M2008.26 398.391C1858.13 495.396 1588.49 527.625 1257.32 677.736C856.987 857.803 432.646 395.34 -2.3908 389.907C-420.921 384.681 -456.601 410.44 -456.601 410.44" stroke="url(#paint7_linear)" stroke-width="1.05" stroke-miterlimit="10" stroke-linecap="round" stroke-linejoin="round"/>
<path d="M2007.8 409.046C1856.7 501.665 1571.76 512.372 1234.78 665.724C837.646 844.95 426.015 418.059 -7.09125 402.654C-414.51 388.16 -455.668 395.108 -455.668 395.108" stroke="url(#paint8_linear)" stroke-width="0.98" stroke-miterlimit="10" stroke-linecap="round" stroke-linejoin="round"/>
<path d="M2007.34 419.701C1855.26 507.922 1555.04 497.132 1212.24 653.697C818.293 832.085 419.474 440.991 -11.8163 415.392C-408.012 391.884 -454.735 379.769 -454.735 379.769" stroke="url(#paint9_linear)" stroke-width="0.9" stroke-miterlimit="10" stroke-linecap="round" stroke-linejoin="round"/>
<path d="M2006.88 430.357C1853.83 514.189 1538.33 481.873 1189.72 641.677C798.965 819.229 413.033 464.169 -16.5165 428.146C-401.452 395.874 -453.801 364.42 -453.801 364.42" stroke="url(#paint10_linear)" stroke-width="0.8" stroke-miterlimit="10" stroke-linecap="round" stroke-linejoin="round"/>
<path d="M2006.43 441.002C1852.41 520.447 1521.6 466.594 1167.19 629.641C779.625 806.369 406.603 487.608 -21.2294 440.901C-394.868 400.115 -452.866 349.062 -452.866 349.062" stroke="url(#paint11_linear)" stroke-width="0.72" stroke-miterlimit="10" stroke-linecap="round" stroke-linejoin="round"/>
<path d="M2005.98 451.658C1850.98 526.713 1504.89 451.314 1144.67 617.609C760.285 793.504 400.194 511.328 -25.9292 453.661C-388.288 404.627 -451.931 333.702 -451.931 333.702" stroke="url(#paint12_linear)" stroke-width="0.65" stroke-miterlimit="10" stroke-linecap="round" stroke-linejoin="round"/>
<path d="M2005.53 462.314C1849.55 532.968 1488.18 436.022 1122.14 605.567C740.957 780.632 393.754 535.356 -30.6288 466.423C-381.736 409.396 -450.994 318.319 -450.994 318.319" stroke="url(#paint13_linear)" stroke-width="0.58" stroke-miterlimit="10" stroke-linecap="round" stroke-linejoin="round"/>
<path d="M2005.06 473.073C1848.1 539.307 1471.44 420.826 1099.61 593.543C721.615 767.706 387.226 559.731 -35.3451 479.235C-375.24 414.485 -450.06 303.024 -450.06 303.024" stroke="url(#paint14_linear)" stroke-width="0.5" stroke-miterlimit="10" stroke-linecap="round" stroke-linejoin="round"/>
<path d="M2004.58 483.857C1846.66 545.662 1454.71 405.664 1077.08 581.536C702.271 754.772 380.586 584.447 -40.0486 492.051C-368.85 419.831 -449.128 287.761 -449.128 287.761" stroke="url(#paint15_linear)" stroke-width="0.42" stroke-miterlimit="10" stroke-linecap="round" stroke-linejoin="round"/>
<path d="M2004.11 494.628C1845.21 551.995 1437.97 390.5 1054.54 569.526C682.941 741.834 373.76 609.472 -44.7632 504.853C-362.575 425.41 -448.193 272.497 -448.193 272.497" stroke="url(#paint16_linear)" stroke-width="0.35" stroke-miterlimit="10" stroke-linecap="round" stroke-linejoin="round"/>
<path d="M2003.63 505.377C1843.76 558.318 1421.24 375.327 1032.01 557.501C663.6 728.879 366.697 634.823 -49.4631 517.639C-356.478 431.19 -447.258 257.233 -447.258 257.233" stroke="url(#paint17_linear)" stroke-width="0.28" stroke-miterlimit="10" stroke-linecap="round" stroke-linejoin="round"/>
<path d="M2003.16 516.122C1842.31 564.639 1404.5 360.162 1009.48 545.473C644.26 715.93 359.332 660.506 -54.1736 530.41C-350.584 437.147 -446.321 241.969 -446.321 241.969" stroke="url(#paint18_linear)" stroke-width="0.2143" stroke-miterlimit="10" stroke-linecap="round" stroke-linejoin="round"/>
<path d="M2002.67 526.854C1840.85 570.937 1387.76 344.986 986.93 533.45C624.921 702.979 351.639 686.52 -58.8822 543.166C-344.917 443.27 -445.382 226.706 -445.382 226.706" stroke="url(#paint19_linear)" stroke-width="0.1857" stroke-miterlimit="10" stroke-linecap="round" stroke-linejoin="round"/>
<path d="M2002.2 537.574C1839.41 577.238 1371.03 329.821 964.387 521.427C605.57 690.017 343.517 712.851 -63.5883 555.9C-339.527 449.529 -444.442 211.442 -444.442 211.442" stroke="url(#paint20_linear)" stroke-width="0.1571" stroke-miterlimit="10" stroke-linecap="round" stroke-linejoin="round"/>
<path d="M2001.73 548.283C1837.97 583.531 1354.29 314.654 941.857 509.405C586.246 677.07 334.94 739.473 -68.2807 568.635C-334.411 455.884 -443.5 196.178 -443.5 196.178" stroke="url(#paint21_linear)" stroke-width="0.1286" stroke-miterlimit="10" stroke-linecap="round" stroke-linejoin="round"/>
<path d="M2001.26 558.986C1836.52 589.819 1337.57 299.489 919.327 497.386C566.909 664.13 325.846 766.385 -72.9853 581.375C-329.633 462.316 -442.558 180.917 -442.558 180.917" stroke="url(#paint22_linear)" stroke-width="0.1" stroke-miterlimit="10" stroke-linecap="round" stroke-linejoin="round"/>
</g>
<defs>
<linearGradient id="paint0_linear" x1="81" y1="64.7182" x2="1838.61" y2="132.938" gradientUnits="userSpaceOnUse">
<stop stop-color="#1E2233"/>
<stop offset="1" stop-color="#12131F"/>
</linearGradient>
<linearGradient id="paint1_linear" x1="-457.831" y1="431.092" x2="1995.88" y2="581.162" gradientUnits="userSpaceOnUse">
<stop offset="0.109375" stop-color="#FDB913" stop-opacity="0.4"/>
<stop offset="0.255208" stop-color="#B61C21"/>
<stop offset="0.666667" stop-color="#0E43B2"/>
<stop offset="0.833333" stop-color="#B61C21" stop-opacity="0.4"/>
</linearGradient>
<linearGradient id="paint2_linear" x1="-457.885" y1="431.887" x2="1996.03" y2="581.965" gradientUnits="userSpaceOnUse">
<stop offset="0.109375" stop-color="#FDB913" stop-opacity="0.4"/>
<stop offset="0.255208" stop-color="#B61C21"/>
<stop offset="0.666667" stop-color="#0E43B2"/>
<stop offset="0.833333" stop-color="#B61C21" stop-opacity="0.4"/>
</linearGradient>
<linearGradient id="paint3_linear" x1="-457.944" y1="432.756" x2="1996.18" y2="582.843" gradientUnits="userSpaceOnUse">
<stop offset="0.109375" stop-color="#FDB913" stop-opacity="0.4"/>
<stop offset="0.255208" stop-color="#B61C21"/>
<stop offset="0.666667" stop-color="#0E43B2"/>
<stop offset="0.833333" stop-color="#B61C21" stop-opacity="0.4"/>
</linearGradient>
<linearGradient id="paint4_linear" x1="-458.008" y1="433.712" x2="1996.32" y2="583.807" gradientUnits="userSpaceOnUse">
<stop offset="0.109375" stop-color="#FDB913" stop-opacity="0.4"/>
<stop offset="0.255208" stop-color="#B61C21"/>
<stop offset="0.666667" stop-color="#0E43B2"/>
<stop offset="0.833333" stop-color="#B61C21" stop-opacity="0.4"/>
</linearGradient>
<linearGradient id="paint5_linear" x1="-458.078" y1="434.763" x2="1996.45" y2="584.866" gradientUnits="userSpaceOnUse">
<stop offset="0.109375" stop-color="#FDB913" stop-opacity="0.4"/>
<stop offset="0.255208" stop-color="#B61C21"/>
<stop offset="0.666667" stop-color="#0E43B2"/>
<stop offset="0.833333" stop-color="#B61C21" stop-opacity="0.4"/>
</linearGradient>
<linearGradient id="paint6_linear" x1="-458.155" y1="435.939" x2="1996.58" y2="586.05" gradientUnits="userSpaceOnUse">
<stop offset="0.109375" stop-color="#FDB913" stop-opacity="0.4"/>
<stop offset="0.255208" stop-color="#B61C21"/>
<stop offset="0.666667" stop-color="#0E43B2"/>
<stop offset="0.833333" stop-color="#B61C21" stop-opacity="0.4"/>
</linearGradient>
<linearGradient id="paint7_linear" x1="-458.241" y1="437.259" x2="1996.7" y2="587.377" gradientUnits="userSpaceOnUse">
<stop offset="0.109375" stop-color="#FDB913" stop-opacity="0.4"/>
<stop offset="0.255208" stop-color="#B61C21"/>
<stop offset="0.666667" stop-color="#0E43B2"/>
<stop offset="0.833333" stop-color="#B61C21" stop-opacity="0.4"/>
</linearGradient>
<linearGradient id="paint8_linear" x1="-458.337" y1="438.75" x2="1996.81" y2="588.875" gradientUnits="userSpaceOnUse">
<stop offset="0.109375" stop-color="#FDB913" stop-opacity="0.4"/>
<stop offset="0.255208" stop-color="#B61C21"/>
<stop offset="0.666667" stop-color="#0E43B2"/>
<stop offset="0.833333" stop-color="#B61C21" stop-opacity="0.4"/>
</linearGradient>
<linearGradient id="paint9_linear" x1="-458.445" y1="440.441" x2="1996.89" y2="590.572" gradientUnits="userSpaceOnUse">
<stop offset="0.109375" stop-color="#FDB913" stop-opacity="0.4"/>
<stop offset="0.255208" stop-color="#B61C21"/>
<stop offset="0.666667" stop-color="#0E43B2"/>
<stop offset="0.833333" stop-color="#B61C21" stop-opacity="0.4"/>
</linearGradient>
<linearGradient id="paint10_linear" x1="-458.568" y1="442.388" x2="1996.97" y2="592.524" gradientUnits="userSpaceOnUse">
<stop offset="0.109375" stop-color="#FDB913" stop-opacity="0.4"/>
<stop offset="0.255208" stop-color="#B61C21"/>
<stop offset="0.666667" stop-color="#0E43B2"/>
<stop offset="0.833333" stop-color="#B61C21" stop-opacity="0.4"/>
</linearGradient>
<linearGradient id="paint11_linear" x1="-458.71" y1="444.635" x2="1997.03" y2="594.777" gradientUnits="userSpaceOnUse">
<stop offset="0.109375" stop-color="#FDB913" stop-opacity="0.4"/>
<stop offset="0.255208" stop-color="#B61C21"/>
<stop offset="0.666667" stop-color="#0E43B2"/>
<stop offset="0.833333" stop-color="#B61C21" stop-opacity="0.4"/>
</linearGradient>
<linearGradient id="paint12_linear" x1="-458.874" y1="447.272" x2="1997.07" y2="597.419" gradientUnits="userSpaceOnUse">
<stop offset="0.109375" stop-color="#FDB913" stop-opacity="0.4"/>
<stop offset="0.255208" stop-color="#B61C21"/>
<stop offset="0.666667" stop-color="#0E43B2"/>
<stop offset="0.833333" stop-color="#B61C21" stop-opacity="0.4"/>
</linearGradient>
<linearGradient id="paint13_linear" x1="-459.068" y1="450.39" x2="1997.08" y2="600.541" gradientUnits="userSpaceOnUse">
<stop offset="0.109375" stop-color="#FDB913" stop-opacity="0.4"/>
<stop offset="0.255208" stop-color="#B61C21"/>
<stop offset="0.666667" stop-color="#0E43B2"/>
<stop offset="0.833333" stop-color="#B61C21" stop-opacity="0.4"/>
</linearGradient>
<linearGradient id="paint14_linear" x1="-458.703" y1="444.392" x2="1997.63" y2="594.558" gradientUnits="userSpaceOnUse">
<stop offset="0.109375" stop-color="#FDB913" stop-opacity="0.4"/>
<stop offset="0.255208" stop-color="#B61C21"/>
<stop offset="0.666667" stop-color="#0E43B2"/>
<stop offset="0.833333" stop-color="#B61C21" stop-opacity="0.4"/>
</linearGradient>
<linearGradient id="paint15_linear" x1="-458.185" y1="435.918" x2="1998.33" y2="586.102" gradientUnits="userSpaceOnUse">
<stop offset="0.109375" stop-color="#FDB913" stop-opacity="0.4"/>
<stop offset="0.255208" stop-color="#B61C21"/>
<stop offset="0.666667" stop-color="#0E43B2"/>
<stop offset="0.833333" stop-color="#B61C21" stop-opacity="0.4"/>
</linearGradient>
<linearGradient id="paint16_linear" x1="-457.724" y1="428.385" x2="1998.97" y2="578.587" gradientUnits="userSpaceOnUse">
<stop offset="0.109375" stop-color="#FDB913" stop-opacity="0.4"/>
<stop offset="0.255208" stop-color="#B61C21"/>
<stop offset="0.666667" stop-color="#0E43B2"/>
<stop offset="0.833333" stop-color="#B61C21" stop-opacity="0.4"/>
</linearGradient>
<linearGradient id="paint17_linear" x1="-457.33" y1="421.972" x2="1999.55" y2="572.191" gradientUnits="userSpaceOnUse">
<stop offset="0.109375" stop-color="#FDB913" stop-opacity="0.4"/>
<stop offset="0.255208" stop-color="#B61C21"/>
<stop offset="0.666667" stop-color="#0E43B2"/>
<stop offset="0.833333" stop-color="#B61C21" stop-opacity="0.4"/>
</linearGradient>
<linearGradient id="paint18_linear" x1="-457.011" y1="416.806" x2="2000.05" y2="567.044" gradientUnits="userSpaceOnUse">
<stop offset="0.109375" stop-color="#FDB913" stop-opacity="0.4"/>
<stop offset="0.255208" stop-color="#B61C21"/>
<stop offset="0.666667" stop-color="#0E43B2"/>
<stop offset="0.833333" stop-color="#B61C21" stop-opacity="0.4"/>
</linearGradient>
<linearGradient id="paint19_linear" x1="-456.766" y1="412.884" x2="2000.45" y2="563.14" gradientUnits="userSpaceOnUse">
<stop offset="0.109375" stop-color="#FDB913" stop-opacity="0.4"/>
<stop offset="0.255208" stop-color="#B61C21"/>
<stop offset="0.666667" stop-color="#0E43B2"/>
<stop offset="0.833333" stop-color="#B61C21" stop-opacity="0.4"/>
</linearGradient>
<linearGradient id="paint20_linear" x1="-456.587" y1="410.058" x2="2000.81" y2="560.331" gradientUnits="userSpaceOnUse">
<stop offset="0.109375" stop-color="#FDB913" stop-opacity="0.4"/>
<stop offset="0.255208" stop-color="#B61C21"/>
<stop offset="0.666667" stop-color="#0E43B2"/>
<stop offset="0.833333" stop-color="#B61C21" stop-opacity="0.4"/>
</linearGradient>
<linearGradient id="paint21_linear" x1="-456.461" y1="408.104" x2="2001.11" y2="558.395" gradientUnits="userSpaceOnUse">
<stop offset="0.109375" stop-color="#FDB913" stop-opacity="0.4"/>
<stop offset="0.255208" stop-color="#B61C21"/>
<stop offset="0.666667" stop-color="#0E43B2"/>
<stop offset="0.833333" stop-color="#B61C21" stop-opacity="0.4"/>
</linearGradient>
<linearGradient id="paint22_linear" x1="-456.373" y1="406.81" x2="2001.37" y2="557.118" gradientUnits="userSpaceOnUse">
<stop offset="0.109375" stop-color="#FDB913" stop-opacity="0.4"/>
<stop offset="0.255208" stop-color="#B61C21"/>
<stop offset="0.666667" stop-color="#0E43B2"/>
<stop offset="0.833333" stop-color="#B61C21" stop-opacity="0.4"/>
</linearGradient>
<clipPath id="clip0">
<rect width="2004.98" height="496.699" transform="matrix(0.997294 0.0735158 -0.0486971 0.998814 -50.6122 183.888)" fill="white"/>
</clipPath>
</defs>
</svg>
