<svg width="1920" height="761" viewBox="0 0 1920 761" fill="none" xmlns="http://www.w3.org/2000/svg">
<g clip-path="url(#clip0)">
<path d="M1930.78 3.49925C1822.9 148.179 1695.98 346.25 1462.77 499.535C1209.05 666.3 729.313 640.188 499.779 597.712C220.569 546.038 -12.6453 353.139 -12.6453 353.139" stroke="url(#paint0_linear)" stroke-width="1.5" stroke-miterlimit="10" stroke-linecap="round" stroke-linejoin="round"/>
<path d="M1930.93 15.2295C1822.07 155.156 1678.83 330.999 1445.4 489.456C1192.72 660.435 729.556 650.817 495.329 603.214C219.727 547.193 -12.6453 336.325 -12.6453 336.325" stroke="url(#paint1_linear)" stroke-width="1.45" stroke-miterlimit="10" stroke-linecap="round" stroke-linejoin="round"/>
<path d="M1931.08 26.9597C1821.24 162.121 1661.68 315.736 1428.02 479.365C1176.38 654.548 729.81 661.557 490.869 608.705C218.896 548.547 -12.6453 319.511 -12.6453 319.511" stroke="url(#paint2_linear)" stroke-width="1.4" stroke-miterlimit="10" stroke-linecap="round" stroke-linejoin="round"/>
<path d="M1931.23 38.6899C1820.41 169.098 1644.53 300.485 1410.65 469.274C1160.05 648.661 730.084 672.396 486.42 614.196C218.045 550.109 -12.6453 302.697 -12.6453 302.697" stroke="url(#paint3_linear)" stroke-width="1.35" stroke-miterlimit="10" stroke-linecap="round" stroke-linejoin="round"/>
<path d="M1931.38 50.4091C1819.58 176.063 1627.76 285.817 1393.27 459.184C1144.11 643.401 730.357 683.345 481.96 619.698C217.193 551.848 -12.6453 285.883 -12.6453 285.883" stroke="url(#paint4_linear)" stroke-width="1.3" stroke-miterlimit="10" stroke-linecap="round" stroke-linejoin="round"/>
<path d="M1931.54 62.1393C1818.75 183.029 1610.68 270.653 1375.89 449.093C1127.85 637.613 730.631 694.415 477.5 625.178C216.322 553.763 -12.6453 269.069 -12.6453 269.069" stroke="url(#paint5_linear)" stroke-width="1.25" stroke-miterlimit="10" stroke-linecap="round" stroke-linejoin="round"/>
<path d="M1931.69 73.8695C1817.91 190.005 1593.6 255.479 1358.52 439.013C1111.57 631.814 730.904 705.606 473.051 630.691C215.43 555.831 -12.6453 252.255 -12.6453 252.255" stroke="url(#paint6_linear)" stroke-width="1.2" stroke-miterlimit="10" stroke-linecap="round" stroke-linejoin="round"/>
<path d="M1931.83 85.5997C1817.07 196.982 1576.49 240.282 1341.14 428.923C1095.29 625.982 731.158 716.907 468.581 636.182C214.518 558.065 -12.6453 235.44 -12.6453 235.44" stroke="url(#paint7_linear)" stroke-width="1.15" stroke-miterlimit="10" stroke-linecap="round" stroke-linejoin="round"/>
<path d="M1931.98 97.3299C1816.24 203.947 1559.38 225.064 1323.77 418.832C1079 620.128 731.391 728.329 464.131 641.673C213.575 560.431 -12.6453 218.626 -12.6453 218.626" stroke="url(#paint8_linear)" stroke-width="1.1" stroke-miterlimit="10" stroke-linecap="round" stroke-linejoin="round"/>
<path d="M1932.14 109.06C1815.41 210.924 1542.26 209.834 1306.38 408.753C1062.68 614.273 731.584 739.894 459.661 647.175C212.602 562.929 -12.6453 201.812 -12.6453 201.812" stroke="url(#paint9_linear)" stroke-width="1.05" stroke-miterlimit="10" stroke-linecap="round" stroke-linejoin="round"/>
<path d="M1932.29 120.779C1814.59 217.889 1525.13 194.572 1289.01 398.651C1046.36 608.375 731.766 751.558 455.212 652.655C211.598 565.548 -12.6453 184.998 -12.6453 184.998" stroke="url(#paint10_linear)" stroke-miterlimit="10" stroke-linecap="round" stroke-linejoin="round"/>
<path d="M1932.44 132.51C1813.76 224.866 1507.99 179.298 1271.64 388.571C1030.04 602.477 731.898 763.366 450.752 658.157C210.554 568.277 -12.6453 168.195 -12.6453 168.195" stroke="url(#paint11_linear)" stroke-width="0.92" stroke-miterlimit="10" stroke-linecap="round" stroke-linejoin="round"/>
<path d="M1932.59 144.24C1812.93 231.831 1490.83 164.025 1254.27 378.481C1013.69 596.557 731.989 775.305 446.302 663.659C209.48 571.105 -12.6453 151.381 -12.6453 151.381" stroke="url(#paint12_linear)" stroke-width="0.85" stroke-miterlimit="10" stroke-linecap="round" stroke-linejoin="round"/>
<path d="M1932.74 155.97C1812.1 238.808 1473.67 148.729 1236.89 368.39C997.333 590.626 732.03 787.366 441.843 669.15C208.365 574.032 -12.6453 134.567 -12.6453 134.567" stroke="url(#paint13_linear)" stroke-width="0.78" stroke-miterlimit="10" stroke-linecap="round" stroke-linejoin="round"/>
<path d="M1932.9 167.7C1811.27 245.784 1456.49 133.412 1219.51 358.311C980.964 584.684 732.009 799.569 437.383 674.641C207.22 577.047 -12.6453 117.742 -12.6453 117.742" stroke="url(#paint14_linear)" stroke-width="0.7" stroke-miterlimit="10" stroke-linecap="round" stroke-linejoin="round"/>
<path d="M1933.05 179.43C1810.43 252.75 1439.3 118.094 1202.14 348.22C964.585 578.731 731.928 811.904 432.923 680.143C206.024 580.15 -12.6453 100.939 -12.6453 100.939" stroke="url(#paint15_linear)" stroke-width="0.6" stroke-miterlimit="10" stroke-linecap="round" stroke-linejoin="round"/>
<path d="M1933.2 191.15C1809.6 259.715 1422.09 102.744 1184.76 338.129C948.195 572.755 731.776 824.372 428.463 685.634C204.787 583.319 -12.6453 84.1252 -12.6453 84.1252" stroke="url(#paint16_linear)" stroke-width="0.5" stroke-miterlimit="10" stroke-linecap="round" stroke-linejoin="round"/>
<path d="M1933.35 202.88C1808.77 266.692 1404.46 86.9092 1167.39 328.039C931.37 566.285 731.553 836.982 424.014 691.125C203.5 586.554 -12.6453 67.3112 -12.6453 67.3112" stroke="url(#paint17_linear)" stroke-width="0.4" stroke-miterlimit="10" stroke-linecap="round" stroke-linejoin="round"/>
<path d="M1933.49 214.61C1807.93 273.657 1387.3 71.6577 1150.01 317.948C915.031 560.409 731.249 849.725 419.554 696.627C202.182 589.856 -12.6453 50.4971 -12.6453 50.4971" stroke="url(#paint18_linear)" stroke-width="0.3" stroke-miterlimit="10" stroke-linecap="round" stroke-linejoin="round"/>
<path d="M1933.65 226.34C1807.11 280.634 1370.15 56.4062 1132.63 307.868C898.702 554.522 730.864 862.61 415.094 702.118C200.804 593.212 -12.6453 33.6831 -12.6453 33.6831" stroke="url(#paint19_linear)" stroke-width="0.2" stroke-miterlimit="10" stroke-linecap="round" stroke-linejoin="round"/>
<path d="M1933.8 238.07C1806.28 287.61 1353 41.1437 1115.25 297.778C882.363 548.635 730.388 875.628 410.635 707.62C199.385 596.612 -12.6453 16.869 -12.6453 16.869" stroke="url(#paint20_linear)" stroke-width="0.1286" stroke-miterlimit="10" stroke-linecap="round" stroke-linejoin="round"/>
<path d="M1933.95 249.801C1805.45 294.587 1335.85 25.8931 1097.88 287.688C866.035 542.76 729.82 888.79 406.185 713.112C197.926 600.057 -12.6449 0.0558014 -12.6449 0.0558014" stroke="url(#paint21_linear)" stroke-width="0.1" stroke-miterlimit="10" stroke-linecap="round" stroke-linejoin="round"/>
</g>
<defs>
<linearGradient id="paint0_linear" x1="-12.6453" y1="316.521" x2="1930.78" y2="316.521" gradientUnits="userSpaceOnUse">
<stop offset="0.119792" stop-color="#CE4830" stop-opacity="0.5"/>
<stop offset="0.317708" stop-color="#FDB913"/>
<stop offset="0.609375" stop-color="#8DC63F"/>
<stop offset="0.96875" stop-color="#00529B" stop-opacity="0.7"/>
</linearGradient>
<linearGradient id="paint1_linear" x1="-12.6453" y1="324.229" x2="1930.93" y2="324.229" gradientUnits="userSpaceOnUse">
<stop offset="0.119792" stop-color="#CE4830" stop-opacity="0.5"/>
<stop offset="0.317708" stop-color="#FDB913"/>
<stop offset="0.609375" stop-color="#8DC63F"/>
<stop offset="0.96875" stop-color="#00529B" stop-opacity="0.7"/>
</linearGradient>
<linearGradient id="paint2_linear" x1="-12.6453" y1="332.279" x2="1931.08" y2="332.279" gradientUnits="userSpaceOnUse">
<stop offset="0.119792" stop-color="#CE4830" stop-opacity="0.5"/>
<stop offset="0.317708" stop-color="#FDB913"/>
<stop offset="0.609375" stop-color="#8DC63F"/>
<stop offset="0.96875" stop-color="#00529B" stop-opacity="0.7"/>
</linearGradient>
<linearGradient id="paint3_linear" x1="-12.6453" y1="340.597" x2="1931.23" y2="340.597" gradientUnits="userSpaceOnUse">
<stop offset="0.119792" stop-color="#CE4830" stop-opacity="0.5"/>
<stop offset="0.317708" stop-color="#FDB913"/>
<stop offset="0.609375" stop-color="#8DC63F"/>
<stop offset="0.96875" stop-color="#00529B" stop-opacity="0.7"/>
</linearGradient>
<linearGradient id="paint4_linear" x1="-12.6453" y1="349.176" x2="1931.38" y2="349.176" gradientUnits="userSpaceOnUse">
<stop offset="0.119792" stop-color="#CE4830" stop-opacity="0.5"/>
<stop offset="0.317708" stop-color="#FDB913"/>
<stop offset="0.609375" stop-color="#8DC63F"/>
<stop offset="0.96875" stop-color="#00529B" stop-opacity="0.7"/>
</linearGradient>
<linearGradient id="paint5_linear" x1="-12.6453" y1="357.863" x2="1931.54" y2="357.863" gradientUnits="userSpaceOnUse">
<stop offset="0.119792" stop-color="#CE4830" stop-opacity="0.5"/>
<stop offset="0.317708" stop-color="#FDB913"/>
<stop offset="0.609375" stop-color="#8DC63F"/>
<stop offset="0.96875" stop-color="#00529B" stop-opacity="0.7"/>
</linearGradient>
<linearGradient id="paint6_linear" x1="-12.6453" y1="366.68" x2="1931.69" y2="366.68" gradientUnits="userSpaceOnUse">
<stop offset="0.119792" stop-color="#CE4830" stop-opacity="0.5"/>
<stop offset="0.317708" stop-color="#FDB913"/>
<stop offset="0.609375" stop-color="#8DC63F"/>
<stop offset="0.96875" stop-color="#00529B" stop-opacity="0.7"/>
</linearGradient>
<linearGradient id="paint7_linear" x1="-12.6453" y1="375.585" x2="1931.83" y2="375.585" gradientUnits="userSpaceOnUse">
<stop offset="0.119792" stop-color="#CE4830" stop-opacity="0.5"/>
<stop offset="0.317708" stop-color="#FDB913"/>
<stop offset="0.609375" stop-color="#8DC63F"/>
<stop offset="0.96875" stop-color="#00529B" stop-opacity="0.7"/>
</linearGradient>
<linearGradient id="paint8_linear" x1="-12.6453" y1="384.568" x2="1931.98" y2="384.568" gradientUnits="userSpaceOnUse">
<stop offset="0.119792" stop-color="#CE4830" stop-opacity="0.5"/>
<stop offset="0.317708" stop-color="#FDB913"/>
<stop offset="0.609375" stop-color="#8DC63F"/>
<stop offset="0.96875" stop-color="#00529B" stop-opacity="0.7"/>
</linearGradient>
<linearGradient id="paint9_linear" x1="-12.6453" y1="393.623" x2="1932.13" y2="393.623" gradientUnits="userSpaceOnUse">
<stop offset="0.119792" stop-color="#CE4830" stop-opacity="0.5"/>
<stop offset="0.317708" stop-color="#FDB913"/>
<stop offset="0.609375" stop-color="#8DC63F"/>
<stop offset="0.96875" stop-color="#00529B" stop-opacity="0.7"/>
</linearGradient>
<linearGradient id="paint10_linear" x1="-12.6453" y1="402.716" x2="1932.29" y2="402.716" gradientUnits="userSpaceOnUse">
<stop offset="0.119792" stop-color="#CE4830" stop-opacity="0.5"/>
<stop offset="0.317708" stop-color="#FDB913"/>
<stop offset="0.609375" stop-color="#8DC63F"/>
<stop offset="0.96875" stop-color="#00529B" stop-opacity="0.7"/>
</linearGradient>
<linearGradient id="paint11_linear" x1="-12.6453" y1="411.872" x2="1932.44" y2="411.872" gradientUnits="userSpaceOnUse">
<stop offset="0.119792" stop-color="#CE4830" stop-opacity="0.5"/>
<stop offset="0.317708" stop-color="#FDB913"/>
<stop offset="0.609375" stop-color="#8DC63F"/>
<stop offset="0.96875" stop-color="#00529B" stop-opacity="0.7"/>
</linearGradient>
<linearGradient id="paint12_linear" x1="-12.6453" y1="421.072" x2="1932.59" y2="421.072" gradientUnits="userSpaceOnUse">
<stop offset="0.119792" stop-color="#CE4830" stop-opacity="0.5"/>
<stop offset="0.317708" stop-color="#FDB913"/>
<stop offset="0.609375" stop-color="#8DC63F"/>
<stop offset="0.96875" stop-color="#00529B" stop-opacity="0.7"/>
</linearGradient>
<linearGradient id="paint13_linear" x1="-12.6453" y1="419.605" x2="1932.74" y2="419.605" gradientUnits="userSpaceOnUse">
<stop offset="0.119792" stop-color="#CE4830" stop-opacity="0.5"/>
<stop offset="0.317708" stop-color="#FDB913"/>
<stop offset="0.609375" stop-color="#8DC63F"/>
<stop offset="0.96875" stop-color="#00529B" stop-opacity="0.7"/>
</linearGradient>
<linearGradient id="paint14_linear" x1="-12.6453" y1="414.601" x2="1932.9" y2="414.601" gradientUnits="userSpaceOnUse">
<stop offset="0.119792" stop-color="#CE4830" stop-opacity="0.5"/>
<stop offset="0.317708" stop-color="#FDB913"/>
<stop offset="0.609375" stop-color="#8DC63F"/>
<stop offset="0.96875" stop-color="#00529B" stop-opacity="0.7"/>
</linearGradient>
<linearGradient id="paint15_linear" x1="-12.6453" y1="409.644" x2="1933.05" y2="409.644" gradientUnits="userSpaceOnUse">
<stop offset="0.119792" stop-color="#CE4830" stop-opacity="0.5"/>
<stop offset="0.317708" stop-color="#FDB913"/>
<stop offset="0.609375" stop-color="#8DC63F"/>
<stop offset="0.96875" stop-color="#00529B" stop-opacity="0.7"/>
</linearGradient>
<linearGradient id="paint16_linear" x1="-12.6453" y1="404.711" x2="1933.2" y2="404.71" gradientUnits="userSpaceOnUse">
<stop offset="0.119792" stop-color="#CE4830" stop-opacity="0.5"/>
<stop offset="0.317708" stop-color="#FDB913"/>
<stop offset="0.609375" stop-color="#8DC63F"/>
<stop offset="0.96875" stop-color="#00529B" stop-opacity="0.7"/>
</linearGradient>
<linearGradient id="paint17_linear" x1="-12.6453" y1="399.787" x2="1933.35" y2="399.787" gradientUnits="userSpaceOnUse">
<stop offset="0.119792" stop-color="#CE4830" stop-opacity="0.5"/>
<stop offset="0.317708" stop-color="#FDB913"/>
<stop offset="0.609375" stop-color="#8DC63F"/>
<stop offset="0.96875" stop-color="#00529B" stop-opacity="0.7"/>
</linearGradient>
<linearGradient id="paint18_linear" x1="-12.6453" y1="394.924" x2="1933.49" y2="394.924" gradientUnits="userSpaceOnUse">
<stop offset="0.119792" stop-color="#CE4830" stop-opacity="0.5"/>
<stop offset="0.317708" stop-color="#FDB913"/>
<stop offset="0.609375" stop-color="#8DC63F"/>
<stop offset="0.96875" stop-color="#00529B" stop-opacity="0.7"/>
</linearGradient>
<linearGradient id="paint19_linear" x1="-12.6453" y1="390.087" x2="1933.65" y2="390.087" gradientUnits="userSpaceOnUse">
<stop offset="0.119792" stop-color="#CE4830" stop-opacity="0.5"/>
<stop offset="0.317708" stop-color="#FDB913"/>
<stop offset="0.609375" stop-color="#8DC63F"/>
<stop offset="0.96875" stop-color="#00529B" stop-opacity="0.7"/>
</linearGradient>
<linearGradient id="paint20_linear" x1="-12.6453" y1="385.281" x2="1933.8" y2="385.281" gradientUnits="userSpaceOnUse">
<stop offset="0.119792" stop-color="#CE4830" stop-opacity="0.5"/>
<stop offset="0.317708" stop-color="#FDB913"/>
<stop offset="0.609375" stop-color="#8DC63F"/>
<stop offset="0.96875" stop-color="#00529B" stop-opacity="0.7"/>
</linearGradient>
<linearGradient id="paint21_linear" x1="-12.6449" y1="380.503" x2="1933.95" y2="380.503" gradientUnits="userSpaceOnUse">
<stop offset="0.119792" stop-color="#CE4830" stop-opacity="0.5"/>
<stop offset="0.317708" stop-color="#FDB913"/>
<stop offset="0.609375" stop-color="#8DC63F"/>
<stop offset="0.96875" stop-color="#00529B" stop-opacity="0.7"/>
</linearGradient>
<clipPath id="clip0">
<rect x="-13" width="1947" height="761" fill="white"/>
</clipPath>
</defs>
</svg>
