<svg width="26" height="25" viewBox="0 0 26 25" fill="none" xmlns="http://www.w3.org/2000/svg">
<path fill-rule="evenodd" clip-rule="evenodd" d="M6.31881 2.8227C6.31881 4.3918 5.13771 5.6473 3.24121 5.6473H3.20641C1.38051 5.6473 0.200012 4.3918 0.200012 2.8227C0.200012 1.2204 1.41641 0 3.27701 0C5.13771 0 6.28351 1.2204 6.31881 2.8227ZM5.96051 7.8778V24.2196H0.521612V7.8778H5.96051ZM25.5752 24.2196L25.5754 14.8497C25.5754 9.8303 22.8922 7.4941 19.3131 7.4941C16.4254 7.4941 15.1325 9.0802 14.4107 10.1929V7.8783H8.97111C9.04281 9.4117 8.97111 24.22 8.97111 24.22H14.4107V15.0934C14.4107 14.605 14.446 14.1178 14.5898 13.7681C14.9829 12.7924 15.8779 11.7822 17.3805 11.7822C19.3494 11.7822 20.1365 13.2807 20.1365 15.4767V24.2196H25.5752Z" fill="white"/>
</svg>
