<svg width="113" height="20" viewBox="0 0 113 20" fill="none" xmlns="http://www.w3.org/2000/svg">
<path d="M32.4423 15.5025C32.4251 15.5025 32.4251 15.4853 32.4251 15.4716L32.408 15.4544L28.0762 5.14338C27.9973 4.95116 28.0934 4.71089 28.2856 4.63194C28.4778 4.53583 28.7181 4.63194 28.797 4.82416L32.7924 14.3526L36.8049 4.82416C36.8701 4.63194 37.107 4.53583 37.2992 4.63194C37.4914 4.71089 37.5875 4.95116 37.5051 5.14338L33.1768 15.3755C33.1597 15.5197 33.0807 15.6467 32.9537 15.6947H32.9365C32.8885 15.7119 32.8404 15.7256 32.7924 15.7256C32.7443 15.7256 32.6791 15.7256 32.6482 15.7084C32.6311 15.7084 32.6311 15.6913 32.6311 15.6913C32.5384 15.6604 32.4732 15.5986 32.4423 15.5025Z" fill="#00529B"/>
<path d="M40.5222 4.90299C40.5222 4.69361 40.6973 4.51855 40.9067 4.51855C41.1298 4.51855 41.3048 4.69361 41.3048 4.90299L41.3151 15.3445C41.3151 15.5539 41.1401 15.7289 40.917 15.7289C40.7076 15.7289 40.5325 15.5539 40.5325 15.3445L40.5222 4.90299Z" fill="#00529B"/>
<path d="M49.3059 15.5025C49.2887 15.5025 49.2887 15.4853 49.2887 15.4716L49.2716 15.4544L44.9432 5.14338C44.8643 4.95116 44.9604 4.71089 45.1526 4.63194C45.3448 4.53583 45.5851 4.63194 45.6641 4.82416L49.6594 14.3526L53.6719 4.82416C53.7372 4.63194 53.974 4.53583 54.1662 4.63194C54.3584 4.71089 54.4545 4.95116 54.3722 5.14338L50.0404 15.3755C50.0233 15.5197 49.9443 15.6467 49.8173 15.6947H49.8002C49.7521 15.7119 49.704 15.7256 49.656 15.7256C49.6079 15.7256 49.5427 15.7256 49.5118 15.7084C49.4947 15.7084 49.4947 15.6913 49.4947 15.6913C49.402 15.6604 49.3368 15.5986 49.3059 15.5025Z" fill="#00529B"/>
<path d="M57.6192 4.92008C57.6192 4.7107 57.7943 4.53564 58.0037 4.53564H58.0346H63.7565C63.9796 4.53564 64.1409 4.7107 64.1409 4.92008C64.1409 5.14319 63.9796 5.31824 63.7565 5.31824H58.4018V9.74609H63.0871C63.2931 9.74609 63.4716 9.92115 63.4716 10.1443C63.4716 10.3536 63.2965 10.5287 63.0871 10.5287H58.4018V14.9394H63.7565C63.9796 14.9394 64.1409 15.1144 64.1409 15.341C64.1409 15.5504 63.9796 15.7254 63.7565 15.7254H58.0517H58.0037H57.9728C57.7806 15.7082 57.6227 15.5504 57.6227 15.341V4.92008H57.6192Z" fill="#00529B"/>
<path d="M67.9132 6.1834V15.3446C67.9132 15.554 67.7381 15.729 67.5287 15.729C67.3194 15.729 67.1443 15.554 67.1443 15.3446V5.07816C67.0962 4.91683 67.1443 4.75894 67.2885 4.64567C67.4635 4.5324 67.721 4.56672 67.8308 4.74178L74.6099 14.1398V5.03353C74.6099 4.82415 74.7849 4.6491 74.9943 4.6491C75.2174 4.6491 75.3925 4.82415 75.3925 5.03353V15.3446C75.3925 15.554 75.2174 15.729 74.9943 15.729C74.8673 15.729 74.7712 15.681 74.6922 15.5849C74.6751 15.5677 74.6442 15.554 74.627 15.5196L67.9132 6.1834Z" fill="#00529B"/>
<path d="M82.3157 5.31824H78.9416C78.7322 5.31824 78.5572 5.14319 78.5572 4.92008C78.5572 4.7107 78.7322 4.53564 78.9416 4.53564H86.4552C86.6646 4.53564 86.8397 4.7107 86.8397 4.92008C86.8397 5.14319 86.6646 5.31824 86.4552 5.31824H83.0811V15.341C83.0811 15.5504 82.9061 15.7254 82.6967 15.7254C82.4873 15.7254 82.3123 15.5504 82.3123 15.341V5.31824H82.3157Z" fill="#00529B"/>
<path d="M89.7984 4.92008C89.7984 4.7107 89.9735 4.53564 90.1828 4.53564C90.4059 4.53564 90.581 4.7107 90.581 4.92008V11.2014C90.581 13.2643 92.2595 14.9257 94.3052 14.9428C96.3818 14.9257 98.0603 13.2643 98.0603 11.2014V4.92008C98.0603 4.7107 98.2353 4.53564 98.4447 4.53564C98.6678 4.53564 98.8463 4.7107 98.8463 4.92008V11.2014C98.8463 13.6934 96.8177 15.7254 94.3052 15.7254C91.827 15.7254 89.7984 13.6968 89.7984 11.2014V4.92008Z" fill="#00529B"/>
<path d="M112.13 4.7761C112.099 4.72805 112.065 4.69715 112.017 4.6491C111.842 4.53583 111.584 4.57015 111.474 4.74521L107.51 10.2577L103.528 4.74178C103.401 4.56672 103.161 4.5324 102.986 4.64567C102.969 4.66283 102.955 4.66283 102.955 4.67656C102.859 4.74178 102.794 4.85161 102.794 4.97861V15.3377C102.794 15.5471 102.969 15.7222 103.192 15.7222C103.401 15.7222 103.576 15.5471 103.576 15.3377V6.15251L107.156 11.109C107.235 11.236 107.348 11.284 107.493 11.284H107.524C107.637 11.284 107.764 11.236 107.843 11.109L111.423 6.13878V15.3446C111.423 15.554 111.584 15.729 111.807 15.729C112.017 15.729 112.192 15.554 112.192 15.3446V4.98548C112.195 4.92026 112.164 4.84132 112.13 4.7761Z" fill="#00529B"/>
<mask id="mask0" mask-type="alpha" maskUnits="userSpaceOnUse" x="0" y="0" width="20" height="20">
<circle cx="10" cy="10" r="10" fill="#C4C4C4"/>
</mask>
<g mask="url(#mask0)">
<path d="M18.9366 19.2303C18.9871 19.0787 20.2971 15.5026 20.2971 15.5026L21.2153 7.41553L16.7169 13.9905L18.9366 19.2303Z" fill="#BDD753"/>
<path d="M14.7035 3.30859C14.754 3.46023 16.7211 13.9903 16.7211 13.9903L21.2195 7.41534L18.5364 3.46023L14.7035 3.30859Z" fill="#8DC63F"/>
<path d="M16.7169 13.9906L9.26155 5.42329L6.49002 -1.32861L14.7035 3.30885L16.7169 13.9906Z" fill="#00529B"/>
<path d="M1.0986 2.80322L9.26154 5.42311L16.7169 13.9904L5.6813 9.50458L1.0986 2.80322Z" fill="#00AEEF"/>
<path d="M13.0903 17.1624L5.68127 9.50488L16.7168 13.9907L18.9366 19.2305L13.0903 17.1624Z" fill="#008BBF"/>
<path d="M1.0986 2.8034L6.49002 -1.32861L9.26154 5.42329L1.0986 2.8034Z" fill="#8DC63F"/>
<path d="M0.997498 14.9342L5.68129 9.50488L13.0903 17.1624L0.997498 14.9342Z" fill="#DC4326"/>
<path d="M-6.61368 18.6112L0.997483 14.9341L13.6462 20.6919L11.1232 23.2487L-6.61368 18.6112Z" fill="#00AEEF"/>
<path d="M13.0903 17.1623L13.6463 20.6919L0.997498 14.9341L13.0903 17.1623Z" fill="#B61C21"/>
<path d="M18.9366 19.2302L13.6463 20.6918L13.0903 17.1621L18.9366 19.2302Z" fill="#8DC63F"/>
<path d="M-5.20263 18.5227L-7.31708 15.8523L0.997494 14.9341L-5.20263 18.5227Z" fill="#87BF40"/>
<path d="M-6.96327 7.18848C-6.81163 7.18848 0.997494 14.9344 0.997494 14.9344L-7.31708 15.8526L-6.96327 7.18848Z" fill="#005BAB"/>
<path d="M5.68126 9.5051L0.997473 14.9344L-6.96329 7.18848L5.68126 9.5051Z" fill="#FDB913"/>
<path d="M1.09856 2.80322L5.68126 9.50458L-6.96329 7.18796L1.09856 2.80322Z" fill="#FFE21E"/>
<path d="M6.49002 -1.32861L14.7035 3.30885L18.5322 3.45627L15.8113 0.18351L6.49002 -1.32861Z" fill="#003067"/>
</g>
</svg>
