<svg width="135" height="24" viewBox="0 0 135 24" fill="none" xmlns="http://www.w3.org/2000/svg">
<g id="logo / viventum-short">
<g id="Group">
<path id="Vector" d="M38.9307 18.6027C38.9101 18.6027 38.9101 18.5821 38.9101 18.5656L38.8895 18.545L33.6915 6.17175C33.5967 5.94109 33.712 5.65277 33.9427 5.55803C34.1734 5.4427 34.4617 5.55803 34.5564 5.78869L39.3509 17.2228L44.1659 5.78869C44.2442 5.55803 44.5284 5.4427 44.759 5.55803C44.9897 5.65277 45.105 5.94109 45.0062 6.17175L39.8122 18.4503C39.7916 18.6233 39.6969 18.7757 39.5445 18.8333H39.5239C39.4662 18.8539 39.4085 18.8704 39.3509 18.8704C39.2932 18.8704 39.2149 18.8704 39.1779 18.8498C39.1573 18.8498 39.1573 18.8292 39.1573 18.8292C39.0461 18.7922 38.9678 18.718 38.9307 18.6027Z" fill="white"/>
<path id="Vector_2" d="M48.6267 5.88336C48.6267 5.63211 48.8368 5.42204 49.088 5.42204C49.3558 5.42204 49.5658 5.63211 49.5658 5.88336L49.5782 18.4132C49.5782 18.6644 49.3681 18.8745 49.1004 18.8745C48.8491 18.8745 48.6391 18.6644 48.6391 18.4132L48.6267 5.88336Z" fill="white"/>
<path id="Vector_3" d="M59.1671 18.6027C59.1465 18.6027 59.1465 18.5821 59.1465 18.5656L59.1259 18.545L53.9319 6.17175C53.8372 5.94109 53.9525 5.65277 54.1832 5.55803C54.4138 5.4427 54.7021 5.55803 54.7969 5.78869L59.5913 17.2228L64.4063 5.78869C64.4846 5.55803 64.7688 5.4427 64.9995 5.55803C65.2301 5.65277 65.3455 5.94109 65.2466 6.17175L60.0485 18.4503C60.0279 18.6233 59.9332 18.7757 59.7808 18.8333H59.7602C59.7025 18.8539 59.6449 18.8704 59.5872 18.8704C59.5295 18.8704 59.4513 18.8704 59.4142 18.8498C59.3936 18.8498 59.3936 18.8292 59.3936 18.8292C59.2824 18.7922 59.2041 18.718 59.1671 18.6027Z" fill="white"/>
<path id="Vector_4" d="M69.1431 5.90398C69.1431 5.65272 69.3532 5.44266 69.6044 5.44266H69.6415H76.5078C76.7755 5.44266 76.9691 5.65272 76.9691 5.90398C76.9691 6.17171 76.7755 6.38177 76.5078 6.38177H70.0822V11.6952H75.7046C75.9517 11.6952 76.1659 11.9053 76.1659 12.173C76.1659 12.4242 75.9558 12.6343 75.7046 12.6343H70.0822V17.9271H76.5078C76.7755 17.9271 76.9691 18.1372 76.9691 18.4091C76.9691 18.6603 76.7755 18.8704 76.5078 18.8704H69.6621H69.6044H69.5673C69.3367 18.8498 69.1472 18.6603 69.1472 18.4091V5.90398H69.1431Z" fill="white"/>
<path id="Vector_5" d="M81.4958 7.4197V18.4131C81.4958 18.6644 81.2857 18.8744 81.0345 18.8744C80.7832 18.8744 80.5732 18.6644 80.5732 18.4131V6.09341C80.5155 5.89982 80.5732 5.71034 80.7462 5.57442C80.9562 5.4385 81.2652 5.47968 81.397 5.68975L89.5319 16.9674V6.03986C89.5319 5.7886 89.7419 5.57854 89.9932 5.57854C90.2609 5.57854 90.471 5.7886 90.471 6.03986V18.4131C90.471 18.6644 90.2609 18.8744 89.9932 18.8744C89.8408 18.8744 89.7254 18.8168 89.6307 18.7015C89.6101 18.6809 89.573 18.6644 89.5524 18.6232L81.4958 7.4197Z" fill="white"/>
<path id="Vector_6" d="M98.7789 6.38177H94.7299C94.4787 6.38177 94.2686 6.17171 94.2686 5.90398C94.2686 5.65272 94.4787 5.44266 94.7299 5.44266H103.746C103.998 5.44266 104.208 5.65272 104.208 5.90398C104.208 6.17171 103.998 6.38177 103.746 6.38177H99.6974V18.4091C99.6974 18.6603 99.4873 18.8704 99.2361 18.8704C98.9848 18.8704 98.7747 18.6603 98.7747 18.4091V6.38177H98.7789Z" fill="white"/>
<path id="Vector_7" d="M107.758 5.90398C107.758 5.65272 107.968 5.44266 108.219 5.44266C108.487 5.44266 108.697 5.65272 108.697 5.90398V13.4416C108.697 15.9171 110.711 17.9107 113.166 17.9313C115.658 17.9107 117.672 15.9171 117.672 13.4416V5.90398C117.672 5.65272 117.882 5.44266 118.134 5.44266C118.401 5.44266 118.616 5.65272 118.616 5.90398V13.4416C118.616 16.432 116.181 18.8704 113.166 18.8704C110.192 18.8704 107.758 16.4361 107.758 13.4416V5.90398Z" fill="white"/>
<path id="Vector_8" d="M134.556 5.73094C134.519 5.67327 134.478 5.6362 134.42 5.57854C134.21 5.44261 133.901 5.4838 133.769 5.69387L129.012 12.3089L124.234 5.68975C124.081 5.47968 123.793 5.4385 123.583 5.57442C123.562 5.59501 123.546 5.59501 123.546 5.61149C123.431 5.68975 123.352 5.82156 123.352 5.97396V18.4049C123.352 18.6561 123.562 18.8662 123.83 18.8662C124.081 18.8662 124.291 18.6561 124.291 18.4049V7.38263L128.588 13.3304C128.682 13.4828 128.818 13.5404 128.991 13.5404H129.028C129.164 13.5404 129.317 13.4828 129.411 13.3304L133.707 7.36615V18.4131C133.707 18.6644 133.901 18.8744 134.169 18.8744C134.42 18.8744 134.63 18.6644 134.63 18.4131V5.98219C134.634 5.90393 134.597 5.8092 134.556 5.73094Z" fill="white"/>
</g>
<g id="Mask Group">
<mask id="mask0" mask-type="alpha" maskUnits="userSpaceOnUse" x="0" y="0" width="24" height="24">
<ellipse id="Ellipse 1" cx="12" cy="12" rx="12" ry="12" fill="#C4C4C4"/>
</mask>
<g mask="url(#mask0)">
<g id="Group_2">
<g id="Group_3">
<path id="Vector_9" d="M22.7239 23.0762C22.7846 22.8943 24.3565 18.603 24.3565 18.603L25.4584 8.8985L20.0602 16.7885L22.7239 23.0762Z" fill="#BDD753"/>
<path id="Vector_10" d="M17.6442 3.97055C17.7049 4.15251 20.0653 16.7886 20.0653 16.7886L25.4635 8.89864L22.2438 4.15251L17.6442 3.97055Z" fill="#8DC63F"/>
<path id="Vector_11" d="M20.0603 16.7887L11.1139 6.50794L7.78806 -1.59435L17.6442 3.97061L20.0603 16.7887Z" fill="#00529B"/>
<path id="Vector_12" d="M1.31833 3.36409L11.1139 6.50796L20.0602 16.7887L6.81757 11.4057L1.31833 3.36409Z" fill="#00AEEF"/>
<path id="Vector_13" d="M15.7084 20.5949L6.8176 11.4059L20.0603 16.7889L22.724 23.0766L15.7084 20.5949Z" fill="#008BBF"/>
<path id="Vector_14" d="M1.31833 3.36407L7.78802 -1.59435L11.1139 6.50794L1.31833 3.36407Z" fill="#8DC63F"/>
<path id="Vector_15" d="M1.19702 17.9211L6.81757 11.4059L15.7084 20.5949L1.19702 17.9211Z" fill="#DC4326"/>
<path id="Vector_16" d="M-7.93634 22.3333L1.19705 17.9208L16.3756 24.8302L13.348 27.8983L-7.93634 22.3333Z" fill="#00AEEF"/>
<path id="Vector_17" d="M15.7084 20.5946L16.3755 24.8302L1.19702 17.9208L15.7084 20.5946Z" fill="#B61C21"/>
<path id="Vector_18" d="M22.7239 23.0764L16.3755 24.8302L15.7083 20.5946L22.7239 23.0764Z" fill="#8DC63F"/>
<path id="Vector_19" d="M-6.24312 22.2272L-8.78046 19.0227L1.19703 17.9208L-6.24312 22.2272Z" fill="#87BF40"/>
<path id="Vector_20" d="M-8.35588 8.62602C-8.17392 8.62602 1.19703 17.9212 1.19703 17.9212L-8.78046 19.023L-8.35588 8.62602Z" fill="#005BAB"/>
<path id="Vector_21" d="M6.81756 11.406L1.19702 17.9212L-8.3559 8.62602L6.81756 11.406Z" fill="#FDB913"/>
<path id="Vector_22" d="M1.31832 3.36409L6.81756 11.4057L-8.3559 8.62577L1.31832 3.36409Z" fill="#FFE21E"/>
<path id="Vector_23" d="M7.78806 -1.59435L17.6442 3.97061L22.2387 4.14751L18.9736 0.220203L7.78806 -1.59435Z" fill="#003067"/>
</g>
</g>
</g>
</g>
</g>
</svg>
