<svg width="1920" height="796" viewBox="0 0 1920 796" fill="none" xmlns="http://www.w3.org/2000/svg">
<path d="M1930.78 3.6602C1822.9 154.994 1695.98 362.175 1462.77 522.51C1209.05 696.944 729.313 669.631 499.779 625.202C220.569 571.151 -12.6453 369.38 -12.6453 369.38" stroke="url(#paint0_linear)" stroke-width="1.5" stroke-miterlimit="10" stroke-linecap="round" stroke-linejoin="round"/>
<path d="M1930.93 15.9299C1822.07 162.292 1678.83 346.222 1445.4 511.967C1192.72 690.81 729.556 680.75 495.329 630.958C219.727 572.36 -12.6453 351.793 -12.6453 351.793" stroke="url(#paint1_linear)" stroke-width="1.45" stroke-miterlimit="10" stroke-linecap="round" stroke-linejoin="round"/>
<path d="M1931.08 28.1996C1821.24 169.577 1661.68 330.258 1428.02 501.412C1176.38 684.652 729.81 691.984 490.869 636.701C218.896 573.776 -12.6453 334.206 -12.6453 334.206" stroke="url(#paint2_linear)" stroke-width="1.4" stroke-miterlimit="10" stroke-linecap="round" stroke-linejoin="round"/>
<path d="M1931.23 40.4693C1820.41 176.875 1644.53 314.305 1410.65 490.857C1160.05 678.494 730.084 703.321 486.42 642.444C218.045 575.41 -12.6453 316.618 -12.6453 316.618" stroke="url(#paint3_linear)" stroke-width="1.35" stroke-miterlimit="10" stroke-linecap="round" stroke-linejoin="round"/>
<path d="M1931.38 52.7275C1819.58 184.161 1627.76 298.962 1393.27 480.303C1144.11 672.992 730.357 714.774 481.96 648.2C217.193 577.229 -12.6453 299.031 -12.6453 299.031" stroke="url(#paint4_linear)" stroke-width="1.3" stroke-miterlimit="10" stroke-linecap="round" stroke-linejoin="round"/>
<path d="M1931.54 64.9972C1818.75 191.447 1610.68 283.101 1375.89 469.748C1127.85 666.938 730.631 726.353 477.5 653.932C216.322 579.231 -12.6453 281.444 -12.6453 281.444" stroke="url(#paint5_linear)" stroke-width="1.25" stroke-miterlimit="10" stroke-linecap="round" stroke-linejoin="round"/>
<path d="M1931.69 77.2669C1817.91 198.744 1593.6 267.229 1358.52 459.205C1111.57 660.872 730.904 738.059 473.051 659.698C215.43 581.395 -12.6453 263.856 -12.6453 263.856" stroke="url(#paint6_linear)" stroke-width="1.2" stroke-miterlimit="10" stroke-linecap="round" stroke-linejoin="round"/>
<path d="M1931.83 89.5366C1817.07 206.041 1576.49 251.333 1341.14 448.65C1095.29 654.772 731.158 749.879 468.581 665.442C214.518 583.732 -12.6453 246.269 -12.6453 246.269" stroke="url(#paint7_linear)" stroke-width="1.15" stroke-miterlimit="10" stroke-linecap="round" stroke-linejoin="round"/>
<path d="M1931.98 101.806C1816.24 213.327 1559.38 235.415 1323.77 438.095C1079 648.648 731.391 761.827 464.131 671.185C213.575 586.207 -12.6453 228.682 -12.6453 228.682" stroke="url(#paint8_linear)" stroke-width="1.1" stroke-miterlimit="10" stroke-linecap="round" stroke-linejoin="round"/>
<path d="M1932.14 114.076C1815.41 220.624 1542.26 219.485 1306.38 427.552C1062.68 642.525 731.584 773.924 459.661 676.94C212.602 588.819 -12.6453 211.094 -12.6453 211.094" stroke="url(#paint9_linear)" stroke-width="1.05" stroke-miterlimit="10" stroke-linecap="round" stroke-linejoin="round"/>
<path d="M1932.29 126.334C1814.59 227.91 1525.13 203.521 1289.01 416.986C1046.36 636.356 731.766 786.124 455.212 682.672C211.598 591.559 -12.6453 193.507 -12.6453 193.507" stroke="url(#paint10_linear)" stroke-miterlimit="10" stroke-linecap="round" stroke-linejoin="round"/>
<path d="M1932.44 138.604C1813.76 235.208 1507.99 187.545 1271.64 406.443C1030.04 630.186 731.898 798.475 450.752 688.427C210.554 594.413 -12.6453 175.931 -12.6453 175.931" stroke="url(#paint11_linear)" stroke-width="0.92" stroke-miterlimit="10" stroke-linecap="round" stroke-linejoin="round"/>
<path d="M1932.59 150.874C1812.93 242.494 1490.83 171.569 1254.27 395.888C1013.69 623.994 731.989 810.963 446.302 694.182C209.48 597.371 -12.6453 158.344 -12.6453 158.344" stroke="url(#paint12_linear)" stroke-width="0.85" stroke-miterlimit="10" stroke-linecap="round" stroke-linejoin="round"/>
<path d="M1932.74 163.143C1812.1 249.791 1473.67 155.57 1236.89 385.333C997.333 617.79 732.03 823.578 441.843 699.926C208.365 600.433 -12.6453 140.756 -12.6453 140.756" stroke="url(#paint13_linear)" stroke-width="0.78" stroke-miterlimit="10" stroke-linecap="round" stroke-linejoin="round"/>
<path d="M1932.9 175.413C1811.27 257.088 1456.49 139.548 1219.51 374.79C980.964 611.575 732.009 836.343 437.383 705.669C207.22 603.587 -12.6453 123.157 -12.6453 123.157" stroke="url(#paint14_linear)" stroke-width="0.7" stroke-miterlimit="10" stroke-linecap="round" stroke-linejoin="round"/>
<path d="M1933.05 187.683C1810.43 264.374 1439.3 123.526 1202.14 364.235C964.585 605.348 731.928 849.246 432.923 711.424C206.024 606.833 -12.6453 105.582 -12.6453 105.582" stroke="url(#paint15_linear)" stroke-width="0.6" stroke-miterlimit="10" stroke-linecap="round" stroke-linejoin="round"/>
<path d="M1933.2 199.941C1809.6 271.66 1422.09 107.469 1184.76 353.681C948.195 599.098 731.776 862.286 428.463 717.168C204.787 610.147 -12.6453 87.9943 -12.6453 87.9943" stroke="url(#paint16_linear)" stroke-width="0.5" stroke-miterlimit="10" stroke-linecap="round" stroke-linejoin="round"/>
<path d="M1933.35 212.211C1808.77 278.957 1404.46 90.9063 1167.39 343.126C931.37 592.33 731.553 875.477 424.014 722.911C203.5 613.531 -12.6453 70.4069 -12.6453 70.4069" stroke="url(#paint17_linear)" stroke-width="0.4" stroke-miterlimit="10" stroke-linecap="round" stroke-linejoin="round"/>
<path d="M1933.49 224.48C1807.93 286.243 1387.3 74.9534 1150.01 332.571C915.031 586.183 731.249 888.806 419.554 728.666C202.182 616.984 -12.6453 52.8196 -12.6453 52.8196" stroke="url(#paint18_linear)" stroke-width="0.3" stroke-miterlimit="10" stroke-linecap="round" stroke-linejoin="round"/>
<path d="M1933.65 236.75C1807.11 293.541 1370.15 59.0005 1132.63 322.028C898.702 580.026 730.864 902.284 415.094 734.41C200.804 620.495 -12.6453 35.2322 -12.6453 35.2322" stroke="url(#paint19_linear)" stroke-width="0.2" stroke-miterlimit="10" stroke-linecap="round" stroke-linejoin="round"/>
<path d="M1933.8 249.02C1806.28 300.838 1353 43.036 1115.25 311.473C882.363 573.868 730.388 915.9 410.635 740.165C199.385 624.051 -12.6453 17.6449 -12.6453 17.6449" stroke="url(#paint20_linear)" stroke-width="0.1286" stroke-miterlimit="10" stroke-linecap="round" stroke-linejoin="round"/>
<path d="M1933.95 261.29C1805.45 308.136 1335.85 27.0837 1097.88 300.919C866.035 567.722 729.82 929.667 406.185 745.909C197.926 627.655 -12.6449 0.0580597 -12.6449 0.0580597" stroke="url(#paint21_linear)" stroke-width="0.1" stroke-miterlimit="10" stroke-linecap="round" stroke-linejoin="round"/>
<defs>
<linearGradient id="paint0_linear" x1="-12.6453" y1="331.079" x2="1930.78" y2="331.078" gradientUnits="userSpaceOnUse">
<stop offset="0.119792" stop-color="#CE4830" stop-opacity="0.5"/>
<stop offset="0.317708" stop-color="#FDB913"/>
<stop offset="0.609375" stop-color="#8DC63F"/>
<stop offset="0.96875" stop-color="#00529B" stop-opacity="0.7"/>
</linearGradient>
<linearGradient id="paint1_linear" x1="-12.6453" y1="339.141" x2="1930.93" y2="339.141" gradientUnits="userSpaceOnUse">
<stop offset="0.119792" stop-color="#CE4830" stop-opacity="0.5"/>
<stop offset="0.317708" stop-color="#FDB913"/>
<stop offset="0.609375" stop-color="#8DC63F"/>
<stop offset="0.96875" stop-color="#00529B" stop-opacity="0.7"/>
</linearGradient>
<linearGradient id="paint2_linear" x1="-12.6453" y1="347.561" x2="1931.08" y2="347.561" gradientUnits="userSpaceOnUse">
<stop offset="0.119792" stop-color="#CE4830" stop-opacity="0.5"/>
<stop offset="0.317708" stop-color="#FDB913"/>
<stop offset="0.609375" stop-color="#8DC63F"/>
<stop offset="0.96875" stop-color="#00529B" stop-opacity="0.7"/>
</linearGradient>
<linearGradient id="paint3_linear" x1="-12.6453" y1="356.262" x2="1931.23" y2="356.262" gradientUnits="userSpaceOnUse">
<stop offset="0.119792" stop-color="#CE4830" stop-opacity="0.5"/>
<stop offset="0.317708" stop-color="#FDB913"/>
<stop offset="0.609375" stop-color="#8DC63F"/>
<stop offset="0.96875" stop-color="#00529B" stop-opacity="0.7"/>
</linearGradient>
<linearGradient id="paint4_linear" x1="-12.6453" y1="365.235" x2="1931.38" y2="365.235" gradientUnits="userSpaceOnUse">
<stop offset="0.119792" stop-color="#CE4830" stop-opacity="0.5"/>
<stop offset="0.317708" stop-color="#FDB913"/>
<stop offset="0.609375" stop-color="#8DC63F"/>
<stop offset="0.96875" stop-color="#00529B" stop-opacity="0.7"/>
</linearGradient>
<linearGradient id="paint5_linear" x1="-12.6453" y1="374.322" x2="1931.54" y2="374.322" gradientUnits="userSpaceOnUse">
<stop offset="0.119792" stop-color="#CE4830" stop-opacity="0.5"/>
<stop offset="0.317708" stop-color="#FDB913"/>
<stop offset="0.609375" stop-color="#8DC63F"/>
<stop offset="0.96875" stop-color="#00529B" stop-opacity="0.7"/>
</linearGradient>
<linearGradient id="paint6_linear" x1="-12.6453" y1="383.544" x2="1931.69" y2="383.544" gradientUnits="userSpaceOnUse">
<stop offset="0.119792" stop-color="#CE4830" stop-opacity="0.5"/>
<stop offset="0.317708" stop-color="#FDB913"/>
<stop offset="0.609375" stop-color="#8DC63F"/>
<stop offset="0.96875" stop-color="#00529B" stop-opacity="0.7"/>
</linearGradient>
<linearGradient id="paint7_linear" x1="-12.6453" y1="392.859" x2="1931.83" y2="392.859" gradientUnits="userSpaceOnUse">
<stop offset="0.119792" stop-color="#CE4830" stop-opacity="0.5"/>
<stop offset="0.317708" stop-color="#FDB913"/>
<stop offset="0.609375" stop-color="#8DC63F"/>
<stop offset="0.96875" stop-color="#00529B" stop-opacity="0.7"/>
</linearGradient>
<linearGradient id="paint8_linear" x1="-12.6453" y1="402.255" x2="1931.98" y2="402.255" gradientUnits="userSpaceOnUse">
<stop offset="0.119792" stop-color="#CE4830" stop-opacity="0.5"/>
<stop offset="0.317708" stop-color="#FDB913"/>
<stop offset="0.609375" stop-color="#8DC63F"/>
<stop offset="0.96875" stop-color="#00529B" stop-opacity="0.7"/>
</linearGradient>
<linearGradient id="paint9_linear" x1="-12.6453" y1="411.727" x2="1932.13" y2="411.726" gradientUnits="userSpaceOnUse">
<stop offset="0.119792" stop-color="#CE4830" stop-opacity="0.5"/>
<stop offset="0.317708" stop-color="#FDB913"/>
<stop offset="0.609375" stop-color="#8DC63F"/>
<stop offset="0.96875" stop-color="#00529B" stop-opacity="0.7"/>
</linearGradient>
<linearGradient id="paint10_linear" x1="-12.6453" y1="421.238" x2="1932.29" y2="421.238" gradientUnits="userSpaceOnUse">
<stop offset="0.119792" stop-color="#CE4830" stop-opacity="0.5"/>
<stop offset="0.317708" stop-color="#FDB913"/>
<stop offset="0.609375" stop-color="#8DC63F"/>
<stop offset="0.96875" stop-color="#00529B" stop-opacity="0.7"/>
</linearGradient>
<linearGradient id="paint11_linear" x1="-12.6453" y1="430.815" x2="1932.44" y2="430.815" gradientUnits="userSpaceOnUse">
<stop offset="0.119792" stop-color="#CE4830" stop-opacity="0.5"/>
<stop offset="0.317708" stop-color="#FDB913"/>
<stop offset="0.609375" stop-color="#8DC63F"/>
<stop offset="0.96875" stop-color="#00529B" stop-opacity="0.7"/>
</linearGradient>
<linearGradient id="paint12_linear" x1="-12.6453" y1="440.438" x2="1932.59" y2="440.438" gradientUnits="userSpaceOnUse">
<stop offset="0.119792" stop-color="#CE4830" stop-opacity="0.5"/>
<stop offset="0.317708" stop-color="#FDB913"/>
<stop offset="0.609375" stop-color="#8DC63F"/>
<stop offset="0.96875" stop-color="#00529B" stop-opacity="0.7"/>
</linearGradient>
<linearGradient id="paint13_linear" x1="-12.6453" y1="438.904" x2="1932.74" y2="438.904" gradientUnits="userSpaceOnUse">
<stop offset="0.119792" stop-color="#CE4830" stop-opacity="0.5"/>
<stop offset="0.317708" stop-color="#FDB913"/>
<stop offset="0.609375" stop-color="#8DC63F"/>
<stop offset="0.96875" stop-color="#00529B" stop-opacity="0.7"/>
</linearGradient>
<linearGradient id="paint14_linear" x1="-12.6453" y1="433.669" x2="1932.9" y2="433.669" gradientUnits="userSpaceOnUse">
<stop offset="0.119792" stop-color="#CE4830" stop-opacity="0.5"/>
<stop offset="0.317708" stop-color="#FDB913"/>
<stop offset="0.609375" stop-color="#8DC63F"/>
<stop offset="0.96875" stop-color="#00529B" stop-opacity="0.7"/>
</linearGradient>
<linearGradient id="paint15_linear" x1="-12.6453" y1="428.485" x2="1933.05" y2="428.484" gradientUnits="userSpaceOnUse">
<stop offset="0.119792" stop-color="#CE4830" stop-opacity="0.5"/>
<stop offset="0.317708" stop-color="#FDB913"/>
<stop offset="0.609375" stop-color="#8DC63F"/>
<stop offset="0.96875" stop-color="#00529B" stop-opacity="0.7"/>
</linearGradient>
<linearGradient id="paint16_linear" x1="-12.6453" y1="423.324" x2="1933.2" y2="423.324" gradientUnits="userSpaceOnUse">
<stop offset="0.119792" stop-color="#CE4830" stop-opacity="0.5"/>
<stop offset="0.317708" stop-color="#FDB913"/>
<stop offset="0.609375" stop-color="#8DC63F"/>
<stop offset="0.96875" stop-color="#00529B" stop-opacity="0.7"/>
</linearGradient>
<linearGradient id="paint17_linear" x1="-12.6453" y1="418.174" x2="1933.35" y2="418.174" gradientUnits="userSpaceOnUse">
<stop offset="0.119792" stop-color="#CE4830" stop-opacity="0.5"/>
<stop offset="0.317708" stop-color="#FDB913"/>
<stop offset="0.609375" stop-color="#8DC63F"/>
<stop offset="0.96875" stop-color="#00529B" stop-opacity="0.7"/>
</linearGradient>
<linearGradient id="paint18_linear" x1="-12.6453" y1="413.087" x2="1933.49" y2="413.087" gradientUnits="userSpaceOnUse">
<stop offset="0.119792" stop-color="#CE4830" stop-opacity="0.5"/>
<stop offset="0.317708" stop-color="#FDB913"/>
<stop offset="0.609375" stop-color="#8DC63F"/>
<stop offset="0.96875" stop-color="#00529B" stop-opacity="0.7"/>
</linearGradient>
<linearGradient id="paint19_linear" x1="-12.6453" y1="408.028" x2="1933.65" y2="408.028" gradientUnits="userSpaceOnUse">
<stop offset="0.119792" stop-color="#CE4830" stop-opacity="0.5"/>
<stop offset="0.317708" stop-color="#FDB913"/>
<stop offset="0.609375" stop-color="#8DC63F"/>
<stop offset="0.96875" stop-color="#00529B" stop-opacity="0.7"/>
</linearGradient>
<linearGradient id="paint20_linear" x1="-12.6453" y1="403.001" x2="1933.8" y2="403.001" gradientUnits="userSpaceOnUse">
<stop offset="0.119792" stop-color="#CE4830" stop-opacity="0.5"/>
<stop offset="0.317708" stop-color="#FDB913"/>
<stop offset="0.609375" stop-color="#8DC63F"/>
<stop offset="0.96875" stop-color="#00529B" stop-opacity="0.7"/>
</linearGradient>
<linearGradient id="paint21_linear" x1="-12.6449" y1="398.003" x2="1933.95" y2="398.003" gradientUnits="userSpaceOnUse">
<stop offset="0.119792" stop-color="#CE4830" stop-opacity="0.5"/>
<stop offset="0.317708" stop-color="#FDB913"/>
<stop offset="0.609375" stop-color="#8DC63F"/>
<stop offset="0.96875" stop-color="#00529B" stop-opacity="0.7"/>
</linearGradient>
</defs>
</svg>
