<svg width="1920" height="577" viewBox="0 0 1920 577" fill="none" xmlns="http://www.w3.org/2000/svg">
<g clip-path="url(#clip0)">
<path d="M0.52356 279.308C48.376 295.866 364.639 710.377 674.367 446.574C901.862 252.814 1095.28 272.536 1292.52 307.462C1647.88 370.395 1628.66 95.4825 1921.65 95.4825" stroke="url(#paint0_linear)" stroke-width="0.1" stroke-miterlimit="10" stroke-linecap="round" stroke-linejoin="round"/>
<path d="M0.47345 271.341C60.1136 294.628 360.009 697.332 674.818 451.06C906.012 270.177 1100.29 286.566 1293.58 312.932C1642.05 360.153 1625.72 91.0598 1921.65 88.8485" stroke="url(#paint1_linear)" stroke-width="0.2" stroke-miterlimit="10" stroke-linecap="round" stroke-linejoin="round"/>
<path d="M0.41333 263.373C71.8312 293.38 355.368 684.286 675.27 455.557C910.162 287.539 1105.31 300.617 1294.66 318.424C1636.23 349.932 1622.8 86.6477 1921.66 82.2357" stroke="url(#paint2_linear)" stroke-width="0.3" stroke-miterlimit="10" stroke-linecap="round" stroke-linejoin="round"/>
<path d="M0.36322 255.406C83.5688 292.142 350.737 671.24 675.721 460.054C914.301 304.912 1110.33 314.657 1295.72 323.904C1630.39 339.701 1619.87 82.2357 1921.66 75.6123" stroke="url(#paint3_linear)" stroke-width="0.35" stroke-miterlimit="10" stroke-linecap="round" stroke-linejoin="round"/>
<path d="M0.30304 247.45C95.2963 290.904 346.096 658.195 676.162 464.551C918.441 322.286 1115.33 328.708 1296.78 329.385C1624.57 329.459 1616.93 77.8236 1921.65 68.9889" stroke="url(#paint4_linear)" stroke-width="0.4" stroke-miterlimit="10" stroke-linecap="round" stroke-linejoin="round"/>
<path d="M0.24292 239.483C107.024 289.655 341.455 645.149 676.613 469.048C922.591 339.659 1120.37 343.129 1297.84 334.866C1618.77 319.916 1614 73.401 1921.65 62.3655" stroke="url(#paint5_linear)" stroke-width="0.45" stroke-miterlimit="10" stroke-linecap="round" stroke-linejoin="round"/>
<path d="M0.19281 231.516C118.762 288.417 336.834 632.103 677.064 473.544C926.741 357.032 1125.41 357.233 1298.92 340.347C1612.99 309.79 1611.07 68.9889 1921.66 55.7422" stroke="url(#paint6_linear)" stroke-width="0.5" stroke-miterlimit="10" stroke-linecap="round" stroke-linejoin="round"/>
<path d="M0.13269 223.549C130.489 287.169 332.193 619.057 677.515 478.03C930.89 374.384 1130.45 371.305 1299.98 345.817C1607.21 299.622 1608.13 64.5557 1921.66 49.1082" stroke="url(#paint7_linear)" stroke-width="0.55" stroke-miterlimit="10" stroke-linecap="round" stroke-linejoin="round"/>
<path d="M0.0825195 215.581C142.217 285.921 327.562 606.012 677.966 482.527C935.04 391.757 1135.5 385.388 1301.04 351.308C1601.44 289.454 1605.21 60.1542 1921.66 42.4848" stroke="url(#paint8_linear)" stroke-width="0.65" stroke-miterlimit="10" stroke-linecap="round" stroke-linejoin="round"/>
<path d="M0.0223999 207.625C153.944 284.693 322.921 592.976 678.407 487.024C939.18 409.13 1140.54 399.449 1302.1 356.788C1595.66 279.265 1602.27 55.7422 1921.65 35.8615" stroke="url(#paint9_linear)" stroke-width="0.7" stroke-miterlimit="10" stroke-linecap="round" stroke-linejoin="round"/>
<path d="M-0.0377197 199.658C165.672 283.445 318.28 579.92 678.848 491.52C943.32 426.503 1145.58 413.5 1303.16 362.269C1589.88 269.045 1599.32 51.3195 1921.64 29.2381" stroke="url(#paint10_linear)" stroke-width="0.75" stroke-miterlimit="10" stroke-linecap="round" stroke-linejoin="round"/>
<path d="M-0.0878296 191.691C177.399 282.207 313.65 566.875 679.309 496.017C947.479 443.866 1150.64 427.54 1304.24 367.75C1584.13 258.803 1596.4 46.9075 1921.66 22.6147" stroke="url(#paint11_linear)" stroke-width="0.8" stroke-miterlimit="10" stroke-linecap="round" stroke-linejoin="round"/>
<path d="M-0.14801 183.724C189.127 280.958 309.009 553.829 679.75 500.503C951.619 461.228 1155.67 441.559 1305.29 373.22C1578.32 248.518 1593.47 42.4742 1921.65 15.9807" stroke="url(#paint12_linear)" stroke-width="0.85" stroke-miterlimit="10" stroke-linecap="round" stroke-linejoin="round"/>
<path d="M-0.19812 175.757C200.864 279.71 304.378 540.783 680.201 505C955.769 478.602 1160.7 455.568 1306.36 378.701C1572.54 238.234 1590.54 38.0622 1921.65 9.35736" stroke="url(#paint13_linear)" stroke-width="0.9" stroke-miterlimit="10" stroke-linecap="round" stroke-linejoin="round"/>
<path d="M-0.257324 167.8C212.593 278.482 299.748 527.748 680.643 509.507C959.91 495.985 1165.72 469.587 1307.42 384.203C1566.72 227.95 1587.59 33.6713 1921.64 2.75513" stroke="url(#paint14_linear)" stroke-width="0.95" stroke-miterlimit="10" stroke-linecap="round" stroke-linejoin="round"/>
<path d="M-0.307434 159.833C224.331 277.234 295.117 514.702 681.104 513.993C964.069 513.348 1170.75 483.574 1308.5 389.673C1560.91 217.613 1584.68 29.2381 1921.66 -3.87885" stroke="url(#paint15_linear)" stroke-miterlimit="10" stroke-linecap="round" stroke-linejoin="round"/>
<path d="M-0.367615 151.866C236.048 275.996 290.476 501.646 681.545 518.49C968.209 530.71 1175.75 497.562 1309.55 395.153C1555.05 207.276 1581.74 24.826 1921.65 -10.5022" stroke="url(#paint16_linear)" stroke-width="1.05" stroke-miterlimit="10" stroke-linecap="round" stroke-linejoin="round"/>
<path d="M-0.427734 143.899C247.776 274.747 285.835 488.6 681.986 522.987C972.349 548.084 1180.53 511.274 1310.61 400.634C1548.8 196.441 1578.8 20.4034 1921.65 -17.1256" stroke="url(#paint17_linear)" stroke-width="1.1" stroke-miterlimit="10" stroke-linecap="round" stroke-linejoin="round"/>
<path d="M-0.477844 135.932C259.513 273.51 281.204 475.565 682.437 527.483C976.499 565.457 1185.55 525.325 1311.68 406.115C1542.98 186.21 1575.87 15.9913 1921.64 -23.7596" stroke="url(#paint18_linear)" stroke-width="1.15" stroke-miterlimit="10" stroke-linecap="round" stroke-linejoin="round"/>
<path d="M-0.538025 127.975C271.241 272.272 276.563 462.519 682.888 531.969C980.648 582.819 1190.56 539.355 1312.75 411.585C1537.16 175.968 1572.94 11.5687 1921.65 -30.3935" stroke="url(#paint19_linear)" stroke-width="1.2" stroke-miterlimit="10" stroke-linecap="round" stroke-linejoin="round"/>
<path d="M-0.588135 120.008C282.968 271.023 271.932 449.474 683.339 536.466C984.798 600.182 1195.58 553.406 1313.81 417.076C1531.33 165.747 1570.01 7.15661 1921.65 -37.0063" stroke="url(#paint20_linear)" stroke-width="1.25" stroke-miterlimit="10" stroke-linecap="round" stroke-linejoin="round"/>
<path d="M-0.64917 112.04C294.695 269.785 267.291 436.427 683.79 540.962C988.937 617.554 1200.59 567.445 1314.88 422.556C1525.51 155.515 1567.09 2.74396 1921.66 -43.6303" stroke="url(#paint21_linear)" stroke-width="1.3" stroke-miterlimit="10" stroke-linecap="round" stroke-linejoin="round"/>
</g>
<defs>
<linearGradient id="paint0_linear" x1="0.523545" y1="314.83" x2="1921.65" y2="314.83" gradientUnits="userSpaceOnUse">
<stop stop-color="#00529B" stop-opacity="0.85"/>
<stop offset="0.203125" stop-color="#8DC63F" stop-opacity="0.15"/>
<stop offset="0.651042" stop-color="#DC4326" stop-opacity="0.5"/>
<stop offset="1" stop-color="#00529B"/>
</linearGradient>
<linearGradient id="paint1_linear" x1="0.473435" y1="309.682" x2="1921.65" y2="309.682" gradientUnits="userSpaceOnUse">
<stop stop-color="#00529B" stop-opacity="0.85"/>
<stop offset="0.203125" stop-color="#8DC63F" stop-opacity="0.15"/>
<stop offset="0.651042" stop-color="#DC4326" stop-opacity="0.5"/>
<stop offset="1" stop-color="#00529B"/>
</linearGradient>
<linearGradient id="paint2_linear" x1="0.413316" y1="304.624" x2="1921.66" y2="304.623" gradientUnits="userSpaceOnUse">
<stop stop-color="#00529B" stop-opacity="0.85"/>
<stop offset="0.203125" stop-color="#8DC63F" stop-opacity="0.15"/>
<stop offset="0.651042" stop-color="#DC4326" stop-opacity="0.5"/>
<stop offset="1" stop-color="#00529B"/>
</linearGradient>
<linearGradient id="paint3_linear" x1="0.363206" y1="299.647" x2="1921.66" y2="299.646" gradientUnits="userSpaceOnUse">
<stop stop-color="#00529B" stop-opacity="0.85"/>
<stop offset="0.203125" stop-color="#8DC63F" stop-opacity="0.15"/>
<stop offset="0.651042" stop-color="#DC4326" stop-opacity="0.5"/>
<stop offset="1" stop-color="#00529B"/>
</linearGradient>
<linearGradient id="paint4_linear" x1="0.303025" y1="294.767" x2="1921.65" y2="294.767" gradientUnits="userSpaceOnUse">
<stop stop-color="#00529B" stop-opacity="0.85"/>
<stop offset="0.203125" stop-color="#8DC63F" stop-opacity="0.15"/>
<stop offset="0.651042" stop-color="#DC4326" stop-opacity="0.5"/>
<stop offset="1" stop-color="#00529B"/>
</linearGradient>
<linearGradient id="paint5_linear" x1="0.242906" y1="289.999" x2="1921.65" y2="289.998" gradientUnits="userSpaceOnUse">
<stop stop-color="#00529B" stop-opacity="0.85"/>
<stop offset="0.203125" stop-color="#8DC63F" stop-opacity="0.15"/>
<stop offset="0.651042" stop-color="#DC4326" stop-opacity="0.5"/>
<stop offset="1" stop-color="#00529B"/>
</linearGradient>
<linearGradient id="paint6_linear" x1="0.192796" y1="285.357" x2="1921.66" y2="285.357" gradientUnits="userSpaceOnUse">
<stop stop-color="#00529B" stop-opacity="0.85"/>
<stop offset="0.203125" stop-color="#8DC63F" stop-opacity="0.15"/>
<stop offset="0.651042" stop-color="#DC4326" stop-opacity="0.5"/>
<stop offset="1" stop-color="#00529B"/>
</linearGradient>
<linearGradient id="paint7_linear" x1="0.132676" y1="280.854" x2="1921.66" y2="280.854" gradientUnits="userSpaceOnUse">
<stop stop-color="#00529B" stop-opacity="0.85"/>
<stop offset="0.203125" stop-color="#8DC63F" stop-opacity="0.15"/>
<stop offset="0.651042" stop-color="#DC4326" stop-opacity="0.5"/>
<stop offset="1" stop-color="#00529B"/>
</linearGradient>
<linearGradient id="paint8_linear" x1="0.0825052" y1="276.529" x2="1921.66" y2="276.529" gradientUnits="userSpaceOnUse">
<stop stop-color="#00529B" stop-opacity="0.85"/>
<stop offset="0.203125" stop-color="#8DC63F" stop-opacity="0.15"/>
<stop offset="0.651042" stop-color="#DC4326" stop-opacity="0.5"/>
<stop offset="1" stop-color="#00529B"/>
</linearGradient>
<linearGradient id="paint9_linear" x1="0.0223856" y1="272.408" x2="1921.65" y2="272.407" gradientUnits="userSpaceOnUse">
<stop stop-color="#00529B" stop-opacity="0.85"/>
<stop offset="0.203125" stop-color="#8DC63F" stop-opacity="0.15"/>
<stop offset="0.651042" stop-color="#DC4326" stop-opacity="0.5"/>
<stop offset="1" stop-color="#00529B"/>
</linearGradient>
<linearGradient id="paint10_linear" x1="-0.037734" y1="268.52" x2="1921.64" y2="268.52" gradientUnits="userSpaceOnUse">
<stop stop-color="#00529B" stop-opacity="0.85"/>
<stop offset="0.203125" stop-color="#8DC63F" stop-opacity="0.15"/>
<stop offset="0.651042" stop-color="#DC4326" stop-opacity="0.5"/>
<stop offset="1" stop-color="#00529B"/>
</linearGradient>
<linearGradient id="paint11_linear" x1="-0.0878439" y1="264.921" x2="1921.66" y2="264.921" gradientUnits="userSpaceOnUse">
<stop stop-color="#00529B" stop-opacity="0.85"/>
<stop offset="0.203125" stop-color="#8DC63F" stop-opacity="0.15"/>
<stop offset="0.651042" stop-color="#DC4326" stop-opacity="0.5"/>
<stop offset="1" stop-color="#00529B"/>
</linearGradient>
<linearGradient id="paint12_linear" x1="-0.148025" y1="261.663" x2="1921.65" y2="261.663" gradientUnits="userSpaceOnUse">
<stop stop-color="#00529B" stop-opacity="0.85"/>
<stop offset="0.203125" stop-color="#8DC63F" stop-opacity="0.15"/>
<stop offset="0.651042" stop-color="#DC4326" stop-opacity="0.5"/>
<stop offset="1" stop-color="#00529B"/>
</linearGradient>
<linearGradient id="paint13_linear" x1="-0.198134" y1="258.85" x2="1921.65" y2="258.849" gradientUnits="userSpaceOnUse">
<stop stop-color="#00529B" stop-opacity="0.85"/>
<stop offset="0.203125" stop-color="#8DC63F" stop-opacity="0.15"/>
<stop offset="0.651042" stop-color="#DC4326" stop-opacity="0.5"/>
<stop offset="1" stop-color="#00529B"/>
</linearGradient>
<linearGradient id="paint14_linear" x1="-0.257339" y1="256.606" x2="1921.64" y2="256.606" gradientUnits="userSpaceOnUse">
<stop stop-color="#00529B" stop-opacity="0.85"/>
<stop offset="0.203125" stop-color="#8DC63F" stop-opacity="0.15"/>
<stop offset="0.651042" stop-color="#DC4326" stop-opacity="0.5"/>
<stop offset="1" stop-color="#00529B"/>
</linearGradient>
<linearGradient id="paint15_linear" x1="-0.307448" y1="255.058" x2="1921.66" y2="255.058" gradientUnits="userSpaceOnUse">
<stop stop-color="#00529B" stop-opacity="0.85"/>
<stop offset="0.203125" stop-color="#8DC63F" stop-opacity="0.15"/>
<stop offset="0.651042" stop-color="#DC4326" stop-opacity="0.5"/>
<stop offset="1" stop-color="#00529B"/>
</linearGradient>
<linearGradient id="paint16_linear" x1="-0.367629" y1="255.201" x2="1921.65" y2="255.2" gradientUnits="userSpaceOnUse">
<stop stop-color="#00529B" stop-opacity="0.85"/>
<stop offset="0.203125" stop-color="#8DC63F" stop-opacity="0.15"/>
<stop offset="0.651042" stop-color="#DC4326" stop-opacity="0.5"/>
<stop offset="1" stop-color="#00529B"/>
</linearGradient>
<linearGradient id="paint17_linear" x1="-0.427749" y1="256.698" x2="1921.65" y2="256.698" gradientUnits="userSpaceOnUse">
<stop stop-color="#00529B" stop-opacity="0.85"/>
<stop offset="0.203125" stop-color="#8DC63F" stop-opacity="0.15"/>
<stop offset="0.651042" stop-color="#DC4326" stop-opacity="0.5"/>
<stop offset="1" stop-color="#00529B"/>
</linearGradient>
<linearGradient id="paint18_linear" x1="-0.477859" y1="258.778" x2="1921.64" y2="258.778" gradientUnits="userSpaceOnUse">
<stop stop-color="#00529B" stop-opacity="0.85"/>
<stop offset="0.203125" stop-color="#8DC63F" stop-opacity="0.15"/>
<stop offset="0.651042" stop-color="#DC4326" stop-opacity="0.5"/>
<stop offset="1" stop-color="#00529B"/>
</linearGradient>
<linearGradient id="paint19_linear" x1="-0.538039" y1="261.169" x2="1921.65" y2="261.169" gradientUnits="userSpaceOnUse">
<stop stop-color="#00529B" stop-opacity="0.85"/>
<stop offset="0.203125" stop-color="#8DC63F" stop-opacity="0.15"/>
<stop offset="0.651042" stop-color="#DC4326" stop-opacity="0.5"/>
<stop offset="1" stop-color="#00529B"/>
</linearGradient>
<linearGradient id="paint20_linear" x1="-0.588149" y1="263.77" x2="1921.65" y2="263.77" gradientUnits="userSpaceOnUse">
<stop stop-color="#00529B" stop-opacity="0.85"/>
<stop offset="0.203125" stop-color="#8DC63F" stop-opacity="0.15"/>
<stop offset="0.651042" stop-color="#DC4326" stop-opacity="0.5"/>
<stop offset="1" stop-color="#00529B"/>
</linearGradient>
<linearGradient id="paint21_linear" x1="-0.649184" y1="266.497" x2="1921.66" y2="266.497" gradientUnits="userSpaceOnUse">
<stop stop-color="#00529B" stop-opacity="0.85"/>
<stop offset="0.203125" stop-color="#8DC63F" stop-opacity="0.15"/>
<stop offset="0.651042" stop-color="#DC4326" stop-opacity="0.5"/>
<stop offset="1" stop-color="#00529B"/>
</linearGradient>
<clipPath id="clip0">
<rect x="-1" y="-44" width="1923" height="621" fill="white"/>
</clipPath>
</defs>
</svg>
