<svg width="1920" height="1532" viewBox="0 0 1920 1532" fill="none" xmlns="http://www.w3.org/2000/svg">
<g opacity="0.14">
<path d="M-706.865 987.635C-299.028 1105.78 -5.65584 471.19 872.376 569.563C1754.76 668.432 2324.28 650.198 2513.38 234.953C2662.24 -91.9091 2661.92 -280.435 2789 -338.591" stroke="#96D0FF" stroke-width="2" stroke-linecap="round" stroke-linejoin="round" stroke-dasharray="0.01 10"/>
<path d="M-700.049 1012.47C-408.07 1080.95 -179.259 787.929 224.909 632.712C395.759 567.093 598.004 525.611 850.002 548.637C1026.47 564.77 1191.87 580.611 1343.4 591.836C1930.18 635.336 2334.66 594.788 2486.4 261.719C2577.72 61.2848 2615.99 -106.791 2674.25 -203.964C2711.15 -265.521 2743.56 -303.332 2793.61 -320.532" stroke="#96D0FF" stroke-width="2" stroke-linecap="round" stroke-linejoin="round" stroke-dasharray="0.01 10"/>
<path d="M-693.255 1037.3C-398.585 1090.46 -172.315 798.314 212.07 632.363C380.584 559.601 578.914 510.184 827.595 527.735C1004.11 540.197 1170.85 556.73 1323.05 571.103C1892.91 624.893 2307.17 622.441 2459.38 288.51C2552.31 84.6881 2592.27 -103.936 2667.91 -200.778C2713.32 -258.924 2748.53 -291.185 2798.24 -302.509" stroke="#96D0FF" stroke-width="2" stroke-linecap="round" stroke-linejoin="round" stroke-dasharray="0.01 10"/>
<path d="M-686.466 1062.12C-389.082 1099.97 -165.177 807.624 199.268 632.004C365.761 551.775 559.923 494.681 805.243 506.819C981.823 515.554 1149.82 532.79 1302.75 550.355C1855.64 613.888 2279.74 650.079 2432.42 315.271C2526.93 108.067 2567.53 -100.759 2661.61 -197.636C2714.76 -252.355 2753.52 -279.143 2803.02 -284.59" stroke="#96D0FF" stroke-width="2" stroke-linecap="round" stroke-linejoin="round" stroke-dasharray="0.01 10"/>
<path d="M-679.721 1086.91C-379.601 1109.47 -158.022 815.794 186.463 631.631C351.196 543.56 540.965 479.075 782.87 485.892C959.587 490.865 1128.74 508.735 1282.46 529.607C1818.38 602.356 2252.3 677.717 2405.44 342.052C2501.55 131.445 2541.79 -97.5854 2655.33 -194.465C2715.61 -245.899 2758.54 -267.106 2807.89 -266.647" stroke="#96D0FF" stroke-width="2" stroke-linecap="round" stroke-linejoin="round" stroke-dasharray="0.01 10"/>
<path d="M-673.019 1111.7C-370.14 1118.97 -151.001 822.866 173.619 631.267C336.753 534.976 522.028 463.398 760.477 464.971C937.362 466.142 1107.62 484.596 1262.12 508.854C1781.09 590.301 2224.83 705.365 2378.43 368.823C2476.13 154.834 2515.24 -94.6778 2648.99 -191.313C2715.98 -239.701 2763.53 -255.128 2812.84 -248.708" stroke="#96D0FF" stroke-width="2" stroke-linecap="round" stroke-linejoin="round" stroke-dasharray="0.01 10"/>
<path d="M-666.335 1136.5C-360.716 1128.48 -144.237 828.902 160.818 630.909C322.447 526.004 503.188 447.632 738.107 444.059C915.181 441.359 1086.5 460.393 1241.81 488.111C1743.89 577.743 2197.38 733.008 2351.43 395.594C2450.74 178.217 2488.16 -92.2318 2642.67 -188.147C2716.11 -233.741 2768.58 -243.131 2817.84 -230.705" stroke="#96D0FF" stroke-width="2" stroke-linecap="round" stroke-linejoin="round" stroke-dasharray="0.01 10"/>
<path d="M-659.692 1161.29C-351.295 1137.98 -137.876 833.96 147.994 630.54C308.076 516.634 484.362 431.766 715.715 423.138C893.026 416.522 1065.36 436.05 1221.49 467.354C1706.76 564.673 2169.92 760.636 2324.44 422.36C2425.33 201.585 2460.72 -90.2673 2636.37 -185.005C2716.15 -228.029 2773.72 -231.144 2822.92 -212.673" stroke="#96D0FF" stroke-width="2" stroke-linecap="round" stroke-linejoin="round" stroke-dasharray="0.01 10"/>
<path d="M-653.088 1186.09C-341.913 1147.49 -132.007 838.159 135.169 630.172C293.577 506.866 465.571 415.81 693.341 402.212C870.911 391.609 1044.25 411.602 1201.17 446.596C1669.75 551.105 2142.47 788.279 2297.46 449.126C2399.95 224.964 2433.08 -88.8098 2630.06 -181.844C2716.14 -222.511 2778.89 -219.117 2828.02 -194.536" stroke="#96D0FF" stroke-width="2" stroke-linecap="round" stroke-linejoin="round" stroke-dasharray="0.01 10"/>
<path d="M-646.516 1210.91C-332.544 1157.01 -126.732 841.637 122.349 629.818C278.825 496.751 446.818 399.765 670.953 381.305C848.784 366.652 1023.16 387.04 1180.86 425.868C1632.87 537.133 2115.02 815.922 2270.46 475.912C2374.54 248.367 2405.35 -87.79 2623.73 -178.677C2716.16 -217.142 2784.1 -207.036 2833.09 -176.344" stroke="#96D0FF" stroke-width="2" stroke-linecap="round" stroke-linejoin="round" stroke-dasharray="0.01 10"/>
<path d="M-639.982 1235.75C-323.214 1166.55 -122.085 844.501 109.528 629.464C263.739 486.293 428.058 383.625 648.583 360.394C826.701 341.635 1002.11 362.369 1160.55 405.125C1596.16 522.704 2087.57 843.58 2243.48 502.693C2349.16 271.746 2377.65 -87.178 2617.44 -175.506C2716.23 -211.903 2789.36 -194.905 2838.21 -158.083" stroke="#96D0FF" stroke-width="2" stroke-linecap="round" stroke-linejoin="round" stroke-dasharray="0.01 10"/>
<path d="M-633.467 1260.59C-313.905 1176.08 -118.103 846.903 96.7043 629.096C248.2 475.493 409.313 367.385 626.191 339.472C804.61 316.508 981.122 337.523 1140.21 384.372C1559.59 507.851 2060.11 871.208 2216.48 529.464C2323.75 295.134 2350 -86.9298 2611.11 -172.354C2716.34 -206.784 2794.6 -182.769 2843.23 -139.797" stroke="#96D0FF" stroke-width="2" stroke-linecap="round" stroke-linejoin="round" stroke-dasharray="0.01 10"/>
<path d="M-626.981 1285.47C-304.59 1185.64 -114.832 848.984 83.8987 628.722C232.13 464.436 390.577 351.032 603.836 318.541C782.54 291.312 960.234 312.537 1119.93 363.604C1523.32 492.599 2032.69 898.841 2189.51 556.225C2298.39 318.507 2332.56 -60.9954 2604.82 -169.198C2712.56 -212.023 2799.75 -170.991 2848.3 -121.476" stroke="#96D0FF" stroke-width="2" stroke-linecap="round" stroke-linejoin="round" stroke-dasharray="0.01 10"/>
<path d="M-620.511 1310.37C-295.308 1195.22 -112.219 850.858 71.0739 628.354C215.411 453.137 371.821 334.603 581.443 297.619C760.426 266.031 939.411 287.422 1099.6 342.866C1487.2 477.033 2005.22 926.489 2162.51 582.996C2272.97 341.881 2302.88 -62.9704 2598.51 -166.051C2713.75 -206.235 2805.06 -158.73 2853.32 -103.125" stroke="#96D0FF" stroke-width="2" stroke-linecap="round" stroke-linejoin="round" stroke-dasharray="0.01 10"/>
<path d="M-614.05 1335.3C-286.025 1204.8 -110.285 852.674 58.2764 628.01C198.055 441.705 353.049 318.115 559.097 276.718C738.343 240.711 918.768 262.148 1079.31 322.133C1451.4 461.143 1977.79 954.142 2135.53 609.792C2247.6 365.289 2273.62 -65.5535 2592.2 -162.875C2714.87 -200.347 2810.37 -146.435 2858.31 -84.704" stroke="#96D0FF" stroke-width="2" stroke-linecap="round" stroke-linejoin="round" stroke-dasharray="0.01 10"/>
<path d="M-607.609 1360.24C-276.758 1214.41 -109.029 854.511 45.4333 627.646C179.92 430.146 334.208 301.518 536.685 255.801C716.148 215.276 898.178 236.699 1058.97 301.38C1415.82 444.939 1950.32 981.775 2108.53 636.563C2222.18 388.677 2240.44 -88.3318 2585.87 -159.708C2717.52 -186.91 2815.72 -133.897 2863.26 -66.3031" stroke="#96D0FF" stroke-width="2" stroke-linecap="round" stroke-linejoin="round" stroke-dasharray="0.01 10"/>
<path d="M-601.174 1385.23C-267.49 1224.01 -108.362 856.475 32.6278 627.273C161.046 418.529 317.088 291.27 514.312 234.875C692.417 183.954 877.8 211.065 1038.65 280.623C1380.55 428.475 1922.86 1009.42 2081.54 663.314C2196.8 412.041 2213.33 -89.1096 2579.57 -156.582C2717.97 -182.075 2821.01 -121.646 2868.25 -47.9121" stroke="#96D0FF" stroke-width="2" stroke-linecap="round" stroke-linejoin="round" stroke-dasharray="0.01 10"/>
<path d="M-594.74 1410.22C-258.219 1233.63 -108.279 858.659 19.8072 626.919C141.392 406.93 298.084 273.469 491.942 213.963C670.233 159.236 857.618 185.267 1018.34 259.895C1345.6 411.812 1895.41 1037.08 2054.55 690.115C2171.38 435.444 2186.31 -89.9426 2573.25 -153.386C2718.47 -177.206 2826.28 -109.326 2873.18 -29.4416" stroke="#96D0FF" stroke-width="2" stroke-linecap="round" stroke-linejoin="round" stroke-dasharray="0.01 10"/>
<path d="M-588.316 1435.24C-248.961 1243.26 -108.704 861.123 6.98743 626.566C120.999 395.416 277.466 251.289 469.554 193.057C649.426 138.529 837.635 159.303 998.027 239.152C1310.99 394.949 1867.96 1064.72 2027.57 716.896C2146.01 458.838 2159.38 -90.8802 2566.94 -150.224C2719.03 -172.366 2831.57 -97.0261 2878.1 -11.0006" stroke="#96D0FF" stroke-width="2" stroke-linecap="round" stroke-linejoin="round" stroke-dasharray="0.01 10"/>
<path d="M-581.889 1460.28C-239.701 1252.92 -109.6 863.936 -5.83779 626.197C99.8709 384.02 258.409 234.414 447.179 172.13C627.064 112.772 817.895 133.131 977.708 218.394C1276.71 377.915 1840.5 1092.35 2000.58 743.648C2120.61 482.206 2132.55 -91.9075 2560.65 -147.082C2719.63 -167.571 2836.85 -84.7408 2883.04 7.4353" stroke="#96D0FF" stroke-width="2" stroke-linecap="round" stroke-linejoin="round" stroke-dasharray="0.01 10"/>
<path d="M-575.476 1485.34C-230.422 1262.56 -110.914 867.134 -18.662 625.829C78.0648 372.789 239.28 217.494 424.787 151.209C604.608 86.9595 798.388 106.768 957.39 197.636C1242.81 360.766 1813.05 1119.99 1973.58 770.418C2095.21 505.575 2105.77 -92.965 2554.32 -143.931C2720.23 -162.776 2842.12 -72.4358 2887.92 25.8861" stroke="#96D0FF" stroke-width="2" stroke-linecap="round" stroke-linejoin="round" stroke-dasharray="0.01 10"/>
<path d="M-569.054 1510.43C-221.156 1272.23 -112.56 870.741 -31.482 625.475C141.585 101.981 619.003 -17.8531 937.076 176.893C1209.29 343.561 1785.6 1147.63 1946.6 797.199C2069.81 528.973 2079.1 -94.0676 2548.01 -140.755C2720.89 -157.967 2847.39 -60.1008 2892.84 44.3767" stroke="#96D0FF" stroke-width="2" stroke-linecap="round" stroke-linejoin="round" stroke-dasharray="0.01 10"/>
</g>
</svg>
