<svg width="1920" height="761" viewBox="0 0 1920 761" fill="none" xmlns="http://www.w3.org/2000/svg">
<g clip-path="url(#clip0)">
<path d="M1.10999 254.49C66.0707 265.785 190.502 336.2 329.813 491.779C500.745 682.688 786.858 611.729 963.73 476.13C1141.79 339.621 1267.56 265.652 1421.56 290.985C1548.35 311.843 1650.98 371.663 1757.31 321.406C1830.88 286.643 1913.83 109.317 1921.66 27.6178" stroke="url(#paint0_linear)" stroke-width="0.1" stroke-miterlimit="10" stroke-linecap="round" stroke-linejoin="round"/>
<path d="M1.02997 240.673C72.7907 256.156 197.022 335.067 332.643 491.28C503.545 688.142 790.028 622.092 964.77 483.694C1139.74 345.763 1262.58 256.966 1420.04 283.167C1548.9 304.591 1649.36 381.126 1758.12 331.513C1832.43 297.405 1913.82 124.1 1921.65 42.4005" stroke="url(#paint1_linear)" stroke-width="0.1286" stroke-miterlimit="10" stroke-linecap="round" stroke-linejoin="round"/>
<path d="M0.940002 226.857C79.5008 246.515 203.472 334.023 335.473 490.78C506.325 693.673 792.928 632.054 965.82 491.257C1137.44 351.494 1257.6 248.281 1418.54 275.348C1549.47 297.327 1647.84 390.833 1758.95 341.609C1834.07 308.334 1913.83 138.882 1921.66 57.1721" stroke="url(#paint2_linear)" stroke-width="0.1571" stroke-miterlimit="10" stroke-linecap="round" stroke-linejoin="round"/>
<path d="M0.859985 213.04C86.2209 236.886 209.872 333.068 338.303 490.291C509.055 699.304 795.968 642.261 966.86 498.821C1135.27 357.469 1252.62 239.596 1417.03 267.529C1550.03 290.064 1646.25 400.406 1759.77 351.716C1835.65 319.174 1913.83 153.665 1921.66 71.9548" stroke="url(#paint3_linear)" stroke-width="0.1857" stroke-miterlimit="10" stroke-linecap="round" stroke-linejoin="round"/>
<path d="M0.779968 199.224C92.9409 227.245 216.212 332.202 341.144 489.78C511.755 704.99 799.028 652.468 967.91 506.373C1133.12 363.455 1247.64 230.899 1415.52 259.687C1550.59 282.789 1644.66 409.936 1760.59 361.8C1837.24 329.969 1913.83 168.426 1921.66 86.7153" stroke="url(#paint4_linear)" stroke-width="0.2143" stroke-miterlimit="10" stroke-linecap="round" stroke-linejoin="round"/>
<path d="M0.690002 185.418C99.651 217.616 222.482 331.413 343.974 489.302C514.395 710.799 802.088 662.73 968.95 513.959C1130.97 369.486 1242.65 222.225 1414.01 251.88C1551.14 275.536 1643.06 419.487 1761.41 371.907C1838.81 340.787 1913.83 183.208 1921.66 101.498" stroke="url(#paint5_linear)" stroke-width="0.2429" stroke-miterlimit="10" stroke-linecap="round" stroke-linejoin="round"/>
<path d="M0.609985 171.602C106.371 207.987 228.712 330.68 346.804 488.803C516.975 716.652 805.158 672.992 969.99 521.511C1128.84 375.528 1237.67 213.54 1412.5 244.061C1551.7 268.273 1641.45 429.017 1762.22 382.014C1840.38 351.593 1913.82 197.991 1921.65 116.292" stroke="url(#paint6_linear)" stroke-width="0.2714" stroke-miterlimit="10" stroke-linecap="round" stroke-linejoin="round"/>
<path d="M0.519958 157.786C113.091 198.346 234.882 330.025 349.634 488.303C519.495 722.594 808.238 683.288 971.03 529.075C1126.72 381.592 1232.68 204.855 1410.99 236.231C1552.26 260.998 1639.84 438.524 1763.04 392.11C1841.95 362.378 1913.82 212.763 1921.65 131.063" stroke="url(#paint7_linear)" stroke-width="0.3" stroke-miterlimit="10" stroke-linecap="round" stroke-linejoin="round"/>
<path d="M0.440002 143.969C119.811 188.717 240.992 329.414 352.464 487.803C521.945 728.602 811.338 693.595 972.07 536.638C1124.61 387.689 1227.7 196.17 1409.47 228.412C1552.81 253.745 1638.22 448.02 1763.85 402.206C1843.5 373.162 1913.81 227.534 1921.64 145.835" stroke="url(#paint8_linear)" stroke-width="0.3286" stroke-miterlimit="10" stroke-linecap="round" stroke-linejoin="round"/>
<path d="M0.359985 130.153C126.531 179.077 247.053 328.87 355.304 487.303C524.335 734.689 814.458 703.924 973.12 544.191C1122.52 393.787 1222.72 187.473 1407.97 220.582C1553.38 246.471 1636.61 457.494 1764.68 412.301C1845.08 383.924 1913.82 242.306 1921.65 160.607" stroke="url(#paint9_linear)" stroke-width="0.3571" stroke-miterlimit="10" stroke-linecap="round" stroke-linejoin="round"/>
<path d="M0.269958 116.347C133.241 169.447 253.043 328.381 358.134 486.815C526.635 740.853 817.578 714.286 974.16 551.765C1120.45 399.929 1217.74 178.799 1406.46 212.763C1553.94 239.207 1634.99 466.967 1765.5 422.408C1846.64 394.698 1913.82 257.1 1921.65 175.389" stroke="url(#paint10_linear)" stroke-width="0.45" stroke-miterlimit="10" stroke-linecap="round" stroke-linejoin="round"/>
<path d="M0.190002 102.531C139.961 159.818 258.993 327.914 360.964 486.315C528.845 747.084 820.729 724.66 975.21 559.329C1118.39 406.082 1212.76 170.114 1404.96 204.944C1554.5 231.955 1633.37 476.43 1766.33 432.504C1848.21 405.449 1913.83 271.871 1921.66 190.161" stroke="url(#paint11_linear)" stroke-width="0.5" stroke-miterlimit="10" stroke-linecap="round" stroke-linejoin="round"/>
<path d="M0.0999756 88.7145C146.672 150.178 264.883 327.503 363.794 485.815C530.965 753.381 823.889 735.055 976.25 566.881C1116.35 412.246 1207.78 161.417 1403.44 197.114C1555.05 224.68 1631.73 485.871 1767.14 442.6C1849.76 416.2 1913.82 286.643 1921.65 204.933" stroke="url(#paint12_linear)" stroke-width="0.6" stroke-miterlimit="10" stroke-linecap="round" stroke-linejoin="round"/>
<path d="M0.0199585 74.8981C153.392 140.548 270.733 327.126 366.634 485.315C532.996 759.745 827.078 745.473 977.3 574.445C1114.33 418.432 1202.8 152.732 1401.94 189.295C1555.62 217.416 1630.11 495.311 1767.97 452.707C1851.33 426.951 1913.83 301.426 1921.66 219.715" stroke="url(#paint13_linear)" stroke-width="0.7" stroke-miterlimit="10" stroke-linecap="round" stroke-linejoin="round"/>
<path d="M-0.0599976 61.0927C160.112 130.919 276.523 326.782 369.464 484.827C534.916 766.187 830.279 755.913 978.34 582.019C1112.32 424.652 1197.81 144.058 1400.43 181.476C1556.18 210.164 1628.48 504.729 1768.79 462.802C1852.88 437.68 1913.83 316.197 1921.66 234.487" stroke="url(#paint14_linear)" stroke-width="0.8" stroke-miterlimit="10" stroke-linecap="round" stroke-linejoin="round"/>
<path d="M-0.150024 47.2763C166.832 121.279 282.263 326.459 372.294 484.327C536.736 772.684 833.499 766.375 979.38 589.572C1110.33 430.871 1192.83 135.373 1398.91 173.646C1556.73 202.889 1626.83 514.137 1769.6 472.898C1854.42 448.397 1913.82 330.969 1921.65 249.27" stroke="url(#paint15_linear)" stroke-width="0.95" stroke-miterlimit="10" stroke-linecap="round" stroke-linejoin="round"/>
<path d="M-0.230042 33.4598C173.552 111.649 287.963 326.16 375.124 483.827C538.446 779.226 836.749 776.838 980.42 597.135C1108.36 437.113 1187.84 126.688 1397.4 165.827C1557.29 195.625 1625.19 523.533 1770.42 483.005C1855.98 459.126 1913.82 345.751 1921.65 264.052" stroke="url(#paint16_linear)" stroke-width="1.1" stroke-miterlimit="10" stroke-linecap="round" stroke-linejoin="round"/>
<path d="M-0.309998 19.6434C180.262 102.009 293.603 325.882 377.964 483.338C540.046 785.856 840.029 787.345 981.47 604.71C1106.42 443.377 1182.87 118.013 1395.9 158.008C1557.85 188.373 1623.56 532.918 1771.25 493.101C1857.54 469.844 1913.83 360.523 1921.66 278.824" stroke="url(#paint17_linear)" stroke-width="1.23" stroke-miterlimit="10" stroke-linecap="round" stroke-linejoin="round"/>
<path d="M-0.400024 5.82693C186.982 92.3796 299.203 325.615 380.794 482.827C541.506 792.509 843.329 797.851 982.51 612.262C1104.49 449.63 1177.88 109.317 1394.39 150.178C1558.41 181.098 1621.92 542.28 1772.06 503.197C1859.08 480.539 1913.82 375.295 1921.65 293.595" stroke="url(#paint18_linear)" stroke-width="1.33" stroke-miterlimit="10" stroke-linecap="round" stroke-linejoin="round"/>
<path d="M-0.480042 -7.97839C193.702 82.7503 304.753 325.371 383.624 482.35C542.856 799.24 846.649 808.38 983.56 619.837C1102.59 455.917 1172.91 100.643 1392.88 142.37C1558.97 173.846 1620.23 551.421 1772.88 513.315C1860.61 491.124 1913.82 390.1 1921.65 308.389" stroke="url(#paint19_linear)" stroke-width="1.42" stroke-miterlimit="10" stroke-linecap="round" stroke-linejoin="round"/>
<path d="M-0.570007 -21.7948C200.412 73.1099 310.253 325.127 386.454 481.85C544.066 806.003 850.209 819.098 984.6 627.389C1100.88 462.347 1167.92 91.9465 1391.37 134.529C1559.53 166.56 1618.61 560.861 1773.7 523.388C1862.17 501.864 1913.82 404.849 1921.65 323.139" stroke="url(#paint20_linear)" stroke-width="1.52" stroke-miterlimit="10" stroke-linecap="round" stroke-linejoin="round"/>
<path d="M-0.650024 -35.6109C207.132 63.481 315.723 324.894 389.284 481.351C545.146 812.823 853.379 829.461 985.64 634.953C1098.83 468.489 1162.94 83.2616 1389.86 126.71C1560.09 159.308 1617 570.325 1774.52 533.496C1863.74 512.638 1913.82 419.632 1921.65 337.922" stroke="url(#paint21_linear)" stroke-width="1.6" stroke-miterlimit="10" stroke-linecap="round" stroke-linejoin="round"/>
</g>
<defs>
<linearGradient id="paint0_linear" x1="1.10997" y1="318.056" x2="1921.66" y2="318.056" gradientUnits="userSpaceOnUse">
<stop offset="0.109375" stop-color="#FDB913" stop-opacity="0.4"/>
<stop offset="0.255208" stop-color="#B61C21" stop-opacity="0.6"/>
<stop offset="0.666667" stop-color="#0E43B2"/>
<stop offset="0.833333" stop-color="#B61C21" stop-opacity="0.7"/>
</linearGradient>
<linearGradient id="paint1_linear" x1="1.02995" y1="328.548" x2="1921.65" y2="328.548" gradientUnits="userSpaceOnUse">
<stop offset="0.109375" stop-color="#FDB913" stop-opacity="0.4"/>
<stop offset="0.255208" stop-color="#B61C21" stop-opacity="0.6"/>
<stop offset="0.666667" stop-color="#0E43B2"/>
<stop offset="0.833333" stop-color="#B61C21" stop-opacity="0.7"/>
</linearGradient>
<linearGradient id="paint2_linear" x1="0.939988" y1="339.039" x2="1921.66" y2="339.039" gradientUnits="userSpaceOnUse">
<stop offset="0.109375" stop-color="#FDB913" stop-opacity="0.4"/>
<stop offset="0.255208" stop-color="#B61C21" stop-opacity="0.6"/>
<stop offset="0.666667" stop-color="#0E43B2"/>
<stop offset="0.833333" stop-color="#B61C21" stop-opacity="0.7"/>
</linearGradient>
<linearGradient id="paint3_linear" x1="0.859971" y1="349.65" x2="1921.66" y2="349.65" gradientUnits="userSpaceOnUse">
<stop offset="0.109375" stop-color="#FDB913" stop-opacity="0.4"/>
<stop offset="0.255208" stop-color="#B61C21" stop-opacity="0.6"/>
<stop offset="0.666667" stop-color="#0E43B2"/>
<stop offset="0.833333" stop-color="#B61C21" stop-opacity="0.7"/>
</linearGradient>
<linearGradient id="paint4_linear" x1="0.779954" y1="360.307" x2="1921.66" y2="360.307" gradientUnits="userSpaceOnUse">
<stop offset="0.109375" stop-color="#FDB913" stop-opacity="0.4"/>
<stop offset="0.255208" stop-color="#B61C21" stop-opacity="0.6"/>
<stop offset="0.666667" stop-color="#0E43B2"/>
<stop offset="0.833333" stop-color="#B61C21" stop-opacity="0.7"/>
</linearGradient>
<linearGradient id="paint5_linear" x1="0.689988" y1="371.059" x2="1921.66" y2="371.058" gradientUnits="userSpaceOnUse">
<stop offset="0.109375" stop-color="#FDB913" stop-opacity="0.4"/>
<stop offset="0.255208" stop-color="#B61C21" stop-opacity="0.6"/>
<stop offset="0.666667" stop-color="#0E43B2"/>
<stop offset="0.833333" stop-color="#B61C21" stop-opacity="0.7"/>
</linearGradient>
<linearGradient id="paint6_linear" x1="0.609971" y1="381.864" x2="1921.65" y2="381.864" gradientUnits="userSpaceOnUse">
<stop offset="0.109375" stop-color="#FDB913" stop-opacity="0.4"/>
<stop offset="0.255208" stop-color="#B61C21" stop-opacity="0.6"/>
<stop offset="0.666667" stop-color="#0E43B2"/>
<stop offset="0.833333" stop-color="#B61C21" stop-opacity="0.7"/>
</linearGradient>
<linearGradient id="paint7_linear" x1="0.519944" y1="392.721" x2="1921.65" y2="392.721" gradientUnits="userSpaceOnUse">
<stop offset="0.109375" stop-color="#FDB913" stop-opacity="0.4"/>
<stop offset="0.255208" stop-color="#B61C21" stop-opacity="0.6"/>
<stop offset="0.666667" stop-color="#0E43B2"/>
<stop offset="0.833333" stop-color="#B61C21" stop-opacity="0.7"/>
</linearGradient>
<linearGradient id="paint8_linear" x1="0.439988" y1="402.697" x2="1921.64" y2="402.697" gradientUnits="userSpaceOnUse">
<stop offset="0.109375" stop-color="#FDB913" stop-opacity="0.4"/>
<stop offset="0.255208" stop-color="#B61C21" stop-opacity="0.6"/>
<stop offset="0.666667" stop-color="#0E43B2"/>
<stop offset="0.833333" stop-color="#B61C21" stop-opacity="0.7"/>
</linearGradient>
<linearGradient id="paint9_linear" x1="0.359971" y1="399.363" x2="1921.65" y2="399.363" gradientUnits="userSpaceOnUse">
<stop offset="0.109375" stop-color="#FDB913" stop-opacity="0.4"/>
<stop offset="0.255208" stop-color="#B61C21" stop-opacity="0.6"/>
<stop offset="0.666667" stop-color="#0E43B2"/>
<stop offset="0.833333" stop-color="#B61C21" stop-opacity="0.7"/>
</linearGradient>
<linearGradient id="paint10_linear" x1="0.269944" y1="396.09" x2="1921.65" y2="396.09" gradientUnits="userSpaceOnUse">
<stop offset="0.109375" stop-color="#FDB913" stop-opacity="0.4"/>
<stop offset="0.255208" stop-color="#B61C21" stop-opacity="0.6"/>
<stop offset="0.666667" stop-color="#0E43B2"/>
<stop offset="0.833333" stop-color="#B61C21" stop-opacity="0.7"/>
</linearGradient>
<linearGradient id="paint11_linear" x1="0.189988" y1="392.853" x2="1921.66" y2="392.853" gradientUnits="userSpaceOnUse">
<stop offset="0.109375" stop-color="#FDB913" stop-opacity="0.4"/>
<stop offset="0.255208" stop-color="#B61C21" stop-opacity="0.6"/>
<stop offset="0.666667" stop-color="#0E43B2"/>
<stop offset="0.833333" stop-color="#B61C21" stop-opacity="0.7"/>
</linearGradient>
<linearGradient id="paint12_linear" x1="0.0999613" y1="389.659" x2="1921.65" y2="389.659" gradientUnits="userSpaceOnUse">
<stop offset="0.109375" stop-color="#FDB913" stop-opacity="0.4"/>
<stop offset="0.255208" stop-color="#B61C21" stop-opacity="0.6"/>
<stop offset="0.666667" stop-color="#0E43B2"/>
<stop offset="0.833333" stop-color="#B61C21" stop-opacity="0.7"/>
</linearGradient>
<linearGradient id="paint13_linear" x1="0.0199442" y1="386.507" x2="1921.66" y2="386.507" gradientUnits="userSpaceOnUse">
<stop offset="0.109375" stop-color="#FDB913" stop-opacity="0.4"/>
<stop offset="0.255208" stop-color="#B61C21" stop-opacity="0.6"/>
<stop offset="0.666667" stop-color="#0E43B2"/>
<stop offset="0.833333" stop-color="#B61C21" stop-opacity="0.7"/>
</linearGradient>
<linearGradient id="paint14_linear" x1="-0.0600119" y1="383.403" x2="1921.66" y2="383.403" gradientUnits="userSpaceOnUse">
<stop offset="0.109375" stop-color="#FDB913" stop-opacity="0.4"/>
<stop offset="0.255208" stop-color="#B61C21" stop-opacity="0.6"/>
<stop offset="0.666667" stop-color="#0E43B2"/>
<stop offset="0.833333" stop-color="#B61C21" stop-opacity="0.7"/>
</linearGradient>
<linearGradient id="paint15_linear" x1="-0.150039" y1="380.326" x2="1921.65" y2="380.326" gradientUnits="userSpaceOnUse">
<stop offset="0.109375" stop-color="#FDB913" stop-opacity="0.4"/>
<stop offset="0.255208" stop-color="#B61C21" stop-opacity="0.6"/>
<stop offset="0.666667" stop-color="#0E43B2"/>
<stop offset="0.833333" stop-color="#B61C21" stop-opacity="0.7"/>
</linearGradient>
<linearGradient id="paint16_linear" x1="-0.230056" y1="377.278" x2="1921.65" y2="377.278" gradientUnits="userSpaceOnUse">
<stop offset="0.109375" stop-color="#FDB913" stop-opacity="0.4"/>
<stop offset="0.255208" stop-color="#B61C21" stop-opacity="0.6"/>
<stop offset="0.666667" stop-color="#0E43B2"/>
<stop offset="0.833333" stop-color="#B61C21" stop-opacity="0.7"/>
</linearGradient>
<linearGradient id="paint17_linear" x1="-0.310012" y1="374.273" x2="1921.66" y2="374.273" gradientUnits="userSpaceOnUse">
<stop offset="0.109375" stop-color="#FDB913" stop-opacity="0.4"/>
<stop offset="0.255208" stop-color="#B61C21" stop-opacity="0.6"/>
<stop offset="0.666667" stop-color="#0E43B2"/>
<stop offset="0.833333" stop-color="#B61C21" stop-opacity="0.7"/>
</linearGradient>
<linearGradient id="paint18_linear" x1="-0.400039" y1="371.287" x2="1921.65" y2="371.286" gradientUnits="userSpaceOnUse">
<stop offset="0.109375" stop-color="#FDB913" stop-opacity="0.4"/>
<stop offset="0.255208" stop-color="#B61C21" stop-opacity="0.6"/>
<stop offset="0.666667" stop-color="#0E43B2"/>
<stop offset="0.833333" stop-color="#B61C21" stop-opacity="0.7"/>
</linearGradient>
<linearGradient id="paint19_linear" x1="-0.480056" y1="368.342" x2="1921.65" y2="368.342" gradientUnits="userSpaceOnUse">
<stop offset="0.109375" stop-color="#FDB913" stop-opacity="0.4"/>
<stop offset="0.255208" stop-color="#B61C21" stop-opacity="0.6"/>
<stop offset="0.666667" stop-color="#0E43B2"/>
<stop offset="0.833333" stop-color="#B61C21" stop-opacity="0.7"/>
</linearGradient>
<linearGradient id="paint20_linear" x1="-0.570022" y1="365.448" x2="1921.65" y2="365.448" gradientUnits="userSpaceOnUse">
<stop offset="0.109375" stop-color="#FDB913" stop-opacity="0.4"/>
<stop offset="0.255208" stop-color="#B61C21" stop-opacity="0.6"/>
<stop offset="0.666667" stop-color="#0E43B2"/>
<stop offset="0.833333" stop-color="#B61C21" stop-opacity="0.7"/>
</linearGradient>
<linearGradient id="paint21_linear" x1="-0.650039" y1="362.503" x2="1921.65" y2="362.503" gradientUnits="userSpaceOnUse">
<stop offset="0.109375" stop-color="#FDB913" stop-opacity="0.4"/>
<stop offset="0.255208" stop-color="#B61C21" stop-opacity="0.6"/>
<stop offset="0.666667" stop-color="#0E43B2"/>
<stop offset="0.833333" stop-color="#B61C21" stop-opacity="0.7"/>
</linearGradient>
<clipPath id="clip0">
<rect x="-1" y="-36" width="1923" height="797" fill="white"/>
</clipPath>
</defs>
</svg>
