<svg width="18" height="22" viewBox="0 0 18 22" fill="none" xmlns="http://www.w3.org/2000/svg">
<path opacity="0.01" d="M18 9.5C18 5.36 14.64 2 10.5 2C6.36 2 3 5.36 3 9.5C3 16.34 10.5 21.69 10.5 21.69C10.5 21.69 18 16.25 18 9.5Z" fill="#D9ECFF"/>
<path opacity="0.6" d="M16 8.5C16 4.36 12.64 1 8.5 1C4.36 1 1 4.36 1 8.5C1 15.34 8.5 20.69 8.5 20.69C8.5 20.69 16 15.25 16 8.5Z" stroke="#092C75" stroke-width="1.6" stroke-miterlimit="10" stroke-linecap="round" stroke-linejoin="round"/>
<path d="M8.5 11.8398C10.433 11.8398 12 10.2728 12 8.33984C12 6.40685 10.433 4.83984 8.5 4.83984C6.567 4.83984 5 6.40685 5 8.33984C5 10.2728 6.567 11.8398 8.5 11.8398Z" stroke="#FA7832" stroke-miterlimit="10" stroke-linecap="round" stroke-linejoin="round"/>
</svg>
