<svg width="300" height="180" viewBox="0 0 300 180" fill="none" xmlns="http://www.w3.org/2000/svg">
<path d="M214.131 67.7235C213.816 66.509 213.731 65.2517 213.874 64.0229C213.974 63.0371 214.216 62.0655 214.617 61.1368C215.274 59.6223 216.274 58.2364 217.66 57.1648C218.046 56.8362 218.46 56.5504 218.917 56.2932C219.346 56.0361 219.789 55.836 220.232 55.6646C221.875 54.993 223.604 54.793 225.261 54.993C226.232 55.1073 227.161 55.3502 228.061 55.736C229.604 56.3932 231.005 57.4505 232.09 58.8507C232.391 59.2222 232.662 59.6223 232.905 60.0366C233.148 60.451 233.362 60.8939 233.519 61.3368C234.191 62.9799 234.405 64.723 234.191 66.3804C234.076 67.3663 233.805 68.3521 233.391 69.2523C232.733 70.7668 231.705 72.1384 230.347 73.21C229.976 73.51 229.576 73.7815 229.147 74.0387C228.69 74.2959 228.247 74.5245 227.761 74.6959C227.104 74.9531 226.447 75.1531 225.775 75.2674M225.718 83.7258C226.804 83.6258 227.876 83.44 228.947 83.14L234.377 90.1267L240.477 86.6119L237.134 78.4107C238.334 77.2249 239.363 75.8961 240.177 74.4387L248.993 75.5246L250.822 68.7093L242.649 65.2374C242.663 63.5943 242.463 61.9226 242.006 60.2938L248.993 54.8502L245.478 48.7493L237.263 52.064C236.077 50.8639 234.734 49.8494 233.305 49.035L234.391 40.2195L227.576 38.3906L224.104 46.5632C222.461 46.549 220.789 46.749 219.16 47.2062L213.716 40.2195L207.615 43.7343L210.93 51.9497C209.73 53.1356 208.701 54.493 207.887 55.9503L199.1 54.8359L197.285 61.6369L205.444 65.0802C205.429 65.9089 205.487 66.7519 205.587 67.5806L225.718 83.7258Z" stroke="#FA7832" stroke-miterlimit="10" stroke-linecap="round" stroke-linejoin="round"/>
<rect x="185" y="68" width="41" height="21" rx="8" fill="white"/>
<rect x="190" y="71" width="40" height="21" rx="7" fill="white"/>
<path d="M55.8649 86.4402H80.8685L80.1541 157.165H63.0088V165.737C63.0088 168.024 66.8188 170.976 68.7239 172.167H43.7202C41.5771 172.167 40.8627 171.453 40.8627 169.309V101.442L55.8649 86.4402Z" fill="white"/>
<path d="M269.639 107.958H241.706C239.649 107.958 237.977 109.63 237.977 111.687V142.691V155.379V160.937L237.849 160.094H230.405V151.25V135.348V78.1678C230.405 74.0529 227.076 70.7239 222.961 70.7239H188.17H97.8281H92.6416C88.5268 70.7239 85.1977 74.0529 85.1977 78.1678V160.094H68.7239V167.538C68.7239 171.653 72.0529 174.982 76.1678 174.982H240.006L239.935 174.51C240.463 174.796 241.063 174.982 241.706 174.982H269.639C271.696 174.982 273.368 173.31 273.368 171.253V111.673C273.368 109.63 271.696 107.958 269.639 107.958Z" fill="#EBF5FF"/>
<rect x="93.0132" y="45.0057" width="90.0131" height="38.577" rx="3" fill="white"/>
<rect x="93.0132" y="87.8695" width="90.0131" height="30.0044" rx="3" fill="white"/>
<rect x="93.0132" y="123.588" width="90.0131" height="18.5741" rx="3" fill="white"/>
<path opacity="0.5" d="M79.1398 116.359H55.0789C54.5266 116.359 54.0789 116.807 54.0789 117.359V119.088C54.0789 119.64 54.5266 120.088 55.0789 120.088H79.1398C79.6921 120.088 80.1398 119.64 80.1398 119.088V117.359C80.1398 116.807 79.6921 116.359 79.1398 116.359Z" fill="#FF9626"/>
<path opacity="0.5" d="M79.1398 125.675H55.0789C54.5266 125.675 54.0789 126.123 54.0789 126.675V128.404C54.0789 128.956 54.5266 129.404 55.0789 129.404H79.1398C79.6921 129.404 80.1398 128.956 80.1398 128.404V126.675C80.1398 126.123 79.6921 125.675 79.1398 125.675Z" fill="#FF9626"/>
<path opacity="0.5" d="M69.8384 134.976H55.0789C54.5266 134.976 54.0789 135.423 54.0789 135.976V137.705C54.0789 138.257 54.5266 138.705 55.0789 138.705H69.8384C70.3907 138.705 70.8384 138.257 70.8384 137.705V135.976C70.8384 135.423 70.3907 134.976 69.8384 134.976Z" fill="#FF9626"/>
<path d="M72.167 172.224H42.5913C41.5626 172.224 40.7339 171.395 40.7339 170.367V101.471L55.6218 86.5831H80.1968" stroke="#FA7832" stroke-miterlimit="10" stroke-linecap="round" stroke-linejoin="round"/>
<path d="M55.6218 86.5688V101.471H40.7196" stroke="#FA7832" stroke-miterlimit="10" stroke-linecap="round" stroke-linejoin="round"/>
<path d="M23.9314 78.5246C25.9042 78.5246 27.5034 76.9254 27.5034 74.9527C27.5034 72.98 25.9042 71.3807 23.9314 71.3807C21.9587 71.3807 20.3595 72.98 20.3595 74.9527C20.3595 76.9254 21.9587 78.5246 23.9314 78.5246Z" stroke="#FA7832" stroke-miterlimit="10" stroke-linecap="round" stroke-linejoin="round"/>
<path d="M6.57195 153.207C8.54468 153.207 10.1439 151.608 10.1439 149.635C10.1439 147.663 8.54468 146.063 6.57195 146.063C4.59922 146.063 3 147.663 3 149.635C3 151.608 4.59922 153.207 6.57195 153.207Z" stroke="#FA7832" stroke-miterlimit="10" stroke-linecap="round" stroke-linejoin="round"/>
<path d="M28.0609 74.9531H79.8256" stroke="#FA7832" stroke-miterlimit="10" stroke-linecap="round" stroke-linejoin="round"/>
<path d="M10.3295 149.635H40.4767" stroke="#FA7832" stroke-miterlimit="10" stroke-linecap="round" stroke-linejoin="round"/>
<path d="M69.9953 36.3473C71.968 36.3473 73.5672 34.7481 73.5672 32.7753C73.5672 30.8026 71.968 29.2034 69.9953 29.2034C68.0226 29.2034 66.4233 30.8026 66.4233 32.7753C66.4233 34.7481 68.0226 36.3473 69.9953 36.3473Z" stroke="#FA7832" stroke-miterlimit="10" stroke-linecap="round" stroke-linejoin="round"/>
<path d="M293.428 120.86C295.401 120.86 297 119.261 297 117.288C297 115.315 295.401 113.716 293.428 113.716C291.455 113.716 289.856 115.315 289.856 117.288C289.856 119.261 291.455 120.86 293.428 120.86Z" stroke="#FA7832" stroke-miterlimit="10" stroke-linecap="round" stroke-linejoin="round"/>
<path d="M123.617 12.1439C125.59 12.1439 127.189 10.5447 127.189 8.57195C127.189 6.59922 125.59 5 123.617 5C121.645 5 120.046 6.59922 120.046 8.57195C120.046 10.5447 121.645 12.1439 123.617 12.1439Z" stroke="#FA7832" stroke-miterlimit="10" stroke-linecap="round" stroke-linejoin="round"/>
<path d="M74.6675 32.8182H99.6997C103.815 32.8182 107.144 36.1473 107.144 40.2622V45.0772" stroke="#FA7832" stroke-miterlimit="10" stroke-linecap="round" stroke-linejoin="round"/>
<path d="M123.617 12.2583V45.0917" stroke="#FA7832" stroke-miterlimit="10" stroke-linecap="round" stroke-linejoin="round"/>
<path d="M268.525 142.434H286.013C290.128 142.434 293.457 139.105 293.457 134.99V120.946" stroke="#FA7832" stroke-miterlimit="10" stroke-linecap="round" stroke-linejoin="round"/>
<path d="M225.533 148.478V157.322H80.3114V75.3961C80.3114 71.2812 83.6405 67.9521 87.7553 67.9521H92.9418" stroke="#092C75" stroke-width="2" stroke-miterlimit="10" stroke-linecap="round" stroke-linejoin="round"/>
<path d="M183.283 67.9521H218.088C222.203 67.9521 225.532 71.2812 225.532 75.3961V132.562" stroke="#092C75" stroke-width="2" stroke-miterlimit="10" stroke-linecap="round" stroke-linejoin="round"/>
<path d="M179.854 82.8541H96.1992C94.6276 82.8541 93.3417 81.5682 93.3417 79.9966V48.4634C93.3417 46.8917 94.6276 45.6058 96.1992 45.6058H179.854C181.426 45.6058 182.712 46.8917 182.712 48.4634V79.9823C182.712 81.5682 181.426 82.8541 179.854 82.8541Z" stroke="#092C75" stroke-width="2" stroke-miterlimit="10" stroke-linecap="round" stroke-linejoin="round"/>
<path d="M232.819 139.92V108.915C232.819 106.858 234.491 105.186 236.548 105.186H264.481C266.539 105.186 268.21 106.858 268.21 108.915V168.495C268.21 170.553 266.539 172.224 264.481 172.224H236.548C234.491 172.224 232.819 170.553 232.819 168.495V152.607" stroke="#092C75" stroke-width="2" stroke-miterlimit="10" stroke-linecap="round" stroke-linejoin="round"/>
<path d="M170.896 118.231H97.0708C95.0133 118.231 93.3417 116.559 93.3417 114.502V92.1556C93.3417 90.0982 95.0133 88.4265 97.0708 88.4265H178.997" stroke="#092C75" stroke-width="2" stroke-miterlimit="10" stroke-linecap="round" stroke-linejoin="round"/>
<path d="M182.712 131.147V138.705C182.712 140.763 181.04 142.434 178.983 142.434H97.0708C95.0133 142.434 93.3417 140.763 93.3417 138.705V127.532C93.3417 125.475 95.0133 123.803 97.0708 123.803H173.996" stroke="#092C75" stroke-width="2" stroke-miterlimit="10" stroke-linecap="round" stroke-linejoin="round"/>
<path d="M234.848 172.224H70.9955C66.8806 172.224 63.5515 168.895 63.5515 164.78V157.337H232.705" stroke="#092C75" stroke-width="2" stroke-miterlimit="10" stroke-linecap="round" stroke-linejoin="round"/>
<path d="M159.366 54.9214H120.403C119.85 54.9214 119.403 55.3691 119.403 55.9214V57.6505C119.403 58.2028 119.85 58.6505 120.403 58.6505H159.366C159.918 58.6505 160.366 58.2028 160.366 57.6505V55.9214C160.366 55.3691 159.918 54.9214 159.366 54.9214Z" fill="#BADFFF"/>
<path d="M153.779 64.2373H120.403C119.85 64.2373 119.403 64.685 119.403 65.2373V66.9664C119.403 67.5187 119.85 67.9664 120.403 67.9664H153.779C154.331 67.9664 154.779 67.5187 154.779 66.9664V65.2373C154.779 64.685 154.331 64.2373 153.779 64.2373Z" fill="#BADFFF"/>
<path d="M164.952 95.8846H120.403C119.85 95.8846 119.403 96.3324 119.403 96.8846V98.6138C119.403 99.166 119.85 99.6138 120.403 99.6138H164.952C165.505 99.6138 165.952 99.166 165.952 98.6138V96.8846C165.952 96.3324 165.505 95.8846 164.952 95.8846Z" fill="#BADFFF"/>
<path d="M164.952 131.218H120.403C119.85 131.218 119.403 131.666 119.403 132.218V133.947C119.403 134.499 119.85 134.947 120.403 134.947H164.952C165.505 134.947 165.952 134.499 165.952 133.947V132.218C165.952 131.666 165.505 131.218 164.952 131.218Z" fill="#BADFFF"/>
<path d="M137.02 105.186H120.403C119.85 105.186 119.403 105.634 119.403 106.186V107.915C119.403 108.467 119.85 108.915 120.403 108.915H137.02C137.572 108.915 138.02 108.467 138.02 107.915V106.186C138.02 105.634 137.572 105.186 137.02 105.186Z" fill="#BADFFF"/>
<path opacity="0.5" d="M154.779 75.3959H119.403H154.779Z" stroke="#FF9626" stroke-miterlimit="10" stroke-linecap="round" stroke-linejoin="round"/>
<path d="M257.023 110.772H243.992H257.023Z" stroke="#FA7832" stroke-miterlimit="10" stroke-linecap="round" stroke-linejoin="round"/>
<path opacity="0.5" d="M106.372 60.508C107.95 60.508 109.23 59.2286 109.23 57.6504C109.23 56.0722 107.95 54.7928 106.372 54.7928C104.794 54.7928 103.514 56.0722 103.514 57.6504C103.514 59.2286 104.794 60.508 106.372 60.508Z" fill="#FF9626"/>
<path opacity="0.5" d="M106.372 103.329C107.95 103.329 109.23 102.049 109.23 100.471C109.23 98.8929 107.95 97.6135 106.372 97.6135C104.794 97.6135 103.514 98.8929 103.514 100.471C103.514 102.049 104.794 103.329 106.372 103.329Z" fill="#FF9626"/>
<path d="M209.459 129.303L214.459 134.304C214.221 135.019 213.888 136.59 214.459 137.162L229.462 152.164C230.176 152.878 231.605 153.593 232.319 152.878L237.32 147.878C238.034 147.163 238.034 145.734 237.32 145.02L222.318 130.018C221.175 128.875 219.936 129.065 219.46 129.303L214.459 124.303L209.459 129.303Z" fill="white"/>
<path d="M250.508 166.638C252.567 166.638 254.237 164.968 254.237 162.909C254.237 160.849 252.567 159.18 250.508 159.18C248.448 159.18 246.778 160.849 246.778 162.909C246.778 164.968 248.448 166.638 250.508 166.638Z" stroke="#FA7832" stroke-miterlimit="10" stroke-linecap="round" stroke-linejoin="round"/>
<path d="M214.631 134.876L209.53 129.79" stroke="#092C75" stroke-width="2" stroke-miterlimit="10" stroke-linecap="round" stroke-linejoin="round"/>
<circle cx="194.456" cy="109.301" r="24.2893" fill="white"/>
<path d="M214.631 124.703L219.717 129.79" stroke="#092C75" stroke-width="2" stroke-miterlimit="10" stroke-linecap="round" stroke-linejoin="round"/>
<path d="M237.791 147.335L232.176 152.95C231.619 153.507 230.719 153.507 230.162 152.95L214.359 137.162C213.802 136.605 213.802 135.705 214.359 135.148L219.974 129.532C220.532 128.975 221.432 128.975 221.989 129.532L237.777 145.32C238.349 145.878 238.349 146.778 237.791 147.335Z" stroke="#092C75" stroke-width="2" stroke-miterlimit="10" stroke-linecap="round" stroke-linejoin="round"/>
<path d="M194.628 134.047C208.54 134.047 219.817 122.77 219.817 108.858C219.817 94.9463 208.54 83.6686 194.628 83.6686C180.716 83.6686 169.439 94.9463 169.439 108.858C169.439 122.77 180.716 134.047 194.628 134.047Z" stroke="#092C75" stroke-width="2" stroke-miterlimit="10" stroke-linecap="round" stroke-linejoin="round"/>
<path opacity="0.5" d="M181.912 96.1278C174.882 103.157 174.882 114.545 181.912 121.574" stroke="#FF9626" stroke-miterlimit="10" stroke-linecap="round" stroke-linejoin="round"/>
</svg>
