<svg width="1920" height="2189" viewBox="0 0 1920 2189" fill="none" xmlns="http://www.w3.org/2000/svg">
<g opacity="0.4">
<path d="M2944.13 306.415C2506.4 342.395 2140.39 823.704 1186.92 999.888C228.718 1176.94 -395.562 1343.14 -631.931 1657.31C-817.993 1904.61 -831.045 2023.84 -974.181 2095.16" stroke="url(#paint0_linear)" stroke-width="2" stroke-linecap="round" stroke-linejoin="round" stroke-dasharray="0.01 10"/>
<path d="M2938.44 292.545C2623.92 328.499 2352.8 576.092 1899.66 784.09C1708.11 872.017 1483.92 953.195 1209.91 1007.06C1018.01 1044.77 838.216 1079.66 673.253 1113.71C34.4743 1245.53 -410.858 1381.03 -600.511 1633.04C-714.651 1784.7 -768.463 1901.47 -839.096 1978.79C-883.836 2027.77 -921.974 2060.51 -977.948 2084.98" stroke="url(#paint1_linear)" stroke-width="2" stroke-linecap="round" stroke-linejoin="round" stroke-dasharray="0.01 10"/>
<path d="M2932.78 278.675C2614.22 325.055 2345.94 571.405 1913.68 780.824C1724.17 872.638 1503.71 957.775 1232.93 1014.2C1040.73 1054.25 859.505 1089.07 694.042 1121.3C74.5073 1242.01 -378.822 1356.07 -569.054 1608.75C-685.19 1762.99 -742.313 1893.22 -831.931 1975.05C-885.742 2024.19 -926.541 2054.17 -981.731 2074.83" stroke="url(#paint2_linear)" stroke-width="2" stroke-linecap="round" stroke-linejoin="round" stroke-dasharray="0.01 10"/>
<path d="M2927.11 264.814C2604.5 321.618 2338.8 567.451 1927.66 777.574C1739.83 873.566 1523.38 962.429 1255.89 1021.37C1063.36 1063.79 880.809 1098.51 714.769 1128.92C114.491 1238.86 -346.847 1331.12 -537.654 1584.49C-655.766 1741.3 -715.022 1884.49 -824.82 1971.36C-886.847 2020.42 -931.149 2047.9 -985.686 2064.79" stroke="url(#paint3_linear)" stroke-width="2" stroke-linecap="round" stroke-linejoin="round" stroke-dasharray="0.01 10"/>
<path d="M2921.5 250.953C2594.8 318.182 2331.55 564.223 1941.64 774.333C1755.18 874.81 1543.01 967.158 1278.88 1028.54C1085.93 1073.38 902.159 1108.01 735.495 1136.54C154.435 1236.04 -314.874 1306.18 -506.238 1560.21C-626.344 1719.61 -686.633 1875.49 -817.719 1967.64C-887.313 2016.56 -935.779 2041.64 -989.737 2054.76" stroke="url(#paint4_linear)" stroke-width="2" stroke-linecap="round" stroke-linejoin="round" stroke-dasharray="0.01 10"/>
<path d="M2915.93 237.083C2585.13 314.737 2324.37 561.654 1955.66 771.075C1770.37 876.32 1562.61 971.938 1301.89 1035.7C1108.48 1082.99 923.551 1117.55 756.267 1144.15C194.366 1233.54 -282.857 1281.22 -474.797 1535.94C-596.878 1697.9 -657.392 1866.44 -810.567 1963.93C-887.282 2012.74 -940.395 2035.42 -993.874 2044.75" stroke="url(#paint5_linear)" stroke-width="2" stroke-linecap="round" stroke-linejoin="round" stroke-dasharray="0.01 10"/>
<path d="M2910.38 223.205C2575.5 311.275 2317.4 559.67 1969.64 767.825C1785.38 878.114 1582.1 976.8 1324.87 1042.86C1130.98 1092.65 944.935 1127.13 777.014 1151.77C234.165 1231.39 -250.862 1256.27 -443.356 1511.66C-567.434 1676.21 -627.588 1857.54 -803.419 1960.2C-886.999 2009.01 -945.06 2029.2 -998.068 2034.71" stroke="url(#paint6_linear)" stroke-width="2" stroke-linecap="round" stroke-linejoin="round" stroke-dasharray="0.01 10"/>
<path d="M2904.87 209.319C2565.87 307.822 2310.8 558.197 1983.64 764.576C1800.43 880.142 1601.57 981.729 1347.88 1050.02C1153.45 1102.36 966.327 1136.8 797.764 1159.39C273.858 1229.57 -218.865 1231.33 -411.936 1487.39C-537.987 1654.52 -597.434 1848.84 -796.31 1956.51C-886.64 2005.4 -949.833 2023.01 -1002.34 2024.68" stroke="url(#paint7_linear)" stroke-width="2" stroke-linecap="round" stroke-linejoin="round" stroke-dasharray="0.01 10"/>
<path d="M2899.41 195.417C2556.28 304.353 2304.68 557.133 1997.64 761.327C1815.6 882.386 1620.99 986.725 1370.87 1057.19C1175.87 1112.12 987.677 1146.54 818.514 1167.01C313.375 1228.11 -186.87 1206.38 -380.517 1463.12C-508.564 1632.83 -567.103 1840.42 -789.183 1952.79C-886.238 2001.91 -954.637 2016.8 -1006.63 2014.58" stroke="url(#paint8_linear)" stroke-width="2" stroke-linecap="round" stroke-linejoin="round" stroke-dasharray="0.01 10"/>
<path d="M2893.99 181.49C2546.71 300.867 2299.16 556.364 2011.64 758.069C1831.02 884.782 1640.36 991.787 1393.87 1064.34C1198.3 1121.91 1009.01 1156.36 839.258 1174.61C352.719 1226.94 -154.875 1181.43 -349.079 1438.84C-479.103 1611.12 -536.696 1832.24 -782.035 1949.07C-885.869 1998.51 -959.474 2010.57 -1010.89 2004.45" stroke="url(#paint9_linear)" stroke-width="2" stroke-linecap="round" stroke-linejoin="round" stroke-dasharray="0.01 10"/>
<path d="M2888.6 167.546C2537.18 297.364 2294.28 555.814 2025.64 754.811C1846.78 887.304 1659.73 996.907 1416.86 1071.5C1220.68 1131.74 1030.28 1166.26 860.006 1182.22C391.857 1226.1 -122.883 1156.47 -317.662 1414.56C-449.679 1589.43 -506.351 1824.33 -774.932 1945.35C-885.58 1995.22 -964.366 2004.32 -1015.18 1994.28" stroke="url(#paint10_linear)" stroke-width="2" stroke-linecap="round" stroke-linejoin="round" stroke-dasharray="0.01 10"/>
<path d="M2883.24 153.594C2527.67 293.862 2290.1 555.375 2039.64 751.562C1863.01 889.92 1679.09 1002.09 1439.86 1078.66C1243.06 1141.65 1051.47 1176.28 880.776 1189.83C430.801 1225.57 -90.8861 1131.53 -286.222 1390.28C-420.215 1567.72 -476.082 1816.66 -767.782 1941.64C-885.332 1992.01 -969.239 1998.06 -1019.38 1984.07" stroke="url(#paint11_linear)" stroke-width="2" stroke-linecap="round" stroke-linejoin="round" stroke-dasharray="0.01 10"/>
<path d="M2877.92 139.608C2518.16 290.342 2286.66 554.946 2053.62 748.32C1879.8 892.553 1698.42 1007.36 1462.83 1085.84C1265.41 1151.6 1072.55 1186.42 901.485 1197.47C469.396 1225.37 -58.9331 1106.59 -254.823 1366.02C-390.813 1546.04 -455.165 1795.51 -760.676 1937.93C-881.574 1994.3 -974.031 1992 -1023.62 1973.85" stroke="url(#paint12_linear)" stroke-width="2" stroke-linecap="round" stroke-linejoin="round" stroke-dasharray="0.01 10"/>
<path d="M2872.61 125.606C2508.69 286.798 2283.94 554.469 2067.63 745.071C1897.29 895.165 1717.77 1012.66 1485.84 1093C1287.81 1161.59 1093.54 1196.66 922.254 1205.07C507.796 1225.42 -26.9166 1081.63 -223.382 1341.75C-361.344 1524.35 -422.838 1788.7 -753.545 1934.23C-882.463 1990.96 -978.973 1985.69 -1027.8 1963.6" stroke="url(#paint13_linear)" stroke-width="2" stroke-linecap="round" stroke-linejoin="round" stroke-dasharray="0.01 10"/>
<path d="M2867.31 111.579C2499.22 283.254 2281.95 553.846 2081.6 741.813C1915.46 897.686 1737.13 1018 1508.8 1100.16C1310.16 1171.62 1114.32 1207.05 942.976 1212.68C545.828 1225.75 5.05374 1056.68 -191.969 1317.46C-331.927 1502.64 -391.016 1782.39 -746.422 1930.5C-883.265 1987.53 -983.903 1979.35 -1031.96 1953.3" stroke="url(#paint14_linear)" stroke-width="2" stroke-linecap="round" stroke-linejoin="round" stroke-dasharray="0.01 10"/>
<path d="M2862.04 97.5437C2489.76 279.693 2280.71 553.024 2095.62 738.555C1934.47 900.077 1756.56 1023.39 1531.83 1107.31C1332.63 1181.69 1135.04 1217.57 963.747 1220.3C583.6 1226.35 37.0722 1031.73 -160.529 1293.18C-302.463 1480.94 -356.337 1787.8 -739.275 1926.78C-885.215 1979.75 -988.865 1972.86 -1036.07 1942.99" stroke="url(#paint15_linear)" stroke-width="2" stroke-linecap="round" stroke-linejoin="round" stroke-dasharray="0.01 10"/>
<path d="M2856.78 83.4752C2480.31 276.132 2280.12 551.962 2109.6 735.314C1954.3 902.304 1774.56 1025.22 1554.81 1114.48C1356.37 1195.07 1155.51 1228.26 984.498 1227.92C621.012 1227.19 69.0673 1006.78 -129.105 1268.92C-273.036 1459.26 -326.74 1780.93 -732.162 1923.09C-885.365 1976.81 -993.783 1966.55 -1040.22 1932.71" stroke="url(#paint16_linear)" stroke-width="2" stroke-linecap="round" stroke-linejoin="round" stroke-dasharray="0.01 10"/>
<path d="M2851.51 69.4064C2470.85 272.563 2280.18 550.602 2123.6 732.056C1974.97 904.308 1794.08 1031.33 1577.8 1121.64C1378.88 1204.69 1175.75 1239.11 1005.24 1235.52C658.05 1228.24 101.059 981.82 -97.6713 1244.63C-243.575 1437.54 -297.241 1774.12 -725.021 1919.35C-885.566 1973.87 -998.674 1960.18 -1044.3 1922.36" stroke="url(#paint17_linear)" stroke-width="2" stroke-linecap="round" stroke-linejoin="round" stroke-dasharray="0.01 10"/>
<path d="M2846.26 55.3133C2461.41 268.978 2280.82 548.928 2137.6 728.799C1996.46 906.057 1815.06 1039.77 1600.8 1128.79C1400.16 1212.15 1195.76 1250.11 1025.99 1243.13C694.714 1229.52 133.052 956.869 -66.2562 1220.35C-214.156 1415.85 -267.852 1767.4 -717.895 1915.64C-885.828 1970.95 -1003.58 1953.83 -1048.37 1912.02" stroke="url(#paint18_linear)" stroke-width="2" stroke-linecap="round" stroke-linejoin="round" stroke-dasharray="0.01 10"/>
<path d="M2841.01 41.2108C2451.96 265.383 2282 546.903 2151.6 725.549C2018.76 907.532 1834.71 1045.27 1623.79 1135.96C1422.8 1222.38 1215.5 1261.31 1046.74 1250.75C731 1230.99 165.052 931.927 -34.8317 1196.09C-184.708 1394.16 -238.572 1760.76 -710.784 1911.94C-886.144 1968.08 -1008.49 1947.49 -1052.46 1901.7" stroke="url(#paint19_linear)" stroke-width="2" stroke-linecap="round" stroke-linejoin="round" stroke-dasharray="0.01 10"/>
<path d="M2835.78 27.0922C2442.5 261.797 2283.67 544.523 2165.61 722.3C2041.82 908.719 1854.43 1050.79 1646.8 1143.12C1445.53 1232.62 1234.96 1272.7 1067.49 1258.37C766.87 1232.64 197.046 906.976 -3.39148 1171.82C-155.261 1372.47 -209.353 1754.16 -703.634 1908.23C-886.461 1965.21 -1013.38 1941.13 -1056.49 1891.35" stroke="url(#paint20_linear)" stroke-width="2" stroke-linecap="round" stroke-linejoin="round" stroke-dasharray="0.01 10"/>
<path d="M2830.54 12.9569C2433.05 258.195 2285.73 541.793 2179.61 719.042C1953.09 1097.37 1422.33 1302.86 1088.24 1265.98C802.313 1234.42 229.04 882.025 28.0248 1147.54C-125.82 1350.76 -180.257 1747.61 -696.51 1904.5C-886.848 1962.35 -1018.27 1934.76 -1060.56 1880.98" stroke="url(#paint21_linear)" stroke-width="2" stroke-linecap="round" stroke-linejoin="round" stroke-dasharray="0.01 10"/>
</g>
<defs>
<linearGradient id="paint0_linear" x1="876.765" y1="927.798" x2="1025.32" y2="1302.57" gradientUnits="userSpaceOnUse">
<stop offset="0.182292" stop-color="#6DB9FC"/>
<stop offset="0.854167" stop-color="#FC6D6D"/>
</linearGradient>
<linearGradient id="paint1_linear" x1="876.933" y1="928.129" x2="1021.36" y2="1292.47" gradientUnits="userSpaceOnUse">
<stop offset="0.182292" stop-color="#6DB9FC"/>
<stop offset="0.854167" stop-color="#FC6D6D"/>
</linearGradient>
<linearGradient id="paint2_linear" x1="876.577" y1="927.142" x2="1017.42" y2="1282.46" gradientUnits="userSpaceOnUse">
<stop offset="0.182292" stop-color="#6DB9FC"/>
<stop offset="0.854167" stop-color="#FC6D6D"/>
</linearGradient>
<linearGradient id="paint3_linear" x1="875.659" y1="925.006" x2="1013.75" y2="1273.37" gradientUnits="userSpaceOnUse">
<stop offset="0.182292" stop-color="#6DB9FC"/>
<stop offset="0.854167" stop-color="#FC6D6D"/>
</linearGradient>
<linearGradient id="paint4_linear" x1="874.302" y1="921.828" x2="1010.52" y2="1265.47" gradientUnits="userSpaceOnUse">
<stop offset="0.182292" stop-color="#6DB9FC"/>
<stop offset="0.854167" stop-color="#FC6D6D"/>
</linearGradient>
<linearGradient id="paint5_linear" x1="872.568" y1="917.757" x2="1007.79" y2="1258.88" gradientUnits="userSpaceOnUse">
<stop offset="0.182292" stop-color="#6DB9FC"/>
<stop offset="0.854167" stop-color="#FC6D6D"/>
</linearGradient>
<linearGradient id="paint6_linear" x1="870.516" y1="912.914" x2="1005.56" y2="1253.59" gradientUnits="userSpaceOnUse">
<stop offset="0.182292" stop-color="#6DB9FC"/>
<stop offset="0.854167" stop-color="#FC6D6D"/>
</linearGradient>
<linearGradient id="paint7_linear" x1="868.195" y1="907.426" x2="1003.8" y2="1249.53" gradientUnits="userSpaceOnUse">
<stop offset="0.182292" stop-color="#6DB9FC"/>
<stop offset="0.854167" stop-color="#FC6D6D"/>
</linearGradient>
<linearGradient id="paint8_linear" x1="865.673" y1="901.368" x2="1002.47" y2="1246.48" gradientUnits="userSpaceOnUse">
<stop offset="0.182292" stop-color="#6DB9FC"/>
<stop offset="0.854167" stop-color="#FC6D6D"/>
</linearGradient>
<linearGradient id="paint9_linear" x1="863.002" y1="894.811" x2="1001.49" y2="1244.19" gradientUnits="userSpaceOnUse">
<stop offset="0.182292" stop-color="#6DB9FC"/>
<stop offset="0.854167" stop-color="#FC6D6D"/>
</linearGradient>
<linearGradient id="paint10_linear" x1="860.18" y1="887.845" x2="1000.88" y2="1242.79" gradientUnits="userSpaceOnUse">
<stop offset="0.182292" stop-color="#6DB9FC"/>
<stop offset="0.854167" stop-color="#FC6D6D"/>
</linearGradient>
<linearGradient id="paint11_linear" x1="857.288" y1="880.519" x2="1005.8" y2="1255.19" gradientUnits="userSpaceOnUse">
<stop offset="0.182292" stop-color="#6DB9FC"/>
<stop offset="0.854167" stop-color="#FC6D6D"/>
</linearGradient>
<linearGradient id="paint12_linear" x1="854.276" y1="872.891" x2="1010.87" y2="1267.93" gradientUnits="userSpaceOnUse">
<stop offset="0.182292" stop-color="#6DB9FC"/>
<stop offset="0.854167" stop-color="#FC6D6D"/>
</linearGradient>
<linearGradient id="paint13_linear" x1="851.204" y1="864.988" x2="1016.09" y2="1280.96" gradientUnits="userSpaceOnUse">
<stop offset="0.182292" stop-color="#6DB9FC"/>
<stop offset="0.854167" stop-color="#FC6D6D"/>
</linearGradient>
<linearGradient id="paint14_linear" x1="848.069" y1="856.835" x2="1021.45" y2="1294.24" gradientUnits="userSpaceOnUse">
<stop offset="0.182292" stop-color="#6DB9FC"/>
<stop offset="0.854167" stop-color="#FC6D6D"/>
</linearGradient>
<linearGradient id="paint15_linear" x1="844.894" y1="848.491" x2="1026.95" y2="1307.78" gradientUnits="userSpaceOnUse">
<stop offset="0.182292" stop-color="#6DB9FC"/>
<stop offset="0.854167" stop-color="#FC6D6D"/>
</linearGradient>
<linearGradient id="paint16_linear" x1="841.641" y1="839.98" x2="1032.54" y2="1321.56" gradientUnits="userSpaceOnUse">
<stop offset="0.182292" stop-color="#6DB9FC"/>
<stop offset="0.854167" stop-color="#FC6D6D"/>
</linearGradient>
<linearGradient id="paint17_linear" x1="838.363" y1="831.283" x2="1038.33" y2="1335.74" gradientUnits="userSpaceOnUse">
<stop offset="0.182292" stop-color="#6DB9FC"/>
<stop offset="0.854167" stop-color="#FC6D6D"/>
</linearGradient>
<linearGradient id="paint18_linear" x1="835.044" y1="822.456" x2="1044.05" y2="1349.72" gradientUnits="userSpaceOnUse">
<stop offset="0.182292" stop-color="#6DB9FC"/>
<stop offset="0.854167" stop-color="#FC6D6D"/>
</linearGradient>
<linearGradient id="paint19_linear" x1="831.675" y1="813.527" x2="1049.93" y2="1364.12" gradientUnits="userSpaceOnUse">
<stop offset="0.182292" stop-color="#6DB9FC"/>
<stop offset="0.854167" stop-color="#FC6D6D"/>
</linearGradient>
<linearGradient id="paint20_linear" x1="828.3" y1="804.467" x2="1055.92" y2="1378.68" gradientUnits="userSpaceOnUse">
<stop offset="0.182292" stop-color="#6DB9FC"/>
<stop offset="0.854167" stop-color="#FC6D6D"/>
</linearGradient>
<linearGradient id="paint21_linear" x1="824.875" y1="795.309" x2="1061.96" y2="1393.41" gradientUnits="userSpaceOnUse">
<stop offset="0.182292" stop-color="#6DB9FC"/>
<stop offset="0.854167" stop-color="#FC6D6D"/>
</linearGradient>
</defs>
</svg>
