<svg width="64" height="64" viewBox="0 0 64 64" fill="none" xmlns="http://www.w3.org/2000/svg">
<path d="M57 9H13C10.79 9 9 10.79 9 13V45C9 47.21 10.79 49 13 49H30V57H24C22.34 57 21 58.34 21 60H49C49 58.34 47.66 57 46 57H40V49H57C59.21 49 61 47.21 61 45V13C61 10.79 59.21 9 57 9Z" fill="#EBF5FF"/>
<rect x="7" y="8" width="49" height="32" fill="white"/>
<path d="M31 22H27V40H31V22Z" stroke="#FA7832" stroke-miterlimit="10" stroke-linecap="round" stroke-linejoin="round"/>
<path d="M35 22H31V40H35V22Z" stroke="#FA7832" stroke-miterlimit="10" stroke-linecap="round" stroke-linejoin="round"/>
<path d="M35 22H27L31 12L35 22Z" stroke="#FA7832" stroke-miterlimit="10" stroke-linecap="round" stroke-linejoin="round"/>
<path d="M15.5 40V25" stroke="#FA7832" stroke-miterlimit="10" stroke-linecap="round" stroke-linejoin="round"/>
<path d="M19.5 25V40" stroke="#FA7832" stroke-miterlimit="10" stroke-linecap="round" stroke-linejoin="round"/>
<path d="M22 20.9199C22 18.4299 17.5 12.4199 17.5 12.4199C17.5 12.4199 13 18.4299 13 20.9199C13 23.4099 15.01 25.4199 17.5 25.4199C19.99 25.4199 22 23.4099 22 20.9199Z" stroke="#FA7832" stroke-miterlimit="10" stroke-linecap="round" stroke-linejoin="round"/>
<path d="M49 11H41V40H49V11Z" stroke="#FA7832" stroke-miterlimit="10" stroke-linecap="round" stroke-linejoin="round"/>
<path d="M45.5 16H48.5" stroke="#FA7832" stroke-miterlimit="10" stroke-linecap="round" stroke-linejoin="round"/>
<path d="M45.5 21H48.5" stroke="#FA7832" stroke-miterlimit="10" stroke-linecap="round" stroke-linejoin="round"/>
<path d="M45.5 26H48.5" stroke="#FA7832" stroke-miterlimit="10" stroke-linecap="round" stroke-linejoin="round"/>
<path d="M45.5 31H48.5" stroke="#FA7832" stroke-miterlimit="10" stroke-linecap="round" stroke-linejoin="round"/>
<path d="M45.5 36H48.5" stroke="#FA7832" stroke-miterlimit="10" stroke-linecap="round" stroke-linejoin="round"/>
<path d="M53 46H9C6.79 46 5 44.21 5 42V10C5 7.79 6.79 6 9 6H53C55.21 6 57 7.79 57 10V42C57 44.21 55.21 46 53 46Z" stroke="#092C75" stroke-width="1.6" stroke-miterlimit="10" stroke-linecap="round" stroke-linejoin="round"/>
<path d="M36 46H26V54H36V46Z" stroke="#092C75" stroke-width="1.6" stroke-miterlimit="10" stroke-linecap="round" stroke-linejoin="round"/>
<path d="M45 57H17C17 55.34 18.34 54 20 54H42C43.66 54 45 55.34 45 57Z" stroke="#092C75" stroke-width="1.6" stroke-miterlimit="10" stroke-linecap="round" stroke-linejoin="round"/>
<path d="M5 40H57" stroke="#092C75" stroke-width="1.6" stroke-miterlimit="10" stroke-linecap="round" stroke-linejoin="round"/>
</svg>
