<svg width="64" height="64" viewBox="0 0 64 64" fill="none" xmlns="http://www.w3.org/2000/svg">
<path d="M28.3326 55.5869C29.9626 57.518 31.8834 60.1552 32.2987 62.9999C35.6522 62.9999 55.0465 62.9999 55.0465 62.9999C55.0465 62.9999 51.0804 52.0257 52.8143 46.2427C54.5482 40.4597 60.7361 34.4587 60.7361 24.4085C60.7361 14.3583 50.5717 6.63379 38.2893 6.63379C30.2637 6.63379 19.2895 8.16 15.6349 20.8577C14.0048 26.1424 13.5999 26.8484 14.5136 28.0735C15.4376 29.2882 16.4551 29.8904 14.825 32.4341C13.195 34.9778 10.153 39.2346 10.153 39.951C10.153 42.3908 13.8076 42.4947 13.8076 43.3045C13.8076 44.1143 12.8939 45.9416 12.8939 46.5542C12.8939 47.1668 14.2125 47.8728 14.2125 47.8728C14.2125 47.8728 13.5065 48.4853 13.5065 49.5962C13.5065 50.7175 15.8425 50.7175 15.8425 51.5274C15.8425 52.3372 14.5447 55.4208 16.0502 57.2169C17.213 58.6082 22.9233 57.0197 27.8134 55.2962L28.3326 55.5869Z" fill="#EBF5FF"/>
<path d="M24.1796 51.9531C25.8097 53.8842 27.7304 56.5214 28.1457 59.3662C31.4992 59.3662 50.8936 59.3662 50.8936 59.3662C50.8936 59.3662 46.9275 48.3919 48.6614 42.6089C50.3952 36.8259 56.5831 30.8249 56.5831 20.7747C56.5831 10.7245 46.4188 3 34.1364 3C26.1107 3 15.1365 4.52622 11.4819 17.2239C9.85188 22.5086 9.44696 23.2146 10.3606 24.4397C11.2847 25.6544 12.3021 26.2566 10.6721 28.8003C9.04205 31.344 6 35.6008 6 36.3172C6 38.757 9.65461 38.8609 9.65461 39.6707C9.65461 40.4805 8.74096 42.3078 8.74096 42.9204C8.74096 43.533 10.0595 44.239 10.0595 44.239C10.0595 44.239 9.35352 44.8515 9.35352 45.9624C9.35352 47.0838 11.6896 47.0838 11.6896 47.8936C11.6896 48.7034 10.3918 51.787 11.8972 53.5831C13.9322 56.023 29.8796 49.316 30.9905 48.8072C32.1118 48.2985 32.8178 47.0837 33.1189 45.8586" stroke="#092C75" stroke-width="1.6" stroke-miterlimit="10" stroke-linecap="round" stroke-linejoin="round"/>
<path d="M49.4193 23.7102V20.4352L45.3386 19.8633C45.1393 19.1009 44.836 18.3818 44.4462 17.7233L46.9327 14.4223L44.6108 12.1004L41.3098 14.5869C40.6513 14.1971 39.9322 13.8938 39.1698 13.6945L38.5979 9.61377H35.3229L34.7511 13.6945C33.9887 13.8938 33.2609 14.1971 32.5937 14.5956L29.3101 12.1004L26.9968 14.4223L29.4834 17.706C29.0848 18.3731 28.7816 19.1009 28.5823 19.872L24.5015 20.4352V23.7102L28.5823 24.2733C28.7816 25.0444 29.0848 25.7722 29.4834 26.4394L26.9968 29.723L29.3101 32.045L32.5937 29.5497C33.2609 29.9483 33.9887 30.2515 34.7598 30.4508L35.3229 34.5316H38.5979L39.1611 30.4508C39.9235 30.2515 40.6426 29.957 41.3098 29.5584L44.6108 32.045L46.9327 29.723L44.4462 26.422C44.836 25.7636 45.1393 25.0444 45.3386 24.282L49.4193 23.7102ZM41.6737 22.7398C41.561 23.5542 41.2405 24.308 40.7726 24.9318C40.4954 25.3044 40.1575 25.6336 39.7849 25.9022C39.1698 26.3614 38.4333 26.6733 37.6362 26.7859C37.4196 26.8206 37.1944 26.8379 36.9604 26.8379C36.7178 26.8379 36.4839 26.8206 36.25 26.7773C35.4615 26.6646 34.7424 26.3614 34.1359 25.9022C33.7461 25.6249 33.4082 25.287 33.1309 24.8972C32.6804 24.2907 32.3685 23.5716 32.2558 22.7918C32.2125 22.5579 32.1952 22.3153 32.1952 22.0727C32.1952 21.8301 32.2125 21.5875 32.2558 21.3536C32.3685 20.5738 32.6804 19.8547 33.1309 19.2482C33.3995 18.8756 33.7287 18.5377 34.1013 18.2605C34.7164 17.8013 35.4442 17.4807 36.25 17.3681C36.4839 17.3248 36.7178 17.3074 36.9604 17.3074C37.1944 17.3074 37.4196 17.3248 37.6362 17.3594C38.4506 17.4721 39.1958 17.7926 39.8196 18.2605C40.1835 18.5291 40.504 18.8496 40.7726 19.2135C41.2405 19.8373 41.561 20.5911 41.6737 21.4055C41.7083 21.6221 41.7257 21.8474 41.7257 22.0727C41.7257 22.2979 41.7083 22.5232 41.6737 22.7398Z" fill="white" stroke="#FA7832" stroke-miterlimit="10" stroke-linecap="round" stroke-linejoin="round"/>
</svg>
