<svg width="24" height="28" viewBox="0 0 24 28" fill="none" xmlns="http://www.w3.org/2000/svg">
<path d="M4.64803 19H0.610025C0.506005 19.0044 0.402643 18.9815 0.310197 18.9336C0.217751 18.8857 0.139437 18.8145 0.0830259 18.727C0.0290381 18.6337 0.000610352 18.5278 0.000610352 18.42C0.000610352 18.3122 0.0290381 18.2063 0.0830259 18.113L4.37603 10.59C4.38003 10.578 4.38003 10.574 4.37603 10.566L1.64603 5.867C1.52803 5.648 1.51303 5.426 1.62203 5.254C1.72403 5.086 1.92703 5 2.16903 5H6.20803C6.82903 5 7.13403 5.398 7.33303 5.754L10.11 10.566C9.94603 10.852 5.75103 18.223 5.75103 18.223C5.54403 18.593 5.25103 19 4.64903 19H4.64803Z" fill="white"/>
<path d="M23.914 0.883L14.973 16.688C14.969 16.699 14.969 16.707 14.973 16.715L20.664 27.117C20.777 27.344 20.781 27.57 20.676 27.742C20.57 27.906 20.383 28 20.141 28H16.105C15.488 28 15.18 27.59 14.98 27.23C14.98 27.23 9.25398 16.73 9.23798 16.703C9.52798 16.199 18.223 0.77 18.223 0.77C18.441 0.383 18.703 0 19.305 0H23.387C23.629 0 23.82 0.0900004 23.922 0.258C24.027 0.43 24.023 0.656 23.914 0.883Z" fill="#CDDC39"/>
</svg>
